<svg width="32" height="32" viewBox="0 0 32 32" fill="none" xmlns="http://www.w3.org/2000/svg">
<path d="M27.1431 8.43177C25.8525 7.10265 24.295 6.40002 22.65 6.40002C19.7152 6.40002 17.1856 8.71177 16.0044 12.035C15.4794 10.6044 14.7881 9.40565 13.8431 8.43177C12.5525 7.10265 10.995 6.40002 9.35 6.40002C5.29787 6.40002 2 10.7969 2 16.2C2 21.6031 5.29787 26 9.35 26C12.29 26 14.8275 23.6804 16 20.3475C17.1725 23.6419 19.71 26 22.65 26C26.7012 26 30 21.6031 30 16.2C30 13.1288 28.9588 10.2981 27.1431 8.43177ZM3.4 17.6C3.4 16.442 4.34194 15.5 5.5 15.5C6.65806 15.5 7.6 16.4406 7.6 17.6C7.6 18.7594 6.65806 19.7 5.5 19.7C4.34194 19.7 3.4 18.7594 3.4 17.6ZM9.35 24.6C7.31081 24.6 5.50962 23.1436 4.43687 20.9303C4.77287 21.0388 5.129 21.1 5.5 21.1C7.42937 21.1 9 19.5294 9 17.6C9 15.6706 7.42937 14.1 5.5 14.1C4.6845 14.1 4.00638 14.3914 3.48313 14.8604C3.93944 10.8625 6.3925 7.80002 9.35 7.80002C10.6091 7.80002 11.8166 8.35652 12.8391 9.40784C14.3419 10.9544 15.3 13.5313 15.3 16.2C15.3 20.8331 12.6312 24.6 9.35 24.6ZM16.7 17.6C16.7 16.442 17.6419 15.5 18.8 15.5C19.9581 15.5 20.9 16.442 20.9 17.6C20.9 18.7581 19.9581 19.7 18.8 19.7C17.6419 19.7 16.7 18.7594 16.7 17.6ZM22.65 24.6C20.606 24.6 18.8004 23.137 17.7281 20.915C18.0694 21.0256 18.4237 21.1 18.8 21.1C20.7307 21.1 22.3 19.5303 22.3 17.6C22.3 15.6698 20.7294 14.1 18.8 14.1C18.0536 14.1 17.365 14.3385 16.7963 14.7379C17.2906 10.8013 19.7231 7.80002 22.65 7.80002C23.9091 7.80002 25.1166 8.35652 26.1391 9.40784C27.6419 10.9544 28.6 13.5313 28.6 16.2C28.6 20.8331 25.9312 24.6 22.65 24.6Z" fill="black"/>
</svg>
