<svg width="32" height="32" viewBox="0 0 32 32" fill="none" xmlns="http://www.w3.org/2000/svg">
<g clip-path="url(#clip0_53_720)">
<path d="M18.1148 21.2773C19.9644 18.7059 20.2723 15.7102 18.8526 12.9703C18.627 12.541 18.1006 12.3737 17.6719 12.5957C17.2426 12.8194 17.0752 13.3477 17.2973 13.7764C18.5956 16.2838 18.0596 18.9854 15.8666 21.2497H11.1799C7.21563 21.2497 3.99399 24.479 3.99946 28.4465C4.00165 29.3051 4.71149 29.9997 5.57227 29.9997H23.4277C24.2885 29.9997 24.9978 29.3057 25 28.4449C25.0104 24.5801 21.937 21.4356 18.1143 21.277L18.1148 21.2773ZM5.75055 28.25C5.85282 25.3242 8.24594 23 11.1788 23H17.8234C20.7563 23 23.1488 25.3242 23.2516 28.25H5.75055ZM20.3734 3.75C19.5323 3.75 18.7328 3.88672 17.9738 4.0918C16.4852 2.79953 14.418 2 12.1266 2C8.01079 2 4.60704 4.58398 4.01094 7.95547C3.97266 8.2125 4.04758 8.48594 4.21875 8.68828C4.39649 8.89063 4.64958 9.00547 4.91591 9H8.93599C7.17188 11.7289 7.01438 15.043 8.64844 17.3727C9.03836 17.9359 9.71977 17.7828 10.0315 17.4766L16.7581 10.75H27.5862C27.8525 10.7568 28.1057 10.6406 28.2834 10.4355C28.4543 10.2373 28.5295 9.96387 28.4885 9.70383C27.8924 6.33398 24.4909 3.75 20.3729 3.75H20.3734ZM16.0313 9L9.59454 15.4422C8.63586 12.9375 9.84063 9.27891 12.8977 7.55625C13.2805 7.33258 13.4445 6.86719 13.275 6.45977C13.0727 5.97852 12.493 5.76742 12.0445 6.03211C11.4594 6.37609 10.9125 6.78297 10.4148 7.25H6.04422C6.94 5.19922 9.36704 3.75 12.1309 3.75C13.922 3.75 15.5905 4.33789 16.8275 5.41141L17.5248 6.01297C18.1094 5.86258 19.2469 5.5 20.3734 5.5C23.1357 5.5 25.5622 6.94922 26.4602 9H16.0313Z" fill="black"/>
</g>
<defs>
<clipPath id="clip0_53_720">
<rect width="24.5" height="28" fill="white" transform="translate(4 2)"/>
</clipPath>
</defs>
</svg>
