<svg width="32" height="32" viewBox="0 0 32 32" fill="none" xmlns="http://www.w3.org/2000/svg">
<path d="M27.9391 3.67688C26.5563 2.25281 24.8875 1.5 23.125 1.5C19.9806 1.5 17.2703 3.97688 16.0047 7.5375C15.4422 6.00469 14.7016 4.72031 13.6891 3.67688C12.3063 2.25281 10.6375 1.5 8.875 1.5C4.53344 1.5 1 6.21094 1 12C1 17.7891 4.53344 22.5 8.875 22.5C12.025 22.5 14.7438 20.0147 16 16.4437C17.2562 19.9734 19.975 22.5 23.125 22.5C27.4656 22.5 31 17.7891 31 12C31 8.70938 29.8844 5.67656 27.9391 3.67688ZM2.5 13.5C2.5 12.2592 3.50922 11.25 4.75 11.25C5.99078 11.25 7 12.2578 7 13.5C7 14.7422 5.99078 15.75 4.75 15.75C3.50922 15.75 2.5 14.7422 2.5 13.5ZM8.875 21C6.69016 21 4.76031 19.4395 3.61094 17.0681C3.97094 17.1844 4.3525 17.25 4.75 17.25C6.81719 17.25 8.5 15.5672 8.5 13.5C8.5 11.4328 6.81719 9.75 4.75 9.75C3.87625 9.75 3.14969 10.0622 2.58906 10.5647C3.07797 6.28125 5.70625 3 8.875 3C10.2241 3 11.5178 3.59625 12.6133 4.72266C14.2234 6.37969 15.25 9.14062 15.25 12C15.25 16.9641 12.3906 21 8.875 21ZM16.75 13.5C16.75 12.2592 17.7592 11.25 19 11.25C20.2408 11.25 21.25 12.2592 21.25 13.5C21.25 14.7408 20.2408 15.75 19 15.75C17.7592 15.75 16.75 14.7422 16.75 13.5ZM23.125 21C20.935 21 19.0005 19.4325 17.8516 17.0517C18.2172 17.1703 18.5969 17.25 19 17.25C21.0686 17.25 22.75 15.5681 22.75 13.5C22.75 11.4319 21.0672 9.75 19 9.75C18.2003 9.75 17.4625 10.0055 16.8531 10.4334C17.3828 6.21562 19.9891 3 23.125 3C24.4741 3 25.7678 3.59625 26.8633 4.72266C28.4734 6.37969 29.5 9.14062 29.5 12C29.5 16.9641 26.6406 21 23.125 21Z" fill="black"/>
</svg>
