<svg width="32" height="32" viewBox="0 0 32 32" fill="none" xmlns="http://www.w3.org/2000/svg">
<g clip-path="url(#clip0_10_1168)">
<path d="M30 29.9985V28.3579H25.2533V8.97357C25.2533 7.36817 24.7076 5.888 23.7924 4.70817C25.1169 4.51999 26.1389 3.3791 26.1389 2.00343H24.4983C24.4983 2.60549 24.0084 3.09532 23.4064 3.09532H22.5906C22.4109 3.09532 22.2327 3.10178 22.0562 3.11441C20.9675 2.41058 19.6713 2.00146 18.2813 2.00146H13.7179C12.3278 2.00146 11.0316 2.41058 9.94298 3.11441C9.76645 3.10178 9.58827 3.09532 9.40857 3.09532H8.5928C7.99074 3.09532 7.50091 2.60549 7.50091 2.00343H5.86028C5.86028 3.3791 6.88228 4.51999 8.20681 4.70817C7.29151 5.888 6.74578 7.36817 6.74578 8.97357V17.0175C6.74578 20.4849 8.09602 23.7447 10.5478 26.1965C11.4075 27.0562 12.3668 27.7798 13.3993 28.3579H2V29.9985H30ZM23.6127 24.5981C22.4124 24.2434 21.5338 23.1316 21.5338 21.8179V20.3884H19.8932V21.8179C19.8932 24.0409 21.4999 25.8947 23.6127 26.282V28.3064C20.4088 27.9018 17.9229 25.1597 17.9229 21.8477V17.2046C20.2465 16.9365 22.2806 15.7037 23.6127 13.9178V24.5981ZM13.7179 3.64209H18.2812C18.6949 3.64209 19.0978 3.68945 19.4846 3.77908C17.9853 4.47405 16.7552 5.65497 15.9996 7.11939C15.2439 5.65497 14.0138 4.47405 12.5145 3.77908C12.9014 3.68945 13.3042 3.64209 13.7179 3.64209ZM10.3815 4.81836C13.1018 5.28222 15.1793 7.65621 15.1793 10.5066V12.4118H16.8199V10.5066C16.8199 7.65621 18.8973 5.28222 21.6176 4.81836C22.8332 5.79639 23.6127 7.29554 23.6127 8.97357C23.6127 12.6382 20.6314 15.6195 16.9668 15.6195H15.0324C11.3677 15.6195 8.38641 12.6381 8.38641 8.97357C8.38641 7.29554 9.16592 5.79639 10.3815 4.81836ZM8.38641 17.0175V13.9178C9.89841 15.945 12.3147 17.2601 15.0324 17.2601H16.2822V21.8477C16.2822 24.5035 17.5591 26.8663 19.5311 28.3554C13.3679 28.2505 8.38641 23.2052 8.38641 17.0175Z" fill="black"/>
<path d="M20.0874 11.1493C20.885 11.1493 21.5338 10.5005 21.5338 9.7029C21.5338 8.90534 20.885 8.25647 20.0874 8.25647C19.2898 8.25647 18.641 8.90534 18.641 9.7029C18.641 10.5005 19.2898 11.1493 20.0874 11.1493Z" fill="black"/>
<path d="M11.9117 11.1493C12.7093 11.1493 13.3582 10.5005 13.3582 9.7029C13.3582 8.90534 12.7093 8.25647 11.9117 8.25647C11.1142 8.25647 10.4653 8.90534 10.4653 9.7029C10.4653 10.5005 11.1142 11.1493 11.9117 11.1493Z" fill="black"/>
</g>
<defs>
<clipPath id="clip0_10_1168">
<rect width="28" height="28" fill="white" transform="translate(2 2)"/>
</clipPath>
</defs>
</svg>
