<svg width="32" height="32" viewBox="0 0 32 32" fill="none" xmlns="http://www.w3.org/2000/svg">
<g id="b_bear_&#203;&#136;b&#201;&#155;r">
<g id="Bear 1">
<g id="Group">
<g id="g1">
<path id="path2" d="M29.3222 12.0019C29.3221 13.3442 28.5803 14.5766 27.3942 15.2048L25.899 15.9967C25.4726 16.2225 24.9621 16.2225 24.5357 15.9967L23.0406 15.2048C21.8544 14.5766 21.1126 13.3442 21.1125 12.0019V11.9504C21.1125 9.67302 22.9672 7.8288 25.2485 7.8457C27.5118 7.86249 29.3222 9.73853 29.3222 12.0019Z" stroke="black" stroke-width="1.36718" stroke-linecap="round" stroke-linejoin="round"/>
<path id="path3" d="M24.7283 13.3583L25.0291 13.7521C25.1239 13.8762 25.3107 13.8762 25.4055 13.7521L25.7063 13.3583C25.8254 13.2024 25.7143 12.9777 25.5182 12.9777H24.9164C24.7203 12.9777 24.6092 13.2024 24.7283 13.3583Z" fill="black" stroke="black" stroke-width="1.36718" stroke-linecap="round" stroke-linejoin="round"/>
<path id="path4" d="M28.3761 9.33126C28.9908 9.20548 29.4532 8.66161 29.4532 8.00974C29.4532 7.26468 28.8492 6.66077 28.1042 6.66077C27.3592 6.66077 26.7552 7.26468 26.7552 8.00974" stroke="black" stroke-width="1.36718" stroke-linecap="round" stroke-linejoin="round"/>
<path id="path5" d="M22.0115 9.33126C21.3968 9.20548 20.9344 8.66161 20.9344 8.00974C20.9344 7.26468 21.5384 6.66077 22.2834 6.66077C23.0284 6.66077 23.6323 7.26468 23.6323 8.00974" stroke="black" stroke-width="1.36718" stroke-linecap="round" stroke-linejoin="round"/>
<path id="path6" d="M16.7615 16.5168C15.7422 17.8985 15.1923 19.5704 15.1923 21.2873V25.644C15.1923 26.5802 15.9513 27.3393 16.8876 27.3393H20.3329C20.3329 26.101 19.329 24.769 18.0907 24.769L18.6842 23.97C20.1454 22.003 20.9344 19.6178 20.9344 17.1675" stroke="black" stroke-width="1.36718" stroke-linecap="round" stroke-linejoin="round"/>
<path id="path7" d="M20.3752 27.3392H23.8205C23.8205 26.1009 22.8167 24.7689 21.5784 24.7689L22.1934 23.9718C24.0418 21.5761 25.3737 18.8234 26.1053 15.8873" stroke="black" stroke-width="1.36718" stroke-linecap="round" stroke-linejoin="round"/>
<path id="path8" d="M8.94531 21.3236H15.0293" stroke="black" stroke-width="1.36718" stroke-linecap="round" stroke-linejoin="round"/>
<path id="path9" d="M16.6016 7.86718L9.23213 7.8457C5.53997 7.8457 2.54688 10.8388 2.54688 14.531C2.54688 16.819 2.93384 19.0906 3.69137 21.2495L5.39702 26.1105C5.65527 26.8466 6.35026 27.3393 7.13033 27.3393H10.6042C10.6042 26.1009 9.60028 24.769 8.362 24.769V19.2638" stroke="black" stroke-width="1.36718" stroke-linecap="round" stroke-linejoin="round"/>
<path id="path10" d="M20.9345 7.8457H16.2462" stroke="black" stroke-width="1.36718" stroke-linecap="round" stroke-linejoin="round"/>
<path id="path11" d="M10.0391 27.3392H14.4376C14.4376 26.1009 13.4337 24.7689 12.1954 24.7689V21.3236" stroke="black" stroke-width="1.36718" stroke-linecap="round" stroke-linejoin="round"/>
</g>
</g>
<circle id="Ellipse 1" cx="23.5" cy="11.5" r="0.55" fill="black" stroke="black" stroke-width="0.1"/>
<circle id="Ellipse 2" cx="26.5" cy="11.5" r="0.55" fill="black" stroke="black" stroke-width="0.1"/>
</g>
</g>
</svg>
