<svg width="32" height="32" viewBox="0 0 32 32" fill="none" xmlns="http://www.w3.org/2000/svg">
<g clip-path="url(#clip0_47_262)">
<path d="M23.7778 9.62291C22.4312 9.62291 21.0867 10.0823 19.8534 10.7278C19.8646 10.6632 19.8889 10.5562 19.8889 10.4007C19.8889 9.40902 19.5078 8.51263 18.8972 7.82576L20.4095 6.31347C20.6832 6.0393 20.7498 5.5984 20.5233 5.28437C20.2345 4.88386 19.6726 4.85027 19.3386 5.18467L17.6377 6.88557C17.137 6.6955 16.5877 6.51175 15.9995 6.51175C15.4113 6.51175 14.862 6.6955 14.3613 6.92884L12.6891 5.25666C12.4169 4.9825 11.9745 4.9159 11.6585 5.14243C11.2599 5.43069 11.2259 5.99263 11.5613 6.32659L13.1023 7.86659C12.4898 8.55347 12.1106 9.4518 12.1106 10.3997C12.1106 10.511 12.134 10.6175 12.1432 10.7264C10.9094 10.127 9.56777 9.62145 8.22125 9.62145C4.78638 9.62145 1.99902 12.1006 1.99902 15.0659C1.99902 17.5431 3.89729 19.6174 6.48632 20.2721C6.97194 20.4374 7.44347 20.0631 7.44347 19.5624C7.44347 19.2046 7.19458 18.9028 6.84895 18.8143C4.94486 18.3277 3.55458 16.8548 3.55458 15.0659C3.55458 12.9659 5.6468 11.2208 8.1775 11.2208C9.8784 11.2208 11.7164 12.2056 13.2525 13.3353C10.8185 14.3844 9.11229 16.8018 9.11326 19.6208C9.15458 24.7541 15.999 29.8874 15.999 29.8874C15.999 29.8874 22.8435 24.7541 22.8435 19.6208C22.844 16.8018 21.1387 14.3853 18.7047 13.3353C20.2428 12.2076 22.0754 11.2208 23.7768 11.2208C26.3483 11.2208 28.4435 12.9644 28.4435 15.1116C28.4435 16.8562 27.0537 18.3267 25.1491 18.8153C24.8025 18.9062 24.5546 19.2076 24.5546 19.5624C24.5546 20.0631 25.0261 20.4345 25.5117 20.312C28.0594 19.6596 29.999 17.5451 29.999 15.1096C29.999 12.1055 27.2136 9.66472 23.7768 9.62145L23.7778 9.62291ZM18.3333 10.4444C18.3333 11.7312 17.2877 12.7773 16.0015 12.7773C14.7152 12.7773 13.6667 11.7326 13.6667 10.4444C13.6667 9.15625 14.7118 8.11111 16 8.11111C17.2882 8.11111 18.3333 9.1577 18.3333 10.4444ZM13.3799 25.2222C12.9657 24.7288 12.5812 24.2038 12.2244 23.6667H19.7785C19.4217 24.2038 19.0372 24.7288 18.6231 25.2222H13.3799ZM11.3382 22.1111C11.1 21.5919 10.9294 21.0723 10.8273 20.5556H21.1717C21.0692 21.0723 20.8985 21.5919 20.6608 22.1111H11.3382ZM21.2306 19H10.7694C10.8326 18.4575 10.9673 17.9349 11.1894 17.4444H20.8047C21.0308 17.9354 21.162 18.4556 21.2301 19H21.2306ZM14.8187 26.7778H17.1774C16.7681 27.1861 16.3597 27.5701 16 27.8812C15.6403 27.5701 15.2319 27.1861 14.8187 26.7778ZM19.7431 15.884H12.2132C12.2151 15.8816 12.2108 15.886 12.2132 15.884C13.2535 14.8875 14.5854 14.3333 15.9951 14.3333C17.4049 14.3333 18.7465 14.8875 19.7431 15.884C19.7479 15.8451 19.6993 15.884 19.7431 15.884Z" fill="black"/>
</g>
<defs>
<clipPath id="clip0_47_262">
<rect width="28" height="24.8889" fill="white" transform="translate(2 5)"/>
</clipPath>
</defs>
</svg>
