<svg width="32" height="34" viewBox="0 0 32 34" fill="none" xmlns="http://www.w3.org/2000/svg">
<path d="M25.0469 20.875C24.3771 20.875 23.9236 21.5564 24.1826 22.174L27.3227 29.674C27.4727 30.0332 27.8242 30.25 28.1875 30.25C28.3082 30.25 28.4307 30.226 28.5496 30.1768C29.0271 29.977 29.251 29.4279 29.0512 28.9498L25.9117 21.5025C25.767 21.1035 25.4271 20.875 25.0463 20.875H25.0469ZM2.94824 28.9492C2.74844 29.4268 2.97168 29.9764 3.4498 30.1762C3.56816 30.2266 3.69168 30.25 3.81191 30.25C4.17813 30.25 4.52617 30.0338 4.67617 29.6746L7.81387 22.1753C8.07168 21.5542 7.62051 20.8745 6.95254 20.8745C6.57402 20.8745 6.23301 21.103 6.08711 21.4487L2.94766 28.9487L2.94824 28.9492ZM30.0625 17.125H24.0977L20.9594 9.625H26.3125C26.8281 9.625 27.25 9.20547 27.25 8.6875C27.25 8.16953 26.8281 7.75 26.3125 7.75H5.6875C5.16953 7.75 4.75 8.16953 4.75 8.6875C4.75 9.20547 5.16953 9.625 5.6875 9.625H11.0377L7.90234 17.125H1.9375C1.41953 17.125 1 17.5469 1 18.0625C1 18.5781 1.41953 19 1.9375 19H30.0625C30.5781 19 31 18.5781 31 18.0625C31 17.5469 30.5781 17.125 30.0625 17.125ZM9.92969 17.125L13.0691 9.625H18.9285L22.068 17.125H9.92969Z" fill="black"/>
</svg>
