<svg width="32" height="32" viewBox="0 0 32 32" fill="none" xmlns="http://www.w3.org/2000/svg">
<g clip-path="url(#clip0_47_263)">
<path d="M23.7194 20.0743C23.7977 19.8842 23.7977 19.6703 23.7194 19.4803C23.6796 19.3845 23.6222 19.298 23.5503 19.226L20.4401 16.1159C20.1363 15.8121 19.6439 15.8121 19.3406 16.1159C19.0372 16.4197 19.0367 16.9122 19.3406 17.2155L21.1231 18.9997H10.8759L12.6594 17.2161C12.9633 16.9123 12.9633 16.4199 12.6594 16.1165C12.3556 15.8132 11.8632 15.8127 11.5599 16.1165L8.45021 19.2281C8.37729 19.2962 8.31896 19.3837 8.28007 19.4809C8.20132 19.671 8.20132 19.8844 8.28007 20.0749C8.31896 20.1712 8.37729 20.2587 8.45021 20.3267L11.5603 23.4369C11.712 23.5885 11.9113 23.6663 12.1106 23.6663C12.3099 23.6663 12.5083 23.59 12.6604 23.4383C12.9642 23.1345 12.9642 22.6421 12.6604 22.3388L10.8759 20.5547H21.1231L19.3396 22.3383C19.0358 22.6421 19.0358 23.1345 19.3396 23.4379C19.4898 23.5881 19.6891 23.6658 19.8884 23.6658C20.0877 23.6658 20.286 23.5895 20.4382 23.4379L23.5483 20.3277C23.6217 20.2577 23.6363 20.1702 23.719 20.073L23.7194 20.0743ZM6.66666 11.2222C8.38653 11.2222 9.77778 9.83097 9.77778 8.11111C9.77778 6.39125 8.3875 5 6.66666 5C4.94583 5 3.55555 6.39125 3.55555 8.11111C3.55555 9.83097 4.94729 11.2222 6.66666 11.2222ZM6.66666 6.55556C7.52416 6.55556 8.22222 7.25361 8.22222 8.11111C8.22222 8.96861 7.52222 9.66667 6.66666 9.66667C5.81111 9.66667 5.11111 8.96861 5.11111 8.11111C5.11111 7.25361 5.80916 6.55556 6.66666 6.55556ZM9 23.6667C8.57222 23.6667 8.22222 24.0167 8.22222 24.4444V29.1111C8.22222 29.5389 8.57222 29.8889 9 29.8889C9.42778 29.8889 9.77778 29.5389 9.77778 29.1111V24.4444C9.77778 24.0167 9.42778 23.6667 9 23.6667ZM8.69861 15.5146C8.91736 15.8743 9.38403 15.9958 9.74861 15.7819C10.1205 15.5666 10.2483 15.0917 10.0325 14.7193C9.34008 13.5215 8.0516 12.7778 6.66618 12.7778H5.8884C3.74076 12.7778 1.99951 14.5181 1.99951 16.6667V20.5556C1.99951 21.4145 2.69611 22.1111 3.51132 22.1111L3.55507 29.1111C3.55507 29.5389 3.90312 29.8889 4.33285 29.8889C4.76257 29.8889 5.11062 29.5389 5.11062 29.1111V21.3333C5.11062 20.9056 4.76257 20.5556 4.33285 20.5556H3.55507V16.6667C3.55507 15.378 4.59972 14.3771 5.8884 14.3771H6.82514C7.62382 14.3333 8.28007 14.8292 8.69812 15.5146H8.69861ZM25.3333 11.2222C27.0532 11.2222 28.4444 9.83097 28.4444 8.11111C28.4444 6.39125 27.0532 5 25.3333 5C23.6135 5 22.2222 6.39125 22.2222 8.11111C22.2222 9.83097 23.6125 11.2222 25.3333 11.2222ZM25.3333 6.55556C26.1908 6.55556 26.8889 7.25361 26.8889 8.11111C26.8889 8.96861 26.1908 9.66667 25.3333 9.66667C24.4758 9.66667 23.7778 8.96861 23.7778 8.11111C23.7778 7.25361 24.4778 6.55556 25.3333 6.55556ZM23 23.6667C22.5698 23.6667 22.2222 24.0142 22.2222 24.4444V29.1111C22.2222 29.5408 22.5698 29.8889 23 29.8889C23.4297 29.8889 23.7778 29.5408 23.7778 29.1111V24.4444C23.7778 24.0167 23.4278 23.6667 23 23.6667ZM26.1111 12.7778H25.3333C23.9494 12.7778 22.6583 13.522 21.9656 14.7208C21.7497 15.0926 21.8771 15.5685 22.2494 15.7834C22.6135 15.9978 23.0836 15.8758 23.3033 15.5136C23.7165 14.8306 24.3733 14.3333 25.1715 14.3333L26.1106 14.3328C27.3988 14.3328 28.444 15.378 28.444 16.6662V20.5551H27.6662C27.2365 20.5551 26.8884 20.9031 26.8884 21.3328V29.1106C26.8884 29.5403 27.236 29.8884 27.6662 29.8884C28.0959 29.8884 28.444 29.5403 28.444 29.1106V22.1106C29.3029 22.1106 29.9995 21.414 29.9995 20.5551V16.6662C29.9995 14.5176 28.2592 12.7773 26.1106 12.7773L26.1111 12.7778Z" fill="black"/>
</g>
<defs>
<clipPath id="clip0_47_263">
<rect width="28" height="24.8889" fill="white" transform="translate(2 5)"/>
</clipPath>
</defs>
</svg>
