<svg width="32" height="32" viewBox="0 0 32 32" fill="none" xmlns="http://www.w3.org/2000/svg">
<g id="d - dog - &#203;&#136;d&#201;&#148;&#201;&#161;">
<g id="dog 1" clip-path="url(#clip0_3_41)">
<path id="Vector" d="M22.6666 8.83333C22.6666 8.375 23.0416 8 23.4999 8C23.9583 8 24.3333 8.375 24.3333 8.83333C24.3333 9.29167 23.9583 9.66667 23.4999 9.66667C23.0416 9.66667 22.6666 9.29167 22.6666 8.83333ZM3.37596 11.2969C3.83951 11.8385 4.52336 12.1667 5.26919 12.1667H16.9739L18.2864 4.29219C18.4062 3.54635 19.052 3 19.8124 3C20.2968 3 20.7551 3.22917 21.0468 3.61875L21.8333 4.66667H24.1301C24.7916 4.66667 25.4322 4.93021 25.901 5.39896L26.8333 6.33333H28.4999C29.8801 6.33333 30.9999 7.4526 30.9999 8.83333V9.66667C30.9999 12.4271 28.7603 14.6667 25.9999 14.6667H23.776L23.4999 16.2865V26.75C23.4999 28.3594 22.1926 29.6667 20.5833 29.6667H19.7499C18.1405 29.6667 16.8333 28.3594 16.8333 26.75V22.5469C16.2968 22.7187 15.7395 22.8437 15.1666 22.9167C14.7551 22.974 14.3385 23 13.9166 23C13.4947 23 13.078 22.974 12.6666 22.9167C12.0468 22.8437 11.5364 22.7187 10.9999 22.5469V26.75C10.9999 28.3594 9.69263 29.6667 8.08326 29.6667H7.24992C5.63898 29.6667 4.33326 28.3594 4.33326 26.75V13.8333C4.33326 13.7969 4.3343 13.7604 4.33638 13.6823C4.2994 13.7188 4.26242 13.7083 4.22596 13.7031C2.7744 13.3281 1.60357 12.1823 1.22695 10.6771L1.02388 9.86979C0.911901 9.42187 1.18326 8.96875 1.63013 8.85937C2.07648 8.74479 2.52909 9.01562 2.64055 9.46354L2.84263 10.2708C2.86086 10.3438 2.88221 10.4167 2.90617 10.4844C3.01138 10.7917 3.1718 11.0625 3.37492 11.2969H3.37596ZM18.4999 20.2656V26.75C18.4999 27.4427 19.0572 28 19.7499 28H20.5833C21.276 28 21.8333 27.4427 21.8333 26.75V16.6406L17.026 13.8333H5.99992V26.75C5.99992 27.4427 6.55721 28 7.24992 28H8.08326C8.77596 28 9.33326 27.4427 9.33326 26.75V20.2656L11.5051 20.9583C12.2655 21.2031 13.0728 21.3333 13.9166 21.3333C14.7603 21.3333 15.5676 21.2031 16.328 20.9583L18.4999 20.2656ZM22.3645 13H25.9999C27.8385 13 29.3333 11.5052 29.3333 9.66667V8.83333C29.3333 8.375 28.9583 8 28.4999 8H26.1405L24.7187 6.5776C24.5624 6.42135 24.3541 6.33333 24.1301 6.33333H20.9999L19.8801 4.84323L18.5572 12.7969L22.0572 14.8385L22.3645 13Z" fill="black"/>
</g>
</g>
<defs>
<clipPath id="clip0_3_41">
<rect width="30" height="26.6667" fill="white" transform="translate(1 3)"/>
</clipPath>
</defs>
</svg>
