<svg width="32" height="32" viewBox="0 0 32 32" fill="none" xmlns="http://www.w3.org/2000/svg">
<g clip-path="url(#clip0_47_249)">
<path d="M14.8334 6.55558C14.8334 5.91149 15.3535 5.38892 16 5.38892C16.6466 5.38892 17.1667 5.91149 17.1667 6.55558C17.1667 7.19968 16.6466 7.72225 16 7.72225C15.3535 7.72225 14.8334 7.19968 14.8334 6.55558ZM21.4979 24.4979C18.4646 27.5361 13.5354 27.5361 10.5021 24.4979C7.46392 21.4646 7.46392 16.5354 10.5021 13.5021C13.5354 10.4639 18.4646 10.4639 21.4979 13.5021C24.5361 16.5354 24.5361 21.4646 21.4979 24.4979ZM15.4507 19.5493C15.1445 19.2479 15.1445 18.7521 15.4507 18.4507L19.816 14.0854C17.3757 12.1847 13.8417 12.3549 11.6007 14.6007C9.17017 17.0313 9.17017 20.9688 11.6007 23.3993C14.0313 25.8299 17.9688 25.8299 20.3993 23.3993C22.6452 21.1584 22.8153 17.6243 20.9146 15.1841L16.5493 19.5493C16.2479 19.8556 15.7521 19.8556 15.4507 19.5493ZM29.6111 19C29.6111 19.6466 29.091 20.1667 28.4445 20.1667C27.7979 20.1667 27.2778 19.6466 27.2778 19C27.2778 18.3535 27.7979 17.8334 28.4445 17.8334C29.091 17.8334 29.6111 18.3535 29.6111 19ZM2.38892 19C2.38892 18.3535 2.91149 17.8334 3.55558 17.8334C4.19968 17.8334 4.72225 18.3535 4.72225 19C4.72225 19.6466 4.19968 20.1667 3.55558 20.1667C2.91149 20.1667 2.38892 19.6466 2.38892 19ZM7.83336 9.66669C7.83336 10.3132 7.31322 10.8334 6.66669 10.8334C6.0226 10.8334 5.50003 10.3132 5.50003 9.66669C5.50003 9.0226 6.0226 8.50003 6.66669 8.50003C7.31322 8.50003 7.83336 9.0226 7.83336 9.66669ZM24.1667 9.66669C24.1667 9.0226 24.6868 8.50003 25.3334 8.50003C25.9799 8.50003 26.5 9.0226 26.5 9.66669C26.5 10.3132 25.9799 10.8334 25.3334 10.8334C24.6868 10.8334 24.1667 10.3132 24.1667 9.66669ZM7.83336 28.3334C7.83336 28.9799 7.31322 29.5 6.66669 29.5C6.0226 29.5 5.50003 28.9799 5.50003 28.3334C5.50003 27.6868 6.0226 27.1667 6.66669 27.1667C7.31322 27.1667 7.83336 27.6868 7.83336 28.3334ZM24.1667 28.3334C24.1667 27.6868 24.6868 27.1667 25.3334 27.1667C25.9799 27.1667 26.5 27.6868 26.5 28.3334C26.5 28.9799 25.9799 29.5 25.3334 29.5C24.6868 29.5 24.1667 28.9799 24.1667 28.3334Z" fill="black"/>
</g>
<defs>
<clipPath id="clip0_47_249">
<rect width="28" height="24.8889" fill="white" transform="translate(2 5)"/>
</clipPath>
</defs>
</svg>
