<svg width="32" height="32" viewBox="0 0 32 32" fill="none" xmlns="http://www.w3.org/2000/svg">
<g clip-path="url(#clip0_47_178)">
<path d="M15.375 9.4375C15.375 10.1648 14.7898 10.75 14.0625 10.75C13.3351 10.75 12.75 10.1648 12.75 9.4375C12.75 8.71016 13.3351 8.125 14.0625 8.125C14.7898 8.125 15.375 8.71016 15.375 9.4375ZM17.125 9.4375C17.125 8.71016 17.7101 8.125 18.4375 8.125C19.1648 8.125 19.75 8.71016 19.75 9.4375C19.75 10.1648 19.1648 10.75 18.4375 10.75C17.7101 10.75 17.125 10.1648 17.125 9.4375ZM18.875 17.75H13.625C12.1757 17.75 11 16.5742 11 15.125V14.2172C9.38887 12.8883 8.37496 11.0727 8.37496 9C8.37496 5.13414 11.9023 2 16.25 2C20.5976 2 24.125 5.13414 24.125 9C24.125 11.0727 23.1132 12.8883 21.5 14.2172V15.125C21.5 16.5742 20.3242 17.75 18.875 17.75ZM22.375 9C22.375 6.28859 19.832 3.75 16.25 3.75C12.6679 3.75 10.125 6.28859 10.125 9C10.125 10.4273 10.8414 11.8547 12.0882 12.85L12.75 13.3258V15.0758C12.75 15.6063 13.1437 15.9508 13.625 15.9508H18.875C19.3562 15.9508 19.75 15.6063 19.75 15.0758V13.3258L20.4117 12.85C21.6586 11.8547 22.375 10.4273 22.375 9ZM27.9914 19.418L18.339 23.875L27.9914 28.332C28.4289 28.5344 28.6203 29.0539 28.4179 29.4914C28.2156 29.9289 27.6961 30.1203 27.2586 29.918L16.25 24.8375L5.24137 29.918C4.80277 30.1203 4.2827 29.9289 4.08035 29.4914C3.87746 29.0539 4.06887 28.5344 4.50801 28.332L14.1606 23.875L4.50801 19.418C4.06887 19.2156 3.87746 18.6961 4.07981 18.2586C4.28215 17.8211 4.80206 17.6297 5.24066 17.832L16.2493 22.9125L27.2578 17.832C27.6953 17.6297 28.2149 17.8211 28.4172 18.2586C28.6196 18.6961 28.4282 19.2156 27.9907 19.418H27.9914Z" fill="black"/>
</g>
<defs>
<clipPath id="clip0_47_178">
<rect width="24.5" height="28" fill="white" transform="translate(4 2)"/>
</clipPath>
</defs>
</svg>
