<svg width="32" height="32" viewBox="0 0 32 32" fill="none" xmlns="http://www.w3.org/2000/svg">
<g clip-path="url(#clip0_53_530)">
<path d="M4.8 8.7C4.8 8.31325 5.11325 8 5.5 8H8.3C8.62813 8 8.90813 8.22619 8.9825 8.54469L9.175 9.4H28.5038C29.3919 9.4 30.1006 10.2859 29.8513 11.1789L27.4888 19.5806C27.3181 20.1844 26.7669 20.6 26.1413 20.6H11.7213L12.36 23.4H26.5C26.885 23.4 27.2 23.715 27.2 24.1C27.2 24.485 26.885 24.8 26.5 24.8H11.8C11.4719 24.8 11.1919 24.5725 11.1175 24.2531L7.74 9.4H5.5C5.11325 9.4 4.8 9.08675 4.8 8.7ZM28.5038 10.8H9.49438L11.3669 19.2H26.1413L28.5038 10.8ZM15.3 27.95C15.3 29.3019 14.2019 30.4 12.85 30.4C11.4981 30.4 10.4 29.3019 10.4 27.95C10.4 26.5981 11.4981 25.5 12.85 25.5C14.2019 25.5 15.3 26.5981 15.3 27.95ZM12.85 26.9C12.2681 26.9 11.8 27.3681 11.8 27.95C11.8 28.5319 12.2681 29 12.85 29C13.4319 29 13.9 28.5319 13.9 27.95C13.9 27.3681 13.4319 26.9 12.85 26.9ZM22.3 27.95C22.3 26.5981 23.3981 25.5 24.75 25.5C26.1019 25.5 27.2 26.5981 27.2 27.95C27.2 29.3019 26.1019 30.4 24.75 30.4C23.3981 30.4 22.3 29.3019 22.3 27.95ZM24.75 29C25.3319 29 25.8 28.5319 25.8 27.95C25.8 27.3681 25.3319 26.9 24.75 26.9C24.1681 26.9 23.7 27.3681 23.7 27.95C23.7 28.5319 24.1681 29 24.75 29ZM6.9 13.6C7.285 13.6 7.6 13.915 7.6 14.3C7.6 14.685 7.285 15 6.9 15H2.7C2.31325 15 2 14.685 2 14.3C2 13.915 2.31325 13.6 2.7 13.6H6.9ZM7.6 16.4C7.985 16.4 8.3 16.715 8.3 17.1C8.3 17.485 7.985 17.8 7.6 17.8H2.7C2.31325 17.8 2 17.485 2 17.1C2 16.715 2.31325 16.4 2.7 16.4H7.6ZM8.3 19.2C8.685 19.2 9 19.515 9 19.9C9 20.285 8.685 20.6 8.3 20.6H2.7C2.31325 20.6 2 20.285 2 19.9C2 19.515 2.31325 19.2 2.7 19.2H8.3Z" fill="black"/>
</g>
<defs>
<clipPath id="clip0_53_530">
<rect width="28" height="22.4" fill="white" transform="translate(2 8)"/>
</clipPath>
</defs>
</svg>
