<svg width="32" height="32" viewBox="0 0 32 32" fill="none" xmlns="http://www.w3.org/2000/svg">
<g clip-path="url(#clip0_47_149)">
<path d="M9.25 21.6875C8.52539 21.6875 7.9375 22.2748 7.9375 23C7.9375 23.7246 8.52539 24.3125 9.25 24.3125C9.97516 24.3125 10.5625 23.7246 10.5625 23C10.5625 22.2727 9.97734 21.6875 9.25 21.6875ZM23.25 22.125H13.625C13.1437 22.125 12.75 22.5187 12.75 23C12.75 23.4813 13.141 23.875 13.625 23.875H23.25C23.7334 23.875 24.125 23.4834 24.125 23C24.125 22.516 23.7313 22.125 23.25 22.125ZM9.53984 17.75C9.76352 17.75 9.98719 17.6641 10.1584 17.4935L13.3669 14.285C13.7087 13.9432 13.7087 13.3892 13.3669 13.048C13.0251 12.7067 12.4711 12.7062 12.1298 13.048L9.53984 15.6385L8.55602 14.6541C8.21422 14.3123 7.66023 14.3123 7.31898 14.6541C6.97773 14.9959 6.97719 15.5499 7.31898 15.8912L8.92297 17.4952C9.09359 17.662 9.31727 17.7495 9.53984 17.7495V17.75ZM9.25 10.3125C9.97516 10.3125 10.5625 9.72461 10.5625 9C10.5625 8.27484 9.97516 7.6875 9.25 7.6875C8.52539 7.6875 7.9375 8.27266 7.9375 9C7.9375 9.72734 8.52539 10.3125 9.25 10.3125ZM23.25 15.125H15.375C14.8937 15.125 14.5 15.5187 14.5 16C14.5 16.4813 14.891 16.875 15.375 16.875H23.25C23.7334 16.875 24.125 16.4834 24.125 16C24.125 15.516 23.7313 15.125 23.25 15.125ZM25 2H7.5C5.5668 2 4 3.5668 4 5.5V26.5C4 28.4332 5.5668 30 7.5 30H25C26.9332 30 28.5 28.4332 28.5 26.5V5.5C28.5 3.5668 26.9305 2 25 2ZM26.75 26.5C26.75 27.4647 25.9647 28.25 25 28.25H7.5C6.53531 28.25 5.75 27.4647 5.75 26.5V5.5C5.75 4.53531 6.53531 3.75 7.5 3.75H25C25.9647 3.75 26.75 4.53531 26.75 5.5V26.5ZM23.25 8.125H13.625C13.1437 8.125 12.75 8.51875 12.75 9C12.75 9.48125 13.141 9.875 13.625 9.875H23.25C23.7334 9.875 24.125 9.48344 24.125 9C24.125 8.51602 23.7313 8.125 23.25 8.125Z" fill="black"/>
</g>
<defs>
<clipPath id="clip0_47_149">
<rect width="24.5" height="28" fill="white" transform="translate(4 2)"/>
</clipPath>
</defs>
</svg>
