<svg width="32" height="32" viewBox="0 0 32 32" fill="none" xmlns="http://www.w3.org/2000/svg">
<path d="M23.682 18.1874C24.8548 18.663 25.9807 19.258 27.0337 19.9599L27.9441 18.5943C26.9659 17.9422 25.9297 17.375 24.8534 16.9009C24.965 16.6202 25.027 16.3146 25.027 15.9946C25.027 14.6371 23.9226 13.5327 22.5651 13.5327H21.6863C21.5751 12.7513 21.3051 12.0062 20.8872 11.3326L22.2055 7.71071C22.7909 6.10205 22.7128 4.29169 21.991 2.74376L21.6441 2L20.9004 2.3468C19.3452 3.07202 18.1655 4.35942 17.5771 5.97601L16.6227 8.6424C16.2099 8.59786 15.79 8.59786 15.3773 8.6424L14.4213 5.9719C13.8344 4.35942 12.6547 3.07196 11.0995 2.3468L10.3558 2L10.009 2.74371C9.28727 4.29158 9.20909 6.102 9.79458 7.71065L11.1128 11.3326C10.6949 12.0061 10.4249 12.7512 10.3137 13.5326H9.43492C8.07744 13.5326 6.97303 14.637 6.97303 15.9945C6.97303 16.3145 7.03507 16.6202 7.14668 16.9009C6.07034 17.3749 5.03416 17.9421 4.05597 18.5942L4.96638 19.9598C6.0193 19.2578 7.1452 18.6629 8.31805 18.1873C8.5993 18.3311 8.91153 18.4223 9.24208 18.4481C9.7373 20.8934 9.74293 23.4553 9.25373 25.9014L8.43397 29.9999H23.5661L22.7464 25.9014C22.2572 23.4553 22.2628 20.8934 22.758 18.4481C23.0885 18.4224 23.4007 18.3312 23.682 18.1874ZM10.2556 15.9946C10.2556 16.4471 9.88747 16.8152 9.43498 16.8152C8.98248 16.8152 8.61435 16.4471 8.61435 15.9946C8.61435 15.5421 8.98248 15.174 9.43498 15.174H10.2556V15.9946ZM11.1925 4.29541C11.9617 4.85038 12.5471 5.62128 12.8776 6.52922L14.313 10.5389L15.03 10.3653C15.6609 10.2125 16.339 10.2125 16.9699 10.3653L17.687 10.5389L19.1208 6.53327C19.4524 5.62226 20.0382 4.85054 20.8074 4.29541C21.0421 5.2318 20.9962 6.23412 20.6631 7.14934L19.0519 11.5761C19.1648 11.7799 20.1031 12.6994 20.1031 14.3533V15.4697C19.5593 15.3761 19.0115 15.3048 18.4618 15.2556V13.5327H16.8205V15.1752C16.7628 15.1747 15.2371 15.1747 15.1793 15.1752V13.5327H13.538V15.2556C12.9883 15.3048 12.4406 15.3761 11.8968 15.4697V14.3533C11.8968 12.707 12.8368 11.7767 12.9479 11.5761L11.3367 7.14934C11.0037 6.23412 10.9578 5.2318 11.1925 4.29541ZM11.5806 17.1995C12.8204 16.9447 14.0872 16.8152 15.3526 16.8152H16.6474C17.9129 16.8152 19.1797 16.9447 20.4195 17.1995C20.6043 17.5273 20.8618 17.8087 21.1702 18.0216C21.1018 18.3511 21.041 18.6825 20.989 19.0155C19.5763 18.6448 18.1184 18.4565 16.6475 18.4565H15.3525C13.8816 18.4565 12.4238 18.6447 11.011 19.0155C10.959 18.6825 10.8983 18.3512 10.8298 18.0216C11.1383 17.8087 11.3958 17.5273 11.5806 17.1995ZM10.436 28.3587L10.863 26.2233C11.2272 24.4024 11.3392 22.5222 11.2008 20.6641C12.548 20.2884 13.9434 20.0977 15.3525 20.0977H16.6475C18.0566 20.0977 19.4521 20.2884 20.7993 20.6641C20.6608 22.5222 20.7728 24.4024 21.137 26.2233L21.5641 28.3587H10.436ZM21.7444 15.9946V15.174H22.5651C23.0176 15.174 23.3857 15.5421 23.3857 15.9946C23.3857 16.4471 23.0176 16.8152 22.5651 16.8152C22.1126 16.8152 21.7444 16.4471 21.7444 15.9946Z" fill="black"/>
</svg>
