<svg width="32" height="32" viewBox="0 0 32 32" fill="none" xmlns="http://www.w3.org/2000/svg">
<g id="d&#202;&#146; - jet - &#203;&#136;d&#202;&#146;&#201;&#155;t">
<g id="jet-fighter 1" clip-path="url(#clip0_3_116)">
<path id="Vector" d="M1.75 16.75C1.33562 16.75 1 16.4125 1 16C1 15.5875 1.33562 15.25 1.75 15.25H2.5V12.25C2.5 11.0078 3.50734 10 4.75 10H5.62891C6.22656 10 6.79844 10.2391 7.22031 10.6609L8.80938 12.25H10V5.5C9.5875 5.5 9.25 5.16438 9.25 4.75C9.25 4.33562 9.5875 4 10 4H15.25C15.6625 4 16 4.33562 16 4.75C16 5.16438 15.6625 5.5 15.25 5.5H14.4719L19.3797 12.25H23.9781C24.2078 12.25 24.5172 12.2969 24.7656 12.3953L29.8094 14.2844C30.5266 14.5516 31 15.2359 31 16C31 16.7641 30.5266 17.4484 29.8094 17.7156L24.7656 19.6047C24.5172 19.6609 24.2078 19.75 23.9781 19.75H19.3797L14.4719 26.5H15.25C15.6625 26.5 16 26.8375 16 27.25C16 27.6625 15.6625 28 15.25 28H10C9.5875 28 9.25 27.6625 9.25 27.25C9.25 26.8375 9.5875 26.5 10 26.5V19.75H8.80938L7.22031 21.3391C6.79844 21.7609 6.22656 22 5.62891 22H4.75C3.50734 22 2.5 20.9922 2.5 19.75V16.75H1.75ZM11.5 12.25H17.5281L12.6203 5.5H11.5V12.25ZM8.19062 13.75L6.16094 11.7203C6.02031 11.5797 5.78594 11.5 5.62891 11.5H4.75C4.33562 11.5 4 11.8375 4 12.25V15.25H7.75C8.1625 15.25 8.5 15.5875 8.5 16C8.5 16.4125 8.1625 16.75 7.75 16.75H4V19.75C4 20.1625 4.33562 20.5 4.75 20.5H5.62891C5.78594 20.5 6.02031 20.4203 6.16094 20.2797L8.19062 18.25H23.9781C24.0672 18.25 24.1562 18.2359 24.2406 18.1609L29.2844 16.3094C29.4156 16.2625 29.5 16.0984 29.5 15.9578C29.5 15.8594 29.4156 15.7375 29.2844 15.6906L24.2406 13.7969C24.1562 13.7641 24.0672 13.7078 23.9781 13.7078L8.19062 13.75ZM12.6203 26.5L17.5281 19.75H11.5V26.5H12.6203Z" fill="black"/>
</g>
</g>
<defs>
<clipPath id="clip0_3_116">
<rect width="30" height="24" fill="white" transform="translate(1 4)"/>
</clipPath>
</defs>
</svg>
