<svg width="32" height="32" viewBox="0 0 32 32" fill="none" xmlns="http://www.w3.org/2000/svg">
<g clip-path="url(#clip0_3_202)">
<path d="M14.8984 9.36094C15.232 9.02734 15.768 9.02734 16.0797 9.36094L21.0453 14.4797C22.4781 15.9672 22.4016 18.4227 20.7883 19.8063C19.6344 20.7633 17.9719 20.818 16.7031 20.0359C16.5445 19.9648 16.4789 19.8883 16.3258 19.8063V21.2008H17.2008C17.7313 21.2008 18.0758 21.6438 18.0758 22.0758C18.0758 22.6063 17.7313 22.9508 17.2008 22.9508H13.7008C13.2688 22.9508 12.8258 22.6063 12.8258 22.0758C12.8258 21.6438 13.2688 21.2008 13.7008 21.2008H14.5758V19.8117C14.5539 19.8664 14.4773 19.9211 14.4008 19.9703C13.132 20.818 11.4148 20.8398 10.1887 19.8063C8.60117 18.4227 8.52461 15.9672 9.95797 14.4797L14.8984 9.36094ZM11.218 15.6937C10.4742 16.4648 10.5125 17.7555 11.3273 18.4773C11.9781 19.0133 13.0227 18.975 13.7336 18.2695L15.4562 16.3664L17.2555 18.2586C17.9828 18.9914 19.0547 18.9969 19.6398 18.4883L19.6508 18.4773C20.4875 17.7609 20.482 16.4703 19.7875 15.6992L15.4891 11.2695L11.218 15.6937ZM5 5.5C5 3.5668 6.5668 2 8.5 2H22.5C24.4305 2 26 3.5668 26 5.5V26.5C26 28.4305 24.4305 30 22.5 30H8.5C6.5668 30 5 28.4305 5 26.5V5.5ZM6.75 5.5V26.5C6.75 27.468 7.53367 28.25 8.5 28.25H22.5C23.468 28.25 24.25 27.468 24.25 26.5V5.5C24.25 4.53367 23.468 3.75 22.5 3.75H8.5C7.53367 3.75 6.75 4.53367 6.75 5.5Z" fill="black"/>
</g>
<defs>
<clipPath id="clip0_3_202">
<rect width="21" height="28" fill="white" transform="translate(5 2)"/>
</clipPath>
</defs>
</svg>
