<svg width="32" height="32" viewBox="0 0 32 32" fill="none" xmlns="http://www.w3.org/2000/svg">
<g id="f - fox - &#203;&#136;f&#201;&#146;ks">
<g id="fi_3667300" clip-path="url(#clip0_3_66)">
<g id="Group">
<path id="Vector" d="M2.35903 18.4683L6.49734 21.2803C8.48665 22.6315 10.0026 24.6321 10.7661 26.9136C11.3476 28.6497 12.9683 29.8125 14.7933 29.8125H17.2074C19.0361 29.8125 20.6545 28.6474 21.2346 26.9134C21.617 25.7709 22.1793 24.7054 22.9063 23.7464C23.6342 22.7859 24.5079 21.9562 25.5034 21.2802L29.6416 18.4683C30.0018 18.224 30.1075 17.7344 29.8808 17.3626C29.8806 17.3622 29.8804 17.3619 29.8802 17.3615L27.0362 12.7159L28.1325 10.6059C28.9375 9.05784 29.1424 7.27437 28.7094 5.58403L27.9978 2.80449C27.8442 2.20467 27.1062 1.98647 26.6506 2.4016L21.2552 7.31763C18.0266 5.82723 14.233 5.71392 10.7483 7.3202L5.35 2.4016C4.89418 1.98625 4.15628 2.20489 4.00277 2.80454L3.29118 5.58398C2.85822 7.27426 3.06308 9.05773 3.86791 10.6057L4.9644 12.716L2.12037 17.3615C1.88522 17.7534 2.01034 18.2321 2.35903 18.4683ZM24.5814 19.9231C23.4382 20.6994 22.4346 21.6523 21.5986 22.7553C20.7637 23.8568 20.1178 25.0806 19.6786 26.3928C19.3227 27.4569 18.3295 28.1718 17.2074 28.1718H14.7933C13.6767 28.1718 12.6798 27.461 12.322 26.3927C11.4452 23.7727 9.70405 21.4751 7.41943 19.9233L4.24476 17.766L8.03351 15.0024C9.12469 14.2066 10.5456 14.1016 11.7419 14.7283C12.934 15.3528 13.6737 16.6253 13.6263 17.9702L13.418 23.887C13.4179 23.8905 13.4176 23.9096 13.4176 23.9158C13.4176 25.1215 14.5696 26.5778 16.0003 26.5778C17.431 26.5778 18.5831 25.1215 18.5831 23.9158C18.5831 23.9092 18.5826 23.8901 18.5825 23.887L18.3743 17.9702C18.3271 16.6253 19.0667 15.3528 20.2587 14.7283C21.455 14.1014 22.876 14.2066 23.9672 15.0024L27.756 17.766L24.5814 19.9231ZM16.9421 23.9256C16.9331 24.2489 16.482 24.9372 16.0003 24.9372C15.5183 24.9372 15.0669 24.2482 15.0584 23.9251V23.9243C15.3833 23.7267 16.6169 23.7266 16.9421 23.9243L16.9421 23.9256ZM26.7469 4.53343L27.1201 5.99102C27.4527 7.28963 27.2953 8.65977 26.6768 9.84922L26.0042 11.1437C25.1183 9.96926 24.035 8.96301 22.7748 8.15254L26.7469 4.53343ZM25.2932 13.0111L26.3195 14.6876L24.9341 13.677C23.3465 12.5189 21.2384 12.3629 19.4974 13.275C17.7497 14.1906 16.6653 16.0562 16.7347 18.0279L16.8816 22.2035C16.3592 22.1139 15.6419 22.1139 15.119 22.2035L15.266 18.0279C15.3354 16.0562 14.2509 14.1906 12.5032 13.275C10.7631 12.3633 8.65509 12.5182 7.06658 13.677L5.6808 14.6878C6.73332 12.9684 6.57117 13.2332 6.70745 13.0111C7.74323 11.32 9.22209 9.94296 10.9837 9.02918C16.2604 6.297 22.4275 8.33164 25.2932 13.0111ZM4.88061 5.99091L5.2538 4.53343L9.22652 8.1532C7.98156 8.95262 6.88808 9.96549 5.99701 11.1447L5.3238 9.84906C4.70534 8.65971 4.54801 7.28957 4.88061 5.99091Z" fill="black"/>
<path id="Vector_2" d="M10.7179 18.2551C11.1709 18.2551 11.5382 17.8879 11.5382 17.4348C11.5382 16.9818 11.1709 16.6145 10.7179 16.6145C10.2648 16.6145 9.89758 16.9818 9.89758 17.4348C9.89758 17.8879 10.2648 18.2551 10.7179 18.2551Z" fill="black"/>
<path id="Vector_3" d="M21.2827 18.2551C21.7358 18.2551 22.103 17.8879 22.103 17.4348C22.103 16.9818 21.7358 16.6145 21.2827 16.6145C20.8297 16.6145 20.4624 16.9818 20.4624 17.4348C20.4624 17.8879 20.8297 18.2551 21.2827 18.2551Z" fill="black"/>
</g>
</g>
</g>
<defs>
<clipPath id="clip0_3_66">
<rect width="28" height="28" fill="white" transform="translate(2 2)"/>
</clipPath>
</defs>
</svg>
