<svg width="32" height="32" viewBox="0 0 32 32" fill="none" xmlns="http://www.w3.org/2000/svg">
<g clip-path="url(#clip0_53_718)">
<path d="M25 5.75H7.5C5.56516 5.75 4 7.31516 4 9.25V26.75C4 28.6848 5.56516 30.25 7.5 30.25H25C26.9348 30.25 28.5 28.6848 28.5 26.75V9.25C28.5 7.31516 26.9359 5.75 25 5.75ZM26.75 26.75C26.75 27.7136 25.9636 28.5 25 28.5H7.5C6.53641 28.5 5.75 27.7136 5.75 26.75V9.25C5.75 8.28641 6.53641 7.5 7.5 7.5H25C25.9636 7.5 26.75 8.28641 26.75 9.25V26.75ZM11 11.4375C10.2781 11.4375 9.6875 12.0281 9.6875 12.75C9.6875 13.4719 10.2781 14.0625 11 14.0625C11.7219 14.0625 12.3125 13.4719 12.3125 12.75C12.3125 12.0281 11.7219 11.4375 11 11.4375ZM11 21.9375C10.2754 21.9375 9.6875 22.5254 9.6875 23.25C9.6875 23.9746 10.2781 24.5625 11 24.5625C11.7219 24.5625 12.3125 23.9719 12.3125 23.25C12.3125 22.5281 11.7219 21.9375 11 21.9375ZM21.5 11.4375C20.7754 11.4375 20.1875 12.0254 20.1875 12.75C20.1875 13.4746 20.7781 14.0625 21.5 14.0625C22.2219 14.0625 22.8125 13.4719 22.8125 12.75C22.8125 12.0281 22.2219 11.4375 21.5 11.4375ZM21.5 21.9375C20.7754 21.9375 20.1875 22.5254 20.1875 23.25C20.1875 23.9746 20.7754 24.5625 21.5 24.5625C22.2246 24.5625 22.8125 23.9746 22.8125 23.25C22.8125 22.5254 22.2219 21.9375 21.5 21.9375Z" fill="black"/>
</g>
<defs>
<clipPath id="clip0_53_718">
<rect width="24.5" height="28" fill="white" transform="translate(4 4)"/>
</clipPath>
</defs>
</svg>
