<svg width="32" height="32" viewBox="0 0 32 32" fill="none" xmlns="http://www.w3.org/2000/svg">
<g clip-path="url(#clip0_53_719)">
<path d="M17.1997 22.0156C17.8037 22.0156 18.2934 21.5259 18.2934 20.9219C18.2934 20.3178 17.8037 19.8281 17.1997 19.8281C16.5956 19.8281 16.1059 20.3178 16.1059 20.9219C16.1059 21.5259 16.5956 22.0156 17.1997 22.0156Z" fill="black"/>
<path d="M20.8637 27.8124H7.24655C6.04036 27.8124 5.05905 26.8311 5.05905 25.6249V16.6562C5.05905 15.45 6.04036 14.4687 7.24655 14.4687H22.9966C23.2456 14.4687 23.4432 14.4907 23.6007 14.5358C24.1814 14.7022 24.787 14.3663 24.9534 13.7856C25.1197 13.2049 24.7838 12.5993 24.2032 12.4329C23.847 12.3309 23.4523 12.2812 22.9966 12.2812H21.682V8.42392C21.682 4.88176 18.7381 2 15.1195 2C11.501 2 8.55703 4.88176 8.55703 8.42392V12.2812H7.24655C4.83418 12.2812 2.87155 14.2439 2.87155 16.6562V25.625C2.87155 28.0374 4.83418 30 7.24655 30H20.8637C21.4678 30 21.9575 29.5103 21.9575 28.9062C21.9575 28.3022 21.4678 27.8125 20.8637 27.8124ZM10.7445 8.42392C10.7445 6.08795 12.7072 4.1875 15.1195 4.1875C17.5319 4.1875 19.4945 6.08795 19.4945 8.42392V12.2812H10.7445V8.42392Z" fill="black"/>
<path d="M13.0981 22.0156C13.7022 22.0156 14.1919 21.5259 14.1919 20.9219C14.1919 20.3178 13.7022 19.8281 13.0981 19.8281C12.4941 19.8281 12.0044 20.3178 12.0044 20.9219C12.0044 21.5259 12.4941 22.0156 13.0981 22.0156Z" fill="black"/>
<path d="M29.1275 20.113C29.1036 17.9918 27.3704 16.2734 25.2436 16.2734C23.1019 16.2734 21.3594 18.0159 21.3594 20.1576C21.3594 20.7617 21.849 21.2514 22.4531 21.2514C23.0572 21.2514 23.5469 20.7617 23.5469 20.1576C23.5469 19.2221 24.308 18.4609 25.2436 18.4609C26.1792 18.4609 26.9403 19.2221 26.9403 20.1576C26.9403 20.1676 26.9404 20.1775 26.9407 20.1873C26.9294 20.8571 26.5271 21.4567 25.909 21.7205C24.8404 22.1768 24.1499 23.2308 24.1499 24.4057V25.3516C24.1499 25.9556 24.6395 26.4453 25.2436 26.4453C25.8477 26.4453 26.3374 25.9556 26.3374 25.3516V24.4057C26.3374 24.1083 26.5065 23.844 26.768 23.7323C28.2023 23.12 29.1288 21.7168 29.1284 20.1574C29.1284 20.1425 29.1281 20.1278 29.1275 20.113Z" fill="black"/>
<path d="M25.2387 30C25.8428 30 26.3325 29.5103 26.3325 28.9062C26.3325 28.3022 25.8428 27.8125 25.2387 27.8125C24.6347 27.8125 24.145 28.3022 24.145 28.9062C24.145 29.5103 24.6347 30 25.2387 30Z" fill="black"/>
<path d="M8.99655 22.0156C9.60061 22.0156 10.0903 21.5259 10.0903 20.9219C10.0903 20.3178 9.60061 19.8281 8.99655 19.8281C8.39249 19.8281 7.9028 20.3178 7.9028 20.9219C7.9028 21.5259 8.39249 22.0156 8.99655 22.0156Z" fill="black"/>
</g>
<defs>
<clipPath id="clip0_53_719">
<rect width="28" height="28" fill="white" transform="translate(2 2)"/>
</clipPath>
</defs>
</svg>
