<svg width="32" height="32" viewBox="0 0 32 32" fill="none" xmlns="http://www.w3.org/2000/svg">
<g id="g_goat_&#203;&#136;go&#202;&#138;t">
<g id="Goat 1">
<g id="Group">
<g id="g1">
<path id="Path" d="M13.5413 14.4142C13.5413 14.8672 13.174 15.2345 12.7209 15.2345C12.2679 15.2345 11.9006 14.8672 11.9006 14.4142C11.9006 13.9612 12.2679 13.5939 12.7209 13.5939C13.174 13.5939 13.5413 13.9612 13.5413 14.4142Z" fill="black"/>
<path id="path1" d="M20.1038 14.4142C20.1038 14.8672 19.7365 15.2345 19.2834 15.2345C18.8304 15.2345 18.4631 14.8672 18.4631 14.4142C18.4631 13.9612 18.8304 13.5939 19.2834 13.5939C19.7365 13.5939 20.1038 13.9612 20.1038 14.4142Z" fill="black"/>
<path id="path2" d="M18.0131 25.5365C18.1586 27.0062 17.4017 28.4799 16.0021 29.1797C14.6025 28.4799 13.8457 27.0062 13.9911 25.5365" stroke="black" stroke-width="1.4" stroke-linecap="round" stroke-linejoin="round"/>
<path id="path3" d="M14.3616 20.9766L16.0022 22.6172L17.6428 20.9766" stroke="black" stroke-width="1.4" stroke-linecap="round" stroke-linejoin="round"/>
<path id="path4" d="M16.0022 25.8984V22.6172" stroke="black" stroke-width="1.4" stroke-linecap="round" stroke-linejoin="round"/>
<path id="path5" d="M20.1142 9.19002C20.2068 8.17437 20.5672 7.27165 21.2553 6.43291C22.285 5.18182 23.4655 4.70916 25.0212 4.4617C25.0212 4.46115 25.0234 4.46115 25.0234 4.46066L25.0241 4.46077L25.0256 4.46105C25.4786 4.46105 25.8459 4.09376 25.8459 3.64073C25.8459 3.18765 25.4786 2.82043 25.0256 2.82043C25.0253 2.82043 25.0237 2.82086 25.0237 2.82086C25.0234 2.82086 25.0231 2.82108 25.0228 2.82108V2.82032C21.7001 2.76202 20.0694 4.20872 19.5151 4.69281C19.1483 5.01377 18.0042 6.03577 17.324 7.88146" stroke="black" stroke-width="1.4" stroke-linecap="round" stroke-linejoin="round"/>
<path id="path6" d="M11.2361 22.2074L9.64795 16.0606C9.50928 15.5228 9.43931 14.9696 9.4397 14.4142C9.4397 10.7898 12.3778 7.85168 16.0022 7.85168C19.6266 7.85168 22.5647 10.7898 22.5647 14.4142C22.5647 14.9828 22.4924 15.5344 22.3564 16.0606L20.7683 22.2074C20.2205 24.3278 18.2914 25.8985 16.0022 25.8985C13.713 25.8985 11.7839 24.3278 11.2361 22.2074Z" stroke="black" stroke-width="1.4" stroke-linecap="round" stroke-linejoin="round"/>
<path id="path7" d="M11.5713 9.19002C11.4787 8.17437 11.1183 7.27165 10.4302 6.43291C9.40046 5.18182 8.22003 4.70916 6.66428 4.4617C6.66428 4.46115 6.6621 4.46115 6.6621 4.46066L6.66139 4.46077L6.65991 4.46105C6.20688 4.46105 5.8396 4.09376 5.8396 3.64073C5.8396 3.18765 6.20688 2.82043 6.65991 2.82043C6.66018 2.82043 6.66182 2.82086 6.66182 2.82086C6.6621 2.82086 6.66243 2.82108 6.6627 2.82108V2.82032C9.98539 2.76202 11.6161 4.20872 12.1704 4.69281C12.5372 5.01377 13.6813 6.03577 14.3615 7.88146" stroke="black" stroke-width="1.4" stroke-linecap="round" stroke-linejoin="round"/>
<path id="path8" d="M22.358 12.7736H27.4866C27.4866 14.5857 26.0175 16.0548 24.2053 16.0548H22.3564" stroke="black" stroke-width="1.4" stroke-linecap="round" stroke-linejoin="round"/>
<path id="path9" d="M9.64646 12.7736H4.51782C4.51782 14.5857 5.98689 16.0548 7.79906 16.0548H9.64793" stroke="black" stroke-width="1.4" stroke-linecap="round" stroke-linejoin="round"/>
</g>
</g>
</g>
</g>
</svg>
