<svg width="32" height="32" viewBox="0 0 32 32" fill="none" xmlns="http://www.w3.org/2000/svg">
<g id="h_horse_&#203;&#136;h&#201;&#148;rs">
<g id="horse 1" clip-path="url(#clip0_10_1028)">
<path id="Vector" d="M26 7.16667C25.5378 7.16667 25.1667 7.5375 25.1667 8C25.1667 8.46198 25.5378 8.78646 26 8.78646C26.4623 8.78646 26.8334 8.4151 26.8334 7.95312C26.8334 7.49062 26.4636 7.16667 26 7.16667ZM30.5209 6.32031C30.8256 5.79375 30.9831 5.18594 30.961 4.55208C30.9266 3.67917 30.1662 3 29.2964 3H23.5047C19.9042 3 16.9735 5.8776 16.8589 9.45312V9.66797L9.28597 9.66641C7.43753 9.66641 5.8417 10.6784 4.97659 12.1742C2.79274 12.2549 0.999512 14.0779 0.999512 16.3331V18.7862C0.999512 19.2461 1.37243 19.5727 1.78597 19.5727C2.19899 19.5727 2.66618 19.2914 2.66618 18.8331V16.3331C2.66618 15.2237 3.39899 14.2914 4.40368 13.9685C4.32503 14.5154 4.28597 14.5987 4.28597 14.6664C4.28597 16.2862 4.74795 17.3096 5.56201 18.2409L4.41618 22.1081C4.25993 22.668 4.2404 23.207 4.37712 23.8138L5.32347 27.7508C5.64066 28.8747 6.64534 29.6664 7.80159 29.6664H9.0693C10.6985 29.6664 11.8927 28.1331 11.4933 26.5534L10.6292 23.1362L11.6318 20.3367L15.9995 21.307V27.1664C15.9995 28.5471 17.1188 29.6195 18.4995 29.6195L20.1662 29.6664C21.5469 29.6664 22.6662 28.5471 22.6662 27.2133V19.9112C23.7339 18.7914 24.3328 17.3201 24.3328 15.7706V13.0935L25.0881 14.2263C26.0839 15.7169 27.6922 15.3003 27.9787 15.2029L29.3068 14.7536C30.3172 14.4109 30.9995 13.4581 30.9995 12.3904V7.49167C30.9995 6.99062 30.8068 6.6651 30.5203 6.31979L30.5209 6.32031ZM29.3334 12.3802C29.3334 12.7383 29.1055 13.0104 28.7667 13.1677L27.4386 13.6234C26.9503 13.7927 26.599 13.4802 26.475 13.2979L25.1667 11.3333L22.6667 10.5V15.7187C22.6667 17.1052 22.0094 18.3292 21 19.1302V27.1615C21 27.6214 20.6266 27.9948 20.1667 27.9948H18.5C18.0396 27.9948 17.6667 27.6214 17.6667 27.2083V20.0104L10.562 18.3906L8.89014 23.0521L9.87816 26.9625C10.011 27.4891 9.61305 28 9.07034 28H7.80159C7.41618 28 7.08128 27.7359 6.99118 27.3615L6.04274 23.4156C5.9766 23.1411 5.98415 22.8542 6.0641 22.5833L7.50264 17.7135C6.59795 17.0833 5.99899 16.3333 5.99899 14.6667C5.99899 12.8281 7.49378 11.3333 9.33232 11.3333L18.499 11.3328V9.66615C18.499 6.90469 20.7375 4.71302 23.499 4.71302H29.2959C29.2959 5.40312 28.8727 5.99531 28.2672 6.24948L29.3323 7.49167V12.3797L29.3334 12.3802Z" fill="black"/>
</g>
</g>
<defs>
<clipPath id="clip0_10_1028">
<rect width="30" height="26.6667" fill="white" transform="translate(1 3)"/>
</clipPath>
</defs>
</svg>
