<svg width="32" height="32" viewBox="0 0 32 32" fill="none" xmlns="http://www.w3.org/2000/svg">
<path d="M29.3131 7.79097C29.4487 7.84916 29.5756 7.93447 29.6762 8.04078C29.7812 8.14753 29.8644 8.27353 29.9213 8.41178C29.9738 8.55003 30 8.69791 30 8.84666V28C30 28.1837 29.9256 28.3631 29.7944 28.4943C29.6631 28.6256 29.4837 28.7 29.3 28.7C29.1162 28.7 28.9369 28.6256 28.8056 28.4943C28.6744 28.3631 28.6 28.1837 28.6 28V21H26.6269C26.3294 20.9956 26.0363 20.9343 25.765 20.8162C25.4894 20.6981 25.24 20.5231 25.0344 20.3087C24.8287 20.0943 24.6669 19.845 24.5575 19.565C24.4481 19.2893 24.3956 18.9918 24.4 18.6943L24.4175 13.9212C24.4088 12.6131 24.785 11.3312 25.5069 10.2388C26.2244 9.14591 27.2525 8.29103 28.46 7.78266C28.5912 7.72797 28.7356 7.69997 28.88 7.69997C29.0288 7.70172 29.1775 7.73235 29.3131 7.79097ZM28.6 9.26535C27.7556 9.7116 27.0469 10.3827 26.5613 11.2039C26.0713 12.0268 25.8175 12.9675 25.8262 13.9212L25.8 18.7031C25.7606 18.8256 25.8219 18.9437 25.8656 19.0575C25.9137 19.1712 25.9837 19.2718 26.0669 19.3593C26.1412 19.4337 26.2287 19.495 26.2856 19.5343C26.4212 19.5781 26.5263 19.5606 26.6269 19.6H28.6V9.26535ZM8.38312 16.1831C7.98937 16.5768 7.45562 16.8 6.9 16.8H6.2V28C6.2 28.1837 6.12606 28.3631 5.99481 28.4943C5.86356 28.6256 5.6855 28.7 5.5 28.7C5.3145 28.7 5.13644 28.6256 5.00519 28.4943C4.87394 28.3631 4.8 28.1837 4.8 28V16.8H4.1C3.54306 16.8 3.00888 16.5768 2.61513 16.1831C2.22094 15.7893 2 15.2556 2 14.7V8.39997C2 8.21447 2.0735 8.03641 2.20501 7.90516C2.336 7.77391 2.5145 7.69997 2.7 7.69997C2.8855 7.69997 3.06356 7.77391 3.19481 7.90516C3.32606 8.03641 3.4 8.21447 3.4 8.39997V14.7C3.4 14.8837 3.47394 15.0631 3.60519 15.1943C3.73644 15.3256 3.9145 15.4 4.1 15.4H4.8V8.39997C4.8 8.21447 4.87394 8.03641 5.00519 7.90516C5.13644 7.77391 5.3145 7.69997 5.5 7.69997C5.6855 7.69997 5.86356 7.77391 5.99481 7.90516C6.12606 8.03641 6.2 8.21447 6.2 8.39997V15.4H6.9C7.08375 15.4 7.26313 15.3256 7.39438 15.1943C7.52563 15.0631 7.6 14.8837 7.6 14.7V8.39997C7.6 8.21447 7.67437 8.03641 7.80562 7.90516C7.93687 7.77391 8.11625 7.69997 8.3 7.69997C8.48375 7.69997 8.66313 7.77391 8.79438 7.90516C8.92563 8.03641 9 8.21447 9 8.39997V14.7C9 15.2556 8.77687 15.7893 8.38312 16.1831ZM21.1537 13.7462C22.335 14.9275 23 16.5287 23 18.2C23 19.4468 22.6325 20.6631 21.9369 21.7C21.2456 22.7368 20.2612 23.5418 19.1106 24.0187C17.96 24.4956 16.6912 24.6225 15.4706 24.3775C14.2106 24.1368 13.1256 23.4981 12.2462 22.6537C11.3625 21.7743 10.7631 20.65 10.5225 19.4293C10.2775 18.2087 10.4044 16.94 10.8419 15.7893C11.3581 14.6387 12.1631 13.6543 13.1606 12.9631C14.2369 12.2675 15.4531 11.9 16.7 11.9C18.3712 11.9 19.9725 12.565 21.1537 13.7462ZM20.165 21.665C21.0838 20.7462 21.6 19.4993 21.6 18.2C21.6 17.2331 21.3112 16.2837 20.7731 15.4787C20.235 14.6737 19.4694 14.0437 18.5769 13.6718C17.68 13.3043 16.6956 13.2037 15.7419 13.3962C14.7925 13.5843 13.9219 14.0481 13.235 14.735C12.5481 15.4218 12.0844 16.2925 11.8962 17.2462C11.7037 18.1956 11.8 19.18 12.1719 20.0768C12.5437 20.9693 13.1737 21.735 13.9787 22.2731C14.7837 22.8112 15.7287 23.1 16.7 23.1C17.9994 23.1 19.2463 22.5837 20.165 21.665ZM25.7431 22.6712C25.8 22.7456 25.8044 22.8287 25.8656 22.9162C25.8919 23.0081 25.8962 23.0606 25.8481 23.1918C25.8744 23.2837 25.8437 23.3712 25.8 23.45C24.8419 25.1081 23.4506 26.4731 21.7706 27.3962C20.095 28.3193 18.1962 28.7656 16.2844 28.6868C14.3725 28.5731 12.5175 28.0131 10.9206 26.9587C9.32375 25.9043 8.04625 24.43 7.22375 22.7018C7.17562 22.5793 7.145 22.5268 7.13625 22.4306C7.1275 22.3343 7.13625 22.2381 7.1625 22.1462C7.19312 22.0543 7.24125 21.9668 7.3025 21.8968C7.36812 21.8225 7.4425 21.7656 7.53 21.7218C7.6175 21.6825 7.70937 21.6606 7.80562 21.6168C7.90187 21.6518 7.99812 21.6693 8.09 21.7043C8.1775 21.7393 8.26063 21.7918 8.32625 21.8618C8.39625 21.9275 8.44875 22.0106 8.48375 22.0981C9.19687 23.5987 10.3037 24.8718 11.6862 25.7906C13.0687 26.705 14.6788 27.2212 16.3369 27.2912C17.995 27.3568 19.64 26.9675 21.0925 26.1712C22.545 25.3706 23.7525 24.185 24.5838 22.75C24.6756 22.5881 24.8288 22.4743 25.0081 22.4262C25.1481 22.3781 25.3756 22.4 25.5375 22.4918C25.6162 22.54 25.6906 22.6012 25.7431 22.6712ZM10.5531 11.1956C10.3694 11.1737 10.2031 11.0792 10.085 10.9335C9.97125 10.7874 9.91875 10.6019 9.94062 10.4173C9.9625 10.2331 10.0587 10.0647 10.2031 9.95003C12.0537 8.49185 14.3419 7.6991 16.7 7.6991C19.0581 7.6991 21.3462 8.49185 23.1969 9.95003C23.3412 10.0647 23.3981 10.2331 23.4594 10.4173C23.4419 10.6019 23.4288 10.7874 23.315 10.9335C23.1969 11.0792 23.0306 11.1737 22.8469 11.1956C22.6587 11.2175 22.475 11.1654 22.3306 11.0503C20.7163 9.81003 18.7344 9.1376 16.7 9.1376C14.6656 9.1376 12.6838 9.81003 11.0694 11.0503C10.8856 11.1654 10.7412 11.2175 10.5531 11.1956Z" fill="black"/>
</svg>
