<svg width="32" height="32" viewBox="0 0 32 32" fill="none" xmlns="http://www.w3.org/2000/svg">
<g id="j_yolk_&#203;&#136;yo&#202;&#138;k">
<g id="egg-fried 1" clip-path="url(#clip0_10_1043)">
<path id="Vector" d="M14.2007 11.193C12.0269 11.1998 10.2632 12.9605 10.2632 15.131C10.2632 15.6155 10.6526 16.0055 11.1382 16.0055C11.6233 16.0055 12.0132 15.568 12.0132 15.1305C12.0132 13.9224 12.991 12.9413 14.2007 12.9413C14.6861 12.9413 15.0757 12.5443 15.0757 12.0669C15.0757 11.5867 14.7367 11.193 14.2007 11.193ZM28.1625 10.2305C26.0023 8.00195 22.65 7.69406 20.2601 5.73242C17.8703 3.76312 15.9781 2 12.9648 2C12.5054 2 12.046 2.03992 11.5867 2.11561C6.84198 2.88123 5.47261 6.49116 4.75073 10.707C4.14261 14.2278 1.77683 17.6523 2.01636 21.2562C2.25561 24.859 4.90823 28.2836 8.30542 29.5031C9.26792 29.852 10.1593 29.9997 10.9796 29.9997C14.5212 29.9997 16.9406 27.204 19.5 24.7776C21.886 22.508 24.6067 22.7131 27.2054 20.7307C30.2843 18.395 31.1265 12.9973 28.1625 10.2301V10.2305ZM28.2445 15.1141C28.1488 16.8094 27.3487 18.4298 26.1527 19.3387C25.1612 20.0977 24.0948 20.4805 22.9737 20.8973C21.5037 21.4305 19.8423 22.0391 18.2974 23.5086C17.9966 23.7889 17.7024 24.0762 17.4016 24.3699C15.2945 26.3633 13.4023 28.25 10.9796 28.25C10.3234 28.25 9.63979 28.1201 8.8944 27.8535C6.1119 26.8555 3.95175 24.032 3.76034 21.1434C3.64386 19.3633 4.34112 17.5039 5.08651 15.5406C5.63339 14.0848 6.20104 12.5804 6.47448 11.0016C7.3019 6.22461 8.71011 4.35156 11.871 3.8457C12.232 3.78445 12.5984 3.75 12.9648 3.75C15.1321 3.75 16.6021 4.9668 18.6414 6.66211L19.15 7.08594C20.4422 8.15234 21.8849 8.76047 23.2723 9.35547C24.6668 9.94336 25.9793 10.5039 26.9506 11.502C28.1789 12.6641 28.2882 14.2664 28.2445 15.1141ZM14.25 8.125C10.3945 8.125 7.24995 11.2662 7.24995 15.125C7.24995 18.9903 10.3879 22.125 14.25 22.125C18.112 22.125 21.25 18.9837 21.25 15.125C21.25 11.2662 18.1109 8.125 14.25 8.125ZM14.25 20.375C11.3515 20.3682 8.99831 18.0267 8.99831 15.1316C8.99831 12.2364 11.357 9.87773 14.2483 9.87773C17.1396 9.87773 19.4983 12.2364 19.4983 15.1316C19.4983 18.0267 17.1484 20.3695 14.25 20.375Z" fill="black"/>
</g>
</g>
<defs>
<clipPath id="clip0_10_1043">
<rect width="28" height="28" fill="white" transform="translate(2 2)"/>
</clipPath>
</defs>
</svg>
