<svg width="32" height="32" viewBox="0 0 32 32" fill="none" xmlns="http://www.w3.org/2000/svg">
<g clip-path="url(#clip0_47_257)">
<path d="M24.3398 7.19556H22.9727V3.91354C22.9727 3.30121 22.6764 2.72141 22.1802 2.36261C21.6841 2.0038 21.0406 1.904 20.4591 2.09584L7.06056 6.51492C6.27432 6.7743 5.74609 7.50482 5.74609 8.33268V23.6198V28.0859C5.74609 29.1413 6.60474 30 7.66016 30H24.3398C25.3953 30 26.2539 29.1413 26.2539 28.0859V9.10962C26.2539 8.05426 25.3953 7.19556 24.3398 7.19556ZM24.6133 28.0859C24.6133 28.2367 24.4906 28.3593 24.3398 28.3593H7.66016C7.50938 28.3593 7.38672 28.2367 7.38672 28.0859V22.7995V9.10962C7.38672 8.95885 7.50938 8.83618 7.66016 8.83618H24.3398C24.4906 8.83618 24.6133 8.95885 24.6133 9.10962V28.0859ZM20.973 3.65389C21.0885 3.61582 21.1766 3.66143 21.2189 3.692C21.2612 3.72257 21.3321 3.79197 21.3321 3.91354V7.19561H10.2347L20.973 3.65389Z" fill="black"/>
<path d="M10.5312 18.3232H11.5256H21.4688C21.9218 18.3232 22.2891 17.9559 22.2891 17.5029C22.2891 17.0499 21.9218 16.6826 21.4688 16.6826H21.2311C20.8775 14.4186 19.0843 12.6254 16.8203 12.2717V11.8607C16.8203 11.4077 16.453 11.0404 16 11.0404C15.547 11.0404 15.1797 11.4077 15.1797 11.8607V12.2717C12.9157 12.6254 11.1225 14.4186 10.7689 16.6826H10.5312C10.0782 16.6826 9.71094 17.0499 9.71094 17.5029C9.71094 17.9559 10.0782 18.3232 10.5312 18.3232ZM16 13.8488C17.7329 13.8488 19.188 15.0614 19.5613 16.6826H12.4387C12.812 15.0614 14.2671 13.8488 16 13.8488Z" fill="black"/>
<path d="M10.8494 20.5393C10.3963 20.5393 10.0291 20.9066 10.0291 21.3596C10.0291 21.8127 10.3963 22.1799 10.8494 22.1799H14.7869C15.2399 22.1799 15.6072 21.8127 15.6072 21.3596C15.6072 20.9066 15.2399 20.5393 14.7869 20.5393H10.8494Z" fill="black"/>
<path d="M21.2637 23.8206H10.7363C10.2833 23.8206 9.91602 24.1878 9.91602 24.6409C9.91602 25.0939 10.2833 25.4612 10.7363 25.4612H21.2637C21.7167 25.4612 22.084 25.0939 22.084 24.6409C22.084 24.1878 21.7167 23.8206 21.2637 23.8206Z" fill="black"/>
</g>
<defs>
<clipPath id="clip0_47_257">
<rect width="28" height="28" fill="white" transform="translate(2 2)"/>
</clipPath>
</defs>
</svg>
