<svg width="32" height="32" viewBox="0 0 32 32" fill="none" xmlns="http://www.w3.org/2000/svg">
<g id="k - cat - &#203;&#136;k&#195;&#166;t">
<g id="cat 1" clip-path="url(#clip0_3_46)">
<path id="Vector" d="M29.3333 2.99989C28.8516 2.99989 28.376 3.21447 28.051 3.59885L25.7708 6.33322H24.5599L22.2812 3.59885C21.8062 3.0364 20.9995 2.82026 20.2693 3.16557C19.6771 3.44677 19.3333 4.08734 19.3333 4.74369V11.3322H18.5C13.0885 11.3322 8.39062 14.3791 6 18.8479V12.1656C6 9.86869 4.13177 7.9989 1.83333 7.9989C1.37109 7.9989 1 8.36869 1 8.83223C1 9.29578 1.37083 9.66557 1.83333 9.66557C3.21354 9.66557 4.33333 10.7854 4.33333 12.1656V25.4989C4.33333 27.801 6.19896 29.6656 8.5 29.6656H19.2969C20.251 29.6656 21.0219 28.8786 21.0005 27.9244C20.963 26.239 19.662 24.8984 18.013 24.6848L22.6667 22.6135V27.1656C22.6667 28.5406 23.7917 29.6656 25.1667 29.6656C26.5417 29.6656 27.6667 28.5406 27.6667 27.1656V16.5822C29.6328 15.6447 31 13.6525 31 11.3374V4.66557C31 3.74109 30.25 2.9989 29.3333 2.9989V2.99989ZM26 27.1666C26 27.6265 25.6266 27.9999 25.1667 27.9999C24.7062 27.9999 24.3333 27.6249 24.3333 27.1666V21.3801C24.3333 20.777 23.7125 20.3733 23.1615 20.6186L16.7969 23.4504C16.6083 21.615 15.4797 20.0238 13.837 19.2494C13.3531 19.0212 12.7807 19.2744 12.651 19.7936C12.5536 20.1822 12.7521 20.5712 13.1099 20.7488C14.2755 21.3275 15.1693 22.3265 15.1693 23.6275L15.1667 26.3332H17.6667C18.5844 26.3332 19.3333 27.0822 19.3333 27.9999H8.5C7.17292 27.9999 6.01615 26.966 6.00156 25.6395C5.92448 18.6817 11.5573 12.9994 18.5 12.9994H19.6062C20.3281 15.3999 22.5365 17.1656 25.1667 17.1656C25.4531 17.1656 25.7266 17.1197 26 17.0809V27.1656V27.1666ZM29.3333 11.3332C29.3333 13.6317 27.4646 15.4999 25.1667 15.4999C22.8687 15.4999 21 13.6301 21 11.3332V4.66656L23.7802 7.99989H26.5536L29.3333 4.66656V11.3332ZM23.5 9.66656C23.0365 9.66656 22.6667 10.0363 22.6667 10.4999C22.6667 10.9634 23.0365 11.3332 23.5 11.3332C23.9635 11.3332 24.3333 10.9634 24.3333 10.4999C24.3333 10.0363 23.9635 9.66656 23.5 9.66656ZM26 10.4999C26 10.9634 26.3698 11.3332 26.8333 11.3332C27.2969 11.3332 27.6667 10.9634 27.6667 10.4999C27.6667 10.0363 27.2969 9.66656 26.8333 9.66656C26.3698 9.66656 26 10.0363 26 10.4999Z" fill="black"/>
</g>
</g>
<defs>
<clipPath id="clip0_3_46">
<rect width="30" height="26.6667" fill="white" transform="translate(1 3)"/>
</clipPath>
</defs>
</svg>
