<svg width="32" height="32" viewBox="0 0 32 32" fill="none" xmlns="http://www.w3.org/2000/svg">
<g clip-path="url(#clip0_53_541)">
<path d="M14.8333 10.4444C14.8333 9.80035 15.3535 9.27778 16 9.27778C16.6465 9.27778 17.1667 9.80035 17.1667 10.4444C17.1667 11.091 16.6465 11.6111 16 11.6111C15.3535 11.6111 14.8333 11.091 14.8333 10.4444ZM15.2806 20.1229C13.7201 18.2174 10.1667 13.4875 10.1667 10.8333C10.1667 7.61188 12.7771 5 16 5C19.2229 5 21.8333 7.61188 21.8333 10.8333C21.8333 13.4875 18.2799 18.2174 16.7194 20.1229C16.3451 20.6333 15.6549 20.6333 15.2806 20.1229ZM19.8208 12.491C20.1465 11.7569 20.2778 11.1931 20.2778 10.8333C20.2778 8.47083 18.3625 6.55556 16 6.55556C13.6375 6.55556 11.7222 8.47083 11.7222 10.8333C11.7222 11.1931 11.8535 11.7569 12.1792 12.491C12.4951 13.2833 12.9424 14.1097 13.4625 14.9507C14.2938 16.3021 15.2563 17.6097 16 18.5674C16.7438 17.6097 17.7063 16.3021 18.5375 14.9507C19.0576 14.1097 19.5049 13.2833 19.8208 12.491ZM21.7313 15.8354C21.6924 15.85 21.6535 15.8597 21.6097 15.8694C22.0083 15.184 22.3729 14.4743 22.6694 13.784L28.4007 11.4896C29.1687 11.1833 30 11.7472 30 12.5736V25.7375C30 26.2139 29.7083 26.6417 29.266 26.8215L21.7313 29.8354C21.5708 29.8986 21.3958 29.9083 21.2306 29.8597L10.5993 26.8215L3.59979 29.6215C2.83368 29.9278 2 29.3639 2 28.5375V15.3736C2 14.8972 2.29021 14.4694 2.73354 14.2896L8.72292 11.8979C8.825 12.4035 8.98056 12.909 9.17014 13.3903L3.55556 15.6361V27.9639L9.77778 25.475V19.734C9.77778 19.35 10.1278 18.9563 10.5556 18.9563C10.9833 18.9563 11.3333 19.35 11.3333 19.734V25.4118L20.6667 28.0806V19.734C20.6667 19.35 21.0167 18.9563 21.4444 18.9563C21.8722 18.9563 22.2222 19.35 22.2222 19.734V27.9639L28.4444 25.475V13.1472L21.7313 15.8354Z" fill="black"/>
</g>
<defs>
<clipPath id="clip0_53_541">
<rect width="28" height="24.8889" fill="white" transform="translate(2 5)"/>
</clipPath>
</defs>
</svg>
