<svg width="32" height="32" viewBox="0 0 32 32" fill="none" xmlns="http://www.w3.org/2000/svg">
<g clip-path="url(#clip0_47_244)">
<path d="M26.4337 4.24101C23.4457 1.253 18.5839 1.253 15.5959 4.24101L4.24097 15.5959C1.25301 18.5839 1.25301 23.4457 4.24097 26.4337C6.52368 28.7164 9.61528 30 12.8509 30C13.1827 30 13.4818 29.8001 13.6088 29.4936C13.7358 29.187 13.6656 28.8341 13.431 28.5995L8.36386 23.5324C8.00232 23.1708 7.8032 22.6901 7.8032 22.1787C7.8032 21.7139 7.96825 21.2746 8.26985 20.9269L14.7017 27.3587C15.022 27.679 15.5415 27.6791 15.8619 27.3587C16.1823 27.0383 16.1823 26.5188 15.8619 26.1984L9.42628 19.7627L10.5632 18.6258L16.9989 25.0615C17.3192 25.3818 17.8387 25.3819 18.1592 25.0615C18.4796 24.7411 18.4796 24.2216 18.1592 23.9012L11.7233 17.4656L12.8603 16.3286L19.2959 22.7643C19.6162 23.0847 20.1357 23.0847 20.4561 22.7643C20.7766 22.4439 20.7766 21.9245 20.4561 21.6041L14.0205 15.1684L15.1574 14.0314L21.593 20.4671C21.9134 20.7875 22.4329 20.7876 22.7533 20.4671C23.0737 20.1467 23.0737 19.6273 22.7533 19.3069L16.3177 12.8712L17.4546 11.7342L23.8903 18.1699C24.0505 18.3302 24.2604 18.4102 24.4704 18.4102C24.6804 18.4102 24.8904 18.3301 25.0505 18.1699C25.371 17.8495 25.371 17.3301 25.0505 17.0097L18.6148 10.5741L19.7518 9.43714L26.1874 15.8728C26.5078 16.1932 27.0273 16.1932 27.3477 15.8728C27.6681 15.5524 27.6681 15.033 27.3477 14.7126L20.9151 8.28001C21.6602 7.62332 22.8068 7.63842 23.5323 8.3639L28.5994 13.431C28.8341 13.6657 29.1869 13.7359 29.4935 13.6089C29.8001 13.4819 30 13.1827 30 12.8509C30 9.62264 28.7216 6.52892 26.4337 4.24101ZM24.6925 7.20365C23.3032 5.81432 21.0543 5.81404 19.6648 7.20365L7.20361 19.6649C5.81428 21.0541 5.814 23.3031 7.20361 24.6926L10.639 28.1281C8.66891 27.7093 6.85903 26.7313 5.40122 25.2735C3.05299 22.9253 3.05299 19.1044 5.40122 16.7562L16.7562 5.40126C19.1044 3.05309 22.9251 3.05304 25.2735 5.40126C26.7312 6.85907 27.7092 8.66895 28.128 10.6391L24.6925 7.20365Z" fill="black"/>
</g>
<defs>
<clipPath id="clip0_47_244">
<rect width="28" height="28" fill="white" transform="translate(2 2)"/>
</clipPath>
</defs>
</svg>
