<svg width="32" height="32" viewBox="0 0 32 32" fill="none" xmlns="http://www.w3.org/2000/svg">
<g clip-path="url(#clip0_53_542)">
<path d="M22.5 2H8.5C6.56734 2 5 3.56734 5 5.5V26.5C5 28.4327 6.56734 30 8.5 30H22.5C24.4327 30 26 28.4327 26 26.5V5.5C26 3.56734 24.4305 2 22.5 2ZM24.25 26.5C24.25 27.4647 23.4647 28.25 22.5 28.25H8.5C7.53531 28.25 6.75 27.4647 6.75 26.5V10.75H24.25V26.5ZM24.25 9H6.75V5.5C6.75 4.53531 7.53531 3.75 8.5 3.75H22.5C23.4647 3.75 24.25 4.53531 24.25 5.5V9ZM9.375 25.625H16.375C16.8584 25.625 17.25 25.2334 17.25 24.75C17.25 24.266 16.8584 23.875 16.375 23.875H9.375C8.89156 23.875 8.5 24.2687 8.5 24.75C8.5 25.2313 8.89156 25.625 9.375 25.625ZM20.75 26.0625C21.4746 26.0625 22.0625 25.4746 22.0625 24.75C22.0625 24.0254 21.4746 23.4375 20.75 23.4375C20.0254 23.4375 19.4375 24.0254 19.4375 24.75C19.4375 25.4746 20.0227 26.0625 20.75 26.0625ZM20.75 20.8125C21.4746 20.8125 22.0625 20.2246 22.0625 19.5C22.0625 18.7754 21.4773 18.1875 20.75 18.1875C20.0227 18.1875 19.4375 18.7727 19.4375 19.5C19.4375 20.2273 20.0227 20.8125 20.75 20.8125ZM20.75 15.5625C21.4746 15.5625 22.0625 14.9746 22.0625 14.25C22.0625 13.5254 21.4773 12.9375 20.75 12.9375C20.0227 12.9375 19.4375 13.5227 19.4375 14.25C19.4375 14.9773 20.0227 15.5625 20.75 15.5625ZM15.5 20.8125C16.2246 20.8125 16.8125 20.2246 16.8125 19.5C16.8125 18.7754 16.2273 18.1875 15.5 18.1875C14.7727 18.1875 14.1875 18.7727 14.1875 19.5C14.1875 20.2273 14.7727 20.8125 15.5 20.8125ZM15.5 15.5625C16.2246 15.5625 16.8125 14.9746 16.8125 14.25C16.8125 13.5254 16.2273 12.9375 15.5 12.9375C14.7727 12.9375 14.1875 13.5227 14.1875 14.25C14.1875 14.9773 14.7727 15.5625 15.5 15.5625ZM10.25 20.8125C10.9746 20.8125 11.5625 20.2246 11.5625 19.5C11.5625 18.7754 10.9773 18.1875 10.25 18.1875C9.52266 18.1875 8.9375 18.7727 8.9375 19.5C8.9375 20.2273 9.52539 20.8125 10.25 20.8125ZM10.25 15.5625C10.9746 15.5625 11.5625 14.9746 11.5625 14.25C11.5625 13.5254 10.9773 12.9375 10.25 12.9375C9.52266 12.9375 8.9375 13.5227 8.9375 14.25C8.9375 14.9773 9.52539 15.5625 10.25 15.5625Z" fill="black"/>
</g>
<defs>
<clipPath id="clip0_53_542">
<rect width="21" height="28" fill="white" transform="translate(5 2)"/>
</clipPath>
</defs>
</svg>
