<svg width="32" height="32" viewBox="0 0 32 32" fill="none" xmlns="http://www.w3.org/2000/svg">
<g clip-path="url(#clip0_47_140)">
<path d="M27.6626 6.34076C27.3637 6.04193 26.9243 5.92451 26.5141 6.04779C25.0024 6.51045 21.4094 7.6242 18.6672 8.80779C18.6124 8.62826 18.4994 7.84967 17.7241 7.51873C17.3257 7.34857 16.8686 7.37201 16.4876 7.57732C14.4602 8.63201 9.4563 11.3803 6.7188 14.1164C3.09162 17.7436 3.09162 23.6508 6.7188 27.2789C10.3577 30.9117 16.2532 30.9117 19.8907 27.2789C22.6211 24.5484 25.3704 19.5445 26.4297 17.5148C26.629 17.134 26.6465 16.6828 26.4825 16.2783C26.1656 15.5095 25.4029 15.405 25.1934 15.3351C26.3653 12.6103 27.4903 9.0117 27.9534 7.49295C28.0795 7.08467 27.9623 6.63935 27.6623 6.34076H27.6626ZM23.111 16.2839L25.0976 16.8173C25.0976 16.8173 21.4118 23.6329 18.8257 26.2158C15.7844 29.257 10.8194 29.2626 7.78193 26.2158C4.74443 23.1689 4.74068 18.2095 7.78193 15.172C10.3661 12.5939 17.1241 8.88607 17.1241 8.88607L17.7157 10.9017C17.7157 10.9017 20.5961 9.45232 26.3219 7.68467C24.686 13.012 23.111 16.2839 23.111 16.2839ZM14.3922 14.1464C14.2751 13.9062 14.0231 13.7475 13.7477 13.7475C13.4782 13.7475 13.2265 13.9054 13.1032 14.1459L11.6383 17.1225L8.36365 17.6053C8.09412 17.6463 7.87146 17.8338 7.7838 18.0919C7.70177 18.3555 7.77208 18.6365 7.9713 18.8301L10.3385 21.1448L9.77599 24.4087C9.74083 24.6197 9.79943 24.8306 9.94005 24.9947C10.0748 25.1587 10.274 25.2525 10.4847 25.2525C10.6019 25.2525 10.7191 25.2232 10.8187 25.1646L13.7489 23.6304L16.6837 25.1646C16.9237 25.2935 17.2167 25.2759 17.4394 25.1119C17.6561 24.9537 17.7675 24.6783 17.7206 24.4087L17.1637 21.1448L19.5309 18.8301C19.7301 18.6368 19.8004 18.3558 19.7126 18.0919C19.6305 17.834 19.402 17.6465 19.1322 17.6053L15.8172 17.1225L14.3922 14.1459V14.1464ZM15.5547 20.6151L15.9766 23.0995L13.7501 21.9276L11.5296 23.0995L11.9573 20.6151L10.1526 18.8573L12.5948 18.494L13.7081 16.2379L14.8214 18.494L17.3114 18.8573L15.5545 20.6151H15.5547Z" fill="black"/>
</g>
<defs>
<clipPath id="clip0_47_140">
<rect width="24" height="24" fill="white" transform="translate(4 6)"/>
</clipPath>
</defs>
</svg>
