<svg width="32" height="33" viewBox="0 0 32 33" fill="none" xmlns="http://www.w3.org/2000/svg">
<path d="M30 18.1111C28.7118 18.1111 27.6667 19.1562 27.6667 20.4444C27.6667 21.7326 28.7118 22.7778 30 22.7778V26.6666C30 28.3826 28.6049 29.7778 26.8889 29.7778H5.11111C3.39271 29.7778 2 28.3826 2 26.6666V22.7778C3.28868 22.7778 4.33333 21.7326 4.33333 20.4444C4.33333 19.1562 3.28868 18.1111 2 18.1111V14.2222C2 12.5038 3.39271 11.1111 5.11111 11.1111H26.8889C28.6049 11.1111 30 12.5038 30 14.2222V18.1111ZM5.11111 12.6666C4.25215 12.6666 3.55556 13.3618 3.55556 14.2222V16.8812C4.92882 17.4791 5.88889 18.85 5.88889 20.4444C5.88889 22.0389 4.92882 23.3659 3.55556 24.0076V26.6666C3.55556 27.5271 4.25215 28.2222 5.11111 28.2222H26.8889C27.7493 28.2222 28.4444 27.5271 28.4444 26.6666V24.0076C27.0688 23.3659 26.1111 22.0389 26.1111 20.4444C26.1111 18.85 27.0688 17.4791 28.4444 16.8812V14.2222C28.4444 13.3618 27.7493 12.6666 26.8889 12.6666H5.11111Z" fill="black"/>
<g clip-path="url(#clip0_47_175)">
<path d="M20.748 15.1231C20.9063 15.2403 21 15.4278 21 15.625V17.0313V22.1875C21 23.0508 20.1602 23.75 19.125 23.75C18.0898 23.75 17.25 23.0508 17.25 22.1875C17.25 21.3242 18.0898 20.625 19.125 20.625C19.3437 20.625 19.5547 20.6563 19.75 20.7149V17.8711L14.75 19.3711V23.4375C14.75 24.3008 13.9102 25 12.875 25C11.8398 25 11 24.3008 11 23.4375C11 22.5742 11.8398 21.875 12.875 21.875C13.0937 21.875 13.3047 21.9063 13.5 21.9649V18.9063V17.5C13.5 17.2246 13.6816 16.9805 13.9453 16.9004L20.1953 15.0254C20.3848 14.9688 20.5898 15.0039 20.748 15.1231Z" fill="black"/>
</g>
<defs>
<clipPath id="clip0_47_175">
<rect width="10" height="10" fill="white" transform="translate(11 15)"/>
</clipPath>
</defs>
</svg>
