<svg width="32" height="32" viewBox="0 0 32 32" fill="none" xmlns="http://www.w3.org/2000/svg">
<g clip-path="url(#clip0_53_540)">
<path d="M28.4444 11.6666H3.55556V15.5604C6.14847 15.6479 8.22222 17.7819 8.22222 20.3972V24.5486C7.74097 24.2715 7.20139 24.1305 6.66667 24.1354V20.3972C6.66667 18.5791 5.19618 17.1111 3.3825 17.1111C2.61931 17.1111 2 16.4937 2 15.7305V11.6666C2 10.8077 2.6966 10.1111 3.55556 10.1111H28.4444C29.3049 10.1111 30 10.8077 30 11.6666V15.7305C30 16.4937 29.3826 17.1111 28.6194 17.1111C26.8014 17.1111 25.3333 18.5791 25.3333 20.3972V24.1354C24.7549 24.1354 24.259 24.2715 23.7778 24.5486V20.3972C23.7778 17.7819 25.8535 15.6479 28.4444 15.5604V11.6666ZM11.3333 25.6909V20.2222C11.3333 17.6021 13.3799 15.5555 16 15.5555C18.5764 15.5555 20.6667 17.6021 20.6667 20.2222V25.6909C20.1611 25.6909 19.6313 25.584 19.1111 25.3896V20.2222C19.1111 18.5062 17.716 17.1111 16 17.1111C14.284 17.1111 12.8889 18.5062 12.8889 20.2222V25.3944C12.3882 25.5791 11.8632 25.6909 11.3333 25.6909ZM14.1576 27.7472C14.634 27.4215 15.0375 27.0666 15.4215 26.6826C15.7375 26.3666 16.2576 26.3666 16.5736 26.6826C16.9625 27.0666 17.3174 27.4215 17.8375 27.7472C18.6396 28.2916 19.6507 28.734 20.6229 28.734C21.6826 28.734 22.6889 28.2916 23.4958 27.7472C23.9674 27.4215 24.3708 27.0666 24.7549 26.6826C25.0708 26.3666 25.591 26.3666 25.9069 26.6826C26.2958 27.0666 26.6507 27.4215 27.1708 27.7472C27.7931 28.1701 28.5368 28.5541 29.3146 28.7097C29.6889 28.7826 30 29.0889 30 29.468C30 29.9444 29.5674 30.3382 29.1396 30.2555C28.0167 30.0659 27.0201 29.5264 26.2958 29.0305C25.9069 28.768 25.5813 28.5055 25.2896 28.2479C25.0806 28.5055 24.7549 28.768 24.3708 29.0305C23.4618 29.6479 22.1396 30.2896 20.6229 30.2896C19.1938 30.2896 17.8667 29.6479 16.9625 29.0305C16.5736 28.768 16.2479 28.5055 15.9563 28.2479C15.7472 28.5055 15.4215 28.768 15.0375 29.0305C14.1285 29.6479 12.8063 30.2896 11.2896 30.2896C9.86042 30.2896 8.53333 29.6479 7.62917 29.0305C7.24028 28.768 6.91458 28.5055 6.66472 28.2479C6.41486 28.5055 6.08917 28.768 5.70368 29.0305C4.97743 29.5264 3.98382 30.0659 2.85993 30.2555C2.38938 30.3382 2 29.9444 2 29.468C2 29.0889 2.31208 28.7826 2.68639 28.7097C3.46125 28.5541 4.20549 28.1701 4.82674 27.7472C5.30215 27.4215 5.70174 27.0666 6.08625 26.6826C6.40562 26.3666 6.92382 26.3666 7.23979 26.6826C7.62868 27.0666 8.03215 27.4264 8.50368 27.7472C9.30576 28.2916 10.3169 28.734 11.2891 28.734C12.3488 28.734 13.3551 28.2916 14.1572 27.7472H14.1576Z" fill="black"/>
</g>
<defs>
<clipPath id="clip0_53_540">
<rect width="28" height="24.8889" fill="white" transform="translate(2 7)"/>
</clipPath>
</defs>
</svg>
