<svg width="32" height="32" viewBox="0 0 32 32" fill="none" xmlns="http://www.w3.org/2000/svg">
<g clip-path="url(#clip0_47_167)">
<path d="M12.6641 10.3594H2.82031C2.36728 10.3594 2 10.7267 2 11.1797V18.2891C2 18.7421 2.36728 19.1094 2.82031 19.1094H6.92188V27.8594H5.28125C4.82822 27.8594 4.46094 28.2267 4.46094 28.6797C4.46094 29.1327 4.82822 29.5 5.28125 29.5H10.2031C10.6562 29.5 11.0234 29.1327 11.0234 28.6797C11.0234 28.2267 10.6562 27.8594 10.2031 27.8594H8.5625V19.1094H12.6641C13.1171 19.1094 13.4844 18.7421 13.4844 18.2891V11.1797C13.4844 10.7267 13.1171 10.3594 12.6641 10.3594ZM6.92188 17.4688H3.64062V12H6.92188V17.4688ZM11.8438 17.4688H8.5625V12H11.8438V17.4688Z" fill="black"/>
<path d="M28.5699 6.72107L28.3594 6.65091V2.32031C28.3594 1.86728 27.9921 1.5 27.5391 1.5C27.086 1.5 26.7188 1.86728 26.7188 2.32031V7.24219C26.7188 7.5953 26.9447 7.90872 27.2797 8.02039L28.0511 8.27753C28.2355 8.339 28.3594 8.51094 28.3594 8.7053C28.3594 8.95396 28.1571 9.15625 27.9084 9.15625H23.3238C23.1152 8.42147 22.6337 7.80033 21.9963 7.4098C22.5526 6.78227 22.8906 5.9572 22.8906 5.05469C22.8906 3.09463 21.296 1.5 19.336 1.5C17.3759 1.5 15.7813 3.09463 15.7813 5.05469C15.7813 5.9572 16.1193 6.78227 16.6756 7.4098C15.8118 7.93896 15.2344 8.89156 15.2344 9.97656V17.6328C15.2344 18.6865 15.779 19.6154 16.6016 20.1528V27.1916L15.5423 28.0391C15.1885 28.3221 15.1311 28.8383 15.4142 29.1921C15.6972 29.5458 16.2134 29.6032 16.5671 29.3202L17.9343 28.2264C18.1289 28.0707 18.2422 27.8351 18.2422 27.5859V20.6406H20.4297V27.5859C20.4297 27.8351 20.543 28.0708 20.7376 28.2265L22.1048 29.3202C22.4586 29.6033 22.9748 29.5459 23.2578 29.1921C23.5408 28.8383 23.4834 28.3221 23.1296 28.0391L22.0703 27.1916V20.1528C22.8929 19.6154 23.4375 18.6865 23.4375 17.6328V10.7969H27.9084C29.0617 10.7969 30 9.8586 30 8.7053C30 7.80361 29.4253 7.00627 28.5699 6.72107ZM19.336 3.14062C20.3914 3.14062 21.25 3.99927 21.25 5.05469C21.25 6.1101 20.3914 6.96875 19.336 6.96875C18.2805 6.96875 17.4219 6.1101 17.4219 5.05469C17.4219 3.99927 18.2805 3.14062 19.336 3.14062ZM21.7969 17.6328C21.7969 18.3867 21.1836 19 20.4297 19H18.2422C17.4883 19 16.875 18.3867 16.875 17.6328V17.3594H21.7969V17.6328ZM21.7969 15.7188H16.875V9.97656C16.875 9.2227 17.4883 8.60938 18.2422 8.60938H20.4297C21.1836 8.60938 21.7969 9.2227 21.7969 9.97656V15.7188Z" fill="black"/>
</g>
<defs>
<clipPath id="clip0_47_167">
<rect width="28" height="28" fill="white" transform="translate(2 1.5)"/>
</clipPath>
</defs>
</svg>
