<svg width="32" height="32" viewBox="0 0 32 32" fill="none" xmlns="http://www.w3.org/2000/svg">
<g clip-path="url(#clip0_47_245)">
<path d="M29.1776 11.3666H27.8105C26.1522 11.3666 24.803 12.7158 24.803 14.3742V18.1177L23.3207 21.0822L21.6312 21.4076V17.872C21.6312 16.4548 20.4783 15.3019 19.0611 15.3019H17.4816C18.6473 13.9684 19.6353 12.681 19.6353 11.31C19.6353 10.3839 19.2243 9.5717 18.4467 8.96116C17.9088 8.53879 17.3745 8.36053 17.3154 8.34155C17.048 8.25592 16.7556 8.3129 16.54 8.49259C16.5139 8.5144 13.8963 10.6949 11.7406 12.4194C10.7491 13.2126 10.0636 13.4015 9.33787 13.6016C8.24213 13.9036 7.11074 14.2156 5.32359 16.1769H2.82025C2.36725 16.1769 2 16.5441 2 16.9971V27.4963C2 27.9493 2.36725 28.3165 2.82025 28.3165H5.69111C9.06123 28.3165 16.9378 30.0411 16.9581 30.044C17.7343 30.1548 18.4006 29.9301 19.0898 29.5699C27.3074 25.4287 27.0225 25.5723 27.0334 25.5666C27.6667 25.2349 28.249 24.494 28.4255 23.798L29.9648 18.542C30.0126 18.3786 29.9979 12.1869 29.9979 12.1869C29.9979 11.7338 29.6306 11.3666 29.1776 11.3666ZM19.0611 16.9423C19.5737 16.9423 19.9907 17.3593 19.9907 17.8719V21.7237L17.6941 22.166V20.7452L18.4312 19.6394C18.6825 19.2624 18.5806 18.7532 18.2037 18.5019C17.8268 18.2506 17.3175 18.3524 17.0662 18.7294L16.6463 19.3593L15.0325 18.2834C15.3123 17.8425 15.6631 17.393 16.0424 16.9423H19.0611ZM16.0536 20.9357V22.1394C14.8973 21.7599 14.2916 20.846 14.4037 19.8358L16.0536 20.9357ZM28.3574 18.1937C27.0047 22.8125 26.8437 23.3603 26.8364 23.3906C26.7792 23.6268 26.4927 23.9949 26.2766 24.111L18.346 28.1076C18.1081 28.2284 17.7313 28.413 17.4609 28.4269C17.3835 28.4309 17.2918 28.4314 17.2143 28.4229C16.5585 28.2793 9.15414 26.676 5.69106 26.676H3.64049V17.8173H5.69111C5.92789 17.8173 6.15307 17.715 6.30881 17.5367C7.91803 15.6946 8.77803 15.4576 9.77386 15.1831C10.5879 14.9586 11.5105 14.7044 12.7655 13.7004C14.4326 12.3667 16.3721 10.7637 17.1921 10.0836C17.5388 10.2887 17.9948 10.6785 17.9948 11.31C17.9948 12.2598 16.8434 13.5545 15.7298 14.8065C14.2635 16.4553 12.7472 18.1602 12.7504 20.0607C12.7543 22.3942 14.7909 23.9418 17.0702 23.9418C17.192 23.9418 24.0285 22.6166 24.0285 22.6166C24.2791 22.5683 24.4929 22.4062 24.607 22.1779L26.3569 18.6782C26.4139 18.5643 26.4435 18.4387 26.4435 18.3114V14.3742C26.4435 13.6204 27.0568 13.0071 27.8106 13.0071H28.3574L28.3574 18.1937Z" fill="black"/>
<path d="M22.4185 8.82772C22.7388 9.14805 23.2581 9.14805 23.5784 8.82772C23.8988 8.50744 23.8988 7.98806 23.5784 7.66772L23.2289 7.31808H24.3109C25.3059 7.31808 26.1154 8.12761 26.1154 9.12262C26.1154 9.57562 26.4827 9.94287 26.9357 9.94287C27.3887 9.94287 27.7559 9.57562 27.7559 9.12262C27.7559 7.22304 26.2105 5.67759 24.3109 5.67759H23.2289L23.5784 5.328C23.8988 5.00772 23.8988 4.48828 23.5784 4.168C23.2582 3.84773 22.7388 3.84773 22.4185 4.168L20.6686 5.91786C20.3483 6.23814 20.3483 6.75758 20.6686 7.07786L22.4185 8.82772Z" fill="black"/>
</g>
<defs>
<clipPath id="clip0_47_245">
<rect width="28" height="28" fill="white" transform="translate(2 3)"/>
</clipPath>
</defs>
</svg>
