<svg width="32" height="32" viewBox="0 0 32 32" fill="none" xmlns="http://www.w3.org/2000/svg">
<g id="l_lion_&#203;&#136;la&#201;&#170;-&#201;&#153;n">
<g id="fi_1962436" clip-path="url(#clip0_10_1058)">
<path id="Vector" d="M11.0776 13.3062C11.0776 12.8532 11.4449 12.4859 11.8979 12.4859V12.4859C12.351 12.4859 12.7183 12.8532 12.7183 13.3062V13.3427C12.7183 13.7958 12.351 14.1631 11.8979 14.1631V14.1631C11.4449 14.1631 11.0776 13.7958 11.0776 13.3427V13.3062Z" fill="black"/>
<path id="Vector_2" d="M19.2817 13.3062C19.2817 12.8532 19.649 12.4859 20.1021 12.4859V12.4859C20.5551 12.4859 20.9224 12.8532 20.9224 13.3062V13.3427C20.9224 13.7958 20.5551 14.1631 20.1021 14.1631V14.1631C19.649 14.1631 19.2817 13.7958 19.2817 13.3427V13.3062Z" fill="black"/>
<path id="Vector_3" d="M24.7251 12.1657C24.354 10.6182 23.5166 9.25551 22.3034 8.22521C21.1992 7.28762 19.7508 6.91079 18.3298 7.19085L16.0639 7.63753L13.798 7.19085C12.3772 6.91079 10.9286 7.28762 9.82442 8.22521C8.61126 9.25551 7.77386 10.618 7.40279 12.1657L7.35644 12.359C6.99178 13.8792 7.42138 15.4591 8.5053 16.5853L9.38415 17.4986L8.98232 18.32C8.63326 19.0328 8.63006 19.8523 8.97399 20.5679L9.08593 20.801C9.44482 21.548 10.0163 22.1581 10.7383 22.5653C10.865 22.6366 10.9961 22.6965 11.1303 22.7475L11.9745 24.2563C12.5438 25.2734 13.7649 25.7611 14.8787 25.4157L16.0639 25.0478L17.2491 25.4157C17.4894 25.4902 17.7347 25.5259 17.9773 25.5259C18.8594 25.5259 19.7068 25.054 20.1533 24.2561L20.9971 22.7484C21.1313 22.6973 21.2627 22.6366 21.3893 22.5653C22.1116 22.1581 22.6828 21.5482 23.0419 20.801L23.1539 20.5679C23.4976 19.8523 23.4946 19.033 23.1455 18.32L22.7435 17.4986L23.6223 16.5853C24.7063 15.4591 25.1359 13.8792 24.7714 12.359L24.7251 12.1657ZM17.7353 23.8487L16.0639 23.3301L14.3925 23.8487C14.0146 23.966 13.5996 23.8005 13.4062 23.455L13.0395 22.7999C13.0644 22.7917 13.0897 22.784 13.1144 22.7753L14.4788 22.2972L16.0639 21.7728L17.6482 22.297L19.0132 22.7753C19.0382 22.784 19.0634 22.7913 19.0886 22.7994L18.7216 23.455C18.5283 23.8005 18.1134 23.966 17.7353 23.8487ZM22.4404 15.4478L20.7651 17.1884L21.672 19.0412C21.7989 19.3001 21.7999 19.5976 21.6749 19.8576L21.5632 20.0905C21.3505 20.5333 21.0119 20.8948 20.584 21.1359C20.3507 21.2673 20.0837 21.3192 19.8222 21.2883L18.1777 20.7442L16.8842 20.2911V18.6314C18.0936 18.2762 18.9795 17.1572 18.9795 15.8345H17.3388C17.3388 16.5373 16.767 17.1092 16.0639 17.1092C15.3609 17.1092 14.789 16.5373 14.789 15.8345H13.1484C13.1484 17.157 14.0343 18.2762 15.2436 18.6314V20.2911L13.9493 20.7446L12.3054 21.2885C12.0442 21.3194 11.7772 21.2675 11.5439 21.1359C11.116 20.8948 10.7774 20.5333 10.5646 20.0905L10.4529 19.8574C10.3279 19.5976 10.329 19.3001 10.4559 19.0412L11.3627 17.1884L9.68749 15.4478C8.99343 14.7266 8.71828 13.7149 8.95177 12.7416L8.99834 12.5483C9.28759 11.3415 9.94042 10.2792 10.8863 9.47576C11.4512 8.99617 12.1538 8.74132 12.8777 8.74132C13.0779 8.74132 13.28 8.76076 13.4808 8.8005L16.0639 9.30977L18.6471 8.8005C19.5748 8.61763 20.5205 8.86373 21.2413 9.47576C22.1872 10.2792 22.8403 11.3415 23.1295 12.5483L23.1759 12.7416C23.4094 13.7149 23.1344 14.7266 22.4404 15.4478Z" fill="black"/>
<path id="Vector_4" d="M30 16.1184C30 11.7139 28.4927 9.10533 27.228 7.69285C26.789 7.20237 26.3468 6.81678 25.9439 6.5175L28.1987 5.62904L27.341 4.74592C24.6218 1.94596 21.5467 1.78169 19.4457 2.13694C17.882 2.40141 16.6317 2.98246 16 3.3217C15.3683 2.98246 14.118 2.40141 12.5543 2.13694C10.4531 1.78169 7.37817 1.94596 4.65897 4.74592L3.80127 5.62925L6.05585 6.5175C5.65317 6.81678 5.21097 7.20237 4.77197 7.69285C3.50732 9.10533 2 11.7139 2 16.1184V16.7735L3.89954 17.204C3.72052 17.894 3.53894 18.9183 3.59982 20.1001C3.70215 22.0857 4.52417 24.9077 7.85968 27.0751L8.49158 27.4857L9.34735 26.3853C10.2965 27.6299 12.3178 29.5644 15.9062 29.9782L16.0002 29.9889L16.094 29.9782C19.6824 29.5644 21.7037 27.6299 22.6529 26.3853L23.5086 27.4857L24.1405 27.0751C27.4758 24.9077 28.2981 22.0857 28.4004 20.1001C28.4613 18.9183 28.2797 17.894 28.1007 17.204L30 16.7735V16.1184ZM26.8655 15.8018L25.9132 16.0201L26.2913 16.9214C26.2971 16.935 26.8642 18.3106 26.7583 20.0776C26.6333 22.1577 25.66 23.9004 23.8618 25.2672L22.4177 23.4102L21.8479 24.618C21.8328 24.65 20.3009 27.7984 16 28.337C14.2246 28.115 12.7081 27.4323 11.4911 26.3065C10.5562 25.4417 10.1544 24.6227 10.1521 24.618L9.58255 23.41L8.13846 25.267C6.34018 23.9002 5.3667 22.1577 5.24173 20.0776C5.13577 18.3106 5.70294 16.935 5.70786 16.9237L6.09409 16.019L3.65259 15.4657C3.75513 12.697 4.5199 10.4768 5.93002 8.86009C7.05432 7.57087 8.19955 7.16072 8.20596 7.15837L10.3883 6.46089L6.78772 5.04243C8.35956 3.84956 10.1839 3.41334 12.2272 3.74574C14.1376 4.05656 15.5407 4.94822 15.5531 4.95634L15.9994 5.24409L16.4452 4.95719C16.4593 4.94822 17.8624 4.05656 19.7728 3.74574C21.8159 3.41334 23.6402 3.84956 25.2123 5.04243L21.6555 6.4438L23.794 7.15837C23.8383 7.17332 28.0894 8.67445 28.3472 15.466L26.8655 15.8018Z" fill="black"/>
</g>
</g>
<defs>
<clipPath id="clip0_10_1058">
<rect width="28" height="28" fill="white" transform="translate(2 2)"/>
</clipPath>
</defs>
</svg>
