<svg width="32" height="32" viewBox="0 0 32 32" fill="none" xmlns="http://www.w3.org/2000/svg">
<g clip-path="url(#clip0_53_710)">
<path d="M8.8125 11.875C8.8125 11.1477 9.40039 10.5625 10.125 10.5625C10.8523 10.5625 11.4375 11.1477 11.4375 11.875C11.4375 12.6023 10.8523 13.1875 10.125 13.1875C9.40039 13.1875 8.8125 12.6023 8.8125 11.875ZM4 8.375C4 6.92523 5.17469 5.75 6.62445 5.75H14.8002C15.7299 5.75 16.6159 6.11859 17.2721 6.77539L26.8971 16.3977C28.2643 17.7648 28.2643 19.9852 26.8971 21.3523L19.6018 28.6477C18.2346 30.0148 16.0143 30.0148 14.6471 28.6477L5.02484 19.0227C4.36804 18.3664 3.99945 17.4805 3.99945 16.5508V8.375H4ZM6.26187 17.7867L15.8885 27.4117C16.5721 28.0953 17.6768 28.0953 18.3604 27.4117L25.6612 20.1109C26.3448 19.4273 26.3448 18.3227 25.6612 17.6391L16.0362 8.01242C15.708 7.6843 15.2159 7.5 14.8002 7.5H6.62445C6.14101 7.5 5.74945 7.89156 5.74945 8.375V16.5508C5.74945 16.9664 5.93375 17.4586 6.26187 17.7867Z" fill="black"/>
</g>
<defs>
<clipPath id="clip0_53_710">
<rect width="24.5" height="28" fill="white" transform="translate(4 4)"/>
</clipPath>
</defs>
</svg>
