<svg width="32" height="32" viewBox="0 0 32 32" fill="none" xmlns="http://www.w3.org/2000/svg">
<g clip-path="url(#clip0_47_225)">
<path d="M30 14.2788V12.6382C26.4835 12.6382 24.1139 13.7473 22.8858 14.5237C22.5962 14.044 22.2664 13.5961 21.9015 13.1859C23.0333 12.0725 25.1994 9.45415 25.6699 5.36916L24.04 5.18141C23.8112 7.16794 23.103 8.99833 21.935 10.6218C21.4693 11.2691 21.0189 11.753 20.6966 12.0664C20.3113 11.7724 19.9023 11.5135 19.4733 11.294C19.6171 10.8956 19.6914 10.473 19.6914 10.0406C19.6914 9.46295 19.5578 8.91608 19.3202 8.42876C19.4913 8.2718 19.6709 8.07788 19.835 7.84366C20.3238 7.14606 20.766 5.96487 20.0972 4.29919L18.5747 4.9106C18.8832 5.67885 18.8654 6.33384 18.5217 6.85742C18.4486 6.96893 18.3672 7.0648 18.287 7.14628C17.6576 6.64791 16.8633 6.34921 16 6.34921C15.1367 6.34921 14.3423 6.64791 13.713 7.14628C13.6328 7.06485 13.5514 6.96893 13.4783 6.85742C13.1346 6.33384 13.1168 5.67885 13.4253 4.9106L11.9028 4.29919C11.234 5.96487 11.6762 7.14606 12.165 7.84366C12.3291 8.07788 12.5087 8.27186 12.6798 8.42876C12.4423 8.91608 12.3086 9.46295 12.3086 10.0406C12.3086 10.473 12.3829 10.8956 12.5267 11.294C12.0978 11.5136 11.6888 11.7724 11.3034 12.0664C10.9811 11.753 10.5306 11.2691 10.065 10.6218C8.89702 8.99833 8.18871 7.16794 7.95995 5.18141L6.3301 5.36916C6.80063 9.45415 8.9667 12.0725 10.0985 13.1859C9.73363 13.5961 9.40381 14.044 9.11424 14.5237C7.88613 13.7472 5.51652 12.6382 2 12.6382V14.2788C5.30668 14.2788 7.41144 15.3506 8.38925 16.0064C8.18111 16.5478 8.0194 17.1158 7.90975 17.7044C6.61158 17.8945 3.71478 18.5203 2.00027 20.4431L3.22478 21.5349C4.43321 20.1798 6.53026 19.6172 7.74377 19.3962C7.74317 19.4404 7.74224 19.4845 7.74224 19.5288C7.74224 20.3618 7.84533 21.1686 8.03734 21.9354C7.62543 22.2049 7.07008 22.6424 6.51511 23.3078C5.58072 24.4281 4.4669 26.4466 4.4669 29.7007H6.10752C6.10752 27.5244 6.64882 25.7511 7.71637 24.43C8.02443 24.0488 8.33467 23.762 8.59947 23.5533C9.95129 26.5454 12.7605 28.607 16 28.607C19.2395 28.607 22.0487 26.5454 23.4005 23.5533C23.6653 23.762 23.9756 24.0488 24.2836 24.43C25.3512 25.7511 25.8925 27.5244 25.8925 29.7007H27.5331C27.5331 26.4467 26.4193 24.4281 25.485 23.3078C24.93 22.6424 24.3747 22.2049 23.9628 21.9354C24.1547 21.1686 24.2579 20.3618 24.2579 19.5288C24.2579 19.4839 24.2569 19.4393 24.2563 19.3945C25.4678 19.6133 27.5614 20.1736 28.7753 21.5349L29.9998 20.4431C28.2853 18.5203 25.3885 17.8945 24.0904 17.7044C23.9807 17.1158 23.819 16.5478 23.6109 16.0064C24.5886 15.3506 26.6933 14.2788 30 14.2788ZM20.1016 14.5523C20.1016 16.8139 18.2616 18.6538 16 18.6538C13.7384 18.6538 11.8984 16.8139 11.8984 14.5523C11.8984 14.2294 11.9364 13.9099 12.0102 13.5994C13.1203 12.6535 14.5028 12.0913 16 12.0913C17.4972 12.0913 18.8797 12.6535 19.9898 13.5994C20.0636 13.9099 20.1016 14.2294 20.1016 14.5523ZM13.9492 10.0406C13.9492 8.90973 14.8692 7.98978 16 7.98978C17.1308 7.98978 18.0508 8.90973 18.0508 10.0406C18.0508 10.2694 18.0123 10.4926 17.9399 10.7044C17.3175 10.539 16.668 10.4507 16 10.4507C15.332 10.4507 14.6825 10.539 14.0601 10.7044C13.9877 10.4926 13.9492 10.2693 13.9492 10.0406ZM16 26.9663C12.3512 26.9663 9.38281 23.6299 9.38281 19.5288C9.38281 18.1043 9.74123 16.7723 10.3616 15.6401C10.8715 18.2879 13.2056 20.2945 16 20.2945C18.7944 20.2945 21.1285 18.288 21.6384 15.6401C22.2588 16.7723 22.6172 18.1043 22.6172 19.5288C22.6172 23.6299 19.6488 26.9663 16 26.9663Z" fill="black"/>
</g>
<defs>
<clipPath id="clip0_47_225">
<rect width="28" height="28" fill="white" transform="translate(2 3)"/>
</clipPath>
</defs>
</svg>
