<svg width="32" height="32" viewBox="0 0 32 32" fill="none" xmlns="http://www.w3.org/2000/svg">
<g clip-path="url(#clip0_53_709)">
<path d="M28.9449 11.6968L24.1018 5.49676C22.3914 3.30719 19.3627 2 16 2C12.6373 2 9.60857 3.30719 7.89822 5.49676L3.05517 11.6968C1.89562 13.1812 1.68247 14.9591 2.47042 16.5744C3.55085 18.7893 6.24129 20.2205 9.32467 20.2205H11.4162C11.7274 20.4366 12.0611 20.6246 12.4134 20.7806V21.8129H7.6352C5.5773 21.8129 3.9031 23.4842 3.9031 25.5385V29.1799C3.9031 29.6329 4.27033 30.0001 4.72331 30.0001H27.2769C27.7298 30.0001 28.0971 29.6329 28.0971 29.1799V25.5385C28.0971 23.4842 26.4229 21.8129 24.365 21.8129H19.5868V20.7805C19.9391 20.6246 20.2728 20.4366 20.5839 20.2204H22.6755C25.7589 20.2204 28.4493 18.7893 29.5298 16.5744C30.3176 14.9591 30.1044 13.1812 28.9449 11.6968ZM8.12263 15.2404C7.67561 15.2404 7.31199 14.8768 7.31199 14.4298C7.31199 13.9828 7.67561 13.6192 8.12263 13.6192H8.95678V15.2404H8.12263ZM23.0433 13.6192H23.8775C24.3244 13.6192 24.6881 13.9828 24.6881 14.4297C24.6881 14.8767 24.3244 15.2403 23.8775 15.2403H23.0433V13.6192ZM21.4029 15.6159C21.4029 17.8474 19.4722 19.6629 17.0991 19.6629H14.9009C12.5278 19.6629 10.5972 17.8474 10.5972 15.6159V10.9348C10.5972 8.55668 12.6534 6.62192 15.1809 6.62192H16.8192C19.3467 6.62192 21.4029 8.55668 21.4029 10.9348V15.6159ZM26.4566 25.5384V28.3596H5.54346V25.5384C5.54346 24.5186 6.28175 23.6673 7.25353 23.4881V25.9065C7.25353 26.3594 7.62077 26.7267 8.07374 26.7267H23.9263C24.3793 26.7267 24.7465 26.3594 24.7465 25.9065V23.4881C25.7183 23.6673 26.4566 24.5185 26.4566 25.5384ZM18.7665 23.4533H23.1061V25.0863H8.89389V23.4533H13.2335C13.6865 23.4533 14.0537 23.086 14.0537 22.6331V21.2453C14.3305 21.2832 14.6133 21.3033 14.9009 21.3033H17.0991C17.3867 21.3033 17.6695 21.2832 17.9462 21.2453V22.6331C17.9463 23.086 18.3135 23.4533 18.7665 23.4533ZM28.0553 15.8552C27.6906 16.6029 27.0027 17.2796 26.1183 17.7605C25.1325 18.2967 23.9419 18.58 22.6754 18.58H22.1702C22.5021 18.0622 22.7497 17.49 22.8949 16.8808H23.8774C25.2289 16.8808 26.3284 15.7813 26.3284 14.4298C26.3284 13.0783 25.2289 11.9788 23.8774 11.9788H23.0432V10.9348C23.0432 7.65215 20.2511 4.98151 16.8191 4.98151H15.1808C11.7488 4.98151 8.95672 7.65215 8.95672 10.9348V11.9787H8.12257C6.77103 11.9787 5.67152 13.0783 5.67152 14.4297C5.67152 15.7812 6.77103 16.8807 8.12257 16.8807H9.10507C9.25025 17.4899 9.49789 18.0622 9.82975 18.58H9.32456C8.05805 18.58 6.86754 18.2966 5.88166 17.7605C4.99725 17.2795 4.30937 16.6029 3.94466 15.8552C3.43492 14.8102 3.57813 13.6919 4.34787 12.7065L9.19092 6.50649C10.5929 4.71193 13.1383 3.64041 16 3.64041C18.8617 3.64041 21.4071 4.71193 22.809 6.50654L27.652 12.7066C28.4218 13.692 28.565 14.8102 28.0553 15.8552Z" fill="black"/>
<path d="M19.0641 8.89618H18.3113C17.8583 8.89618 17.4911 9.26341 17.4911 9.71639C17.4911 10.1694 17.8583 10.5366 18.3113 10.5366H19.0641C19.5171 10.5366 19.8843 10.1694 19.8843 9.71639C19.8843 9.26341 19.5171 8.89618 19.0641 8.89618Z" fill="black"/>
<path d="M14.0837 11.3559C14.0837 11.8089 14.451 12.1761 14.9039 12.1761H15.7734C16.2264 12.1761 16.5936 11.8089 16.5936 11.3559C16.5936 10.903 16.2264 10.5357 15.7734 10.5357H15.7241V9.71639C15.7241 9.26341 15.3569 8.89618 14.9039 8.89618H12.9359C12.483 8.89618 12.1157 9.26341 12.1157 9.71639C12.1157 10.1694 12.483 10.5366 12.9359 10.5366H14.0837V11.3559Z" fill="black"/>
<path d="M16.3785 13.4725H15.6214C14.464 13.4725 13.5223 14.4141 13.5223 15.5716V15.9939C13.5223 17.1514 14.464 18.093 15.6214 18.093H16.3785C17.536 18.093 18.4777 17.1514 18.4777 15.9939V15.5716C18.4777 14.4141 17.536 13.4725 16.3785 13.4725ZM16.8373 15.9938C16.8373 16.2468 16.6315 16.4526 16.3785 16.4526H15.6214C15.3685 16.4526 15.1627 16.2468 15.1627 15.9938V15.5715C15.1627 15.3186 15.3685 15.1128 15.6214 15.1128H16.3785C16.6315 15.1128 16.8373 15.3186 16.8373 15.5715V15.9938Z" fill="black"/>
</g>
<defs>
<clipPath id="clip0_53_709">
<rect width="28" height="28" fill="white" transform="translate(2 2)"/>
</clipPath>
</defs>
</svg>
