<svg width="32" height="32" viewBox="0 0 32 32" fill="none" xmlns="http://www.w3.org/2000/svg">
<g clip-path="url(#clip0_53_713)">
<path d="M22.8413 12.5839C23.7568 11.8284 24.3414 10.6854 24.3414 9.40845C24.3414 7.93905 23.5668 6.64784 22.4051 5.91951C22.3999 5.89811 22.395 5.8766 22.3879 5.85547L21.8938 4.37312C21.4207 2.95366 20.0975 2 18.6013 2H13.3986C11.9024 2 10.5793 2.95366 10.1061 4.37312L9.61199 5.85552C9.60496 5.87665 9.60008 5.89811 9.59481 5.91957C8.43311 6.6479 7.65857 7.93916 7.65857 9.40851C7.65857 10.6855 8.24312 11.8284 9.15864 12.5839C8.54918 13.1128 8.16262 13.8922 8.16262 14.7606C8.16262 15.9695 8.91093 17.0062 9.96836 17.4338C9.71549 17.8541 9.56968 18.3469 9.56968 18.8796C9.56968 19.9596 10.1671 20.9023 11.0485 21.396C10.7333 21.8483 10.5487 22.3983 10.5487 22.9986C10.5487 24.2818 11.3917 25.3715 12.5529 25.7439C12.3261 26.148 12.1966 26.6152 12.1966 27.1175C12.1966 28.707 13.4897 30.0002 15.0793 30.0002H16.9205C18.51 30.0002 19.8032 28.707 19.8032 27.1175C19.8032 26.6152 19.6737 26.148 19.4468 25.7439C20.608 25.3715 21.4511 24.2818 21.4511 22.9986C21.4511 22.3983 21.2665 21.8483 20.9513 21.396C21.8327 20.9024 22.4301 19.9597 22.4301 18.8796C22.4301 18.347 22.2843 17.8542 22.0314 17.4338C23.0888 17.0063 23.8371 15.9695 23.8371 14.7607C23.8373 13.8922 23.4507 13.1128 22.8413 12.5839ZM18.157 27.1173C18.157 27.799 17.6024 28.3537 16.9206 28.3537H15.0794C14.3977 28.3537 13.843 27.7991 13.843 27.1173C13.843 26.4356 14.3976 25.8811 15.0794 25.8811H16.9206C17.6023 25.8811 18.157 26.4357 18.157 27.1173ZM18.5685 24.2347H13.4315C12.7498 24.2347 12.1952 23.6802 12.1952 22.9984C12.1952 22.3167 12.7498 21.7621 13.4315 21.7621H18.5685C19.2502 21.7621 19.8049 22.3167 19.8049 22.9985C19.8049 23.6802 19.2502 24.2347 18.5685 24.2347ZM20.7839 18.8795C20.7839 19.5612 20.2293 20.1158 19.5475 20.1158H12.4524C11.7708 20.1158 11.2161 19.5612 11.2161 18.8795C11.2161 18.1978 11.7707 17.6431 12.4524 17.6431H19.5475C20.2292 17.6432 20.7839 18.1978 20.7839 18.8795ZM20.9547 15.9969H11.0453C10.3636 15.9969 9.809 15.4423 9.809 14.7606C9.809 14.0789 10.3636 13.5243 11.0453 13.5243H20.9547C21.6363 13.5243 22.191 14.0789 22.191 14.7605C22.191 15.4422 21.6363 15.9969 20.9547 15.9969ZM9.30495 9.40845C9.30495 8.04678 10.4128 6.93897 11.7744 6.93897H20.2256C21.5872 6.93897 22.695 8.04678 22.695 9.40845C22.695 10.7701 21.5872 11.8779 20.2256 11.8779H11.7744C10.4128 11.8779 9.30495 10.7701 9.30495 9.40845ZM11.5351 5.29265L11.668 4.89369C11.9167 4.14763 12.6122 3.64632 13.3987 3.64632H18.6013C19.3878 3.64632 20.0833 4.14763 20.332 4.89374L20.4649 5.29265H20.2256H11.7744H11.5351Z" fill="black"/>
<path d="M12.1037 10.1435C12.5343 10.1435 12.9468 9.76492 12.9269 9.32035C12.9069 8.87437 12.5652 8.49719 12.1037 8.49719C11.6731 8.49719 11.2606 8.87579 11.2805 9.32035C11.3005 9.76634 11.6422 10.1435 12.1037 10.1435Z" fill="black"/>
<path d="M19.8963 10.1435C20.3269 10.1435 20.7394 9.76492 20.7195 9.32035C20.6995 8.87437 20.3578 8.49719 19.8963 8.49719C19.4657 8.49719 19.0532 8.87579 19.0731 9.32035C19.0931 9.76634 19.4348 10.1435 19.8963 10.1435Z" fill="black"/>
</g>
<defs>
<clipPath id="clip0_53_713">
<rect width="28" height="28" fill="white" transform="translate(2 2)"/>
</clipPath>
</defs>
</svg>
