<svg width="32" height="32" viewBox="0 0 32 32" fill="none" xmlns="http://www.w3.org/2000/svg">
<path d="M28.3594 5.54327H3.64062C2.73598 5.54327 2 6.27926 2 7.1839V28.8161C2 29.7207 2.73598 30.4567 3.64062 30.4567H28.3594C29.264 30.4567 30 29.7207 30 28.8161V7.1839C30 6.27926 29.264 5.54327 28.3594 5.54327ZM28.3594 28.8161H3.64062V7.1839H28.3594V28.8161Z" fill="black"/>
<path d="M18.5157 26.185C19.2575 26.185 19.9246 25.94 20.4449 25.4767C20.5467 25.386 20.6435 25.2862 20.7324 25.1802C21.0236 24.8331 20.9782 24.3156 20.6311 24.0245C20.284 23.7334 19.7666 23.7787 19.4754 24.1258C19.4374 24.1712 19.3964 24.2135 19.3538 24.2515C19.1356 24.4458 18.8536 24.5444 18.5157 24.5444C18.0491 24.5444 17.6139 24.3592 17.2902 24.0229C16.9667 23.6869 16.7984 23.2442 16.8162 22.7764C16.8497 21.8961 17.5655 21.1791 18.4457 21.1443C18.8121 21.1298 19.1651 21.2295 19.466 21.4329C19.8415 21.6866 20.3514 21.5878 20.605 21.2124C20.8586 20.8369 20.7599 20.327 20.3845 20.0734C19.7919 19.6731 19.0989 19.4765 18.3807 19.505C16.65 19.5735 15.2427 20.9831 15.1767 22.714C15.1418 23.6316 15.4726 24.5005 16.1082 25.1608C16.744 25.8212 17.599 26.185 18.5157 26.185Z" fill="black"/>
<path d="M6.42968 26.2004C6.88271 26.2004 7.24999 25.8331 7.24999 25.38C7.24999 25.38 7.25043 22.7596 7.25043 22.7567C7.25043 22.0422 7.51145 21.2079 8.24711 21.2079C8.58388 21.2079 8.66328 21.3143 8.70594 21.3715C8.78983 21.4839 8.93377 21.7825 8.95548 22.5188C8.95679 22.5641 8.95745 22.6113 8.95783 22.6591L8.95695 25.38C8.95695 25.8331 9.32424 26.2004 9.77727 26.2004C10.2303 26.2004 10.5976 25.8331 10.5976 25.38C10.5976 25.38 10.5988 22.6867 10.5985 22.6501L10.5989 22.4151C10.5991 21.234 11.2761 21.234 11.4986 21.234C11.7606 21.234 11.9392 21.2819 12.0295 21.3764C12.1327 21.4843 12.2994 21.8081 12.2563 22.7642C12.2558 22.7765 12.2555 25.38 12.2555 25.38C12.2555 25.8331 12.6228 26.2004 13.0758 26.2004C13.5288 26.2004 13.8961 25.8331 13.8961 25.38V22.8191C13.9484 21.6018 13.7319 20.7829 13.2155 20.2426C12.8036 19.8118 12.226 19.5933 11.4986 19.5933C10.8305 19.5933 10.265 19.8013 9.83813 20.1758C9.38084 19.7048 8.78513 19.5672 8.24706 19.5672C7.8276 19.5672 7.44277 19.6637 7.10381 19.8404C6.95572 19.6269 6.70919 19.4868 6.42963 19.4868C5.9766 19.4868 5.60931 19.854 5.60931 20.3071V25.38C5.60937 25.8331 5.97665 26.2004 6.42968 26.2004Z" fill="black"/>
<path d="M22.7447 22.2203C23.1891 22.3078 23.6204 22.018 23.7077 21.5734C23.7463 21.3767 23.9206 21.2339 24.122 21.2339C24.3418 21.2339 24.5229 21.4028 24.5425 21.6176L24.5328 21.6928C24.4927 21.842 24.3935 22.0831 24.1522 22.4279C23.3862 23.5223 22.9294 24.1205 22.684 24.4417C22.3664 24.8575 22.1566 25.1322 22.2913 25.5701C22.3712 25.8299 22.575 26.0369 22.8362 26.124C22.9454 26.1605 23.0234 26.1865 23.9917 26.1865C24.3685 26.1865 24.8801 26.1826 25.5806 26.1738C26.0336 26.1681 26.3963 25.7962 26.3906 25.3432C26.3849 24.8902 26.013 24.5301 25.56 24.5332C25.2624 24.5369 24.9524 24.5399 24.6582 24.5418C24.8856 24.2309 25.1625 23.8454 25.4963 23.3686C25.8312 22.8901 26.0416 22.452 26.1396 22.0293C26.1459 22.0024 26.1507 21.9753 26.1542 21.948L26.1782 21.7601C26.1827 21.7256 26.1848 21.6909 26.1848 21.6561C26.1848 20.5187 25.2594 19.5933 24.122 19.5933C23.1384 19.5933 22.2872 20.293 22.0978 21.2572C22.0104 21.7018 22.3001 22.133 22.7447 22.2203Z" fill="black"/>
<path d="M11.7422 17.6173H14.345C14.798 17.6173 15.1653 17.25 15.1653 16.797C15.1653 16.344 14.798 15.9767 14.345 15.9767H12.5626V14.5288H14.1531C14.6061 14.5288 14.9734 14.1615 14.9734 13.7085C14.9734 13.2554 14.6061 12.8882 14.1531 12.8882H12.5626V11.4402H14.345C14.798 11.4402 15.1653 11.073 15.1653 10.6199C15.1653 10.1669 14.798 9.79962 14.345 9.79962H11.7422C11.2892 9.79962 10.9219 10.1669 10.9219 10.6199V16.797C10.9219 17.25 11.2892 17.6173 11.7422 17.6173Z" fill="black"/>
<path d="M17.4501 12.8881H20.2578C20.7108 12.8881 21.0781 12.5208 21.0781 12.0678C21.0781 11.6148 20.7108 11.2475 20.2578 11.2475H17.4501C16.9971 11.2475 16.6298 11.6148 16.6298 12.0678C16.6298 12.5208 16.9971 12.8881 17.4501 12.8881Z" fill="black"/>
<path d="M17.4501 16.1694H20.2578C20.7108 16.1694 21.0781 15.8021 21.0781 15.3491C21.0781 14.896 20.7108 14.5287 20.2578 14.5287H17.4501C16.9971 14.5287 16.6298 14.896 16.6298 15.3491C16.6298 15.8021 16.9971 16.1694 17.4501 16.1694Z" fill="black"/>
</svg>
