<svg width="32" height="32" viewBox="0 0 32 32" fill="none" xmlns="http://www.w3.org/2000/svg">
<g clip-path="url(#clip0_53_712)">
<path d="M20.9 29H16.6925V26.9C16.6925 26.5128 16.3793 26.2 15.9925 26.2C15.6054 26.2 15.2925 26.5128 15.2925 26.9V29H11.1C10.7128 29 10.4004 29.3128 10.4004 29.7C10.4004 30.0867 10.715 30.4 11.1 30.4L20.8606 30.3926C21.2474 30.3926 21.5602 30.0793 21.5602 29.6926C21.5602 29.3054 21.285 28.9996 20.9 28.9996V29ZM29.9606 21.5406L28.0242 10.3406C27.7906 8.98963 26.5787 8 25.1569 8H6.84311C5.42211 8 4.21023 8.98962 3.97661 10.3397L2.04023 21.5398C1.74492 23.2469 3.11036 24.8 4.90542 24.8H27.0954C28.8887 24.8 30.2537 23.2469 29.9606 21.5406ZM13.1606 9.4H18.8612L19.4379 15.7044H12.5744L13.1606 9.4ZM10.4612 23.4H4.90542C4.44036 23.4 4.00811 23.204 3.72067 22.8623C3.5693 22.6825 3.32911 22.3027 3.41989 21.7782L4.22139 17.1801H11.0387L10.4612 23.4ZM11.17 15.7044H4.46355L5.35648 10.5419C5.47417 9.89569 6.09892 9.4 6.84311 9.4H11.7562L11.17 15.7044ZM11.87 23.4L12.4479 17.1437H19.566L20.1344 23.4H11.87ZM20.2656 9.4H25.1569C25.8997 9.4 26.5245 9.89569 26.6426 10.5782L27.5355 15.7407H20.8812L20.2656 9.4ZM28.2806 22.8619C27.9919 23.2031 27.5587 23.4 27.095 23.4H21.5387L20.97 17.1437H27.7775L28.579 21.7419C28.67 22.3019 28.4294 22.6825 28.2806 22.8619Z" fill="black"/>
</g>
<defs>
<clipPath id="clip0_53_712">
<rect width="28" height="22.4" fill="white" transform="translate(2 8)"/>
</clipPath>
</defs>
</svg>
