<svg width="32" height="32" viewBox="0 0 32 32" fill="none" xmlns="http://www.w3.org/2000/svg">
<g id="m_moon_&#203;&#136;mun">
<g id="moon 1">
<path id="Vector" d="M27.4227 21.0977C27.1159 20.588 26.5433 20.337 25.9598 20.443C23.6416 20.8904 21.2659 20.2823 19.441 18.7751C17.5844 17.2422 16.518 14.9727 16.518 12.5555C16.518 9.6707 18.0602 6.98828 20.5424 5.56641C21.0592 5.27055 21.3288 4.69797 21.2288 4.10844C21.1292 3.52055 20.6873 3.06938 20.1016 2.96C19.482 2.84078 18.5086 2.75 17.8852 2.75C11.1914 2.75 5.75 8.24609 5.75 15C5.75 21.7539 11.1941 27.25 17.8852 27.25C21.5596 27.25 24.9945 25.5957 27.3133 22.7109C27.6852 22.2406 27.7289 21.6117 27.4227 21.0977ZM17.8852 25.5C12.1594 25.5 7.5 20.7914 7.5 15C7.5 9.20859 12.1588 4.5 17.8852 4.5C18.1526 4.5 18.5157 4.52187 18.8745 4.55633C16.3211 6.37791 14.768 9.36166 14.768 12.5554C14.768 15.4998 16.0641 18.2593 18.3254 20.1296C20.3078 21.767 22.8191 22.5293 25.3527 22.3002C23.4031 24.3406 20.7234 25.4999 17.8852 25.4999V25.5Z" fill="black"/>
</g>
</g>
</svg>
