<svg width="32" height="32" viewBox="0 0 32 32" fill="none" xmlns="http://www.w3.org/2000/svg">
<g clip-path="url(#clip0_53_531)">
<path d="M24.8383 20.3476C23.3283 18.8376 21.4998 17.7625 19.5046 17.183C21.0189 16.0913 22.0066 14.3128 22.0066 12.3076V10.7898C23.1901 10.4543 24.06 9.36478 24.06 8.07525C24.06 6.90778 23.326 5.84663 22.2335 5.43472L13.8694 2.28171C12.523 1.77416 11.0128 1.95993 9.82966 2.77844C8.64638 3.59695 7.93998 4.94456 7.93998 6.38328V6.51371C7.93998 8.07487 8.76101 9.44714 9.99334 10.2238V12.3076C9.99334 14.3127 10.9811 16.0912 12.4954 17.1829C10.5002 17.7624 8.67165 18.8376 7.16167 20.3476C4.80087 22.7083 3.50067 25.8472 3.50067 29.1859V30H28.4993V29.1859C28.4993 25.8472 27.1992 22.7084 24.8383 20.3476ZM24.5381 22.4646L21.9792 21.377V20.1113C22.9527 20.7548 23.817 21.5506 24.5381 22.4646ZM17.5679 23.3172L16.1867 28.3718H15.8133L14.4321 23.3172L14.934 21.3305H17.0661L17.5679 23.3172ZM16.886 19.7023H15.1139V18.3513C15.4063 18.3276 15.7016 18.3148 15.9999 18.3148C16.2983 18.3148 16.5936 18.3276 16.8859 18.3513L16.886 19.7023ZM9.56819 6.38333C9.56819 5.46551 10.0011 4.63967 10.756 4.11752C11.2281 3.79098 11.7667 3.62418 12.3143 3.62418C12.6422 3.62418 12.9734 3.68407 13.2951 3.80536L21.6592 6.95832C22.1213 7.13255 22.4318 7.58137 22.4318 8.07525C22.4318 8.73342 21.8964 9.26886 21.2382 9.26886H12.3232C10.8041 9.26886 9.56819 8.03292 9.56819 6.51382V6.38333ZM11.6215 12.3076V10.8401C11.8501 10.8771 12.0844 10.897 12.3232 10.897H20.3784V12.3076C20.3784 14.7219 18.4143 16.6861 16 16.6861C13.5857 16.6861 11.6215 14.7219 11.6215 12.3076ZM10.0208 20.1113V21.3769L7.46191 22.4645C8.18296 21.5506 9.04724 20.7548 10.0208 20.1113ZM6.03609 24.8398L11.649 22.4541V19.2243C12.2362 18.9669 12.8502 18.76 13.4857 18.6089V20.4151L12.7486 23.3336L14.1254 28.3718H5.15907C5.25182 27.1245 5.55637 25.9354 6.03609 24.8398ZM17.8746 28.3718L19.2514 23.3336L18.5142 20.4152V18.609C19.1498 18.76 19.7639 18.9669 20.351 19.2244V22.4541L25.9639 24.8398C26.4436 25.9354 26.7482 27.1245 26.8409 28.3719H17.8746V28.3718Z" fill="black"/>
</g>
<defs>
<clipPath id="clip0_53_531">
<rect width="28" height="28" fill="white" transform="translate(2 2)"/>
</clipPath>
</defs>
</svg>
