<svg width="32" height="32" viewBox="0 0 32 32" fill="none" xmlns="http://www.w3.org/2000/svg">
<g clip-path="url(#clip0_53_543)">
<path d="M9.25 9C9.25 5.13414 12.3836 2 16.25 2C20.1164 2 23.25 5.13414 23.25 9V9.875C23.25 13.7414 20.1164 16.875 16.25 16.875C12.3836 16.875 9.25 13.7414 9.25 9.875V9ZM21.4289 8.125H19.7828C18.968 8.125 18.1914 7.80234 17.568 7.22812L17.2727 6.88523C16.2172 8.20703 14.5602 9 12.8758 9H11V9.875C11 12.7734 13.3023 15.125 16.25 15.125C19.1484 15.125 21.5 12.7734 21.5 9.875V9C21.5 8.69922 21.4727 8.40937 21.4289 8.125ZM20.8 6.375C19.8922 4.80602 18.1914 3.75 16.25 3.75C13.9641 3.75 12.0172 5.2107 11.3008 7.25H12.8758C14.3414 7.25 15.6758 6.42805 16.332 5.12539C16.3758 5.0368 16.4359 4.95422 16.507 4.88148C16.8461 4.53969 17.4039 4.53969 17.743 4.88148L18.8531 5.99055C19.0992 6.23664 19.4328 6.375 19.7828 6.375H20.8ZM4 28.4469C4 23.5031 8.00477 19.5 12.9469 19.5H19.5531C24.4969 19.5 28.5 23.5031 28.5 28.4469C28.5 29.3055 27.8055 30 26.9469 30H5.55531C4.69672 30 4 29.3055 4 28.4469ZM26.7008 28.25C26.6461 24.318 23.4633 21.25 19.5531 21.25H12.9469C9.03617 21.25 5.85555 24.318 5.75273 28.25H26.7008Z" fill="black"/>
</g>
<defs>
<clipPath id="clip0_53_543">
<rect width="24.5" height="28" fill="white" transform="translate(4 2)"/>
</clipPath>
</defs>
</svg>
