<svg width="32" height="32" viewBox="0 0 32 32" fill="none" xmlns="http://www.w3.org/2000/svg">
<g clip-path="url(#clip0_53_544)">
<path d="M20.375 12.5C20.8562 12.5 21.25 12.1063 21.25 11.625V6.63859C22.3273 7.56719 23.8258 8.125 25.532 8.125H28.1893C28.7843 8.125 29.3394 7.86523 29.6779 7.43102C29.965 7.05969 30.064 6.5943 29.9513 6.15352C29.3328 3.74672 26.7023 2 23.6945 2H20.375C19.8937 2 19.5 2.39134 19.5 2.875V11.625C19.5 12.1063 19.8937 12.5 20.375 12.5ZM23.6945 3.75C25.8208 3.75 27.6681 4.84102 28.1959 6.375H25.5364C23.4277 6.375 21.8105 5.31297 21.3698 3.75H23.6945ZM29.8578 16.3828C29.3427 13.1054 27.177 10.5203 24.2578 9.16953C23.6727 8.90156 23 9.32813 23 9.97344C23 10.3103 23.1898 10.6226 23.4955 10.7642C25.9351 11.8935 27.713 14.0236 28.1264 16.6541C28.5781 19.5328 27.7824 22.2923 25.8864 24.5564C23.8799 26.9047 20.9159 28.25 17.7496 28.25C12.0894 28.25 7.15659 26.7505 4.723 25.8563C4.13073 25.6414 3.74956 25.1164 3.74956 24.5258C3.74956 24.1479 3.91034 23.7804 4.19198 23.5168C5.91836 21.9008 7.29047 19.85 8.61664 17.8648C11.0273 14.2609 13.1727 11.0836 17.0823 10.1594C17.4268 10.0664 17.7495 9.71094 17.7495 9.30625C17.7495 8.73367 17.2108 8.31531 16.6541 8.44875C9.63219 10.1315 7.57047 17.9972 2.99859 22.2355C2.35547 22.8359 1.99945 23.6672 1.99945 24.5258C1.99945 25.8454 2.83508 27.0299 4.1175 27.5002C6.83492 28.4961 11.9034 30 17.7002 30C25.1432 30 31.0057 23.7055 29.8573 16.3828H29.8578Z" fill="black"/>
</g>
<defs>
<clipPath id="clip0_53_544">
<rect width="28" height="28" fill="white" transform="translate(2 2)"/>
</clipPath>
</defs>
</svg>
