<svg width="32" height="32" viewBox="0 0 32 32" fill="none" xmlns="http://www.w3.org/2000/svg">
<g clip-path="url(#clip0_53_532)">
<path d="M23.25 2H9.25C6.35047 2 4 4.35047 4 7.25V26.5C4 28.4332 5.5668 30 7.5 30H25C26.9332 30 28.5 28.4332 28.5 26.5V7.25C28.5 4.35047 26.1484 2 23.25 2ZM26.75 26.5C26.75 27.4647 25.9647 28.25 25 28.25H7.5C6.53531 28.25 5.75 27.4647 5.75 26.5V7.25C5.75 5.32008 7.32008 3.75 9.25 3.75H23.25C25.1799 3.75 26.75 5.32008 26.75 7.25V26.5ZM14.5055 8.5625C15.2273 8.5625 15.8125 7.97734 15.8125 7.25C15.8125 6.52266 15.2273 5.9375 14.5055 5.9375C13.7727 5.9375 13.1875 6.52539 13.1875 7.25C13.1875 7.97461 13.7727 8.5625 14.5055 8.5625ZM10.5625 7.25C10.5625 6.52539 9.97789 5.9375 9.25 5.9375C8.52922 5.9375 7.9375 6.52539 7.9375 7.25C7.9375 7.97461 8.52922 8.5625 9.25 8.5625C9.97734 8.5625 10.5625 7.97734 10.5625 7.25ZM16.25 10.75C11.9013 10.75 8.42422 14.2773 8.42422 18.625C8.42422 22.9727 11.9494 26.5 16.25 26.5C20.5506 26.5 24.0758 22.9727 24.0758 18.625C24.0758 14.2773 20.5977 10.75 16.25 10.75ZM16.25 24.75C13.1345 24.75 10.5844 22.4023 10.2016 19.3873C11.4293 19.803 12.8091 19.6466 13.9045 18.8984C14.5875 19.3682 15.4078 19.6252 16.25 19.6252C17.0927 19.6252 17.9147 19.3655 18.5972 18.8935C19.2698 19.3562 20.0617 19.611 20.8941 19.623C21.3802 19.6132 21.8505 19.5213 22.2984 19.3709C21.9266 22.3919 19.3727 24.7489 16.25 24.7489V24.75ZM20.9203 17.8758C20.2761 17.867 19.6729 17.6056 19.2217 17.1408C18.9734 16.8879 18.5972 16.8072 18.2647 16.9439C18.1318 16.9986 18.0175 17.0823 17.9284 17.1878C17.0397 18.0732 15.4116 18.0612 14.5421 17.1536C14.378 16.9827 14.1511 16.8851 13.9148 16.8835C13.672 16.919 13.45 16.977 13.2848 17.1465C12.4656 17.9876 11.1974 18.0576 10.2475 17.4407C10.7971 14.626 13.2799 12.4986 16.2495 12.4986C19.2344 12.4986 21.7183 14.6479 22.2597 17.4785C21.8604 17.7213 21.3956 17.8361 20.9198 17.8744L20.9203 17.8758Z" fill="black"/>
</g>
<defs>
<clipPath id="clip0_53_532">
<rect width="24.5" height="28" fill="white" transform="translate(4 2)"/>
</clipPath>
</defs>
</svg>
