<svg width="32" height="32" viewBox="0 0 32 32" fill="none" xmlns="http://www.w3.org/2000/svg">
<g clip-path="url(#clip0_53_525)">
<path d="M27.3461 5.92526C25.8832 4.46893 23.3337 4.35956 20.1602 5.63104C18.8887 6.1369 17.5696 6.86862 16.25 7.73651C14.931 6.86808 13.6113 6.1369 12.347 5.63104C9.16853 4.35956 6.61845 4.46893 5.15556 5.92472C3.0572 8.01651 3.91142 12.3778 6.94658 16.9989C3.91142 21.62 3.0572 25.9841 5.15556 28.0732C5.94197 28.8612 7.04228 29.2495 8.38212 29.2495C9.53712 29.2495 10.877 28.9555 12.347 28.3745C13.6113 27.8686 14.931 27.1303 16.25 26.2619C17.568 27.1331 18.8914 27.8714 20.1602 28.3745C21.6231 28.9553 22.9563 29.2495 24.1179 29.2495C25.4577 29.2495 26.5581 28.8598 27.2952 28.0737C29.3942 25.9819 28.5394 21.6206 25.4977 16.9995C28.5875 12.3784 29.4406 8.01651 27.3461 5.92472V5.92526ZM20.811 7.25143C23.2582 6.28073 25.1367 6.24628 26.1085 7.16257C27.3592 8.41382 26.8124 11.6677 24.4679 15.4532C23.5174 14.1954 22.4789 13.0125 21.3578 11.8985C20.2433 10.7982 19.0544 9.77225 17.7966 8.836C18.8203 8.20163 19.832 7.64108 20.811 7.25116V7.25143ZM6.39314 7.16284C6.84431 6.7185 7.52079 6.50003 8.38923 6.50003C9.30525 6.50003 10.4329 6.75296 11.6907 7.25198C12.6685 7.64163 13.6868 8.20245 14.7051 8.83792C12.1758 10.7181 9.93361 12.9466 8.08244 15.4551C5.68876 11.668 5.14189 8.42065 6.39314 7.16284ZM11.6891 26.7508C9.24892 27.7286 7.32119 27.756 6.3915 26.8397C5.14025 25.5884 5.68712 22.3345 7.9829 18.5491C8.93337 19.8069 9.97244 20.9898 11.093 22.1037C12.2075 23.2041 13.397 24.23 14.6542 25.1733C13.6852 25.799 12.668 26.3568 11.6891 26.7505V26.7508ZM12.3836 20.861C11.1805 19.6644 10.0731 18.3727 9.08212 16.9984C10.0731 15.6246 11.1805 14.3324 12.3836 13.1358C13.5802 11.9392 14.8785 10.8389 16.2527 9.84745C17.6265 10.8384 18.9188 11.9392 20.1219 13.1358C21.325 14.3324 22.4324 15.6241 23.4234 16.9984C22.4324 18.3721 21.325 19.6644 20.1219 20.861C18.968 22.0575 17.627 23.1578 16.2527 24.1493C14.8774 23.1578 13.5867 22.0586 12.3836 20.861ZM26.1047 26.8383C25.1816 27.7543 23.2473 27.727 20.8071 26.7494C19.8299 26.3598 18.811 25.799 17.7927 25.1701C19.0506 24.2267 20.24 23.2013 21.354 22.1005C22.4751 20.9859 23.5142 19.8036 24.4641 18.5458C26.8102 22.3318 27.357 25.5365 26.1047 26.8383ZM16.25 15.6875C15.5254 15.6875 14.9375 16.2738 14.9375 17.0033C14.932 17.7274 15.5281 18.3125 16.25 18.3125C16.5986 18.3125 16.9336 18.1758 17.1797 17.9303C17.4258 17.6847 17.5625 17.3495 17.5625 17.005C17.5625 16.2776 16.9774 15.687 16.25 15.687V15.6875Z" fill="black"/>
</g>
<defs>
<clipPath id="clip0_53_525">
<rect width="24.5" height="28" fill="white" transform="translate(4 3)"/>
</clipPath>
</defs>
</svg>
