<svg width="32" height="32" viewBox="0 0 32 32" fill="none" xmlns="http://www.w3.org/2000/svg">
<path d="M17.75 10.75H14.25C12.3168 10.75 10.75 12.3195 10.75 14.25V19.5C10.75 20.4663 11.5337 21.25 12.5 21.25V29.125C12.5 29.6063 12.8916 30 13.375 30C13.8584 30 14.25 29.6063 14.25 29.125V21.25H17.75V29.125C17.75 29.6084 18.141 30 18.625 30C19.1084 30 19.5 29.6084 19.5 29.125V21.25C20.4663 21.25 21.25 20.4663 21.25 19.5V14.25C21.25 12.3195 19.6805 10.75 17.75 10.75ZM19.5 19.5H12.5V14.25C12.5 13.2853 13.2853 12.5 14.25 12.5H17.75C18.7147 12.5 19.5 13.2853 19.5 14.25V19.5ZM16 9C17.9348 9 19.5 7.43484 19.5 5.5C19.5 3.56516 17.9348 2 16 2C14.0652 2 12.5 3.56516 12.5 5.5C12.5 7.43484 14.0657 9 16 9ZM16 3.75C16.9647 3.75 17.75 4.53531 17.75 5.5C17.75 6.46469 16.9647 7.25 16 7.25C15.0353 7.25 14.25 6.46469 14.25 5.5C14.25 4.53531 15.0375 3.75 16 3.75Z" fill="black"/>
</svg>
