<svg width="32" height="32" viewBox="0 0 32 32" fill="none" xmlns="http://www.w3.org/2000/svg">
<g clip-path="url(#clip0_53_526)">
<path d="M24.9773 8.85234L19.1531 3.02812C18.4914 2.3687 17.6055 2 16.6758 2L8.5 1.99945C6.5668 1.99945 5 3.56625 5 5.49945V26.4995C5 28.4327 6.5668 29.9995 8.5 29.9995H22.4995C24.4327 29.9995 25.9995 28.4327 25.9995 26.4995V11.3237C25.9995 10.394 25.633 9.50804 24.9768 8.85179L24.9773 8.85234ZM17.25 3.86375C17.4945 3.94906 17.7236 4.07375 17.9128 4.26242L23.737 10.0866C23.9273 10.2737 24.0531 10.5034 24.1352 10.7495H18.125C17.6437 10.7495 17.25 10.3557 17.25 9.87445V3.8632V3.86375ZM24.25 26.5C24.25 27.4647 23.4647 28.25 22.5 28.25H8.5C7.53531 28.25 6.75 27.4647 6.75 26.5V5.5C6.75 4.53531 7.53531 3.75 8.5 3.75H15.5V9.875C15.5 11.3242 16.6758 12.5 18.125 12.5H24.25V26.5ZM10.25 16.875C10.25 17.3562 10.6437 17.75 11.125 17.75H19.875C20.3563 17.75 20.75 17.3562 20.75 16.875C20.75 16.3937 20.3563 16 19.875 16H11.125C10.6437 16 10.25 16.3937 10.25 16.875ZM19.875 19.5H11.125C10.6437 19.5 10.25 19.8937 10.25 20.375C10.25 20.8562 10.6437 21.25 11.125 21.25H19.875C20.3579 21.25 20.75 20.8579 20.75 20.375C20.75 19.8916 20.3563 19.5 19.875 19.5ZM19.875 23H11.125C10.6437 23 10.25 23.3937 10.25 23.875C10.25 24.3562 10.6437 24.75 11.125 24.75H19.875C20.3579 24.75 20.75 24.3579 20.75 23.875C20.75 23.3916 20.3563 23 19.875 23Z" fill="black"/>
</g>
<defs>
<clipPath id="clip0_53_526">
<rect width="21" height="28" fill="white" transform="translate(5 2)"/>
</clipPath>
</defs>
</svg>
