<svg width="32" height="32" viewBox="0 0 32 32" fill="none" xmlns="http://www.w3.org/2000/svg">
<g clip-path="url(#clip0_53_722)">
<path d="M2 19.2266C2 20.501 2.97391 21.5521 4.21655 21.6753L4.28342 22.1434C4.92322 26.6224 8.76352 30 13.2161 30H14.2303C19.5931 30 24.3027 26.4436 25.9583 21.4771L26.4496 20.0029C28.4132 19.7166 30 18.0284 30 15.9453V13.4844H29.1797C27.0706 13.4844 25.2213 14.6059 24.207 16.2784C23.2023 14.6059 21.3703 13.4844 19.2812 13.4844H18.4609V15.9453C18.4609 17.7776 19.6688 19.3327 21.3299 19.8574L21.3092 19.8988C20.7576 21.0022 19.6487 21.6875 18.4152 21.6875C17.5802 21.6875 16.772 21.369 16.1715 20.8272C16.5413 20.3966 16.7656 19.8375 16.7656 19.2266V17.5859C16.7656 16.076 16.1794 14.7007 15.2233 13.6747L15.8293 9.4328C16.3899 5.50919 13.3415 2 9.38281 2C5.41925 2 2.3764 5.51389 2.93631 9.4328L3.54236 13.6747C2.58618 14.7007 2 16.076 2 17.5859V19.2266ZM3.64062 19.2266V17.5859C3.64062 15.3243 5.48056 13.4844 7.74219 13.4844H11.0234C13.2851 13.4844 15.125 15.3243 15.125 17.5859V19.2266C15.125 19.6788 14.7569 20.0469 14.3047 20.0469H10.2031V18.4062H13.4844V16.7656H5.28125V18.4062H8.5625V20.0469H4.46094C4.0087 20.0469 3.64062 19.6788 3.64062 19.2266ZM28.3594 15.2053V15.9453C28.3594 17.2794 27.2073 18.4062 25.8438 18.4062H25.107C25.4391 16.7981 26.7281 15.5287 28.3594 15.2053ZM20.1016 15.9453V15.2075C21.7063 15.5345 22.9733 16.8015 23.3004 18.4062H22.5625C21.2056 18.4062 20.1016 17.3022 20.1016 15.9453ZM22.7766 20.6326L23.0694 20.0469H24.7056L24.4018 20.9582C22.9494 25.3159 18.7666 28.3594 14.2303 28.3594H13.2161C9.57465 28.3594 6.43268 25.5874 5.90759 21.9114L5.87555 21.6875H14.3047C14.4354 21.6875 14.5638 21.677 14.689 21.6574C15.6118 22.6999 16.9897 23.3281 18.4152 23.3281C20.2742 23.3281 21.9453 22.2953 22.7766 20.6326ZM9.38281 3.64062C12.3477 3.64062 14.6241 6.26926 14.2051 9.20081L13.7305 12.5233C13.3462 12.3167 12.9356 12.1531 12.5053 12.0379C13.115 11.3219 13.4844 10.395 13.4844 9.38281V6.92188H11.8438V9.38281C11.8438 10.7397 10.7397 11.8438 9.38281 11.8438C8.02588 11.8438 6.92188 10.7397 6.92188 9.38281V8.5625H9.82181L11.706 5.73627L10.3409 4.82623L8.94382 6.92188H5.28125V9.38281C5.28125 10.395 5.6506 11.3219 6.26028 12.0379C5.83005 12.1531 5.41946 12.3167 5.03516 12.5233L4.56049 9.20081C4.14114 6.26584 6.42157 3.64062 9.38281 3.64062Z" fill="black"/>
<path d="M16.8203 7.74219C16.8203 9.09912 17.9243 10.2031 19.2812 10.2031C20.6382 10.2031 21.7422 9.09912 21.7422 7.74219C21.7422 6.38525 20.6382 5.28125 19.2812 5.28125C17.9243 5.28125 16.8203 6.38525 16.8203 7.74219ZM20.1016 7.74219C20.1016 8.19443 19.7335 8.5625 19.2812 8.5625C18.829 8.5625 18.4609 8.19443 18.4609 7.74219C18.4609 7.28995 18.829 6.92188 19.2812 6.92188C19.7335 6.92188 20.1016 7.28995 20.1016 7.74219Z" fill="black"/>
<path d="M21.7422 2H23.3828V3.64062H21.7422V2Z" fill="black"/>
<path d="M23.3828 5.28125H25.0234V6.92188H23.3828V5.28125Z" fill="black"/>
</g>
<defs>
<clipPath id="clip0_53_722">
<rect width="28" height="28" fill="white" transform="translate(2 2)"/>
</clipPath>
</defs>
</svg>
