<svg width="32" height="32" viewBox="0 0 32 32" fill="none" xmlns="http://www.w3.org/2000/svg">
<path d="M28.2281 15.6594C28.0307 13.8591 26.4453 13.0634 26.0926 12.8479C26.7745 10.5149 25.8771 9.22322 25.3149 8.68509C25.1508 8.51228 23.8925 7.10626 21.1515 7.90744C20.9361 7.55415 20.1404 5.96931 18.3401 5.77189C16.1695 5.53345 15.2836 7.15165 14.239 9.00392C13.883 8.71632 12.8051 7.89978 11.4516 8.16064C7.92209 8.86064 8.79545 13.7935 8.84904 14.2911C7.08154 13.7967 5.30748 14.9501 5.30748 17.4192C5.30743 19.2677 6.68342 20.9067 6.33068 21.8336C5.71381 23.5437 5.78818 25.0935 6.4685 26.2447L4.00537 28.7078C3.66357 29.0496 3.66357 29.6031 4.00537 29.9449C4.17654 30.1625 4.40076 30.25 4.57522 30.25C4.79889 30.25 5.02256 30.1642 5.19373 29.9935L7.65904 27.5282C8.27592 27.8913 8.99998 28.092 9.81045 28.092C10.5126 28.092 11.2728 27.9515 12.0663 27.666C13.0173 27.3045 14.6005 28.6887 16.4812 28.6887C19.0537 28.6887 20.0764 26.8167 19.6099 25.1477C19.7969 25.1657 20.5035 25.2811 21.3779 25.2811C23.0476 25.2811 25.3302 24.8606 25.7896 22.5451C25.8552 22.2038 26.0288 21.0975 24.9463 19.7577C26.751 18.77 28.4737 17.8731 28.2276 15.6583L28.2281 15.6594ZM24.2906 18.1477C24.0822 18.2642 24.3978 18.0864 22.3328 19.2502L23.6338 20.8596C23.9089 21.2003 24.2173 21.7122 24.1216 22.2066C24.0494 22.5692 23.858 23.5327 21.4266 23.5327C20.8223 23.5327 20.3077 23.4666 20.0315 23.431C19.7548 23.3977 20.1622 23.4398 17.284 23.1549C18.0032 25.7268 18.2012 26.0106 17.8479 26.4766C17.6209 26.7746 17.1533 26.9392 16.5299 26.9392C15.936 26.9392 15.2628 26.6726 14.612 26.4148C13.7912 26.0894 12.6269 25.5983 11.5216 26.0199C9.92256 26.5963 9.07217 26.225 9.02568 26.2108L19.2413 15.9952C19.5831 15.6534 19.5831 15.0999 19.2413 14.7581C18.8995 14.4163 18.3455 14.4163 18.0043 14.7581L7.78318 24.9792C7.56881 24.3082 7.6224 23.4529 7.96256 22.5079C8.37982 21.4109 7.95381 20.3363 7.57811 19.3885C7.31998 18.7377 7.05311 18.0651 7.05311 17.4712C7.05311 16.926 7.18162 16.4901 7.41623 16.2435C7.93357 15.6982 8.65053 16.1056 10.8375 16.717C10.4689 12.9726 9.98764 10.1835 11.7814 9.87728C12.3392 9.76244 12.979 10.2327 13.1376 10.364L14.7471 11.6639C15.9103 9.59892 15.7326 9.91447 15.8496 9.70611C16.7957 8.02337 17.2053 7.49892 17.9239 7.49947C18.8022 7.49947 19.2107 8.07204 19.6531 8.82017L20.3515 9.96423L21.6377 9.58826C23.1279 9.1524 23.7787 9.61396 24.1003 9.95029C24.3956 10.233 24.8282 10.9221 24.4082 12.3582L24.0319 13.645C25.3253 14.4341 25.124 14.3122 25.299 14.4155C25.8415 14.7316 26.407 15.1494 26.4841 15.8533C26.5793 16.6911 26.2293 17.0575 24.2879 18.1458L24.2906 18.1477Z" fill="black"/>
</svg>
