<svg width="32" height="32" viewBox="0 0 32 32" fill="none" xmlns="http://www.w3.org/2000/svg">
<g clip-path="url(#clip0_53_533)">
<path d="M8.60989 6.56665C6.82128 6.56665 5.36621 8.02178 5.36621 9.81033C5.36621 11.5989 6.82134 13.054 8.60989 13.054C10.3984 13.054 11.8536 11.5989 11.8536 9.81033C11.8536 8.02172 10.3985 6.56665 8.60989 6.56665ZM8.60989 11.4134C7.72592 11.4134 7.00684 10.6943 7.00684 9.81033C7.00684 8.92636 7.72598 8.20728 8.60989 8.20728C9.4938 8.20728 10.2129 8.92642 10.2129 9.81033C10.2129 10.6942 9.49386 11.4134 8.60989 11.4134Z" fill="black"/>
<path d="M22.24 28.3184L19.3359 20.128H13.7085L11.1316 14.0118H6.92625L3.71948 22.7337C3.58987 23.0862 3.56291 23.4625 3.63275 23.8213H2V25.4619H15.8866L18.6216 30.0237C18.9946 30.6458 19.6603 30.9998 20.3484 30.9998C20.6205 30.9998 20.8962 30.9445 21.1585 30.8285C22.1142 30.4058 22.5892 29.3033 22.24 28.3184ZM7.77199 23.8213L8.74887 22.2552L9.57772 23.8213H7.77199ZM20.4949 29.328C20.3247 29.4033 20.1242 29.3396 20.0287 29.1801L16.8159 23.8213H11.4339L8.86547 18.9682L5.95221 23.6388C5.8809 23.7531 5.75796 23.8213 5.62327 23.8213C5.44734 23.8213 5.34857 23.7174 5.30537 23.6555C5.26216 23.5935 5.19873 23.465 5.25937 23.2999L8.07108 15.6525H10.0426L12.6194 21.7687H18.1769L20.6937 28.8667C20.7579 29.0477 20.6705 29.2503 20.4949 29.328Z" fill="black"/>
<path d="M21.6714 9.16128C21.6714 8.12156 21.2509 7.55101 20.9438 7.1344C20.6897 6.78954 20.5363 6.58135 20.5363 6.08085C20.5363 5.58029 20.6897 5.37215 20.9439 5.02718C21.2509 4.61057 21.6714 4.04002 21.6714 3.00024H20.0308C20.0308 3.50074 19.8773 3.70894 19.6232 4.05385C19.3162 4.47046 18.8956 5.04102 18.8956 6.08079C18.8956 7.12051 19.3161 7.69106 19.6232 8.10767C19.8773 8.45253 20.0308 8.66073 20.0308 9.16123C20.0308 9.66189 19.8773 9.87009 19.6231 10.2151C19.3161 10.6318 18.8956 11.2024 18.8956 12.2423C18.8956 13.2821 19.3161 13.8527 19.6231 14.2693C19.8773 14.6143 20.0308 14.8225 20.0308 15.3231H21.6714C21.6714 14.2833 21.251 13.7127 20.9439 13.296C20.6897 12.9511 20.5363 12.7429 20.5363 12.2422C20.5363 11.7415 20.6897 11.5334 20.9439 11.1884C21.2509 10.7717 21.6714 10.2011 21.6714 9.16128Z" fill="black"/>
<path d="M25.8357 9.16118C25.8357 8.12146 25.4152 7.55091 25.1081 7.1343C24.854 6.78944 24.7006 6.58124 24.7006 6.08074C24.7006 5.58019 24.854 5.37205 25.1082 5.02708C25.4152 4.61063 25.8357 4.04008 25.8357 3.00031H24.1951C24.1951 3.50081 24.0416 3.709 23.7875 4.05391C23.4805 4.47052 23.0599 5.04108 23.0599 6.08085C23.0599 7.12057 23.4804 7.69113 23.7875 8.10774C24.0416 8.45259 24.1951 8.66079 24.1951 9.16129C24.1951 9.66195 24.0416 9.87015 23.7874 10.2151C23.4804 10.6318 23.0599 11.2024 23.0599 12.2422C23.0599 13.2819 23.4804 13.8526 23.7874 14.2692C24.0416 14.6142 24.1951 14.8224 24.1951 15.323H25.8357C25.8357 14.2832 25.4153 13.7126 25.1082 13.2959C24.854 12.951 24.7006 12.7428 24.7006 12.2421C24.7006 11.7414 24.854 11.5333 25.1082 11.1883C25.4152 10.7716 25.8357 10.201 25.8357 9.16118Z" fill="black"/>
<path d="M30 9.16134C30 8.12163 29.5795 7.55107 29.2725 7.13446C29.0183 6.7896 28.8649 6.58141 28.8649 6.08091C28.8649 5.58035 29.0183 5.37221 29.2725 5.02724C29.5795 4.61063 30 4.04008 30 3.00031H28.3594C28.3594 3.50081 28.2059 3.709 27.9518 4.05391C27.6448 4.47052 27.2242 5.04108 27.2242 6.08085C27.2242 7.12057 27.6447 7.69113 27.9518 8.10774C28.2059 8.45259 28.3594 8.66079 28.3594 9.16129C28.3594 9.66195 28.2059 9.87015 27.9517 10.2151C27.6447 10.6318 27.2242 11.2024 27.2242 12.2422C27.2242 13.2819 27.6447 13.8526 27.9517 14.2692C28.2059 14.6142 28.3594 14.8224 28.3594 15.323H30C30 14.2832 29.5796 13.7126 29.2725 13.2959C29.0183 12.951 28.8649 12.7428 28.8649 12.2421C28.8649 11.7414 29.0183 11.5333 29.2725 11.1883C29.5796 10.7718 30 10.2012 30 9.16134Z" fill="black"/>
</g>
<defs>
<clipPath id="clip0_53_533">
<rect width="28" height="28" fill="white" transform="translate(2 3)"/>
</clipPath>
</defs>
</svg>
