<svg width="32" height="32" viewBox="0 0 32 32" fill="none" xmlns="http://www.w3.org/2000/svg">
<path d="M26.0085 6.37585C26.0085 4.95833 24.8552 3.8051 23.4377 3.8051C22.777 3.8051 22.1739 4.05583 21.7181 4.46682C21.4717 3.66065 21.5137 3.79728 21.5086 3.78164C21.0735 2.43286 19.622 1.68932 18.2727 2.12426C17.1384 2.4903 16.4504 3.55743 16.4924 4.66444C16.3301 4.43067 16.3193 4.4147 16.3053 4.39588C15.8933 3.84651 15.292 3.49043 14.6122 3.39334C13.2063 3.19206 11.9046 4.16807 11.7037 5.57476C11.6066 6.25454 11.78 6.93147 12.1921 7.48079L13.7181 9.51557L9.79339 10.4213C9.0156 10.5809 8.36651 11.079 8.01109 11.7898C7.99961 11.8128 7.6933 12.4916 6.06213 16.1023C5.87595 16.5146 6.05847 16.9997 6.47028 17.187C6.62677 17.2582 6.7733 17.324 6.91026 17.3849C6.48385 17.8194 6.16299 18.3956 6.02849 18.8153C5.9523 19.0532 5.98862 19.3128 6.12722 19.5207C6.16376 19.5755 7.04225 20.8882 8.79468 23.0787C9.67432 24.1783 9.80132 24.8832 9.9484 25.6993C10.1342 26.7302 10.3447 27.8987 11.8712 29.7085C12.0271 29.8933 12.2566 30 12.4984 30H23.8753C24.2891 30 24.638 29.692 24.6894 29.2815L25.9944 18.8645C26.0192 18.6512 26.0085 19.2996 26.0085 6.37585ZM22.5079 6.37585C22.5079 5.86318 22.925 5.44601 23.4377 5.44601C23.9504 5.44601 24.3675 5.86318 24.3675 6.37585V13.1362L22.5079 7.05109V6.37585ZM18.177 4.85632C18.0194 4.36749 18.2872 3.84377 18.7763 3.68597C19.2628 3.52948 19.786 3.79569 19.9453 4.28042C21.0328 7.83889 20.1792 5.0459 22.8702 13.8508L19.5134 9.0158L18.177 4.85632ZM13.3281 5.80679C13.4006 5.29898 13.8703 4.9452 14.3801 5.01773C14.6218 5.05224 14.836 5.17728 14.9848 5.37025L18.5337 10.482C17.6418 9.64996 17.694 9.69831 17.6776 9.68403C17.0889 9.17387 16.279 8.94141 15.4664 9.11163L13.5048 6.49619C13.3557 6.29753 13.293 6.05265 13.3281 5.80679ZM24.3655 18.6657L23.1512 28.3591H12.8873C11.8608 27.0594 11.716 26.2558 11.5633 25.4084C11.4003 24.5035 11.2155 23.478 10.076 22.0537C8.89921 20.5827 8.11912 19.5063 7.74663 18.9776C7.94289 18.6289 8.33725 18.1357 8.99777 18.1357C9.83266 18.1357 10.3673 18.7281 11.1705 19.6946C12.0496 20.7524 13.1435 22.0688 15.1127 22.0688C17.43 22.0687 19.0025 20.0555 19.0025 17.7479V17.3103C19.0025 16.8884 18.8205 16.2473 17.4709 14.6918C16.7926 13.91 16.1251 13.2491 16.0969 13.2213C15.9091 13.0357 15.6434 12.9519 15.383 12.996L11.3559 13.679C11.098 13.7229 10.8763 13.887 10.7593 14.121L9.82949 15.9808C9.68088 16.2779 9.39164 16.4696 9.06417 16.4926C8.87525 16.4354 8.40628 16.2444 7.89787 16.0248L9.48501 12.5116C9.61557 12.2595 9.84924 12.0835 10.1282 12.0277C10.1337 12.0266 15.8026 10.72 15.8428 10.7093C16.1097 10.6654 16.3872 10.7421 16.5935 10.9159L24.0809 17.9004C24.2406 18.0485 24.3889 18.4476 24.3655 18.6657ZM11.0003 17.1786C11.2298 16.892 11.2475 16.8138 12.0408 15.2272L15.238 14.6849C16.3083 15.7819 17.2564 16.9632 17.3615 17.3446V17.7478C17.3615 19.0452 16.5751 20.4254 15.1129 20.4278C13.2333 20.428 12.5545 18.3333 11.0003 17.1786Z" fill="black"/>
</svg>
