<svg width="32" height="32" viewBox="0 0 32 32" fill="none" xmlns="http://www.w3.org/2000/svg">
<g clip-path="url(#clip0_10_1178)">
<path d="M29.3194 26.1784C27.9515 26.0022 26.7289 25.2869 25.9638 24.2155C25.6721 23.8053 24.9896 23.8053 24.698 24.2155C23.8021 25.4736 22.2951 26.2222 20.6229 26.2222C18.9935 26.2222 17.486 25.4716 16.5896 24.2155C16.296 23.8053 15.616 23.8053 15.3228 24.2155C14.4687 25.4736 12.9618 26.2222 11.3333 26.2222C9.70437 26.2222 8.19645 25.4716 7.30006 24.2155C7.15277 24.0104 6.91943 23.8889 6.66666 23.8889C6.41388 23.8889 6.17957 24.0104 6.03374 24.215C5.26909 25.2859 4.04603 26.0015 2.67811 26.178C2.2518 26.2326 1.95138 26.6228 2.00582 27.05C2.06027 27.4754 2.44473 27.7821 2.87693 27.7214C4.3343 27.533 5.6711 26.8721 6.66568 25.8698C7.86249 27.0773 9.54735 27.7778 11.3353 27.7778C13.1227 27.7778 14.8027 27.0773 15.9995 25.8698C17.1958 27.0773 18.8826 27.7773 20.6715 27.7773C22.4594 27.7773 24.1389 27.0768 25.3358 25.8693C26.3299 26.8716 27.6667 27.5328 29.1245 27.7209C29.5596 27.7877 29.9407 27.4744 29.9956 27.0496C30.0049 26.6252 29.7472 26.2314 29.3194 26.178V26.1784ZM2.87742 12.9416C4.33478 12.7533 5.67159 12.0924 6.66617 11.09C7.86249 12.3 9.54443 13 11.3333 13C13.1222 13 14.8042 12.3 16 11.0944C17.1958 12.3 18.8778 13 20.6229 13C22.4108 13 24.0933 12.2995 25.2901 11.092C26.2842 12.0943 27.621 12.7555 29.0788 12.9436C29.5139 13.0104 29.895 12.6971 29.9499 12.2723C30.0046 11.845 29.7035 11.4551 29.2776 11.4002C27.9097 11.224 26.6871 10.5087 25.922 9.43726C25.6303 9.02699 24.9478 9.02699 24.6562 9.43726C23.7598 10.6934 22.2558 11.4405 20.6268 11.4405C18.9974 11.4405 17.4865 10.6939 16.5901 9.43726C16.2965 9.02699 15.6164 9.02699 15.3233 9.43726C14.4269 10.6934 12.9229 11.4405 11.2935 11.4405C9.6645 11.4405 8.15318 10.6939 7.2568 9.43726C7.15277 9.23261 6.91943 9.11108 6.62291 9.11108C6.41534 9.11108 6.18006 9.23261 6.03423 9.43775C5.26957 10.5087 4.04652 11.2242 2.6786 11.4007C2.25228 11.4541 1.95138 11.8479 2.00631 12.2708C2.06075 12.6986 2.44478 13.0048 2.87693 12.9416H2.87742ZM29.3194 18.7896C27.9515 18.6133 26.7289 17.898 25.9638 16.8266C25.6721 16.4164 24.9896 16.4164 24.698 16.8266C23.8021 18.0847 22.2951 18.8333 20.6229 18.8333C18.9935 18.8333 17.486 18.0828 16.5896 16.8266C16.296 16.4164 15.616 16.4164 15.3228 16.8266C14.4687 18.0847 12.9618 18.8333 11.3333 18.8333C9.70437 18.8333 8.19645 18.0828 7.30006 16.8266C7.15277 16.6215 6.91943 16.5 6.66666 16.5C6.41388 16.5 6.18006 16.6215 6.03423 16.8257C5.26957 17.8966 4.04652 18.6121 2.6786 18.7886C2.25228 18.843 1.95138 19.2368 2.00631 19.6597C2.06075 20.085 2.44478 20.3918 2.87742 20.331C4.33478 20.1426 5.67159 19.4818 6.66617 18.4794C7.862 19.6889 9.54395 20.3889 11.3328 20.3889C13.1217 20.3889 14.8037 19.6889 15.9995 18.4833C17.1953 19.6889 18.8773 20.3889 20.6224 20.3889C22.4103 20.3889 24.0928 19.6884 25.2896 18.4809C26.2837 19.4832 27.6205 20.1443 29.0783 20.3325C29.5134 20.3993 29.8945 20.086 29.9494 19.6612C30.0044 19.2368 29.7467 18.843 29.3189 18.7896H29.3194Z" fill="black"/>
</g>
<defs>
<clipPath id="clip0_10_1178">
<rect width="28" height="24.8889" fill="white" transform="translate(2 6)"/>
</clipPath>
</defs>
</svg>
