<svg width="32" height="33" viewBox="0 0 32 33" fill="none" xmlns="http://www.w3.org/2000/svg">
<g clip-path="url(#clip0_47_247)">
<path d="M29.3194 28.1784C27.9515 28.0022 26.7289 27.2869 25.9638 26.2155C25.6721 25.8053 24.9896 25.8053 24.698 26.2155C23.8021 27.4736 22.2951 28.2222 20.6229 28.2222C18.9935 28.2222 17.486 27.4716 16.5896 26.2155C16.296 25.8053 15.616 25.8053 15.3228 26.2155C14.4687 27.4736 12.9618 28.2222 11.3333 28.2222C9.70437 28.2222 8.19645 27.4716 7.30006 26.2155C7.15277 26.0104 6.91943 25.8889 6.66666 25.8889C6.41388 25.8889 6.17957 26.0104 6.03374 26.215C5.26909 27.2859 4.04603 28.0015 2.67811 28.178C2.2518 28.2326 1.95138 28.6228 2.00582 29.05C2.06027 29.4754 2.44473 29.7821 2.87693 29.7214C4.3343 29.533 5.6711 28.8721 6.66568 27.8698C7.86249 29.0773 9.54735 29.7778 11.3353 29.7778C13.1227 29.7778 14.8027 29.0773 15.9995 27.8698C17.1958 29.0773 18.8826 29.7773 20.6715 29.7773C22.4594 29.7773 24.1389 29.0768 25.3358 27.8693C26.3299 28.8716 27.6667 29.5328 29.1245 29.7209C29.5596 29.7877 29.9407 29.4744 29.9956 29.0496C30.0049 28.6252 29.7472 28.2314 29.3194 28.178V28.1784ZM2.87742 14.9416C4.33478 14.7533 5.67159 14.0924 6.66617 13.09C7.86249 14.3 9.54443 15 11.3333 15C13.1222 15 14.8042 14.3 16 13.0944C17.1958 14.3 18.8778 15 20.6229 15C22.4108 15 24.0933 14.2995 25.2901 13.092C26.2842 14.0943 27.621 14.7555 29.0788 14.9436C29.5139 15.0104 29.895 14.6971 29.9499 14.2723C30.0046 13.845 29.7035 13.4551 29.2776 13.4002C27.9097 13.224 26.6871 12.5087 25.922 11.4373C25.6303 11.027 24.9478 11.027 24.6562 11.4373C23.7598 12.6934 22.2558 13.4405 20.6268 13.4405C18.9974 13.4405 17.4865 12.6939 16.5901 11.4373C16.2965 11.027 15.6164 11.027 15.3233 11.4373C14.4269 12.6934 12.9229 13.4405 11.2935 13.4405C9.6645 13.4405 8.15318 12.6939 7.2568 11.4373C7.15277 11.2326 6.91943 11.1111 6.62291 11.1111C6.41534 11.1111 6.18006 11.2326 6.03423 11.4378C5.26957 12.5087 4.04652 13.2242 2.6786 13.4007C2.25228 13.4541 1.95138 13.8479 2.00631 14.2708C2.06075 14.6986 2.44478 15.0048 2.87693 14.9416H2.87742ZM29.3194 20.7896C27.9515 20.6133 26.7289 19.898 25.9638 18.8266C25.6721 18.4164 24.9896 18.4164 24.698 18.8266C23.8021 20.0847 22.2951 20.8333 20.6229 20.8333C18.9935 20.8333 17.486 20.0828 16.5896 18.8266C16.296 18.4164 15.616 18.4164 15.3228 18.8266C14.4687 20.0847 12.9618 20.8333 11.3333 20.8333C9.70437 20.8333 8.19645 20.0828 7.30006 18.8266C7.15277 18.6215 6.91943 18.5 6.66666 18.5C6.41388 18.5 6.18006 18.6215 6.03423 18.8257C5.26957 19.8966 4.04652 20.6121 2.6786 20.7886C2.25228 20.843 1.95138 21.2368 2.00631 21.6597C2.06075 22.085 2.44478 22.3918 2.87742 22.331C4.33478 22.1426 5.67159 21.4818 6.66617 20.4794C7.862 21.6889 9.54395 22.3889 11.3328 22.3889C13.1217 22.3889 14.8037 21.6889 15.9995 20.4833C17.1953 21.6889 18.8773 22.3889 20.6224 22.3889C22.4103 22.3889 24.0928 21.6884 25.2896 20.4809C26.2837 21.4832 27.6205 22.1443 29.0783 22.3325C29.5134 22.3993 29.8945 22.086 29.9494 21.6612C30.0044 21.2368 29.7467 20.843 29.3189 20.7896H29.3194Z" fill="black"/>
</g>
<defs>
<clipPath id="clip0_47_247">
<rect width="28" height="24.8889" fill="white" transform="translate(2 8)"/>
</clipPath>
</defs>
</svg>
