<svg width="32" height="32" viewBox="0 0 32 32" fill="none" xmlns="http://www.w3.org/2000/svg">
<g id="p_pear_&#203;&#136;p&#201;&#155;r">
<g id="pear 1">
<path id="Vector" d="M29 4.8125C29 4.34841 28.6191 4 28.1875 4C27.9793 4 27.7716 4.07932 27.6132 4.23806L24.7953 7.05551C23.5918 6.09168 22.1445 5.625 20.682 5.625C18.8184 5.625 16.9395 6.37402 15.5379 7.77559C14.0602 9.25586 12.1863 10.2563 10.1703 10.8098C8.49098 11.2698 3 13.7576 3 20.2246C3 25.643 7.41594 30 12.7602 30C14.6736 30 20.3824 28.9955 22.1141 22.9516C23.9371 16.5836 27.375 17.3199 27.375 12.4043C27.375 10.922 26.8966 9.43918 25.942 8.20875L28.7639 5.38684C28.9188 5.2284 29 5.0202 29 4.8125ZM25.7043 12.3992C25.7043 16.4353 22.404 15.8767 20.5043 22.459C19.8848 24.8305 17.427 28.375 12.7602 28.375C9.21664 28.375 4.625 25.5297 4.625 20.2246C4.625 16.4231 7.21687 13.3031 10.602 12.3738C16.7668 10.6879 16.5434 7.25 20.682 7.25C21.7779 7.25 22.7859 7.59277 23.6299 8.21891L22.7356 9.11316C22.5813 9.27109 22.5 9.4793 22.5 9.6875C22.5 10.1496 22.8809 10.5 23.3125 10.5C23.5202 10.5 23.7279 10.4203 23.8868 10.2618L24.7669 9.3818C25.1406 9.90535 25.7043 10.9418 25.7043 12.3992Z" fill="black"/>
</g>
</g>
</svg>
