<svg width="32" height="32" viewBox="0 0 32 32" fill="none" xmlns="http://www.w3.org/2000/svg">
<g clip-path="url(#clip0_53_716)">
<path d="M28.5 20.9258V9.25C28.5 7.3168 26.9332 5.75 25 5.75H7.50054C5.56734 5.75 3.99994 7.3168 3.99994 9.25L3.99939 26.75C3.99939 28.6832 5.56619 30.25 7.49939 30.25H19.1752C20.1032 30.25 20.9935 29.8809 21.6503 29.2246L27.4745 23.4004C28.133 22.7414 28.4994 21.8555 28.4994 20.9258H28.5ZM20.4117 27.9859C20.2258 28.1773 19.9961 28.3031 19.75 28.3852V22.375C19.75 21.8921 20.1426 21.5 20.625 21.5H26.6351C26.5493 21.7445 26.4246 21.9736 26.2359 22.1628L20.4112 27.9859H20.4117ZM26.75 19.75H20.625C19.1758 19.75 18 20.9258 18 22.375V28.5H7.49999C6.5353 28.5 5.74999 27.7147 5.74999 26.75V9.25C5.74999 8.28531 6.5353 7.5 7.49999 7.5H25C25.9647 7.5 26.75 8.28531 26.75 9.25V19.75Z" fill="black"/>
</g>
<defs>
<clipPath id="clip0_53_716">
<rect width="24.5" height="28" fill="white" transform="translate(4 4)"/>
</clipPath>
</defs>
</svg>
