<svg width="32" height="32" viewBox="0 0 32 32" fill="none" xmlns="http://www.w3.org/2000/svg">
<g clip-path="url(#clip0_53_702)">
<path d="M29.5274 28.0768C29.3091 27.9694 29.0978 27.8344 28.8992 27.6756C28.7008 27.5169 28.4946 27.3768 28.2827 27.2532C28.1647 25.3732 26.7738 23.8338 24.9637 23.4884C25.0994 23.3305 25.2248 23.1611 25.3393 22.9795C25.9982 21.9339 26.2697 20.5042 26.1462 18.7302C26.0489 17.3315 25.7043 15.6776 25.1221 13.8144C23.9472 10.0548 22.3904 7.04476 20.9652 3.92981L21.4961 3.39891C21.8161 3.07887 21.8161 2.56005 21.4961 2.24002C21.1761 1.91999 20.6572 1.91999 20.3372 2.24002L19.9677 2.60955C19.4116 2.25102 18.7102 2.12201 18.0378 2.28503C18.036 2.28547 18.0341 2.28563 18.0323 2.28613L18.0234 2.28837C18.0225 2.28859 18.0216 2.28875 18.0207 2.28897C12.8119 3.59113 15.3483 2.95709 12.5234 3.66338C12.1586 3.75454 11.9027 4.08234 11.9027 4.45837V6.55492C11.9027 7.63035 12.5939 8.61183 13.5837 8.94176L15.1805 9.47398V10.5635C14.2097 11.0728 13.3944 11.8324 12.8171 12.7663C12.3118 13.5839 12.0078 14.5051 11.9254 15.4573C10.8286 15.895 9.94882 16.7972 9.55879 17.9675L9.04052 19.5223C8.92879 19.8575 8.61636 20.0826 8.26313 20.0826H6.16653C5.55884 20.0826 5.1612 20.7238 5.43355 21.2685C5.81931 22.04 6.18091 22.8708 6.72188 23.5616C5.04127 24.023 3.78942 25.5297 3.71264 27.3362C3.55022 27.4395 3.39141 27.5523 3.23724 27.6756C3.06651 27.8121 2.82184 27.9535 2.48923 28.1079C2.07869 28.2983 1.9003 28.7856 2.09077 29.1961C2.28125 29.6066 2.76846 29.7851 3.179 29.5945C3.6387 29.3813 3.98258 29.1782 4.26105 28.9554C5.44782 28.0059 6.97814 27.9571 8.15392 28.8978C9.9398 30.3264 12.302 30.3317 14.0945 28.8978C15.2769 27.9518 16.8049 27.9518 17.9873 28.8978C19.7563 30.313 22.121 30.4008 23.9279 28.9554C25.1179 28.0033 26.7061 28.0199 27.8754 28.9554C28.1667 29.1885 28.4792 29.3877 28.8042 29.5475C29.2104 29.7472 29.7015 29.5798 29.9012 29.1737C30.1009 28.7676 29.9335 28.2765 29.5274 28.0768ZM8.26308 21.7214C9.32292 21.7214 10.2602 21.0459 10.5953 20.0404L11.1136 18.4856C11.4487 17.4802 12.3859 16.8046 13.4457 16.8046C13.4988 16.8046 13.5505 16.7991 13.6007 16.7895C14.6214 16.751 15.6697 16.6216 16.6712 16.2303C18.1441 15.6548 19.2365 14.6223 20.0107 13.0739C20.2131 12.6691 20.0489 12.1769 19.6442 11.9745C19.2395 11.7721 18.7472 11.9362 18.5448 12.3409C17.495 14.4405 15.918 15.0388 13.6197 15.1461C13.8754 13.7842 14.7468 12.6112 16.0203 11.9744L16.3663 11.8014C16.644 11.6626 16.8193 11.3789 16.8193 11.0684V8.88319C16.8193 8.53045 16.5936 8.21731 16.259 8.1058L14.1019 7.38683C13.7825 7.28035 13.5416 6.92264 13.5416 6.55481V5.09816L15.2118 4.68062C15.3088 5.02498 15.6246 5.27775 16 5.27775C16.4525 5.27775 16.8194 4.91085 16.8194 4.45831V4.27866L18.4201 3.87852C18.7467 3.79758 19.0883 3.91291 19.2711 4.16617C21.0359 8.02323 22.4369 10.7161 23.5578 14.3032C24.7097 17.9895 24.8463 20.6875 23.9527 22.1057C23.3976 22.9867 22.4095 23.4149 20.9321 23.4149C20.702 23.4149 9.97502 23.4149 9.83124 23.4149C8.62981 23.4149 8.07824 22.8119 7.49313 21.7214H8.26308ZM22.904 27.6756C21.7434 28.604 20.2154 28.5814 19.0111 27.618C18.1338 26.9162 17.1068 26.5452 16.0408 26.5452C14.9749 26.5452 13.9478 26.9162 13.0705 27.618C11.8881 28.5639 10.3601 28.5639 9.17767 27.618C8.30141 26.917 7.26782 26.5564 6.1936 26.5741C5.96303 26.578 5.73422 26.6002 5.50798 26.6383C5.8612 25.713 6.75753 25.0538 7.8054 25.0538C8.17919 25.0538 20.5516 25.0538 20.9321 25.0538H24.1944C25.242 25.0538 26.1381 25.7127 26.4914 26.6376C25.2504 26.478 23.9686 26.824 22.904 27.6756Z" fill="black"/>
</g>
<defs>
<clipPath id="clip0_53_702">
<rect width="28" height="28" fill="white" transform="translate(2 2)"/>
</clipPath>
</defs>
</svg>
