<svg width="32" height="32" viewBox="0 0 32 32" fill="none" xmlns="http://www.w3.org/2000/svg">
<g clip-path="url(#clip0_53_714)">
<path d="M22.725 3.75C24.1086 3.75 25.3609 4.56484 25.9242 5.82867L28.1992 10.9469C28.3961 11.3953 28.5 11.8766 28.5 12.3688V24.75C28.5 26.6805 26.9305 28.25 25 28.25H7.5C5.5668 28.25 4 26.6805 4 24.75V12.3688C4 11.8766 4.10276 11.3953 4.30166 10.9469L6.57633 5.82867C7.13797 4.5643 8.39141 3.75 9.775 3.75H22.725ZM26.1977 10.75L24.3273 6.53906C24.043 5.90742 23.4195 5.5 22.725 5.5H18.7656L19.75 10.75H26.1977ZM17.9672 10.75L16.9828 5.5H15.5172L14.5328 10.75H17.9672ZM18 12.5H14.5V16H18V12.5ZM12.75 12.5H5.75V24.75C5.75 25.718 6.53367 26.5 7.5 26.5H25C25.968 26.5 26.75 25.718 26.75 24.75V12.5H19.75V16C19.75 16.968 18.968 17.75 18 17.75H14.5C13.532 17.75 12.75 16.968 12.75 16V12.5ZM12.75 10.75L13.7344 5.5H9.775C9.0832 5.5 8.45648 5.90742 8.17539 6.53906L6.30398 10.75H12.75Z" fill="black"/>
</g>
<defs>
<clipPath id="clip0_53_714">
<rect width="24.5" height="28" fill="white" transform="translate(4 2)"/>
</clipPath>
</defs>
</svg>
