<svg width="32" height="32" viewBox="0 0 32 32" fill="none" xmlns="http://www.w3.org/2000/svg">
<g clip-path="url(#clip0_53_715)">
<path d="M28.7841 21.2668C28.5176 20.9146 28.5714 20.4364 28.9088 20.1551C28.9581 20.1141 29.0071 20.0728 29.0556 20.0316C29.6561 19.5225 30.0003 18.78 30 17.9952C30.0003 17.2098 29.6561 16.4674 29.0556 15.9581C29.0069 15.9168 28.9582 15.8758 28.9095 15.8352C28.5714 15.5533 28.5175 15.0751 28.7847 14.7224L28.8974 14.5731C29.8672 13.2837 29.4678 11.3732 27.85 10.5671C27.4024 10.3442 27.2165 9.87332 27.4077 9.44774C28.354 7.33906 26.2621 5.33794 22.7333 7.36378C20.9265 8.40097 18.9285 10.3171 16.7946 13.0587C16.6037 13.3039 16.3141 13.4445 15.9998 13.4445C15.6857 13.4445 15.396 13.3039 15.2052 13.0587C13.0713 10.3171 11.0733 8.40103 9.26646 7.36378C5.74767 5.34374 3.64199 7.33206 4.59201 9.44747C4.76816 9.83952 4.64457 10.321 4.11339 10.5853C2.59248 11.3482 2.10123 13.2421 3.10293 14.5739L3.21559 14.723C3.48224 15.0751 3.42838 15.5533 3.09047 15.835C3.04157 15.8758 2.99285 15.9168 2.94418 15.9582C1.68298 17.0277 1.68774 18.9662 2.94368 20.0311C2.99274 20.0728 3.04174 20.114 3.09025 20.1544C3.42838 20.4364 3.48224 20.9146 3.21543 21.2669L3.1025 21.4165C2.1382 22.6985 2.52177 24.6086 4.14976 25.4226C4.59732 25.6455 4.78326 26.1164 4.59185 26.5424C4.57205 26.5866 4.55237 26.6307 4.53251 26.6755C4.11541 27.6181 4.42298 28.6345 5.28047 29.1473C5.84342 29.484 7.10993 29.8639 9.26641 28.626C11.0732 27.5887 13.0712 25.6728 15.2051 22.9311C15.396 22.6859 15.6857 22.5453 15.9998 22.5453C16.314 22.5453 16.6036 22.686 16.7945 22.9311C18.9283 25.6728 20.9264 27.5887 22.7332 28.626C23.8611 29.2735 24.7454 29.4784 25.4131 29.4784C27.2004 29.4783 28.0555 28.0052 27.467 26.6752C27.4474 26.6308 27.4276 26.5866 27.4078 26.5422C27.2307 26.1481 27.3567 25.6693 27.8863 25.4045C29.4154 24.6376 29.8929 22.7402 28.8972 21.4164L28.7841 21.2668ZM27.8704 18.635C27.826 18.6726 27.7817 18.71 27.7363 18.7478C26.6512 19.653 26.4702 21.2451 27.324 22.3724L27.4335 22.5176C27.728 22.9089 27.6071 23.4961 27.0334 23.783C25.7168 24.4388 25.1473 25.9806 25.737 27.2928C25.8231 27.4842 25.8509 27.5324 25.7791 27.5753C25.7121 27.6153 25.5961 27.6444 25.431 27.6444C24.5123 27.6443 22.0822 26.7424 18.2401 21.8061C17.6997 21.1118 16.8833 20.7135 16 20.7135C15.1167 20.7135 14.3003 21.1118 13.76 21.8061C9.22764 27.6291 6.66029 27.8379 6.22093 27.5752C6.14891 27.5322 6.17723 27.4838 6.26293 27.293C6.82741 26.0369 6.35289 24.4761 4.93479 23.7671C4.45174 23.5249 4.24382 22.9466 4.56626 22.5178L4.67585 22.3726C5.52985 21.2452 5.34883 19.653 4.26291 18.7472C4.21834 18.7101 4.17387 18.6727 4.12903 18.6346C3.73326 18.2989 3.73118 17.6926 4.12903 17.3551C4.17371 17.3172 4.21855 17.2796 4.26367 17.2419C5.34883 16.3369 5.52985 14.7446 4.67634 13.6178L4.56647 13.4722C4.2757 13.0857 4.38726 12.4955 4.96662 12.2067C6.18281 11.6009 6.91163 10.1607 6.20775 8.57302C6.15503 8.45386 6.1885 8.43379 6.22087 8.41448C6.66007 8.15127 9.22753 8.36056 13.7599 14.1837C14.3003 14.8779 15.1167 15.2762 15.9999 15.2762C16.8833 15.2762 17.6997 14.878 18.24 14.1837C22.7723 8.36062 25.3395 8.15144 25.7791 8.41443C25.8115 8.43373 25.845 8.4538 25.7924 8.57264C25.1301 10.0651 25.7108 11.5467 27.0652 12.2225C27.5524 12.4668 27.754 13.0462 27.4341 13.4714L27.3242 13.617C26.4702 14.7445 26.6512 16.3368 27.7366 17.242C27.7816 17.2794 27.8263 17.3171 27.871 17.355C28.1299 17.5747 28.1684 17.8499 28.1684 17.9951C28.1684 18.1397 28.1298 18.4151 27.8704 18.635Z" fill="black"/>
<path d="M21.6452 18.9106C20.3021 18.9106 19.7113 18.4753 18.948 17.9948C19.7113 17.5144 20.3021 17.0789 21.6452 17.0789C22.151 17.0789 22.5611 16.6689 22.5611 16.1631C22.5611 15.6573 22.151 15.2473 21.6452 15.2473C19.8586 15.2473 18.8935 15.86 18.118 16.3524C17.4537 16.7742 16.9737 17.0789 16 17.0789C15.0263 17.0789 14.5463 16.7742 13.8821 16.3524C13.1065 15.8601 12.1414 15.2473 10.3548 15.2473C9.84898 15.2473 9.43893 15.6573 9.43893 16.1631C9.43893 16.6689 9.84898 17.0789 10.3548 17.0789C11.6979 17.0789 12.2887 17.5143 13.052 17.9948C12.2887 18.4752 11.698 18.9106 10.3548 18.9106C9.84898 18.9106 9.43893 19.3207 9.43893 19.8265C9.43893 20.3323 9.84898 20.7423 10.3548 20.7423C12.1414 20.7423 13.1065 20.1296 13.8821 19.6372C14.5463 19.2154 15.0263 18.9106 16 18.9106C16.9737 18.9106 17.4537 19.2154 18.118 19.6372C18.8935 20.1295 19.8587 20.7423 21.6452 20.7423C22.151 20.7423 22.5611 20.3323 22.5611 19.8265C22.5611 19.3207 22.151 18.9106 21.6452 18.9106Z" fill="black"/>
</g>
<defs>
<clipPath id="clip0_53_715">
<rect width="28" height="28" fill="white" transform="translate(2 4)"/>
</clipPath>
</defs>
</svg>
