<svg width="32" height="32" viewBox="0 0 32 32" fill="none" xmlns="http://www.w3.org/2000/svg">
<g clip-path="url(#clip0_53_703)">
<path d="M12.8889 16.4722C12.3104 16.4722 11.9167 16.866 11.9167 17.4444C11.9167 18.0229 12.3104 18.4167 12.8889 18.4167C13.4674 18.4167 13.8611 17.9792 13.8611 17.4444C13.8611 16.9097 13.4236 16.4722 12.8889 16.4722ZM11.3333 22.6944C10.7972 22.6944 10.3611 23.13 10.3611 23.6667C10.3611 24.2028 10.7549 24.6389 11.3333 24.6389C11.9118 24.6389 12.3056 24.2014 12.3056 23.6667C12.3056 23.1319 11.8681 22.6944 11.3333 22.6944ZM28.4445 12.8361C28.4445 8.08146 23.9431 5 20.6083 5C16.6952 5 14.6438 8.66576 13.5306 9.07458C11.0188 9.8616 9.50605 11.9504 8.29029 13.6294C6.62001 15.8938 3.54779 18.3097 3.54779 22.2521C3.54779 25.6208 6.33953 29.8889 11.207 29.8889C12.6998 29.8889 14.1499 29.4344 15.4011 28.5744C16.8838 27.5546 20.865 27.2965 22.8727 24.1698C23.5007 23.184 23.9231 22.2288 24.2965 21.3863C25.9215 17.7069 28.4445 16.8562 28.4445 12.8361ZM26.8986 12.8264C26.8986 14.2016 26.3809 15.8884 24.6708 17.7069C23.2212 19.2469 22.8979 21.2381 21.567 23.3264C20.4922 25.001 18.607 25.6578 16.944 26.2362C13.6715 27.366 13.5889 28.3333 11.207 28.3333C7.78571 28.3333 5.11598 25.3972 5.11598 22.2424C5.11598 19.4059 7.27578 17.2014 8.12453 16.3361C9.70439 14.7334 11.0825 11.475 14.0502 10.5417C15.8445 9.90486 17.332 6.55556 20.6083 6.55556C23.525 6.55556 26.8986 9.35118 26.8986 12.8264ZM20.6667 13.3611C20.1305 13.3611 19.6945 13.7967 19.6945 14.3333C19.6945 14.8695 20.0882 15.3056 20.6667 15.3056C21.2452 15.3056 21.6389 14.8681 21.6389 14.3333C21.6389 13.7986 21.2014 13.3611 20.6667 13.3611Z" fill="black"/>
</g>
<defs>
<clipPath id="clip0_53_703">
<rect width="28" height="24.8889" fill="white" transform="translate(2 5)"/>
</clipPath>
</defs>
</svg>
