<svg width="32" height="32" viewBox="0 0 32 32" fill="none" xmlns="http://www.w3.org/2000/svg">
<g clip-path="url(#clip0_53_723)">
<path d="M23 19.5H16C15.5168 19.5 15.125 19.8918 15.125 20.375C15.125 20.8582 15.5168 21.25 16 21.25H23C23.4832 21.25 23.875 20.8582 23.875 20.375C23.875 19.8918 23.4832 19.5 23 19.5Z" fill="black"/>
<path d="M23 24.75H16C15.5168 24.75 15.125 25.1418 15.125 25.625C15.125 26.1082 15.5168 26.5 16 26.5H23C23.4832 26.5 23.875 26.1082 23.875 25.625C23.875 25.1418 23.4832 24.75 23 24.75Z" fill="black"/>
<path d="M21.25 23.875C21.7332 23.875 22.125 23.4832 22.125 23C22.125 22.5168 21.7332 22.125 21.25 22.125H17.75C17.2668 22.125 16.875 22.5168 16.875 23C16.875 23.4832 17.2668 23.875 17.75 23.875H21.25Z" fill="black"/>
<path d="M27.375 20.375V18.625C27.375 18.393 27.2827 18.1704 27.1187 18.0063L25.3687 16.2563C25.2046 16.0923 24.982 16 24.75 16H14.25C14.018 16 13.7954 16.0923 13.6313 16.2563L11.8813 18.0063C11.7173 18.1704 11.625 18.393 11.625 18.625V20.375H10.75V4.625C10.7485 3.17578 9.57422 2.0015 8.125 2H4.625C3.17578 2.0015 2.0015 3.17578 2 4.625V8.125C2.0015 9.57422 3.17578 10.7485 4.625 10.75C5.10822 10.75 5.5 11.1418 5.5 11.625V24.75C5.50406 26.0251 6.42392 27.1131 7.68088 27.3289C8.93762 27.5446 10.1677 26.8258 10.5968 25.625H11.625V27.375C11.625 27.6072 11.7171 27.8298 11.8813 27.9941L13.6313 29.7441C13.7954 29.9079 14.018 30 14.25 30H24.75C24.982 30 25.2046 29.9077 25.3687 29.7437L27.1187 27.9937C27.2827 27.8296 27.375 27.607 27.375 27.375V25.625C28.8246 25.625 30 24.4496 30 23C30 21.5504 28.8246 20.375 27.375 20.375ZM8.125 25.625C7.64178 25.625 7.25 25.2332 7.25 24.75V11.625C7.2485 10.1758 6.07422 9.0015 4.625 9C4.14178 9 3.75 8.60822 3.75 8.125V4.625C3.75 4.14178 4.14178 3.75 4.625 3.75H8.125C8.60822 3.75 9 4.14178 9 4.625V24.75C9 25.2332 8.60822 25.625 8.125 25.625ZM10.75 23.875V22.125H11.625V23.875H10.75ZM25.625 27.0123L24.3877 28.25H14.6123L13.375 27.0123V18.9877L14.6123 17.75H24.3877L25.625 18.9877V27.0123ZM27.375 23.875V22.125C27.8582 22.125 28.25 22.5168 28.25 23C28.25 23.4832 27.8582 23.875 27.375 23.875Z" fill="black"/>
</g>
<defs>
<clipPath id="clip0_53_723">
<rect width="28" height="28" fill="white" transform="translate(2 2)"/>
</clipPath>
</defs>
</svg>
