<svg width="32" height="32" viewBox="0 0 32 32" fill="none" xmlns="http://www.w3.org/2000/svg">
<path d="M12.6383 5.0625C12.6383 3.37102 14.0602 2 15.7008 2C17.4398 2 18.8125 3.37102 18.8125 5.0625C18.8125 6.75398 17.4398 8.125 15.7008 8.125C14.0602 8.125 12.6383 6.75398 12.6383 5.0625ZM15.7008 6.375C16.4773 6.375 17.0625 5.78711 17.0625 5.0625C17.0625 4.33789 16.4773 3.75 15.7008 3.75C15.0227 3.75 14.3883 4.33789 14.3883 5.0625C14.3883 5.78711 15.0227 6.375 15.7008 6.375ZM13.9508 21.25V29.125C13.9508 29.6063 13.6063 30 13.0758 30C12.6438 30 12.2008 29.6063 12.2008 29.125V13.0523L9.52164 18.1602C9.29414 18.5867 8.76367 18.7508 8.33766 18.5211C7.91164 18.2914 7.75032 17.7664 7.97836 17.3398L11.1962 11.3133C11.9569 9.89141 13.4422 9 15.0555 9H16.4445C18.0578 9 19.5453 9.89141 20.3055 11.3133L23.5211 17.3398C23.7508 17.7664 23.5867 18.2914 23.1602 18.5211C22.7336 18.7508 22.2086 18.5867 21.9789 18.1602L19.25 13.0578V29.125C19.25 29.6063 18.8563 30 18.375 30C17.8938 30 17.5 29.6063 17.5 29.125V21.25H13.9508ZM13.9508 19.5H17.5V10.9688C17.1719 10.8266 16.8164 10.75 16.4445 10.75H15.0555C14.6836 10.75 14.2789 10.8266 13.9508 10.9688V19.5Z" fill="black"/>
</svg>
