<svg width="32" height="32" viewBox="0 0 32 32" fill="none" xmlns="http://www.w3.org/2000/svg">
<path d="M18.3056 22.0944C18.4413 22.23 18.6206 22.3 18.8 22.3C18.9794 22.3 19.1579 22.2313 19.2948 22.0948L22.0948 19.2948C22.3682 19.0214 22.3682 18.5782 22.0948 18.3052L19.2948 15.5052C19.0214 15.2318 18.5782 15.2318 18.3052 15.5052C18.0322 15.7786 18.0317 16.2218 18.3052 16.4948L20.6112 18.7996L18.3061 21.1048C18.03 21.3765 18.03 21.8227 18.3056 22.094V22.0944ZM13.6944 15.5056C13.4209 15.2322 12.9777 15.2322 12.7047 15.5056L9.90475 18.3056C9.63131 18.5791 9.63131 19.0223 9.90475 19.2953L12.7047 22.0953C12.8412 22.23 13.0206 22.3 13.2 22.3C13.3794 22.3 13.5579 22.2313 13.6948 22.0948C13.9682 21.8214 13.9682 21.3782 13.6948 21.1052L11.3888 18.7996L13.6939 16.4944C13.97 16.2227 13.97 15.7765 13.6944 15.5052V15.5056ZM5.5 24.4C5.88675 24.4 6.2 24.085 6.2 23.7V13.2C6.2 12.4274 6.82825 11.8 7.6 11.8H24.4C25.1717 11.8 25.8 12.4274 25.8 13.2V23.7C25.8 24.0868 26.1128 24.4 26.5 24.4C26.8867 24.4 27.2 24.0868 27.2 23.7V13.2C27.2 11.6565 25.9444 10.4 24.4 10.4H7.6C6.05562 10.4 4.8 11.6565 4.8 13.2V23.7C4.8 24.085 5.11325 24.4 5.5 24.4ZM29.3 25.8H2.7C2.31719 25.8 2 26.1194 2 26.5V27.2C2 28.7422 3.25781 30 4.8 30H27.2C28.7422 30 30 28.7422 30 27.2V26.5C30 26.1194 29.685 25.8 29.3 25.8ZM27.2 28.6H4.8C4.02825 28.6 3.4 27.9718 3.4 27.2H28.6C28.6 27.97 27.97 28.6 27.2 28.6Z" fill="black"/>
</svg>
