<svg width="32" height="32" viewBox="0 0 32 32" fill="none" xmlns="http://www.w3.org/2000/svg">
<g clip-path="url(#clip0_47_269)">
<path d="M22.6725 15.2066C23.3454 14.7556 23.828 14.0828 24.0407 13.2888C24.2733 12.4209 24.1554 11.5168 23.7086 10.7431C23.2619 9.96928 22.5379 9.41508 21.67 9.18249C20.876 8.96976 20.0521 9.05124 19.325 9.40857L17.4516 6.16379C17.0528 5.47304 16.3365 5.07043 15.5413 5.08399C14.7439 5.09859 14.045 5.52805 13.6716 6.23281C13.4094 6.72795 13.1632 7.24229 12.9025 7.78686C11.84 10.0064 10.6357 12.522 8.03218 14.0251L4.68678 15.9566C3.53522 16.6214 2.71037 17.6992 2.36409 18.9914C2.01786 20.2836 2.1933 21.6295 2.85814 22.781C3.78241 24.3819 5.46515 25.2779 7.19311 25.2779C7.82333 25.2779 8.45951 25.1585 9.06719 24.9108L11.4059 28.9616C11.8898 29.7997 12.7705 30.2686 13.675 30.2686C14.1183 30.2686 14.5674 30.1559 14.9781 29.9188C15.5812 29.5706 16.0131 29.0065 16.1943 28.3303C16.3754 27.6542 16.2835 26.9497 15.9353 26.3466L13.634 22.3607C16.0569 21.2089 18.6 21.4043 20.8642 21.5793C21.4667 21.6259 22.0357 21.6699 22.5961 21.6904C23.392 21.7189 24.1145 21.329 24.5258 20.6456C24.9371 19.9623 24.9446 19.1421 24.5458 18.4513L22.6724 15.2065L22.6725 15.2066ZM21.3162 10.5031C21.8313 10.6411 22.2605 10.9691 22.5246 11.4266C23.0346 12.3099 22.7875 13.4255 21.9865 14.0185L20.011 10.5968C20.4199 10.4192 20.8755 10.385 21.3162 10.5031H21.3162ZM7.19086 23.9111C5.9359 23.911 4.71352 23.2602 4.04223 22.0974C3.56 21.2622 3.43301 20.2848 3.68479 19.3453C3.93652 18.4058 4.53519 17.6228 5.37043 17.1406L8.12411 15.5508L11.7561 21.8339L8.99911 23.4257C8.42904 23.7548 7.80615 23.9111 7.19086 23.9111ZM14.8737 27.9766C14.7871 28.3 14.5814 28.5693 14.2946 28.7349C13.6987 29.0788 12.934 28.874 12.5899 28.2781L10.2746 24.2679L12.436 23.02L14.7513 27.0302C14.9169 27.3171 14.9604 27.6531 14.8737 27.9766H14.8737ZM23.3545 19.9407C23.199 20.199 22.9483 20.3358 22.6461 20.3242C22.1135 20.3047 21.5579 20.2617 20.9697 20.2163C18.4988 20.0254 15.7205 19.8113 12.9519 21.1706L9.29639 14.8469C11.861 13.127 13.0652 10.6133 14.1357 8.37727C14.3902 7.84554 14.6307 7.34329 14.8798 6.87276C15.021 6.60627 15.2648 6.45648 15.5663 6.45101C15.5719 6.4509 15.5776 6.45085 15.5833 6.45085C15.8771 6.45085 16.1197 6.59123 16.2676 6.84744L23.3619 19.1351C23.5127 19.3963 23.5101 19.6824 23.3545 19.9407L23.3545 19.9407ZM21.5787 6.51844L22.9904 4.07326C23.1792 3.74628 23.5972 3.63422 23.9242 3.82306C24.2512 4.01184 24.3632 4.42993 24.1744 4.75685L22.7627 7.20204C22.6361 7.42133 22.4063 7.54394 22.17 7.54394C22.0541 7.54394 21.9365 7.51441 21.8289 7.45223C21.5019 7.26345 21.3899 6.84536 21.5787 6.51844ZM27.9254 9.09783L25.421 10.5438C25.3134 10.6059 25.1958 10.6355 25.0799 10.6355C24.8436 10.6355 24.6139 10.5129 24.4872 10.2936C24.2984 9.9666 24.4105 9.54851 24.7374 9.35979L27.2418 7.91385C27.5686 7.72501 27.9868 7.83712 28.1756 8.16404C28.3643 8.49097 28.2523 8.90911 27.9254 9.09783ZM29.8093 14.0163C29.8093 14.3938 29.5033 14.6999 29.1257 14.6999H26.3022C25.9247 14.6999 25.6186 14.3939 25.6186 14.0163C25.6186 13.6388 25.9247 13.3327 26.3022 13.3327H29.1257C29.5033 13.3327 29.8093 13.6388 29.8093 14.0163Z" fill="black"/>
</g>
<defs>
<clipPath id="clip0_47_269">
<rect width="28" height="28" fill="white" transform="translate(2 3)"/>
</clipPath>
</defs>
</svg>
