<svg width="32" height="32" viewBox="0 0 32 32" fill="none" xmlns="http://www.w3.org/2000/svg">
<path d="M11.625 8.375C11.625 7.89156 12.0187 7.5 12.5 7.5H14.25C14.7313 7.5 15.125 7.89156 15.125 8.375C15.125 8.85844 14.7313 9.25 14.25 9.25H12.5C12.0187 9.25 11.625 8.85844 11.625 8.375ZM14.25 11C14.7313 11 15.125 11.3937 15.125 11.875C15.125 12.3563 14.7313 12.75 14.25 12.75H12.5C12.0187 12.75 11.625 12.3563 11.625 11.875C11.625 11.3937 12.0187 11 12.5 11H14.25ZM6.375 14.5C6.85844 14.5 7.25 14.8937 7.25 15.375C7.25 15.8563 6.85844 16.25 6.375 16.25H4.625C4.14156 16.25 3.75 15.8563 3.75 15.375C3.75 14.8937 4.14156 14.5 4.625 14.5H6.375ZM28.5016 18C29.3273 18 30 18.6727 30 19.4984C30 23.1898 27.7797 26.3562 24.6078 27.7508C24.1758 29.1945 22.8359 30.25 21.25 30.25H10.75C9.11484 30.25 7.82422 29.1945 7.39437 27.7508C4.21867 26.3562 2 23.1898 2 19.4984C2 18.6727 2.67156 18 3.50008 18H28.5016ZM10.75 28.5H21.25C22.043 28.5 22.7102 27.975 22.9289 27.2477C23.0766 26.7555 23.432 26.3508 23.9023 26.143C26.3961 25.0547 28.1516 22.6102 28.2445 19.75H3.75438C3.85117 22.6102 5.60664 25.0547 8.09766 26.143C8.56797 26.3508 8.92344 26.7555 9.07109 27.2477C9.28984 27.975 9.95703 28.5 10.7008 28.5H10.75ZM14.25 15.375C14.25 14.8937 14.6437 14.5 15.125 14.5H16.875C17.3563 14.5 17.75 14.8937 17.75 15.375C17.75 15.8563 17.3563 16.25 16.875 16.25H15.125C14.6437 16.25 14.25 15.8563 14.25 15.375ZM9 15.375C9 14.8937 9.39375 14.5 9.875 14.5H11.625C12.1063 14.5 12.5 14.8937 12.5 15.375C12.5 15.8563 12.1063 16.25 11.625 16.25H9.875C9.39375 16.25 9 15.8563 9 15.375ZM9 11C9.48125 11 9.875 11.3937 9.875 11.875C9.875 12.3563 9.48125 12.75 9 12.75H7.25C6.76656 12.75 6.375 12.3563 6.375 11.875C6.375 11.3937 6.76656 11 7.25 11H9ZM19.5 15.375C19.5 14.8937 19.8937 14.5 20.375 14.5H22.125C22.6063 14.5 23 14.8937 23 15.375C23 15.8563 22.6063 16.25 22.125 16.25H20.375C19.8937 16.25 19.5 15.8563 19.5 15.375ZM19.5 11C19.9813 11 20.375 11.3937 20.375 11.875C20.375 12.3563 19.9813 12.75 19.5 12.75H17.75C17.2687 12.75 16.875 12.3563 16.875 11.875C16.875 11.3937 17.2687 11 17.75 11H19.5ZM24.75 15.375C24.75 14.8937 25.1437 14.5 25.625 14.5H27.375C27.8563 14.5 28.25 14.8937 28.25 15.375C28.25 15.8563 27.8563 16.25 27.375 16.25H25.625C25.1437 16.25 24.75 15.8563 24.75 15.375ZM24.75 11C25.2313 11 25.625 11.3937 25.625 11.875C25.625 12.3563 25.2313 12.75 24.75 12.75H23C22.5187 12.75 22.125 12.3563 22.125 11.875C22.125 11.3937 22.5187 11 23 11H24.75ZM19.5 7.5C19.9813 7.5 20.375 7.89156 20.375 8.375C20.375 8.85844 19.9813 9.25 19.5 9.25H17.75C17.2687 9.25 16.875 8.85844 16.875 8.375C16.875 7.89156 17.2687 7.5 17.75 7.5H19.5Z" fill="black"/>
</svg>
