<svg width="32" height="32" viewBox="0 0 32 32" fill="none" xmlns="http://www.w3.org/2000/svg">
<g clip-path="url(#clip0_47_261)">
<path d="M7.25 16C7.25 11.1656 11.1656 7.25 16 7.25C20.8344 7.25 24.75 11.1656 24.75 16C24.75 20.8344 20.8344 24.75 16 24.75C11.1656 24.75 7.25 20.8344 7.25 16ZM22.8742 17.3234C22.9563 16.8914 23 16.4539 23 16C23 13.9875 22.1523 12.1773 20.7961 10.8977L18.707 13.7797C19.1992 14.3812 19.5 15.1578 19.5 16C19.5 16.0766 19.4508 16.1477 19.4945 16.2188L22.8742 17.3234ZM18.9477 17.8812C18.4773 18.6195 17.7391 19.1664 16.8695 19.3414L16.8258 22.9453C19.2922 22.6445 21.332 21.1078 22.3328 18.9859L18.9477 17.8812ZM15.0758 22.9453L15.1195 19.3414C14.2555 19.1664 13.5172 18.6195 13.0523 17.8812L9.66719 18.9859C10.668 21.1078 12.7023 22.6445 15.0758 22.9453ZM12.5055 16.2188C12.5 16.1477 12.5 16.0766 12.5 16C12.5 15.1578 12.8008 14.3812 13.293 13.7797L11.2039 10.8977C9.84766 12.1773 9 13.9875 9 15.9508C9 16.4539 9.04375 16.8914 9.12578 17.3234L12.5055 16.2188ZM14.7094 12.7461C15.1086 12.5875 15.5461 12.5 16 12.5C16.4539 12.5 16.8914 12.5875 17.2906 12.7461L19.3797 9.86953C18.3789 9.31719 17.225 9 16 9C14.775 9 13.6211 9.31719 12.6203 9.86953L14.7094 12.7461ZM16 14.25C15.032 14.25 14.25 15.032 14.25 16C14.25 16.968 15.032 17.75 16 17.75C16.968 17.75 17.75 16.968 17.75 16C17.75 15.032 16.968 14.25 16 14.25ZM30 16C30 23.7328 23.7328 30 16 30C8.26719 30 2 23.7328 2 16C2 8.26719 8.26719 2 16 2C23.7328 2 30 8.26719 30 16ZM16 3.75C9.23516 3.75 3.75 9.23516 3.75 16C3.75 22.7648 9.23516 28.25 16 28.25C22.7648 28.25 28.25 22.7648 28.25 16C28.25 9.23516 22.7648 3.75 16 3.75Z" fill="black"/>
</g>
<defs>
<clipPath id="clip0_47_261">
<rect width="28" height="28" fill="white" transform="translate(2 2)"/>
</clipPath>
</defs>
</svg>
