<svg width="32" height="32" viewBox="0 0 32 32" fill="none" xmlns="http://www.w3.org/2000/svg">
<g id="s_sun_&#203;&#136;s&#202;&#140;n">
<g id="sun 1" clip-path="url(#clip0_10_1008)">
<path id="Vector" d="M15.9999 9C12.14 9 9.0491 12.1402 9.0491 15.9508C9.0491 19.7614 12.1389 22.9508 15.9999 22.9508C19.8608 22.9508 22.9507 19.8106 22.9507 16C22.9507 12.1894 19.8608 9 15.9999 9ZM15.9999 21.2008C13.1003 21.2008 10.7991 18.8503 10.7991 16C10.7499 13.0523 13.0522 10.7008 15.9999 10.7008C18.9475 10.7008 21.2007 13.0513 21.2007 15.9016C21.2007 18.8984 18.8983 21.2008 15.9999 21.2008ZM26.8116 16L29.7029 11.8339C30.0267 11.3674 30.089 10.7763 29.8719 10.2534C29.6548 9.73008 29.1927 9.35821 28.6354 9.25703L23.6446 8.35469L22.7434 3.365C22.6417 2.8061 22.2687 2.34508 21.7453 2.12797C21.2236 1.91086 20.633 1.97539 20.166 2.29696L15.9993 5.18938L11.8321 2.29778C11.3673 1.97479 10.7794 1.90785 10.255 2.1266C9.73215 2.34317 9.3548 2.80473 9.25636 3.36364L8.35402 8.35387L3.36379 9.25621C2.80597 9.35465 2.34392 9.73199 2.12675 10.2515C1.90965 10.7765 1.97199 11.3672 2.29574 11.832L5.18707 15.9992L2.29574 20.1653C1.97144 20.6318 1.9091 21.2229 2.12621 21.7457C2.34321 22.2686 2.80543 22.641 3.36269 22.7422L8.35347 23.6445L9.25472 28.6342C9.3559 29.1931 9.72941 29.6541 10.2539 29.8712C10.4589 29.9565 10.6739 29.9975 10.8877 29.9975C11.2196 29.9975 11.5483 29.8964 11.8311 29.7017L15.9982 26.8104L20.1654 29.7017C20.6303 30.0243 21.2182 30.0911 21.7426 29.8726C22.266 29.6555 22.64 29.1939 22.7418 28.6355L23.643 23.6459L28.6332 22.7435C29.1911 22.6423 29.6537 22.2699 29.8703 21.7471C30.0868 21.2238 30.0245 20.6331 29.7007 20.1666L26.8094 15.9984L26.8116 16ZM22.7374 22.032C22.3775 22.0966 22.0964 22.3788 22.0314 22.7375L21.1657 28.2664L16.4992 25.0284C16.1984 24.8195 15.8019 24.8195 15.5011 25.0284L10.979 28.3266L9.96785 22.7375C9.90277 22.3782 9.62168 22.0966 9.26183 22.032L3.73293 21.1658L6.97043 16.5004C7.17879 16.1996 7.17879 15.8031 6.97043 15.5023L3.67386 10.9808L9.26293 9.97071C9.62332 9.90235 9.90222 9.62344 9.96785 9.2625L10.8336 3.7336L15.5 6.97164C15.8008 7.18 16.1973 7.18 16.4981 6.97164L21.0202 3.67344L22.0303 9.2625C22.0948 9.62125 22.3759 9.90344 22.7363 9.96852L28.2652 10.8348L25.0277 15.5002C24.8188 15.8009 24.8188 16.1974 25.0277 16.4982L28.1832 21.0455L22.7374 22.032Z" fill="black"/>
</g>
</g>
<defs>
<clipPath id="clip0_10_1008">
<rect width="28" height="28" fill="white" transform="translate(2 2)"/>
</clipPath>
</defs>
</svg>
