<svg width="32" height="32" viewBox="0 0 32 32" fill="none" xmlns="http://www.w3.org/2000/svg">
<path d="M11.2477 5.75H20.7031C22.0758 5.75 23.3555 6.46641 24.0664 7.64L29.125 15.9547C29.8906 17.2125 29.8906 18.7875 29.125 20.0453L24.0664 28.3578C23.3555 29.5336 22.0758 30.25 20.7031 30.25H11.2477C9.92422 30.25 8.64453 29.5336 7.93359 28.3578L2.87281 20.0453C2.10718 18.7875 2.10718 17.2125 2.87275 15.9547L7.93354 7.64C8.64447 6.46641 9.92416 5.75 11.2476 5.75H11.2477ZM4.36742 16.8625C3.9425 17.5133 3.9425 18.4375 4.36742 19.1375L9.42656 27.45C9.82578 28.1008 10.5312 28.5 11.2477 28.5H20.7031C21.4195 28.5 22.1742 28.1008 22.5734 27.45L27.632 19.1375C28.0586 18.4375 28.0586 17.5133 27.632 16.8625L22.5734 8.55C22.1742 7.89812 21.4195 7.5 20.7031 7.5H11.2477C10.5312 7.5 9.82578 7.89812 9.42656 8.55L4.36742 16.8625Z" fill="black"/>
<path d="M9.58339 15.8H10.1333C10.5381 15.8005 10.8662 16.1285 10.8667 16.5334C10.8667 16.7358 11.0309 16.8999 11.2333 16.8999C11.4359 16.8999 11.6001 16.7358 11.6001 16.5334C11.5992 15.7237 10.9429 15.0676 10.1333 15.0667H9.58339C8.67198 15.0667 7.93329 15.8054 7.93329 16.7166C7.93329 17.6279 8.67198 18.3667 9.58339 18.3667H9.94997C10.4562 18.3667 10.8667 18.7771 10.8667 19.2834C10.8667 19.7896 10.4562 20.2 9.94997 20.2H9.39993C8.99525 20.1995 8.66711 19.8715 8.66661 19.4666C8.66661 19.2642 8.50246 19.1001 8.30003 19.1001C8.09744 19.1001 7.93329 19.2642 7.93329 19.4666C7.93413 20.2763 8.59041 20.9324 9.39993 20.9333H9.94997C10.8612 20.9333 11.6001 20.1946 11.6001 19.2834C11.6001 18.3721 10.8612 17.6333 9.94997 17.6333H9.58339C9.077 17.6333 8.66661 17.2229 8.66661 16.7166C8.66661 16.2104 9.077 15.8 9.58339 15.8Z" fill="black"/>
<path d="M15.2667 15.0667H12.3334C12.1308 15.0667 11.9667 15.2309 11.9667 15.4333C11.9667 15.6359 12.1308 15.8 12.3334 15.8H13.4333V20.5667C13.4333 20.7691 13.5975 20.9333 13.8001 20.9333C14.0025 20.9333 14.1666 20.7691 14.1666 20.5667V15.8H15.2667C15.4691 15.8 15.6333 15.6359 15.6333 15.4333C15.6333 15.2309 15.4691 15.0667 15.2667 15.0667Z" fill="black"/>
<path d="M17.8334 15.0667C16.8213 15.0679 16.0012 15.888 16 16.8999V19.1001C16 20.1125 16.8208 20.9333 17.8334 20.9333C18.8458 20.9333 19.6666 20.1125 19.6666 19.1001V16.8999C19.6654 15.888 18.8453 15.0679 17.8334 15.0667ZM18.9333 19.1001C18.9333 19.7075 18.4408 20.2 17.8334 20.2C17.2258 20.2 16.7333 19.7075 16.7333 19.1001V16.8999C16.7333 16.2925 17.2258 15.8 17.8334 15.8C18.4408 15.8 18.9333 16.2925 18.9333 16.8999V19.1001Z" fill="black"/>
<path d="M20.7666 20.9333C20.9691 20.9333 21.1332 20.7691 21.1332 20.5667V18.3667H22.4166C23.328 18.3667 24.0667 17.6279 24.0667 16.7166C24.0667 15.8054 23.328 15.0667 22.4166 15.0667H21.1332C20.7285 15.0672 20.4004 15.3952 20.3999 15.8V20.5667C20.3999 20.7691 20.5641 20.9333 20.7666 20.9333ZM21.1332 15.8H22.4166C22.923 15.8 23.3334 16.2104 23.3334 16.7166C23.3334 17.2229 22.923 17.6333 22.4166 17.6333H21.1332V15.8Z" fill="black"/>
</svg>
