<svg width="32" height="32" viewBox="0 0 32 32" fill="none" xmlns="http://www.w3.org/2000/svg">
<g clip-path="url(#clip0_53_726)">
<path d="M25 5.70081H7.5C5.5668 5.70081 4 7.2676 4 9.15159V26.6516C4 28.5848 5.5668 30.1516 7.5 30.1516H25C26.9332 30.1516 28.5 28.5848 28.5 26.6516V9.15159C28.5 7.31682 26.9305 5.70081 25 5.70081ZM26.75 26.75C26.75 27.7147 25.9647 28.5 25 28.5H7.5C6.53531 28.5 5.75 27.7147 5.75 26.75V9.25002C5.75 8.28534 6.53531 7.50002 7.5 7.50002H25C25.9647 7.50002 26.75 8.28534 26.75 9.25002V26.75ZM16.25 19.75C15.5281 19.75 14.9375 20.3406 14.9375 21.0625V22.375H17.5625V21.0625C17.5625 20.3406 16.9719 19.75 16.25 19.75ZM13.625 14.5C13.1437 14.5 12.75 14.8938 12.75 15.375V18C12.75 18.4829 13.1416 18.875 13.625 18.875C14.1063 18.875 14.5 18.4813 14.5 18V15.375C14.5 14.8938 14.1063 14.5 13.625 14.5ZM18.875 14.5C18.3937 14.5 18 14.8938 18 15.375V18C18 18.4829 18.3916 18.875 18.875 18.875C19.3563 18.875 19.75 18.4813 19.75 18V15.375C19.75 14.8938 19.3563 14.5 18.875 14.5ZM21.4617 11C21.4546 11 21.448 11 21.4415 11L11.0377 10.9995C10.7654 10.9995 10.5056 11.1083 10.3115 11.2948C8.58172 13.0005 7.49945 15.3685 7.49945 17.95C7.49945 20.5805 8.58172 22.9485 10.3137 24.6547C10.5127 24.8461 10.7807 24.95 11.0602 24.95H21.4398C21.7187 24.95 21.9867 24.8461 22.1863 24.6547C23.9166 22.9977 24.9995 20.6297 24.9995 17.95C24.9995 15.3196 23.9172 12.9516 22.1852 11.2454C21.9424 11.0594 21.7291 10.9993 21.4612 10.9993L21.4617 11ZM21.1609 23.2008H11.3391C9.98828 21.8172 9.25 19.9196 9.25 18C9.25 16.0274 9.9943 14.1686 11.3374 12.7992L21.1593 12.7987C22.5117 14.1823 23.25 16.0307 23.25 17.9995C23.25 19.9737 22.5062 21.8331 21.1609 23.2003V23.2008Z" fill="black"/>
</g>
<defs>
<clipPath id="clip0_53_726">
<rect width="24.5" height="28" fill="white" transform="translate(4 4)"/>
</clipPath>
</defs>
</svg>
