<svg width="32" height="32" viewBox="0 0 32 32" fill="none" xmlns="http://www.w3.org/2000/svg">
<g clip-path="url(#clip0_47_258)">
<path d="M27.4344 10.3654L28.5913 9.40146C29.7419 8.44279 30.2488 6.88502 29.8826 5.43284C29.5149 3.97405 28.3723 2.87259 26.9009 2.55836C26.0159 2.3693 25.094 2.62661 24.4349 3.24677L22.9744 4.62095C20.9618 3.13881 18.5064 2.32812 16 2.32812C13.4935 2.32812 11.0383 3.13865 9.02565 4.6209L7.56506 3.24671C6.90596 2.62661 5.98404 2.36914 5.09914 2.5583C3.62772 2.87254 2.48508 3.97405 2.11736 5.43284C1.75123 6.88502 2.25818 8.44273 3.40875 9.40141L4.56556 10.3653L4.40565 10.5591C3.55865 11.5854 3.09222 12.8833 3.09222 14.2139V17.8304C3.09222 20.0276 3.88021 22.1561 5.31111 23.8238C6.6439 25.3771 8.45663 26.4401 10.4541 26.8485C11.3312 28.5779 13.0929 29.6719 15.0621 29.6719H16.9379C18.9072 29.6719 20.6688 28.5779 21.5459 26.8485C23.5434 26.4401 25.3561 25.3772 26.6889 23.8238C28.1198 22.1561 28.9078 20.0276 28.9078 17.8304V14.2139C28.9078 12.8833 28.4413 11.5854 27.5944 10.5591L27.4344 10.3654ZM27.2669 16.5995C26.0517 17.7076 24.3905 18.1953 22.7597 17.9073C22.3136 17.8286 21.888 18.1266 21.8093 18.5727C21.7307 19.0189 22.0286 19.4443 22.4747 19.5231C22.8784 19.5943 23.2833 19.6291 23.6857 19.6291C24.9335 19.6291 26.1542 19.2925 27.2223 18.6611C27.1447 19.382 26.9672 20.0732 26.7026 20.7199C25.5416 21.2962 24.2257 21.4293 22.9696 21.0928C22.5319 20.9758 22.0821 21.2352 21.9649 21.6728C21.8477 22.1105 22.1073 22.5603 22.5449 22.6775C23.1405 22.837 23.7462 22.916 24.3489 22.916C24.6978 22.916 25.0456 22.8894 25.3898 22.8367C24.255 24.1253 22.6766 25.0258 20.8524 25.3064C20.5655 25.3505 20.3233 25.543 20.2154 25.8125C19.6763 27.1604 18.3897 28.0312 16.9379 28.0312H15.0621C13.6103 28.0312 12.3238 27.1604 11.7846 25.8126C11.6768 25.543 11.4346 25.3506 11.1476 25.3064C9.32326 25.0258 7.74476 24.1251 6.60994 22.8363C6.95425 22.8891 7.30212 22.9161 7.65119 22.9161C8.25374 22.9161 8.85968 22.8371 9.45511 22.6776C9.89272 22.5603 10.1524 22.1105 10.0351 21.6729C9.91788 21.2353 9.46813 20.9758 9.03046 21.0928C7.77451 21.4294 6.45851 21.2962 5.29744 20.72C5.03286 20.0732 4.85529 19.382 4.77775 18.661C5.84585 19.2922 7.06636 19.6291 8.31433 19.6291C8.71656 19.6291 9.12168 19.5942 9.52528 19.5231C9.97142 19.4444 10.2694 19.0189 10.1907 18.5727C10.112 18.1265 9.68633 17.8286 9.24036 17.9073C7.60952 18.195 5.94828 17.7076 4.73307 16.5995V14.2139C4.73307 13.2635 5.06622 12.3364 5.67123 11.6033L6.35083 10.78C6.63827 10.4317 6.5902 9.91667 6.24332 9.62765L4.45925 8.14108C3.79036 7.58376 3.49565 6.67813 3.7085 5.83392C3.92232 4.98577 4.58656 4.34544 5.44203 4.16273C5.51953 4.14616 5.59762 4.13812 5.67528 4.13812C5.95681 4.13812 6.2315 4.2447 6.44068 4.44152L8.41425 6.29838C8.7135 6.57991 9.17495 6.5967 9.49394 6.33754L9.62109 6.23423C11.2054 4.9464 13.1536 4.16896 15.1797 4.00277V5.37105C13.7823 5.48737 12.482 5.89867 11.4544 6.56023C11.0734 6.80545 10.9634 7.31311 11.2087 7.69401C11.4539 8.07491 11.9616 8.18494 12.3424 7.93966C13.1296 7.43287 14.1325 7.1281 15.1796 7.0237V8.3963C14.3082 8.51448 13.472 8.82194 12.7844 9.31992C12.4175 9.58565 12.3354 10.0985 12.6012 10.4655C12.8669 10.8324 13.3798 10.9144 13.7467 10.6487C14.152 10.3551 14.6503 10.1595 15.1796 10.0608V11.3516C15.1796 11.8046 15.5469 12.1719 15.9999 12.1719C16.4529 12.1719 16.8202 11.8046 16.8202 11.3516V10.0609C17.3495 10.1596 17.8478 10.3552 18.2531 10.6488C18.3985 10.7541 18.5668 10.8048 18.7336 10.8048C18.9877 10.8048 19.2382 10.6871 19.3987 10.4656C19.6644 10.0987 19.5824 9.58581 19.2155 9.32009C18.5279 8.8221 17.6916 8.51465 16.8202 8.39647V7.02381C17.8673 7.12816 18.8702 7.43298 19.6574 7.93977C19.7948 8.0282 19.9486 8.07048 20.1006 8.07048C20.3702 8.07042 20.6343 7.93764 20.7911 7.69412C21.0363 7.31316 20.9264 6.80555 20.5454 6.56034C19.5181 5.89873 18.2177 5.48742 16.8203 5.37105V4.00277C18.8464 4.16896 20.7946 4.9464 22.3791 6.23429L22.5062 6.33754C22.8252 6.59681 23.2866 6.58008 23.5859 6.29838L25.5594 4.44152C25.8263 4.1904 26.1996 4.08605 26.5581 4.16273C27.4135 4.34544 28.0778 4.98583 28.2916 5.83398C28.5045 6.67819 28.2098 7.58376 27.5409 8.14113L25.7568 9.6277C25.4099 9.91673 25.3618 10.4318 25.6493 10.78L26.3288 11.6034C26.9338 12.3364 27.267 13.2635 27.267 14.214V16.5995H27.2669Z" fill="black"/>
<path d="M19.0078 12.7188C18.5548 12.7188 18.1875 13.086 18.1875 13.5391V16.8203H13.8125V13.5391C13.8125 13.086 13.4452 12.7188 12.9922 12.7188C12.5392 12.7188 12.1719 13.086 12.1719 13.5391V17.6406C12.1719 19.4698 13.4618 21.0026 15.1797 21.3793V22.912L13.5324 24.418C13.198 24.7237 13.1748 25.2426 13.4805 25.5769C13.7861 25.9113 14.305 25.9345 14.6394 25.6288L16 24.3849L17.3605 25.6288C17.5179 25.7728 17.7161 25.8438 17.9138 25.8438C18.1361 25.8438 18.3576 25.7539 18.5195 25.5769C18.8252 25.2426 18.8019 24.7237 18.4676 24.418L16.8203 22.912V21.3793C18.5382 21.0027 19.8281 19.4699 19.8281 17.6406V13.5391C19.8281 13.086 19.4608 12.7188 19.0078 12.7188ZM16 19.8281C15.0838 19.8281 14.2979 19.2617 13.9727 18.4609H18.0273C17.7021 19.2617 16.9162 19.8281 16 19.8281Z" fill="black"/>
<path d="M22.2891 12.7734C21.836 12.7734 21.4688 13.1407 21.4688 13.5938V14.6875C21.4688 15.1405 21.836 15.5078 22.2891 15.5078C22.7421 15.5078 23.1094 15.1405 23.1094 14.6875V13.5938C23.1094 13.1407 22.7421 12.7734 22.2891 12.7734Z" fill="black"/>
<path d="M9.71094 12.7734C9.25791 12.7734 8.89062 13.1407 8.89062 13.5938V14.6875C8.89062 15.1405 9.25791 15.5078 9.71094 15.5078C10.164 15.5078 10.5312 15.1405 10.5312 14.6875V13.5938C10.5312 13.1407 10.164 12.7734 9.71094 12.7734Z" fill="black"/>
</g>
<defs>
<clipPath id="clip0_47_258">
<rect width="28" height="28" fill="white" transform="translate(2 2)"/>
</clipPath>
</defs>
</svg>
