<svg width="32" height="32" viewBox="0 0 32 32" fill="none" xmlns="http://www.w3.org/2000/svg">
<g clip-path="url(#clip0_47_254)">
<path d="M19.0625 23H19.9375C20.1768 23 20.375 22.8018 20.375 22.5625V21.6875C20.375 21.4482 20.1768 21.25 19.9375 21.25H19.0625C18.8232 21.25 18.625 21.4482 18.625 21.6875V22.5625C18.625 22.8031 18.8219 23 19.0625 23ZM22.5625 23H23.4375C23.6768 23 23.875 22.8018 23.875 22.5625V21.6875C23.875 21.4482 23.6768 21.25 23.4375 21.25H22.5625C22.3232 21.25 22.125 21.4482 22.125 21.6875V22.5625C22.125 22.8031 22.3219 23 22.5625 23ZM15.5625 23H16.4375C16.6768 23 16.875 22.8018 16.875 22.5625V21.6875C16.875 21.4482 16.6768 21.25 16.4375 21.25H15.5625C15.3232 21.25 15.125 21.4482 15.125 21.6875V22.5625C15.125 22.8031 15.3219 23 15.5625 23ZM27.375 12.5H21.9746C21.5098 12.5 21.0657 12.6846 20.7376 13.0127L20.013 13.7373C19.6859 14.0638 19.243 14.25 18.7781 14.25H13.2273C12.7625 14.25 12.3184 14.0654 11.9903 13.7373L11.2641 13.0138C10.9359 12.6857 10.493 12.4997 10.0281 12.4997H4.625C3.17742 12.4997 2 13.6755 2 15.1247V16.8747C2 18.0139 2.73391 18.9764 3.75 19.3384V26.4997C3.75 28.4346 5.31516 29.9997 7.25 29.9997H24.75C26.6848 29.9997 28.25 28.4346 28.25 26.4997V19.3411C29.2672 18.9747 30 18.0122 30 16.8747V15.1247C30 13.6755 28.8242 12.4997 27.375 12.4997V12.5ZM26.5 26.5C26.5 27.4636 25.7136 28.25 24.75 28.25H7.25C6.28641 28.25 5.5 27.4636 5.5 26.5V19.5H26.5V26.5ZM28.25 16.875C28.25 17.3562 27.8563 17.75 27.375 17.75H4.625C4.14211 17.75 3.75 17.3562 3.75 16.875V15.125C3.75 14.6437 4.14211 14.25 4.625 14.25H10.0254L10.75 14.9773C11.4062 15.6336 12.2977 16 13.2273 16H18.7781C19.7078 16 20.5938 15.6336 21.25 14.9773L21.9773 14.25H27.375C27.8563 14.25 28.25 14.6437 28.25 15.125V16.875ZM8.5625 23H9.4375C9.67676 23 9.875 22.8018 9.875 22.5625V21.6875C9.875 21.4469 9.67813 21.25 9.4375 21.25H8.5625C8.32324 21.25 8.125 21.4482 8.125 21.6875V22.5625C8.125 22.8031 8.32187 23 8.5625 23ZM12.0625 23H12.9375C13.1768 23 13.375 22.8018 13.375 22.5625V21.6875C13.375 21.4469 13.1781 21.25 12.9375 21.25H12.0625C11.8232 21.25 11.625 21.4482 11.625 21.6875V22.5625C11.625 22.8031 11.8219 23 12.0625 23ZM10.75 26.5H21.25C21.7313 26.5 22.125 26.1057 22.125 25.625C22.125 25.1432 21.7313 24.75 21.25 24.75H10.75C10.2682 24.75 9.875 25.1432 9.875 25.625C9.875 26.1062 10.2687 26.5 10.75 26.5ZM6.375 10.75C6.85844 10.75 7.25 10.3562 7.25 9.875V5.5C7.25 4.53367 8.03367 3.75 9 3.75H22.6391L24.75 5.86258V9.875C24.75 10.3562 25.1437 10.75 25.625 10.75C26.1063 10.75 26.5 10.3562 26.5 9.875V5.86258C26.5 5.39828 26.3141 4.95312 25.9859 4.625L23.875 2.5127C23.4977 2.18402 23.1039 2 22.6391 2H8.95078C7.0668 2 5.5 3.5668 5.5 5.5V9.875C5.5 10.3562 5.89156 10.75 6.375 10.75Z" fill="black"/>
</g>
<defs>
<clipPath id="clip0_47_254">
<rect width="28" height="28" fill="white" transform="translate(2 2)"/>
</clipPath>
</defs>
</svg>
