<svg width="32" height="32" viewBox="0 0 32 32" fill="none" xmlns="http://www.w3.org/2000/svg">
<g clip-path="url(#clip0_47_255)">
<path d="M10.2359 13.0141C9.90782 12.6805 9.45938 12.5 8.99454 12.5C8.87204 12.5 8.74899 12.512 8.62704 12.5377C8.04626 12.6641 7.56774 13.0759 7.35884 13.6331L2.15805 27.6331C1.9171 28.2757 2.07384 29.0003 2.55946 29.4859C2.84493 29.819 3.29282 29.9995 3.74891 29.9995C3.95563 29.9995 4.16399 29.9634 4.36415 29.8879L18.3149 24.6379C18.8722 24.429 19.284 23.951 19.4103 23.3697C19.535 22.7889 19.3573 22.1819 18.9367 21.7613L10.2346 13.013L10.2359 13.0141ZM3.75001 28.2008L5.32009 24.0084L7.94126 26.6296L3.75001 28.2008ZM9.73829 26.0023L5.99165 22.2557L7.2243 18.9635L13.0321 24.7713L9.73829 26.0023ZM14.8297 24.0938L7.90079 17.1648L8.99344 14.2522C8.99454 14.2516 8.9918 14.2522 8.99344 14.2522L17.7489 22.953L14.8297 24.0938ZM29.125 16H28.53C25.7612 16 23.1674 17.4098 21.4097 19.8659C21.1294 20.2602 21.2199 20.8059 21.6126 21.0876C21.769 21.1953 21.9495 21.25 22.1245 21.25C22.3957 21.25 22.6659 21.1215 22.837 20.8841C24.2573 18.8924 26.2862 17.7495 28.5284 17.7495H29.1245C29.6057 17.7495 29.9995 17.3557 29.9995 16.8745C29.9995 16.3932 29.6057 15.9995 29.1245 15.9995L29.125 16ZM11.625 10.75C11.8 10.75 11.9805 10.6953 12.1336 10.5859C14.5891 8.83047 16 6.23828 16 3.47V2.875C16 2.39134 15.6084 2 15.1742 2C14.6902 2 14.2992 2.39134 14.2992 2.875V3.47C14.2992 5.66625 13.1574 7.74055 11.1651 9.16297C10.7227 9.44297 10.6297 9.98984 10.8649 10.3836C11.0836 10.6242 11.3516 10.75 11.625 10.75ZM5.50001 5.0625C6.22516 5.0625 6.81251 4.47461 6.81251 3.75C6.81251 3.02484 6.22516 2.4375 5.50001 2.4375C4.7754 2.4375 4.23673 3.02484 4.23673 3.75C4.18805 4.47461 4.7754 5.0625 5.50001 5.0625ZM28.25 25.1875C27.5254 25.1875 26.9375 25.7748 26.9375 26.5C26.9375 27.2246 27.5254 27.8125 28.25 27.8125C28.9752 27.8125 29.5625 27.2246 29.5625 26.5C29.5625 25.7727 28.9774 25.1875 28.25 25.1875ZM28.25 9.4375C27.5254 9.4375 26.9375 10.0248 26.9375 10.75C26.9375 11.4746 27.5254 12.0625 28.25 12.0625C28.9752 12.0625 29.5625 11.4746 29.5625 10.75C29.5625 10.0227 28.9774 9.4375 28.25 9.4375ZM22.9289 11.5758C24.0139 10.2906 23.9357 9.06016 23.8723 8.0725C23.8176 7.19094 23.7766 6.55492 24.4071 5.80625C25.0344 5.06305 25.6545 5.00672 26.5126 4.92961C27.4904 4.84074 28.705 4.72945 29.7955 3.43773C30.1077 3.06859 30.0602 2.5168 29.691 2.20562C29.3252 1.89631 28.7717 1.94039 28.4589 2.30953C27.8316 3.05273 27.2115 3.10906 26.3534 3.18617C25.3756 3.27504 24.161 3.38578 23.0706 4.67805C21.9856 5.9632 22.0638 7.19367 22.1272 8.18133C22.1819 9.06289 22.2229 9.69891 21.5918 10.4476C20.9662 11.1875 20.3477 11.2438 19.4896 11.3209C18.5118 11.4079 17.2972 11.5173 16.2084 12.8095C15.8956 13.1787 15.9431 13.7305 16.3123 14.0416C16.4747 14.1838 16.6716 14.2495 16.8739 14.2495C17.1216 14.2495 17.3694 14.1434 17.5422 13.9383C18.1678 13.1984 18.7863 13.142 19.6444 13.0649C20.62 12.9802 21.8395 12.8708 22.9278 11.5747L22.9289 11.5758Z" fill="black"/>
</g>
<defs>
<clipPath id="clip0_47_255">
<rect width="28" height="28" fill="white" transform="translate(2 2)"/>
</clipPath>
</defs>
</svg>
