<svg width="32" height="32" viewBox="0 0 32 32" fill="none" xmlns="http://www.w3.org/2000/svg">
<g clip-path="url(#clip0_47_266)">
<path d="M22.0647 8.44935C19.022 6.897 14.5412 7.47439 11.6418 9.79221C8.97862 11.9214 8.77447 15.7744 8.92601 19.2628L8.92836 19.3177C9.04539 22.0142 9.22225 26.0889 11.4291 28.2766C12.4066 29.2455 13.9363 29.886 15.5209 29.9898C15.625 29.9967 15.7283 30.0001 15.8309 30.0001C16.9592 30.0001 17.9936 29.5905 18.7703 28.8298C19.622 27.9957 20.0783 26.7979 20.0223 25.5437C20.0049 25.1526 19.9363 24.7589 19.8128 24.3403C19.8128 24.3402 19.8128 24.3402 19.8128 24.3402C19.6037 23.6322 19.2748 22.9902 18.9567 22.3693C18.5498 21.5751 18.1654 20.825 18.0829 20.0355C17.9737 18.9912 18.5594 18.059 19.926 17.1018C20.0504 17.0146 20.1768 16.9273 20.3041 16.8392C21.8159 15.7936 23.5293 14.6085 23.9986 12.546C24.3779 10.8793 23.6007 9.23303 22.0647 8.44935ZM22.3989 12.1821C22.0712 13.6222 20.6984 14.5716 19.3709 15.4898C19.2409 15.5798 19.1119 15.669 18.9848 15.758C17.1046 17.0749 16.2759 18.5298 16.4511 20.206C16.5655 21.3003 17.0388 22.224 17.4965 23.1173C17.7933 23.6966 18.0736 24.2438 18.2392 24.8045C18.3247 25.0943 18.3719 25.3599 18.3833 25.6168C18.419 26.4173 18.1488 27.142 17.6223 27.6576C17.1127 28.1567 16.4045 28.4038 15.6282 28.3527C14.4269 28.274 13.2889 27.8099 12.5841 27.1114C10.8335 25.376 10.6734 21.6873 10.5675 19.2466L10.5651 19.1915C10.4314 16.1148 10.5766 12.7443 12.6664 11.0736C14.1713 9.87057 16.2371 9.2228 18.176 9.2228C19.3138 9.2228 20.4079 9.44587 21.3191 9.91077C22.1881 10.3541 22.6119 11.2456 22.3989 12.1821Z" fill="black"/>
<path d="M23.7656 2.10938C22.1071 2.10938 20.7578 3.45868 20.7578 5.11719C20.7578 6.7757 22.1071 8.125 23.7656 8.125C25.4241 8.125 26.7734 6.7757 26.7734 5.11719C26.7734 3.45868 25.4241 2.10938 23.7656 2.10938ZM23.7656 6.48438C23.0118 6.48438 22.3984 5.87105 22.3984 5.11719C22.3984 4.36332 23.0118 3.75 23.7656 3.75C24.5195 3.75 25.1328 4.36332 25.1328 5.11719C25.1328 5.87105 24.5195 6.48438 23.7656 6.48438Z" fill="black"/>
<path d="M17.5859 6.92188C18.9429 6.92188 20.0469 5.8179 20.0469 4.46094C20.0469 3.10398 18.9429 2 17.5859 2C16.229 2 15.125 3.10398 15.125 4.46094C15.125 5.8179 16.229 6.92188 17.5859 6.92188ZM17.5859 3.64062C18.0383 3.64062 18.4062 4.00862 18.4062 4.46094C18.4062 4.91326 18.0383 5.28125 17.5859 5.28125C17.1336 5.28125 16.7656 4.91326 16.7656 4.46094C16.7656 4.00862 17.1336 3.64062 17.5859 3.64062Z" fill="black"/>
<path d="M12.0625 8.28906C13.4195 8.28906 14.5234 7.18509 14.5234 5.82812C14.5234 4.47116 13.4195 3.36719 12.0625 3.36719C10.7055 3.36719 9.60156 4.47116 9.60156 5.82812C9.60156 7.18509 10.7055 8.28906 12.0625 8.28906ZM12.0625 5.00781C12.5148 5.00781 12.8828 5.3758 12.8828 5.82812C12.8828 6.28045 12.5148 6.64844 12.0625 6.64844C11.6102 6.64844 11.2422 6.28045 11.2422 5.82812C11.2422 5.3758 11.6102 5.00781 12.0625 5.00781Z" fill="black"/>
<path d="M10.1484 9.38281C10.1484 8.02585 9.04446 6.92188 7.6875 6.92188C6.33054 6.92188 5.22656 8.02585 5.22656 9.38281C5.22656 10.7398 6.33054 11.8438 7.6875 11.8438C9.04446 11.8438 10.1484 10.7398 10.1484 9.38281ZM7.6875 10.2031C7.23518 10.2031 6.86719 9.83513 6.86719 9.38281C6.86719 8.93049 7.23518 8.5625 7.6875 8.5625C8.13982 8.5625 8.50781 8.93049 8.50781 9.38281C8.50781 9.83513 8.13982 10.2031 7.6875 10.2031Z" fill="black"/>
</g>
<defs>
<clipPath id="clip0_47_266">
<rect width="28" height="28" fill="white" transform="translate(2 2)"/>
</clipPath>
</defs>
</svg>
