<svg width="32" height="32" viewBox="0 0 32 32" fill="none" xmlns="http://www.w3.org/2000/svg">
<g clip-path="url(#clip0_47_265)">
<path d="M24.439 16.8398C23.8161 15.2382 22.4772 14.1152 20.9412 13.7048V12.7875C20.9412 12.2461 21.2488 11.7349 21.7442 11.4533C22.7728 10.8684 23.4118 9.77055 23.4118 8.58824C23.4118 7.05614 22.3604 5.76496 20.9412 5.39832V2H19.2941V5.29412H18.1295L16 7.4236L13.8705 5.29412H12.7059V2H11.0588V5.39832C9.63962 5.76496 8.58824 7.05609 8.58824 8.58824C8.58824 9.77055 9.22725 10.8684 10.2559 11.4533C10.7512 11.7349 11.0588 12.2461 11.0588 12.7875V13.7048C9.52317 14.1151 8.18411 15.2377 7.56103 16.8398L2.44318 30H29.5568L24.439 16.8398ZM10.2353 8.58824C10.2353 7.68005 10.9742 6.94118 11.8824 6.94118H13.1883L16 9.75287L18.8117 6.94118H20.1177C21.0258 6.94118 21.7647 7.68005 21.7647 8.58824C21.7647 9.17953 21.4449 9.72877 20.93 10.0215C19.921 10.5953 19.2941 11.6551 19.2941 12.7875V13.5294H12.7059V12.7875C12.7059 11.6551 12.079 10.5952 11.07 10.0216C10.5552 9.72877 10.2353 9.17953 10.2353 8.58824ZM4.85096 28.3529L9.09614 17.4368C9.57286 16.2109 10.6579 15.3729 11.9335 15.2072L9.54776 28.3529H4.85096ZM13.613 15.1765H15.1765V28.3529H11.2217L13.613 15.1765ZM16.8235 28.3529V15.1765H18.387L20.7783 28.3529H16.8235ZM22.4522 28.3529L20.0665 15.2072C21.342 15.3729 22.4272 16.2109 22.9039 17.4368L27.1491 28.3529H22.4522Z" fill="black"/>
</g>
<defs>
<clipPath id="clip0_47_265">
<rect width="28" height="28" fill="white" transform="translate(2 2)"/>
</clipPath>
</defs>
</svg>
