<svg width="32" height="32" viewBox="0 0 32 32" fill="none" xmlns="http://www.w3.org/2000/svg">
<g clip-path="url(#clip0_47_267)">
<path d="M28.3266 12.8774C28.0509 12.4787 27.5063 12.3814 27.1098 12.6559C26.7111 12.931 26.6121 13.4751 26.8872 13.8738C27.7901 15.1792 28.2495 16.7979 28.2495 18.6299C28.2495 25.6518 21.3534 28.2495 17.0112 28.2495H14.9877C10.6456 28.2495 3.74946 25.6518 3.74946 18.6299C3.74946 16.7979 4.20774 15.1792 5.11009 13.8721C5.38516 13.4735 5.28563 12.9299 4.88751 12.6542C4.49048 12.3792 3.94524 12.4776 3.67027 12.8768C2.56121 14.4846 1.99902 16.3878 1.99902 18.6299C1.99902 26.926 9.96699 29.9995 14.9873 29.9995H17.0075C22.0311 29.9995 29.999 26.926 29.999 18.6299C29.999 16.3878 29.4357 14.4846 28.3256 12.8768L28.3266 12.8774ZM5.50001 11.625H9.33524L8.21798 13.8563C8.04845 14.1953 8.11407 14.6 8.38204 14.868C8.65001 15.136 9.0536 15.201 9.39212 15.0321L16 11.7289L22.6063 15.0331C22.732 15.0977 22.8688 15.125 23 15.125C23.227 15.125 23.4512 15.037 23.6185 14.8685C23.8851 14.6019 23.9516 14.1953 23.7826 13.8585L22.6664 11.6245H26.5C26.8588 11.6245 27.1699 11.3953 27.3034 11.0623C27.4346 10.7281 27.3389 10.3377 27.0778 10.0927C26.4505 9.49713 23.0763 6.68237 16.875 6.42369V6.37448C16.875 4.73057 16.0908 3.15994 14.7745 2.17448C14.3916 1.88627 13.8415 1.96229 13.5489 2.34948C13.2602 2.73557 13.3367 3.28408 13.725 3.57431C14.6 4.23111 15.125 5.27783 15.125 6.37431V6.42025C9.10391 6.66416 5.80845 9.26127 4.92087 10.0925C4.64907 10.3331 4.55337 10.716 4.68134 11.0605C4.8093 11.405 5.13579 11.6238 5.50001 11.6238V11.625ZM15.1359 8.13049C15.1633 8.63362 15.5352 9.00002 16 9.00002C16.4649 9.00002 16.8351 8.6358 16.8641 8.17862C19.9156 8.31643 22.2016 9.09299 23.7 9.87502H21.25C20.947 9.87502 20.6654 10.0322 20.5052 10.2901C20.346 10.5477 20.3324 10.8703 20.4674 11.141L21.0433 12.2928L16.3916 9.9669C16.2674 9.90729 16.1307 9.87448 15.9995 9.87448C15.8682 9.87448 15.7315 9.90729 15.6057 9.96744L10.9573 12.2917L11.5331 11.1399C11.6677 10.8687 11.654 10.5471 11.4954 10.289C11.3341 10.0331 11.0497 9.87448 10.7489 9.87448H8.30438C9.79735 9.09244 12.0888 8.31588 15.1349 8.12994L15.1359 8.13049Z" fill="black"/>
</g>
<defs>
<clipPath id="clip0_47_267">
<rect width="28" height="28" fill="white" transform="translate(2 2)"/>
</clipPath>
</defs>
</svg>
