<svg width="32" height="32" viewBox="0 0 32 32" fill="none" xmlns="http://www.w3.org/2000/svg">
<path d="M16 21.5C17.9303 21.5 19.5 19.9303 19.5 18C19.5 16.0697 17.9303 14.5 16 14.5C14.0697 14.5 12.5 16.0697 12.5 18C12.5 19.9303 14.0697 21.5 16 21.5ZM16 16.25C16.9651 16.25 17.75 17.0349 17.75 18C17.75 18.9651 16.9651 19.75 16 19.75C15.0349 19.75 14.25 18.9651 14.25 18C14.25 17.0349 15.0349 16.25 16 16.25Z" fill="black"/>
<path d="M27.0337 22.5544C26.3337 21.101 25.3634 19.5566 24.1909 18C25.3634 16.4434 26.3329 14.899 27.0329 13.4456C28.5466 10.3035 28.6569 7.95237 27.3522 6.64687C26.6794 5.97487 25.3354 5.33437 22.7489 6.09912C22.286 6.2365 22.0209 6.72387 22.1582 7.18675C22.2956 7.64962 22.7812 7.91387 23.2459 7.77737C24.6161 7.3705 25.6372 7.40812 26.1141 7.885C26.8027 8.57362 26.5499 10.4137 25.4552 12.6861C24.8576 13.9269 24.0412 15.2446 23.0621 16.5816C22.2344 15.585 21.3375 14.5936 20.3706 13.6285C19.4064 12.6625 18.4159 11.7665 17.421 10.9396C17.6196 10.7944 17.8182 10.657 18.016 10.5179C18.4517 10.818 18.9619 11 19.5 11C20.9472 11 22.125 9.82225 22.125 8.375C22.125 8.01187 22.0497 7.6575 21.901 7.32062C21.4784 6.36687 20.536 5.75 19.5 5.75C18.0527 5.75 16.875 6.92775 16.875 8.375C16.875 8.62612 16.9152 8.87112 16.9835 9.10737C16.6562 9.33662 16.329 9.56237 16.0009 9.80912C14.4442 8.63575 12.899 7.66625 11.4456 6.96625C8.30435 5.4525 5.95323 5.34225 4.64773 6.64687C3.97485 7.31975 3.33348 8.66462 4.09998 11.2502C4.23735 11.7131 4.72473 11.9791 5.1876 11.84C5.65135 11.7026 5.9156 11.2161 5.77735 10.7524C5.37048 9.3795 5.40898 8.36012 5.88498 7.88412C6.57448 7.19462 8.41373 7.4475 10.687 8.54212C11.926 9.13887 13.2429 9.95437 14.5781 10.9326C13.5701 11.7682 12.5779 12.6747 11.6294 13.6276C10.6634 14.5919 9.76735 15.5824 8.94048 16.5772C8.79698 16.3812 8.66135 16.1852 8.52485 15.9901C8.62023 15.8527 8.7086 15.7084 8.77773 15.5517C8.9256 15.2157 8.99998 14.8622 8.99998 14.5C8.99998 13.0527 7.82223 11.875 6.37498 11.875C5.53498 11.875 4.7396 12.2819 4.2496 12.9617C3.92235 13.4115 3.74998 13.9435 3.74998 14.5C3.74998 15.9472 4.92773 17.125 6.37498 17.125C6.62698 17.125 6.87373 17.0874 7.1091 17.0182C7.33835 17.3455 7.56323 17.6719 7.80998 17.9991C6.6366 19.5557 5.6671 21.101 4.9671 22.5544C3.45335 25.6965 3.3431 28.0476 4.64773 29.3522C5.2506 29.9551 6.07573 30.2561 7.10035 30.2561C8.29298 30.2561 9.7551 29.8475 11.4456 29.0337C12.899 28.3337 14.4442 27.3642 16 26.1917C17.5566 27.3642 19.101 28.3337 20.5544 29.0337C22.2457 29.8484 23.7079 30.2561 24.9005 30.2561C25.9242 30.2561 26.7502 29.9551 27.3531 29.3522C28.6577 28.0476 28.5475 25.6965 27.0337 22.5544ZM19.5 7.5C19.8447 7.5 20.1589 7.70825 20.3006 8.0285C20.3505 8.13962 20.375 8.25687 20.375 8.375C20.375 8.85712 19.983 9.25 19.5 9.25C19.2252 9.25 18.954 9.11087 18.7895 8.88425C18.6801 8.73375 18.625 8.56225 18.625 8.375C18.625 7.89287 19.017 7.5 19.5 7.5ZM5.49998 14.5C5.49998 14.3127 5.5551 14.1412 5.6671 13.9881C5.8281 13.7641 6.10023 13.625 6.37498 13.625C6.8571 13.625 7.24998 14.0179 7.24998 14.5C7.24998 14.6181 7.2246 14.7354 7.17648 14.8456C7.03385 15.1676 6.71973 15.375 6.37498 15.375C5.89285 15.375 5.49998 14.9821 5.49998 14.5ZM12.8666 14.8649C13.8755 13.8507 14.9351 12.904 16.0061 12.0342C17.0579 12.8909 18.1105 13.8402 19.1351 14.8666C20.1624 15.893 21.1135 16.9465 21.971 18C21.1126 19.0544 20.1615 20.1087 19.1334 21.1351C18.1079 22.1624 17.0535 23.1135 16 23.971C14.9456 23.1126 13.8912 22.1615 12.8649 21.1325C11.8516 20.1236 10.904 19.064 10.0342 17.993C10.8909 16.9412 11.8402 15.8895 12.8666 14.8649ZM10.6861 27.457C8.41285 28.5525 6.5736 28.8036 5.8841 28.115C5.19548 27.4264 5.44748 25.5862 6.5421 23.3139C7.13885 22.074 7.95435 20.758 8.9326 19.4227C9.76823 20.4299 10.6747 21.423 11.6276 22.3715C12.5927 23.3384 13.585 24.2361 14.5816 25.0639C13.2455 26.0421 11.9277 26.8585 10.6861 27.457ZM26.1159 28.115C25.4264 28.8027 23.5871 28.5516 21.3147 27.457C20.074 26.8594 18.7562 26.043 17.4192 25.0639C18.4159 24.2361 19.4072 23.3392 20.3724 22.3724C21.3392 21.4072 22.237 20.415 23.0647 19.4184C24.0439 20.7554 24.8602 22.0731 25.4579 23.3139C26.5525 25.5862 26.8045 27.4264 26.1159 28.115Z" fill="black"/>
</svg>
