<svg width="32" height="32" viewBox="0 0 32 32" fill="none" xmlns="http://www.w3.org/2000/svg">
<g clip-path="url(#clip0_47_259)">
<path d="M23.6631 14.8179C23.5313 14.4595 23.3834 14.1035 23.2203 13.7528C24.6434 13.8813 26.9307 14.3597 28.5989 16.0309C28.7592 16.1914 28.9692 16.2717 29.1795 16.2717C29.3891 16.2717 29.5989 16.1918 29.759 16.0319C30.0796 15.7119 30.0801 15.1925 29.76 14.8719C27.2117 12.3191 23.6164 12.0668 22.2915 12.0671C22.2126 11.9448 22.132 11.8236 22.0492 11.7043C21.8887 11.4727 21.7241 11.251 21.5558 11.0393C21.9292 10.8573 22.344 10.6073 22.7422 10.2668C23.7999 9.36239 24.9477 7.64676 24.4091 4.60957C24.33 4.16343 23.9044 3.86605 23.4582 3.94507C23.0122 4.02415 22.7146 4.44988 22.7937 4.89596C23.1127 6.69461 22.7519 8.06872 21.7216 8.98013C21.2401 9.40603 20.7106 9.64179 20.364 9.76232C20.0131 9.44579 19.6513 9.16826 19.2811 8.93037V7.9063C19.2811 6.99074 18.9039 6.16202 18.297 5.56626C18.6146 4.93621 19.0079 3.93183 19.0079 2.82055C19.0079 2.36752 18.6407 2.00024 18.1876 2.00024C17.7346 2.00024 17.3673 2.36752 17.3673 2.82055C17.3673 3.56806 17.101 4.27592 16.8737 4.74415C16.5953 4.66715 16.3025 4.62515 15.9999 4.62515C15.6974 4.62515 15.4047 4.66715 15.1263 4.74415C14.899 4.27592 14.6327 3.56811 14.6327 2.82055C14.6327 2.36752 14.2654 2.00024 13.8124 2.00024C13.3593 2.00024 12.9921 2.36752 12.9921 2.82055C12.9921 3.93183 13.3854 4.93621 13.7029 5.5662C13.0961 6.16196 12.7187 6.99074 12.7187 7.9063V8.93037C12.3483 9.16842 11.9863 9.44617 11.6351 9.76303C11.3013 9.64704 10.795 9.42255 10.324 9.01984C9.2586 8.10886 8.88252 6.72141 9.20616 4.89596C9.28523 4.44988 8.98774 4.02415 8.54166 3.94507C8.09558 3.86588 7.66984 4.16349 7.59076 4.60957C7.05221 7.64676 8.20003 9.36239 9.25772 10.2668C9.6559 10.6073 10.0706 10.8574 10.444 11.0393C10.2758 11.251 10.1112 11.4727 9.95071 11.7043C9.86797 11.8237 9.78742 11.9448 9.7084 12.0671C8.3835 12.0668 4.78829 12.3191 2.23988 14.8719C1.9198 15.1925 1.92024 15.7119 2.24092 16.0319C2.40105 16.1918 2.61077 16.2717 2.82044 16.2717C3.0306 16.2717 3.24076 16.1914 3.40094 16.0309C5.06035 14.3686 7.35151 13.8877 8.77796 13.7563C8.61554 14.1059 8.46821 14.4606 8.3368 14.8179C7.15693 15.3061 3.81087 17.0901 2.04629 22.1271C1.89651 22.5547 2.12171 23.0227 2.5493 23.1725C2.63904 23.2039 2.73053 23.2189 2.82049 23.2189C3.15928 23.2188 3.47635 23.0073 3.59469 22.6695C4.3626 20.4775 5.54149 18.7296 7.09875 17.4745C7.32198 17.2945 7.53733 17.1384 7.73989 17.0032C7.63369 17.6041 7.57829 18.1957 7.57829 18.7648C7.57829 19.6798 7.72551 20.561 7.99665 21.3865C7.67968 23.9293 7.88175 26.0865 8.59853 27.8007C9.17586 29.1813 9.89379 29.7654 9.97374 29.8274C10.1233 29.9435 10.3004 29.9998 10.4761 29.9998C10.7209 29.9998 10.963 29.8907 11.1247 29.6824C11.4025 29.3245 11.3375 28.8092 10.9796 28.5314C10.9629 28.5184 9.63649 27.3803 9.50447 24.1195C11.0504 25.9915 13.3883 27.1866 16.0001 27.1866C18.6119 27.1866 20.9498 25.9915 22.4957 24.1195C22.3637 27.3803 21.0373 28.5184 21.0205 28.5314C20.6626 28.8091 20.5977 29.3244 20.8754 29.6824C21.0371 29.8907 21.2793 29.9998 21.524 29.9998C21.6998 29.9998 21.8768 29.9435 22.0264 29.8274C22.1064 29.7654 22.8244 29.1813 23.4016 27.8007C24.1184 26.0865 24.3205 23.9293 24.0035 21.3865C24.2746 20.561 24.4218 19.6798 24.4218 18.7648C24.4218 18.1957 24.3664 17.604 24.2602 17.0031C24.4627 17.1383 24.6781 17.2945 24.9014 17.4744C26.4586 18.7295 27.6374 20.4774 28.4054 22.6695C28.5237 23.0073 28.8407 23.2188 29.1795 23.2188C29.2695 23.2188 29.361 23.2039 29.4507 23.1724C29.8782 23.0227 30.1034 22.5546 29.9537 22.1271C28.1892 17.0901 24.8431 15.3062 23.6631 14.8179ZM20.7937 12.7829C19.4863 13.9638 17.7719 14.6311 16 14.6311C14.228 14.6311 12.5137 13.9638 11.2063 12.7829C12.4739 10.9113 14.21 9.54713 16 9.54713C17.79 9.54713 19.5262 10.9113 20.7937 12.7829ZM14.3594 7.9063C14.3594 7.00168 15.0954 6.2657 16 6.2657C16.9046 6.2657 17.6406 7.00168 17.6406 7.9063V8.15699C17.1014 7.9914 16.5524 7.90652 16 7.90652C15.4476 7.90652 14.8986 7.99134 14.3594 8.15699V7.9063ZM16 25.546C12.2608 25.546 9.21884 22.5039 9.21884 18.7648C9.21884 17.3053 9.65158 15.6922 10.3694 14.2287C11.9401 15.5375 13.9384 16.2717 16 16.2717C18.0615 16.2717 20.0598 15.5375 21.6306 14.2287C22.3485 15.6922 22.7812 17.3052 22.7812 18.7648C22.7812 22.5039 19.7392 25.546 16 25.546Z" fill="black"/>
</g>
<defs>
<clipPath id="clip0_47_259">
<rect width="28" height="28" fill="white" transform="translate(2 2)"/>
</clipPath>
</defs>
</svg>
