<svg width="32" height="32" viewBox="0 0 32 32" fill="none" xmlns="http://www.w3.org/2000/svg">
<g id="t&#202;&#131;_chair_&#203;&#136;t&#202;&#131;&#201;&#155;&#201;&#153;r">
<g id="chair 1" clip-path="url(#clip0_10_1033)">
<path id="Vector" d="M28.2593 19.2758L27.4499 17.5258C26.9741 16.5961 26.0882 16 25.0655 16H24.9988L24.9993 8.125C24.9993 4.74805 22.254 2 18.8743 2H13.6243C10.2501 2 7.49934 4.74805 7.49934 8.125L7.45012 16H7.43317C6.4127 16 5.477 16.5961 5.04934 17.5258L4.24193 19.2758C3.86514 20.0934 3.93021 21.0329 4.4142 21.7903C4.7327 22.2891 5.20848 22.6391 5.74825 22.8305L5.69903 29.125C5.69903 29.6079 6.09059 30 6.57403 30C7.05692 30 7.49825 29.6063 7.49825 29.125L7.44903 23H24.949L24.9982 29.125C24.9982 29.6079 25.3898 30 25.8732 30C26.3561 30 26.7482 29.6079 26.7482 29.125V22.8305C27.288 22.638 27.7638 22.2885 28.0832 21.7887C28.5693 21.0313 28.6295 20.0906 28.2576 19.2758H28.2593ZM19.7499 3.83859C21.746 4.24492 23.2499 6.01188 23.2499 8.125V16H19.7499V3.83859ZM14.4999 3.75H17.9999V16H14.4999V3.75ZM9.24989 8.125C9.24989 6.01188 10.7554 4.24492 12.7499 3.83859V16H9.24989V8.125ZM25.8257 21.25H6.62598C5.98395 21.25 5.56614 20.5845 5.83137 20.0086L6.63856 18.2586C6.78129 17.9469 7.09301 17.75 7.43371 17.75H25.065C25.4051 17.75 25.7174 17.9491 25.8596 18.258L26.6668 20.0075C26.9358 20.5877 26.5093 21.2495 25.8257 21.2495V21.25Z" fill="black"/>
</g>
</g>
<defs>
<clipPath id="clip0_10_1033">
<rect width="24.5" height="28" fill="white" transform="translate(4 2)"/>
</clipPath>
</defs>
</svg>
