<svg width="32" height="32" viewBox="0 0 32 32" fill="none" xmlns="http://www.w3.org/2000/svg">
<g clip-path="url(#clip0_53_717)">
<path d="M19.768 12.6297C19.1456 11.6792 17.5865 11.683 16.9663 12.6259L12.9648 18.683L12.068 17.4471C11.4445 16.5284 9.9789 16.5721 9.35 17.4471L5.82156 22.323C5.44969 22.8371 5.39773 23.5109 5.68211 24.073C5.96594 24.644 6.54125 24.9995 7.18109 24.9995H24.8178C25.4418 24.9995 26.01 24.6555 26.302 24.1037C26.5924 23.5568 26.5607 22.8956 26.2189 22.3777L19.7669 12.6291L19.768 12.6297ZM7.23906 23.25L10.651 18.4714L12.2867 20.7322C12.4562 20.9641 12.7406 21.1281 13.0141 21.0953C13.3012 21.0885 13.5675 20.9427 13.7261 20.7021L18.3105 13.5982L24.6953 23.2495H7.23906V23.25ZM26.4508 5.75H5.45078C3.56679 5.75 1.99945 7.3168 1.99945 9.25V26.75C1.99945 28.6832 3.56625 30.25 5.45023 30.25H26.4502C28.3834 30.25 29.9502 28.6832 29.9502 26.75V9.25C29.9502 7.3168 28.4299 5.75 26.4502 5.75H26.4508ZM28.25 26.75C28.25 27.7147 27.4647 28.5 26.5 28.5H5.5C4.53531 28.5 3.75 27.7147 3.75 26.75V9.25C3.75 8.28531 4.53531 7.5 5.5 7.5H26.5C27.4647 7.5 28.25 8.28531 28.25 9.25V26.75ZM9.875 14.5C11.3242 14.5 12.5 13.3242 12.5 11.875C12.5 10.4258 11.3242 9.25 9.875 9.25C8.42578 9.25 7.25 10.4258 7.25 11.875C7.25 13.3242 8.42578 14.5 9.875 14.5ZM9.875 11C10.3573 11 10.7008 11.3921 10.7008 11.875C10.7008 12.3573 10.3562 12.75 9.875 12.75C9.39375 12.75 9 12.3563 9 11.875C9 11.3937 9.39375 11 9.875 11Z" fill="black"/>
</g>
<defs>
<clipPath id="clip0_53_717">
<rect width="28" height="28" fill="white" transform="translate(2 4)"/>
</clipPath>
</defs>
</svg>
