<svg width="32" height="32" viewBox="0 0 32 32" fill="none" xmlns="http://www.w3.org/2000/svg">
<path d="M8.08281 14.625C8.08281 15.2484 7.62344 15.75 6.95781 15.75C6.37656 15.75 5.83281 15.2484 5.83281 14.625C5.83281 14.0016 6.37656 13.5 6.95781 13.5C7.62344 13.5 8.08281 14.0016 8.08281 14.625ZM17.125 16.875C17.125 17.4984 16.6234 18 15.9578 18C15.3766 18 14.8328 17.4984 14.8328 16.875C14.8328 16.2516 15.3766 15.75 15.9578 15.75C16.6234 15.75 17.125 16.2516 17.125 16.875ZM23.875 14.625C23.875 14.0016 24.3766 13.5 25 13.5C25.6234 13.5 26.125 14.0016 26.125 14.625C26.125 15.2484 25.6234 15.75 25 15.75C24.3766 15.75 23.875 15.2484 23.875 14.625ZM28.6516 10.5469C30.0297 11.5125 31 12.7641 31 14.25C31 15.3375 30.475 16.3078 29.6594 17.1188C28.8484 17.925 27.7094 18.6187 26.3688 19.1859C23.6781 20.3156 20.0078 21 16 21C11.9875 21 8.32188 20.3156 5.63266 19.1859C4.28875 18.6187 3.15203 17.925 2.34063 17.1188C1.52641 16.3078 1 15.3375 1 14.25C1 12.7641 1.97219 11.5125 3.34984 10.5469C4.72422 9.58594 6.625 8.81719 8.8375 8.29219C9.79844 5.16562 12.7047 3 16 3C19.2953 3 22.2016 5.16562 23.1625 8.29219C25.3328 8.81719 27.2734 9.58594 28.6516 10.5469ZM9.27813 11.1703L8.72969 11.6859C8.6125 11.5641 8.54219 11.4047 8.52813 11.2359C8.49063 10.7859 8.49063 10.3453 8.52344 9.91875C6.72813 10.4016 5.25484 11.0437 4.21 11.775C3.01047 12.6141 2.5 13.4766 2.5 14.25C2.5 14.8219 2.77141 15.4312 3.39906 16.0547C4.02953 16.6828 4.98016 17.2828 6.2125 17.8031C8.68281 18.8391 12.1422 19.5 16 19.5C19.8578 19.5 23.3172 18.8391 25.7875 17.8031C27.0203 17.2828 27.9719 16.6828 28.6 16.0547C29.2281 15.4312 29.5 14.8219 29.5 14.25C29.5 13.4766 28.9891 12.6141 27.7891 11.775C26.7438 11.0437 25.2719 10.4016 23.4766 9.91875C23.5094 10.3453 23.5094 10.7859 23.4719 11.2359C23.4578 11.4047 23.3875 11.5641 23.2703 11.6859L22.7219 11.1703C23.2703 11.6859 23.2703 11.6859 23.2703 11.6859L23.2656 11.6906H23.2234L23.2562 11.7C23.2469 11.7094 23.2375 11.7187 23.2281 11.7281C23.2047 11.7516 23.1719 11.7797 23.1344 11.8125C23.0594 11.8828 22.9516 11.9766 22.8063 12.0797C22.5156 12.2953 22.0891 12.5625 21.5078 12.8297C20.3359 13.3641 18.55 13.875 16 13.875C13.45 13.875 11.6641 13.3641 10.4922 12.8297C9.91094 12.5625 9.44219 12.2953 9.19375 12.0797C9.04844 11.9766 8.94063 11.8828 8.86563 11.8125C8.78594 11.7797 8.79531 11.7516 8.77188 11.7281C8.7625 11.7187 8.75312 11.7094 8.74375 11.7L8.73438 11.6906H8.69219L8.72969 11.6859C8.72969 11.6859 8.72969 11.6859 9.27813 11.1703ZM22.1781 10.6547H22.1828L22.1781 10.6594V10.6547ZM15.9578 4.5C12.6906 4.5 9.86406 7.23281 10.0047 10.8141C10.0281 10.8328 10.0563 10.8516 10.0844 10.8328C10.2953 11.025 10.6328 11.2453 11.1156 11.4656C12.0859 11.9063 13.6563 12.375 15.9578 12.375C18.3016 12.375 19.9141 11.9063 20.8844 11.4656C21.3672 11.2453 21.7047 11.025 21.9156 10.8328C21.9438 10.8516 21.9719 10.8328 21.9953 10.8141C22.1359 7.23281 19.3094 4.5 15.9578 4.5Z" fill="black"/>
</svg>
