<svg width="32" height="32" viewBox="0 0 32 32" fill="none" xmlns="http://www.w3.org/2000/svg">
<g id="v_van_&#203;&#136;v&#195;&#166;n">
<g id="van-shuttle 1">
<path id="Vector" d="M28.375 25H28C28 27.4844 25.9844 29.5 23.5 29.5C20.9734 29.5 19 27.4844 19 25H13C13 27.4844 10.9844 29.5 8.5 29.5C5.97344 29.5 4 27.4844 4 25H3.625C2.17516 25 1 23.8234 1 22.375V11.125C1 9.67516 2.17516 8.5 3.625 8.5H22.8297C23.4719 8.5 24.0766 8.77094 24.5031 9.24484L30.4234 15.8219C30.7938 16.1922 31 16.7688 31 17.3266V22.375C31 23.8234 29.8234 25 28.375 25ZM2.5 16H8.5V10H3.625C3.00391 10 2.5 10.5039 2.5 11.125V16ZM2.5 17.5V22.375C2.5 22.9984 3.00391 23.5 3.625 23.5H4.25594C4.87375 21.7516 6.54063 20.5 8.5 20.5C10.4594 20.5 12.1281 21.7516 12.7422 23.5H19.2578C19.8719 21.7516 21.5406 20.5 23.5 20.5C25.4594 20.5 27.1281 21.7516 27.7422 23.5H28.375C28.9984 23.5 29.5 22.9984 29.5 22.375V17.5H2.5ZM10 16H17.5V10H10V16ZM19 16H28.5672L23.3875 10.2484C23.2469 10.0905 23.0453 10 22.8297 10H19V16ZM23.5 22C21.8453 22 20.5 23.3453 20.5 25C20.5 26.6547 21.8453 28 23.5 28C25.1547 28 26.5 26.6547 26.5 25C26.5 23.3453 25.1547 22 23.5 22ZM8.5 28C10.1547 28 11.5 26.6547 11.5 25C11.5 23.3453 10.1547 22 8.5 22C6.84531 22 5.5 23.3453 5.5 25C5.5 26.6547 6.84531 28 8.5 28Z" fill="black"/>
</g>
</g>
</svg>
