<svg width="32" height="32" viewBox="0 0 32 32" fill="none" xmlns="http://www.w3.org/2000/svg">
<g clip-path="url(#clip0_53_706)">
<path d="M11.625 18.0547C11.172 18.0547 10.8047 18.422 10.8047 18.875V22.375C10.8047 22.828 11.172 23.1953 11.625 23.1953C12.078 23.1953 12.4453 22.828 12.4453 22.375V18.875C12.4453 18.422 12.078 18.0547 11.625 18.0547Z" fill="black"/>
<path d="M17.3125 18.0547H14.6875C14.2345 18.0547 13.8672 18.422 13.8672 18.875C13.8672 19.328 14.2345 19.6953 14.6875 19.6953H15.1797V22.375C15.1797 22.828 15.547 23.1953 16 23.1953C16.453 23.1953 16.8203 22.828 16.8203 22.375V19.6953H17.3125C17.7655 19.6953 18.1328 19.328 18.1328 18.875C18.1328 18.422 17.7655 18.0547 17.3125 18.0547Z" fill="black"/>
<path d="M8.85055 18.1069C8.42623 17.9479 7.95351 18.1627 7.79442 18.5869L7.25001 20.0387L6.7056 18.5869C6.54656 18.1627 6.07352 17.9479 5.64947 18.1069C5.22526 18.266 5.01028 18.7388 5.16942 19.163L6.48192 22.663C6.60196 22.9832 6.90805 23.1953 7.25001 23.1953C7.59197 23.1953 7.89806 22.9832 8.0181 22.663L9.3306 19.163C9.48968 18.7388 9.2747 18.266 8.85055 18.1069Z" fill="black"/>
<path d="M23.875 19.75C22.9146 19.75 22.0052 19.9725 21.1953 20.3682V14.1164C21.1953 13.257 20.7375 12.4483 20.0005 12.0061L16.8203 10.098V9.19531H18.1875C18.6405 9.19531 19.0078 8.82803 19.0078 8.375V4.82031C19.0078 4.36728 18.6405 4 18.1875 4H5.0625C4.60947 4 4.24219 4.36728 4.24219 4.82031V8.375C4.24219 8.82803 4.60947 9.19531 5.0625 9.19531H6.42969V10.0951L3.20635 12.0052C2.46222 12.4462 2 13.2574 2 14.1223V27.7344C2 29.0913 3.10398 30.1953 4.46094 30.1953H18.7344C18.9742 30.1953 19.2107 30.16 19.4374 30.0926C20.554 31.2669 22.1305 32 23.875 32C27.2523 32 30 29.2523 30 25.875C30 22.4977 27.2523 19.75 23.875 19.75ZM17.8051 25.0547H3.64062V16.1953H19.5547V21.5375C18.6236 22.465 17.9887 23.6892 17.8051 25.0547ZM5.88281 5.64062H17.3672V7.55469H16H7.25H5.88281V5.64062ZM4.0428 13.4166L7.66825 11.2682C7.91746 11.1205 8.07031 10.8522 8.07031 10.5625V9.19531H15.1797V10.5625C15.1797 10.8506 15.3309 11.1176 15.5779 11.2659L19.1564 13.413C19.4021 13.5604 19.5547 13.8299 19.5547 14.1164V14.5547H3.64062V14.1223C3.64062 13.834 3.79468 13.5636 4.0428 13.4166ZM4.46094 28.5547C4.00862 28.5547 3.64062 28.1867 3.64062 27.7344V26.6953H17.8051C17.8936 27.3537 18.087 27.9793 18.3681 28.5547H4.46094ZM23.875 30.3594C21.4023 30.3594 19.3906 28.3477 19.3906 25.875C19.3906 23.4023 21.4023 21.3906 23.875 21.3906C26.3477 21.3906 28.3594 23.4023 28.3594 25.875C28.3594 28.3477 26.3477 30.3594 23.875 30.3594Z" fill="black"/>
<path d="M23.875 24.5078C24.0654 24.5078 24.2494 24.5459 24.4215 24.6212C24.8368 24.8025 25.3203 24.6131 25.5017 24.198C25.6831 23.7828 25.4936 23.2992 25.0785 23.1178C24.6978 22.9515 24.2929 22.8672 23.875 22.8672C22.2165 22.8672 20.8672 24.2165 20.8672 25.875C20.8672 27.5335 22.2165 28.8828 23.875 28.8828C24.2929 28.8828 24.6978 28.7985 25.0785 28.6322C25.4936 28.4508 25.6831 27.9672 25.5017 27.552C25.3203 27.1369 24.8367 26.9472 24.4215 27.1288C24.2494 27.2041 24.0654 27.2422 23.875 27.2422C23.1211 27.2422 22.5078 26.6289 22.5078 25.875C22.5078 25.1211 23.1211 24.5078 23.875 24.5078Z" fill="black"/>
</g>
<defs>
<clipPath id="clip0_53_706">
<rect width="28" height="28" fill="white" transform="translate(2 4)"/>
</clipPath>
</defs>
</svg>
