<svg width="32" height="32" viewBox="0 0 32 32" fill="none" xmlns="http://www.w3.org/2000/svg">
<g id="w - worm - &#203;&#136;w&#201;&#156;rm">
<g id="worm 1" clip-path="url(#clip0_3_126)">
<path id="Vector" d="M23 6.8125C23 6.08789 23.5852 5.5 24.3125 5.5C25.0398 5.5 25.625 6.08789 25.625 6.8125C25.625 7.53984 25.0398 8.125 24.3125 8.125C23.5852 8.125 23 7.53984 23 6.8125ZM25.1 2C27.807 2 30 4.19406 30 6.9V21.4688C30 26.1828 26.1828 30 21.4688 30C16.7547 30 12.9375 26.1828 12.9375 21.4688V19.5C12.9375 18.0508 11.7617 16.875 10.3125 16.875C9.10391 16.875 8.125 17.8539 8.125 19.0625V26.9375C8.125 28.6273 6.75398 30 5.0625 30C3.37102 30 2 28.6273 2 26.9375V19.0625C2 14.4742 5.72148 10.75 10.3125 10.75C15.1469 10.75 19.0625 14.6656 19.0625 19.5V21.4688C19.0625 22.7977 20.1398 23.875 21.4688 23.875C22.7977 23.875 23.875 22.7977 23.875 21.4688V12.5L22.1742 12.2594C19.6367 11.893 17.75 9.72188 17.75 7.1543C17.75 4.30781 20.0578 2 22.907 2H25.1ZM25.625 21.4688C25.625 23.7164 23.7164 25.625 21.4688 25.625C19.1719 25.625 17.3125 23.7164 17.3125 21.4688V19.5C17.3125 15.6336 14.1789 12.5 10.3125 12.5C6.68836 12.5 3.75 15.4367 3.75 19.0625V26.9375C3.75 27.6648 4.33789 28.25 5.0625 28.25C5.78711 28.25 6.375 27.6648 6.375 26.9375V19.0625C6.375 16.8859 8.13594 15.125 10.3125 15.125C12.7297 15.125 14.6875 17.0828 14.6875 19.5V21.4688C14.6875 25.2148 17.7227 28.25 21.4688 28.25C25.2148 28.25 28.25 25.2148 28.25 21.4688V6.9C28.25 5.16039 26.8391 3.75 25.1 3.75H22.907C21.0258 3.75 19.5 5.27414 19.5 7.1543C19.5 8.84688 20.7469 10.2852 22.4203 10.5258L25.625 10.9797V21.4688Z" fill="black"/>
</g>
</g>
<defs>
<clipPath id="clip0_3_126">
<rect width="28" height="28" fill="white" transform="translate(2 2)"/>
</clipPath>
</defs>
</svg>
