<svg width="32" height="32" viewBox="0 0 32 32" fill="none" xmlns="http://www.w3.org/2000/svg">
<g id="z - zebra - &#203;&#136;zi br&#201;&#153;">
<g id="fi_608530" clip-path="url(#clip0_3_91)">
<g id="Group">
<g id="Group_2">
<path id="Vector" d="M22.5898 8.16777C23.1477 8.16777 23.5999 7.71553 23.5999 7.15768C23.5999 6.59982 23.1477 6.14758 22.5898 6.14758C22.0319 6.14758 21.5797 6.59982 21.5797 7.15768C21.5797 7.71553 22.0319 8.16777 22.5898 8.16777Z" fill="black"/>
</g>
</g>
<g id="Group_3">
<g id="Group_4">
<path id="Vector_2" d="M27.056 5.04019L21.1173 3.45817L17.1987 2.03433C16.8815 1.92332 16.5343 2.0904 16.4233 2.40757C16.4104 2.44442 16.4011 2.48247 16.3955 2.52109C16.2314 3.46325 16.2314 4.42662 16.3955 5.36877H15.9209C15.5848 5.36877 15.3124 5.64122 15.3124 5.97727C15.3124 6.31332 15.5848 6.58577 15.9209 6.58577H17.3326L17.9167 6.92649L17.8193 7.09689H14.85C14.5139 7.09689 14.2415 7.36933 14.2415 7.70538C14.2415 8.04144 14.5139 8.31388 14.85 8.31388H17.077L16.7849 8.81285H13.8156C13.4795 8.81285 13.2071 9.0853 13.2071 9.42135C13.2071 9.7574 13.4795 10.0298 13.8156 10.0298H16.1035L15.8114 10.5288H12.7812C12.4451 10.5288 12.1727 10.8013 12.1727 11.1373C12.1727 11.4734 12.4451 11.7458 12.7812 11.7458H15.1177L14.8257 12.2448H11.7589C11.4229 12.2448 11.1504 12.5172 11.1504 12.8533C11.1504 13.1893 11.4229 13.4618 11.7589 13.4618H14.1929L13.8521 14.0459H7.76723C7.22981 14.0507 6.70083 14.1798 6.22171 14.4232H6.06353C4.96798 14.4232 4.07985 13.5351 4.07985 12.4395C4.07985 12.4355 4.07985 12.4314 4.07991 12.4273C4.07991 12.0913 3.80746 11.8188 3.47141 11.8188C3.13536 11.8188 2.86292 12.0913 2.86292 12.4273C2.86605 13.7508 3.68351 14.9358 4.91955 15.4089C4.42874 16.0201 4.15857 16.779 4.15287 17.5629V27.7732C4.15287 28.9964 5.14448 29.9881 6.36769 29.9881C6.37174 29.9881 6.37585 29.9881 6.3799 29.988C7.09792 29.988 8.58257 29.988 8.58257 28.4425V27.3716C8.58257 26.2156 9.5197 25.2784 10.6757 25.2784H17.6124C18.7751 25.2851 19.7122 26.2331 19.7055 27.3959V27.3959V27.7854C19.7055 29.0039 20.6897 29.9935 21.9082 30.0003C22.6262 30.0003 24.1109 30.0003 24.1109 28.4548V11.7943H26.9342C28.1507 11.7943 29.1369 10.8081 29.1369 9.59163V7.1577C29.1005 5.8921 28.1512 5.41749 27.056 5.04019ZM7.36563 27.3714V28.4423C7.36563 28.6735 7.36563 28.7708 6.3799 28.7708C5.82879 28.7708 5.38201 28.3241 5.38201 27.773V22.3575L9.1059 24.5115C8.04915 25.0776 7.38281 26.1726 7.36563 27.3714ZM27.8835 9.60378C27.8835 10.1482 27.4422 10.5895 26.8978 10.5895H22.2368C21.9008 10.5899 21.6286 10.8625 21.629 11.1986C21.6293 11.5342 21.9012 11.8062 22.2368 11.8065H22.9183V18.4997L18.0505 15.7494C17.7491 15.6008 17.3843 15.7246 17.2357 16.026C17.0985 16.3043 17.1926 16.6413 17.4542 16.8081L22.6871 19.7775C22.7635 19.7926 22.842 19.7926 22.9183 19.7775V23.0511L18.3304 20.4469C18.029 20.2983 17.6642 20.4221 17.5156 20.7235C17.3783 21.0018 17.4725 21.3388 17.7341 21.5056L22.9305 24.4507V28.4423C22.9305 28.6735 22.9305 28.7708 21.9448 28.7708C21.3936 28.7642 20.9523 28.312 20.959 27.7609V27.7607V27.3713C20.952 25.6522 19.6302 24.2245 17.9166 24.0855L12.6838 21.1162C12.3823 20.9675 12.0175 21.0914 11.8689 21.3928C11.7317 21.6711 11.8259 22.0081 12.0875 22.1749L15.4463 24.0734H10.8462L5.62543 21.0918C5.55035 21.0506 5.46741 21.0258 5.38201 21.0188V17.5626C5.38201 17.5626 5.38201 17.4896 5.38201 17.4531L10.2498 20.2034C10.5512 20.352 10.916 20.2281 11.0646 19.9268C11.2019 19.6485 11.1077 19.3115 10.8461 19.1446L5.78355 16.2726C6.21031 15.6426 6.92108 15.2645 7.68201 15.2625H8.78942L14.0223 18.2319C14.3237 18.3805 14.6885 18.2566 14.8371 17.9553C14.9744 17.6769 14.8802 17.34 14.6186 17.1731L11.2233 15.2625H14.217H14.3387H14.4482L14.5334 15.2016L14.6185 15.1043L16.2128 12.3175L20.9589 15.007C21.2603 15.1556 21.6251 15.0317 21.7737 14.7303C21.911 14.452 21.8168 14.1151 21.5552 13.9482L16.8699 11.1249L18.0139 9.1169L19.7419 10.1026C20.0433 10.2512 20.4081 10.1274 20.5567 9.82603C20.694 9.5477 20.5998 9.21074 20.3382 9.04388L18.6101 8.0703L19.2064 7.0237C19.3726 6.73442 19.2749 6.36534 18.9874 6.19615L17.6122 5.39296C17.4122 4.76837 17.3622 4.10551 17.4662 3.458L20.7276 4.67493L26.6907 6.19615C27.7616 6.58559 27.9076 6.8168 27.9076 7.21839L27.8835 9.60378Z" fill="black"/>
</g>
</g>
</g>
</g>
<defs>
<clipPath id="clip0_3_91">
<rect width="28" height="28" fill="white" transform="translate(2 2)"/>
</clipPath>
</defs>
</svg>
