<svg width="32" height="32" viewBox="0 0 32 32" fill="none" xmlns="http://www.w3.org/2000/svg">
<path d="M17.2086 9.00002H14.5617C12.943 9.00002 11.625 10.318 11.625 11.9313C11.625 12.4147 12.016 12.8063 12.5 12.8063C12.9834 12.8063 13.375 12.4147 13.375 11.9313C13.375 11.2805 13.9055 10.75 14.5617 10.75H17.2124C17.9906 10.75 18.625 11.3844 18.625 12.1664C18.625 12.7065 18.3259 13.1918 17.8304 13.439L15.5953 14.5946C15.3055 14.7477 15.125 15.0485 15.125 15.3711V16.875C15.125 17.3563 15.5188 17.75 16 17.75C16.4813 17.75 16.875 17.3585 16.875 16.875V15.9071L18.625 14.9987C19.7051 14.4587 20.375 13.3712 20.375 12.1648C20.375 10.4164 18.9531 9.00002 17.2086 9.00002ZM16 19.0625C15.3963 19.0625 14.9063 19.552 14.9063 20.1563C14.9063 20.7578 15.3492 21.25 16 21.25C16.6508 21.25 17.0938 20.76 17.0938 20.1563C17.0938 19.5055 16.6016 19.0625 16 19.0625ZM16 3.70081C8.26719 3.70026 2.04922 8.79385 2.04922 15.0758C2.04917 17.6806 3.13805 20.066 4.94274 21.9828C4.12954 24.143 2.43422 25.9685 2.40688 25.9887C2.0443 26.3715 1.9486 26.9321 2.15368 27.4106C2.31719 27.9383 2.78587 28.25 3.31196 28.25C6.67469 28.25 9.27837 26.8418 10.919 25.7207C12.4557 26.2129 14.209 26.5 15.9995 26.5C23.7323 26.5 29.9502 21.407 29.9502 15.125C29.9502 8.84307 23.7323 3.70081 15.9995 3.70081H16ZM16 24.75C14.4551 24.75 12.9244 24.5176 11.4478 24.0528C10.9272 23.8849 10.3584 23.9724 9.91274 24.2896C8.70415 25.1782 6.71133 26.2195 4.29633 26.4585C4.90337 25.6316 5.92329 24.2436 6.5243 22.6506L6.53086 22.632C6.76493 22.0156 6.62876 21.3687 6.17922 20.8371C4.59766 19.1221 3.75274 17.1807 3.75274 15.1245C3.75274 9.81979 9.24883 5.49948 15.9535 5.49948C22.7074 5.49942 28.1543 9.81979 28.1543 15.1245C28.1543 20.4292 22.7534 24.7495 15.9995 24.7495L16 24.75Z" fill="black"/>
</svg>
