<svg width="32" height="32" viewBox="0 0 32 32" fill="none" xmlns="http://www.w3.org/2000/svg">
<g clip-path="url(#clip0_47_219)">
<path d="M15.2985 8.96719C15.2985 8.96719 15.5905 9.00438 16.0504 9.00438C17.0397 9.00438 18.8805 8.82227 20.0973 7.60602C21.8167 5.89376 21.4765 2.93133 21.4612 2.80555C21.4134 2.40797 21.097 2.09407 20.6989 2.04376C20.6989 2.0437 17.6823 1.62332 15.9001 3.40438C14.1807 5.11665 14.5208 8.07907 14.5361 8.20485C14.5876 8.60024 14.8993 8.91743 15.2985 8.96665V8.96719ZM17.136 4.64196C17.8557 3.92282 19.0861 3.78008 19.7473 3.75876C19.72 4.56977 19.5286 5.70344 18.8619 6.3679C18.1422 7.08704 16.9118 7.22977 16.2506 7.2511C16.2774 6.44063 16.4688 5.30641 17.136 4.64196ZM23.1954 9.06016C22.9561 9.01915 22.6939 9.00329 22.4073 9.00329C20.4315 9.00329 17.6429 9.96469 16.2495 10.7506C14.855 9.96469 12.0654 9.00329 10.0917 9.00329C9.80458 9.00329 9.53826 9.02379 9.29216 9.06481C4.85537 9.85067 3.41873 15.8734 4.20623 20.3086C4.98388 24.744 7.55419 29.9995 12.7719 29.9995C13.4347 29.9995 14.091 29.7465 14.6586 29.4323C15.1508 29.1589 15.7048 29.0222 16.2517 29.0222C16.8051 29.0222 17.352 29.1589 17.8442 29.4318C18.4102 29.7473 19.0665 29.9989 19.7282 29.9989C24.9443 29.9989 27.5157 24.7429 28.2922 20.3083C29.0797 15.8731 27.6469 9.84657 23.1954 9.05907V9.06016ZM26.5696 20.0086C26.3273 21.3851 24.8611 28.2555 19.7282 28.2555C18.8526 28.2555 18.2319 27.2782 16.2484 27.2782C14.2616 27.2782 13.6409 28.2555 12.7686 28.2555C7.63513 28.2555 6.16787 21.3867 5.92724 20.0086C5.56849 17.9857 5.75498 15.7178 6.42544 13.9438C6.90341 12.6695 7.8413 11.1 9.57763 10.7938C11.2128 10.5214 14.3065 11.6698 15.3909 12.2802C15.6572 12.4306 15.9542 12.5057 16.2501 12.5057C16.5459 12.5057 16.8429 12.4306 17.1092 12.2802C18.151 11.6934 21.3004 10.5181 22.8951 10.791C24.6561 11.1016 25.5951 12.6745 26.0725 13.9388C26.744 15.7102 26.93 17.9797 26.569 20.0086H26.5696Z" fill="black"/>
</g>
<defs>
<clipPath id="clip0_47_219">
<rect width="24.5" height="28" fill="white" transform="translate(4 2)"/>
</clipPath>
</defs>
</svg>
