<svg width="32" height="33" viewBox="0 0 32 33" fill="none" xmlns="http://www.w3.org/2000/svg">
<path d="M27.625 19C27.625 19.4813 27.2313 19.875 26.75 19.875H17.125V29.5C17.125 29.9834 16.7334 30.3755 16.25 30.3755C15.766 30.3755 15.375 29.9813 15.375 29.5V19.875H5.75C5.26602 19.875 4.875 19.484 4.875 19.0006C4.875 18.5188 5.26656 18.125 5.75 18.125H15.375V8.5C15.375 8.01602 15.766 7.62555 16.25 7.62555C16.7334 7.62555 17.125 8.01657 17.125 8.5V18.125H26.75C27.2313 18.125 27.625 18.5188 27.625 19Z" fill="black"/>
</svg>
