<svg width="32" height="32" viewBox="0 0 32 32" fill="none" xmlns="http://www.w3.org/2000/svg">
<g clip-path="url(#clip0_47_270)">
<path d="M16 12.5C17.4498 12.5 18.625 11.3248 18.625 9.875C18.625 8.42523 17.4492 7.25 16 7.25C14.5508 7.25 13.375 8.42578 13.375 9.875C13.375 11.3242 14.5508 12.5 16 12.5ZM16 9C16.4823 9 16.875 9.39211 16.875 9.875C16.875 10.3573 16.4813 10.75 16 10.75C15.5187 10.75 15.125 10.3563 15.125 9.875C15.125 9.39375 15.5187 9 16 9ZM21.8461 12.6531L18.707 13.6539C16.9603 14.2369 15.0397 14.2369 13.293 13.6539L10.1539 12.6531C9.69289 12.4967 9.20016 12.7466 9.04758 13.206C8.895 13.6648 9.14219 14.1603 9.60047 14.3123L12.7417 15.3591C12.9484 15.4312 13.1617 15.4641 13.375 15.5187V19.4163L12.517 23.7044C12.4218 24.1785 12.7297 24.639 13.2033 24.7341C13.6807 24.8337 14.139 24.5209 14.233 24.0478L14.9664 20.375H17.0325L17.7664 24.0467C17.8484 24.4656 18.2148 24.75 18.5758 24.75C18.6321 24.75 18.6901 24.7445 18.748 24.7325C19.2211 24.6373 19.529 24.1769 19.4344 23.7027L18.6245 19.412V15.5182C18.8355 15.4619 19.0521 15.4307 19.2599 15.3613L22.4012 14.3145C22.8592 14.162 23.1072 13.667 22.9541 13.2082C22.8009 12.7494 22.3104 12.4501 21.8455 12.652L21.8461 12.6531ZM16.875 18.625H15.125V15.8195C15.4148 15.8469 15.7047 15.8906 16 15.8906C16.2953 15.8906 16.5835 15.8447 16.875 15.8201V18.6245V18.625ZM16 2C8.26719 2 2 8.26719 2 16C2 23.7328 8.26719 30 16 30C23.7328 30 30 23.7328 30 16C30 8.26719 23.7328 2 16 2ZM16 28.25C9.24609 28.25 3.75 22.7539 3.75 16C3.75 9.24609 9.24609 3.75 16 3.75C22.7539 3.75 28.25 9.24609 28.25 16C28.25 22.7539 22.7539 28.25 16 28.25Z" fill="black"/>
</g>
<defs>
<clipPath id="clip0_47_270">
<rect width="28" height="28" fill="white" transform="translate(2 2)"/>
</clipPath>
</defs>
</svg>
