<svg width="32" height="32" viewBox="0 0 32 32" fill="none" xmlns="http://www.w3.org/2000/svg">
<g clip-path="url(#clip0_47_252)">
<path d="M27.2 12.6H21.6V14H27.2C27.9717 14 28.6 14.6282 28.6 15.4V23.8C28.6 24.5717 27.9717 25.2 27.2 25.2H24.4V27.3687L20.5675 25.2H16C15.2283 25.2 14.6 24.5717 14.6 23.8V22.4L13.2 22.3996V23.7987C13.2 25.3409 14.4578 26.5593 15.9606 26.5593L20.2 26.5996L24.9644 29.2959C25.0606 29.3689 25.17 29.3996 25.275 29.3996C25.5506 29.3996 25.8 29.1852 25.8 28.8746V26.5982H27.2C28.7422 26.5982 30 25.3404 30 23.8376V15.3602C30 13.8552 28.7444 12.6 27.2 12.6ZM20.2 18.2V9.76062C20.2 8.25781 18.9444 7 17.4 7H4.8C3.25781 7 2 8.25781 2 9.76062V18.1606C2 19.7444 3.25781 21 4.8 21L6.2 21.0004V23.2746C6.2 23.5852 6.45375 23.7996 6.725 23.7996C6.82891 23.7996 6.93828 23.7667 7.03672 23.6957L11.8 20.9996L17.4 20.9961C18.9444 20.9947 20.2 19.7446 20.2 18.2ZM11.4325 19.6L7.6 21.77V19.6H4.8C4.02825 19.6 3.4 18.97 3.4 18.2V9.8C3.4 9.02825 4.02825 8.4 4.8 8.4H17.4C18.1717 8.4 18.8 9.02825 18.8 9.8V18.2C18.8 18.9717 18.1717 19.6 17.4 19.6H11.4325Z" fill="black"/>
<path d="M9.60917 15.7498L14.5774 10.935V10.9344C14.9003 10.6215 15.4304 10.6215 15.7559 10.9365C16.0814 11.2514 16.0814 11.7627 15.7559 12.0781L10.1992 17.4633C10.043 17.6147 9.83102 17.7 9.61021 17.7C9.38888 17.7 9.17745 17.6152 9.02122 17.4638L6.24392 14.7717C5.91843 14.4568 5.91895 13.9455 6.24392 13.6301C6.56888 13.3146 7.09643 13.3146 7.42191 13.6301L9.60917 15.7498Z" fill="black"/>
</g>
<defs>
<clipPath id="clip0_47_252">
<rect width="28" height="22.4" fill="white" transform="translate(2 7)"/>
</clipPath>
</defs>
</svg>
