<svg width="32" height="32" viewBox="0 0 32 32" fill="none" xmlns="http://www.w3.org/2000/svg">
<path d="M21.75 2H11.25C9.3168 2 7.75 3.5668 7.75 5.5V26.5C7.75 28.4332 9.3168 30 11.25 30H21.75C23.6832 30 25.25 28.4332 25.25 26.5V5.5C25.25 3.5668 23.6805 2 21.75 2ZM23.5 26.5C23.5 27.4647 22.7147 28.25 21.75 28.25H11.25C10.2853 28.25 9.5 27.4647 9.5 26.5V5.5C9.5 4.53531 10.2853 3.75 11.25 3.75H21.75C22.7147 3.75 23.5 4.53531 23.5 5.5V26.5ZM18.25 23.875H14.75C14.2666 23.875 13.875 24.2666 13.875 24.75C13.875 25.2329 14.2666 25.625 14.75 25.625H18.25C18.7329 25.625 19.125 25.2329 19.125 24.75C19.125 24.2687 18.7313 23.875 18.25 23.875Z" fill="black"/>
<path fill-rule="evenodd" clip-rule="evenodd" d="M14.5357 8H12.1786C11.5289 8 11 8.53036 11 9.17857V11.5357C11 12.1849 11.5289 12.7143 12.1786 12.7143H14.5357C15.1854 12.7143 15.7143 12.1849 15.7143 11.5357V9.17857C15.7143 8.53036 15.1839 8 14.5357 8ZM20.8214 8H18.4643C17.8161 8 17.2857 8.53036 17.2857 9.17857V11.5357C17.2857 12.1849 17.8146 12.7143 18.4643 12.7143H20.8214C21.4711 12.7143 22 12.1849 22 11.5357V9.17857C22 8.53036 21.4696 8 20.8214 8ZM14.1429 11.1429H12.5714V9.57144H14.1429V11.1429ZM20.4286 11.1429H18.8572V9.57144H20.4286V11.1429Z" fill="black"/>
<path fill-rule="evenodd" clip-rule="evenodd" d="M14.5357 15H12.1786C11.5289 15 11 15.5304 11 16.1786V18.5357C11 19.1849 11.5289 19.7143 12.1786 19.7143H14.5357C15.1854 19.7143 15.7143 19.1849 15.7143 18.5357V16.1786C15.7143 15.5304 15.1839 15 14.5357 15ZM20.8214 15H18.4643C17.8161 15 17.2857 15.5304 17.2857 16.1786V18.5357C17.2857 19.1849 17.8146 19.7143 18.4643 19.7143H20.8214C21.4711 19.7143 22 19.1849 22 18.5357V16.1786C22 15.5304 21.4696 15 20.8214 15ZM14.1429 18.1429H12.5714V16.5714H14.1429V18.1429ZM20.4286 18.1429H18.8572V16.5714H20.4286V18.1429Z" fill="black"/>
</svg>
