<svg width="32" height="32" viewBox="0 0 32 32" fill="none" xmlns="http://www.w3.org/2000/svg">
<g clip-path="url(#clip0_53_537)">
<path d="M16.25 6.375C12.3809 6.375 9.25 9.50586 9.25 13.375C9.25 17.2441 12.3809 20.375 16.25 20.375C20.1191 20.375 23.25 17.2441 23.25 13.375C23.25 9.50586 20.1219 6.375 16.25 6.375ZM11.0875 14.25H13.2274C13.3095 15.7266 13.5829 17.0598 13.9996 18.0989C12.493 17.3727 11.3773 15.9617 11.0875 14.25ZM13.2313 12.5H11.0875C11.3746 10.791 12.4886 9.3757 13.9996 8.65109C13.5867 9.68906 13.3133 11.0234 13.2313 12.5ZM16.25 18.5594C15.8289 18.1492 15.118 16.6727 14.9703 14.25H17.527C17.3875 16.6727 16.6766 18.1492 16.25 18.5594ZM14.9648 12.5C15.118 10.0828 15.8289 8.60625 16.25 8.19609C16.6766 8.60625 17.3875 10.0828 17.5297 12.5H14.9648ZM18.4977 18.1C18.9188 17.0609 19.1922 15.7266 19.2742 14.25H21.4141C21.1227 15.9617 20.0125 17.3727 18.4977 18.1ZM19.2742 12.5C19.1922 11.0234 18.9187 9.69016 18.502 8.65109C20.0125 9.3757 21.127 10.791 21.4141 12.5H19.2742ZM28.5 22.125V4.625C28.5 3.17523 27.3242 2 25.875 2H8.375C5.95891 2 4 3.95891 4 6.375V26.5C4 28.4332 5.5668 30 7.5 30H27.625C28.1084 30 28.5 29.6084 28.5 29.125C28.5 28.641 28.1063 28.25 27.625 28.25H26.75V24.5887C27.7672 24.225 28.5 23.2625 28.5 22.125ZM25 28.25H7.5C6.53531 28.25 5.75 27.4647 5.75 26.5C5.75 25.5353 6.53531 24.75 7.5 24.75H25V28.25ZM25.875 23H7.5C6.85961 23 6.2668 23.1848 5.75 23.4867V6.375C5.75 4.92523 6.92523 3.75 8.375 3.75H25.875C26.3563 3.75 26.75 4.14156 26.75 4.625V22.125C26.75 22.6063 26.3563 23 25.875 23Z" fill="black"/>
</g>
<defs>
<clipPath id="clip0_53_537">
<rect width="24.5" height="28" fill="white" transform="translate(4 2)"/>
</clipPath>
</defs>
</svg>
