<svg width="32" height="32" viewBox="0 0 32 32" fill="none" xmlns="http://www.w3.org/2000/svg">
<g clip-path="url(#clip0_47_253)">
<path d="M24.3806 2.49569L22.6927 2.03442L22.2506 3.65229L23.9385 4.11355L24.3806 2.49569Z" fill="black"/>
<path d="M23.479 5.80208L21.7911 5.34082L21.33 7.02789L23.018 7.48915L23.479 5.80208Z" fill="black"/>
<path d="M27.8587 24.1793V24.1836L23.5331 22.9491L21.827 11.8576L22.4394 9.59946L20.7517 9.13925L20.0377 11.757L21.9713 24.3228L27.374 25.867C28.0109 26.0494 28.3793 26.7136 28.1969 27.3504C28.0496 27.8646 27.5798 28.2191 27.045 28.2197H20.3431C19.339 28.2196 18.4138 27.6754 17.9257 26.7979L16.9037 24.9606C15.2033 21.8862 12.5824 19.4218 9.40911 17.9139L4.70725 15.6671C4.09638 15.0709 3.75133 14.2537 3.75007 13.4001C3.7352 11.6908 5.04896 10.2629 6.7537 10.1358L9.72846 9.90656L12.4477 2.65865L10.809 2.0462L8.48256 8.24769L6.61809 8.39118C3.99784 8.58 1.97588 10.7732 2.00022 13.4001C1.9994 14.7855 2.58336 16.1069 3.60834 17.039L8.65492 19.4888C11.5012 20.8399 13.8523 23.0491 15.3779 25.8058L16.3998 27.6431C17.1962 29.0763 18.707 29.9651 20.3466 29.9652H27.0485C28.6774 29.9663 29.9989 28.6468 30 27.0179C30.0009 25.6995 29.1267 24.5405 27.8587 24.1793Z" fill="black"/>
<path d="M11.6245 10.652V12.4019C11.6245 13.8515 12.7996 15.0267 14.2492 15.0267H15.9991V13.2768H14.2492C13.766 13.2768 13.3743 12.8851 13.3743 12.4019V10.652H11.6245Z" fill="black"/>
</g>
<defs>
<clipPath id="clip0_47_253">
<rect width="28" height="28" fill="white" transform="translate(2 2)"/>
</clipPath>
</defs>
</svg>
