<svg width="32" height="32" viewBox="0 0 32 32" fill="none" xmlns="http://www.w3.org/2000/svg">
<g id="&#195;&#176;_there_&#203;&#136;&#195;&#176;&#201;&#155;&#201;&#153;r">
<g id="hand-point-right 1" clip-path="url(#clip0_10_1003)">
<path id="Vector" d="M19.5001 23.4375C19.5001 22.9087 19.365 22.4116 19.1287 21.9768C20.3581 21.5781 21.2495 20.4242 21.2495 19.0625C21.2495 18.5337 21.1144 18.0366 20.8782 17.6018C22.1076 17.2031 22.999 16.0492 22.999 14.6875C22.999 14.2177 22.8923 13.7731 22.7031 13.375H26.9362C28.6261 13.375 29.9987 12.0023 29.9987 10.3125C29.9987 8.62266 28.6261 7.25 26.9362 7.25H15.0745C14.3253 6.18797 13.0511 5.5 11.6237 5.5H8.38624C6.86483 5.5 5.46648 6.32031 4.73804 7.64375L2.90218 10.9742C2.31013 12.0461 1.99841 13.2547 1.99841 14.4797V19.2413C1.99841 23.2084 5.10302 26.4655 8.92185 26.5038L16.4359 26.5C18.1258 26.5 19.4984 25.1273 19.4984 23.4375H19.5001ZM18.1876 17.75C18.9149 17.75 19.5001 18.3352 19.5001 19.0625C19.5001 19.7877 18.9122 20.375 18.1876 20.375H14.6876C13.9629 20.375 13.3751 19.7877 13.3751 19.0625C13.3751 18.3352 13.9657 17.75 14.693 17.75H18.1876ZM19.9376 13.375C20.6649 13.375 21.2501 13.9602 21.2501 14.6875C21.2501 15.4148 20.6649 16 19.9376 16H15.5133C15.8141 15.4805 16.0001 14.8898 16.0001 14.25V13.375H19.9376ZM26.9376 9C27.6649 9 28.2501 9.58516 28.2501 10.3125C28.2501 11.0377 27.6622 11.625 26.9376 11.625H16.0001V9.875C16.0001 9.57422 15.9672 9.28437 15.9126 9H26.9376ZM9.00005 24.75C6.00482 24.75 3.75005 22.1392 3.75005 19.2375V14.4797C3.75005 13.55 3.9874 12.6312 4.43638 11.8164L6.27279 8.48703C6.69279 7.72578 7.50162 7.25 8.38755 7.25H11.6251C13.0743 7.25 14.2501 8.42578 14.2501 9.875V14.25C14.2501 15.2158 13.4647 16 12.5001 16C11.5354 16 10.7501 15.218 10.7501 14.25V11.625C10.7501 11.1437 10.3563 10.75 9.87505 10.75C9.3938 10.75 9.00005 11.1437 9.00005 11.625V14.25C9.00005 15.9956 10.289 17.435 11.9636 17.6959C11.7563 18.1109 11.6251 18.5211 11.6251 19.0625C11.6251 19.6526 11.8028 20.1978 12.0937 20.6648C11.0448 21.1516 10.3121 22.207 10.3121 23.4375C10.3121 23.9089 10.4281 24.3508 10.6189 24.75H8.99907H9.00005ZM13.3751 24.75C12.6504 24.75 12.0626 24.1627 12.0626 23.4375C12.0626 22.7129 12.6515 22.125 13.3761 22.125H16.4376C17.1622 22.125 17.7501 22.7129 17.7501 23.4375C17.7501 24.1627 17.1622 24.75 16.4376 24.75H13.3751Z" fill="black"/>
</g>
</g>
<defs>
<clipPath id="clip0_10_1003">
<rect width="28" height="28" fill="white" transform="translate(2 2)"/>
</clipPath>
</defs>
</svg>
