<svg width="32" height="32" viewBox="0 0 32 32" fill="none" xmlns="http://www.w3.org/2000/svg">
<g id="&#197;&#139;_ring_&#203;&#136;r&#201;&#170;&#197;&#139;">
<g id="ring-diamond 1" clip-path="url(#clip0_10_983)">
<path id="Vector" d="M18.5625 1.99987C18.8742 1.99987 19.1641 2.16776 19.3227 2.44065L21.0727 5.50261C21.2367 5.79026 21.2258 6.14628 21.0398 6.42245L18.9398 9.57355C23.0469 11.0009 26 14.8564 26 19.4993C26 25.2962 21.2969 29.9993 15.5 29.9993C9.70094 29.9993 5 25.2962 5 19.4993C5 14.8564 7.95148 11.0009 12.0602 9.57355L9.95961 6.42245C9.77586 6.14628 9.76328 5.79026 9.92789 5.50261L11.6773 2.44011C11.7867 2.16722 12.1258 1.99878 12.4375 1.99878H18.5625V1.99987ZM17.1352 9.12565L19.2844 5.90183L18.0539 3.74987H12.9461L11.7156 5.90183L13.8648 9.12565C14.3953 9.04362 14.9422 8.99987 15.5 8.99987C16.0578 8.99987 16.6047 9.04362 17.1352 9.12565ZM15.5 10.7499C10.6656 10.7499 6.75 14.6655 6.75 19.4999C6.75 24.3342 10.6656 28.2499 15.5 28.2499C20.3344 28.2499 24.25 24.3342 24.25 19.4999C24.25 14.6655 20.3344 10.7499 15.5 10.7499Z" fill="black"/>
</g>
</g>
<defs>
<clipPath id="clip0_10_983">
<rect width="21" height="28" fill="white" transform="translate(5 2)"/>
</clipPath>
</defs>
</svg>
