<svg width="32" height="32" viewBox="0 0 32 32" fill="none" xmlns="http://www.w3.org/2000/svg">
<g clip-path="url(#clip0_3_257)">
<path d="M24.4097 18.5815C24.2715 18.5816 24.1364 18.5414 24.0208 18.4657C23.9052 18.3901 23.8142 18.2824 23.7589 18.1558C23.7037 18.0291 23.6866 17.8892 23.7098 17.753C23.733 17.6168 23.7954 17.4903 23.8894 17.3891C23.9741 17.2978 25.9946 15.1515 29.2889 15.1515C29.477 15.1515 29.6575 15.2262 29.7905 15.3593C29.9236 15.4923 29.9983 15.6728 29.9983 15.8609C29.9983 16.0491 29.9236 16.2296 29.7905 16.3626C29.6575 16.4957 29.477 16.5704 29.2889 16.5704C26.6331 16.5704 24.9465 18.336 24.93 18.354C24.8637 18.4259 24.7833 18.4832 24.6937 18.5224C24.6042 18.5615 24.5074 18.5817 24.4097 18.5815Z" fill="black"/>
<path d="M11.9998 21.3985C11.8749 21.3984 11.7523 21.3653 11.6443 21.3025C11.5363 21.2398 11.4468 21.1497 11.3848 21.0413C11.3228 20.9329 11.2905 20.81 11.2912 20.6852C11.2919 20.5603 11.3255 20.4378 11.3887 20.3301C13.2177 17.2113 15.4355 15.4381 17.9796 15.0588C21.7468 14.4978 24.7644 17.2321 24.8912 17.3489C25.0295 17.4765 25.1115 17.6538 25.1192 17.8419C25.1268 18.0299 25.0594 18.2133 24.9318 18.3516C24.8043 18.49 24.6269 18.572 24.4389 18.5796C24.2509 18.5873 24.0675 18.5199 23.9291 18.3923C23.9041 18.3691 21.2687 15.9976 18.1783 16.464C16.0839 16.7799 14.2114 18.3223 12.6123 21.048C12.5497 21.1548 12.4602 21.2434 12.3527 21.3048C12.2453 21.3663 12.1236 21.3986 11.9998 21.3985Z" fill="black"/>
<path d="M20.4712 26.2588C19.5574 26.2588 18.5226 26.1065 17.3789 25.7082C17.2012 25.6461 17.0555 25.5159 16.9738 25.3463C16.8921 25.1767 16.8812 24.9816 16.9433 24.8039C17.0055 24.6262 17.1357 24.4805 17.3053 24.3988C17.4748 24.3171 17.6699 24.3061 17.8476 24.3683C22.3806 25.9461 24.8216 23.0563 24.8476 23.0269C24.9051 22.9503 24.9774 22.8861 25.0603 22.8382C25.1432 22.7903 25.235 22.7597 25.33 22.7482C25.4251 22.7367 25.5215 22.7445 25.6135 22.7713C25.7054 22.798 25.791 22.8431 25.865 22.9038C25.9391 22.9645 26.0001 23.0396 26.0444 23.1245C26.0886 23.2094 26.1153 23.3024 26.1226 23.3978C26.13 23.4933 26.118 23.5893 26.0873 23.68C26.0566 23.7707 26.0078 23.8542 25.944 23.9256C25.9118 23.9644 25.1432 24.8881 23.6997 25.5588C22.6877 26.0255 21.5856 26.2645 20.4712 26.2588Z" fill="black"/>
<path d="M14.1462 15.2494C14.0859 15.2492 14.0258 15.2416 13.9674 15.2266C13.8772 15.2032 13.7925 15.1623 13.7181 15.1062C13.6438 15.05 13.5812 14.9798 13.534 14.8994C13.4868 14.8191 13.4558 14.7303 13.443 14.638C13.4301 14.5457 13.4355 14.4518 13.4589 14.3616L15.2562 7.44861C15.2758 7.35454 15.3144 7.26544 15.3694 7.18671C15.4245 7.10797 15.495 7.04125 15.5766 6.99058C15.6583 6.93991 15.7494 6.90635 15.8444 6.89194C15.9394 6.87752 16.0363 6.88256 16.1293 6.90674C16.2223 6.93092 16.3094 6.97374 16.3854 7.03259C16.4613 7.09145 16.5245 7.16512 16.5711 7.24914C16.6177 7.33316 16.6468 7.42577 16.6566 7.52136C16.6663 7.61695 16.6566 7.71353 16.6279 7.80523L14.8306 14.7182C14.7912 14.8699 14.7027 15.0043 14.5789 15.1004C14.455 15.1965 14.3029 15.2488 14.1462 15.2494Z" fill="black"/>
<path d="M18.4356 30.0014C14.8315 30.0014 11.8206 28.9259 9.88373 27.9908C8.55401 27.3542 7.14803 26.891 5.70028 26.6126C4.05103 26.2905 2.89366 25.5616 2.354 24.5045C1.80441 23.429 1.899 22.0687 2.63447 20.4615C4.33055 15.2702 8.27893 9.02269 11.2965 4.6912C11.7102 4.09829 12.2436 3.59873 12.8624 3.22479C13.4812 2.85085 14.1715 2.61084 14.8887 2.52026L18.8409 2.02222C19.5508 1.93229 20.2681 2.11898 20.8441 2.54359C21.42 2.9682 21.8105 3.59816 21.9346 4.30289L22.2865 6.296C22.3576 6.69934 22.3275 7.11401 22.1989 7.50286C22.0704 7.89171 21.8474 8.2426 21.5499 8.52409C21.2524 8.80559 20.8897 9.00889 20.4944 9.1158C20.099 9.22271 19.6833 9.22989 19.2845 9.13668L15.7789 8.31796C15.5956 8.27519 15.4368 8.16136 15.3375 8.00152C15.2381 7.84169 15.2064 7.64893 15.2491 7.46566C15.2919 7.2824 15.4057 7.12363 15.5656 7.02428C15.7254 6.92494 15.9182 6.89316 16.1014 6.93593L19.6071 7.75465C19.7775 7.79496 19.9553 7.79229 20.1244 7.74688C20.2935 7.70147 20.4487 7.61473 20.576 7.49448C20.7033 7.37422 20.7987 7.22422 20.8536 7.05795C20.9086 6.89169 20.9213 6.71437 20.8908 6.54195L20.5389 4.54884C20.4778 4.20276 20.2859 3.89344 20.003 3.68495C19.7201 3.47645 19.3679 3.38475 19.0192 3.42884L15.0656 3.92593C14.5454 3.99174 14.0447 4.16597 13.5959 4.43734C13.1472 4.70872 12.7604 5.07121 12.4605 5.50141C9.49022 9.76573 5.60616 15.9068 3.97062 20.9392C3.96206 20.9662 3.95179 20.9926 3.93988 21.0182C3.38035 22.2267 3.27204 23.1821 3.61778 23.8589C4.04015 24.6857 5.1313 25.0555 5.97272 25.2197C7.53978 25.5214 9.06163 26.0231 10.501 26.7124C13.7503 28.2817 20.265 30.2776 27.3861 26.0138C27.466 25.9659 27.5546 25.9343 27.6468 25.9206C27.7389 25.907 27.8329 25.9117 27.9233 25.9344C28.0136 25.9571 28.0986 25.9973 28.1734 26.0529C28.2482 26.1084 28.3114 26.1781 28.3592 26.2581C28.4071 26.338 28.4387 26.4266 28.4524 26.5187C28.466 26.6109 28.4613 26.7049 28.4386 26.7952C28.416 26.8856 28.3757 26.9706 28.3202 27.0454C28.2646 27.1202 28.1949 27.1833 28.1149 27.2312C24.6712 29.2919 21.3581 30.0014 18.4356 30.0014Z" fill="black"/>
</g>
<defs>
<clipPath id="clip0_3_257">
<rect width="28" height="28" fill="white" transform="translate(2 2)"/>
</clipPath>
</defs>
</svg>
