<svg width="32" height="32" viewBox="0 0 32 32" fill="none" xmlns="http://www.w3.org/2000/svg">
<g clip-path="url(#clip0_47_155)">
<path d="M29.2283 8.60418C28.8105 6.9676 28.2571 5.51439 27.6277 4.40161C26.8869 3.09185 26.0739 2.31058 25.2113 2.07942C23.3909 1.59199 20.9304 3.46082 19.6256 4.61839C17.881 6.16621 16.2587 8.12222 15.0415 10.1243C14.5075 9.34186 13.9568 8.65712 13.4115 8.10204C12.357 7.02864 11.3696 6.48439 10.4766 6.48439C9.58352 6.48439 8.59608 7.02864 7.54154 8.10204C6.64559 9.01401 5.73488 10.2745 4.90779 11.7471C3.08702 14.9893 2 18.644 2 21.5234C2 24.5763 2.85334 26.8381 4.53646 28.246C5.9474 29.4263 7.89039 30 10.4766 30C13.0627 30 15.0057 29.4263 16.4167 28.246C17.4641 27.3699 18.19 26.1628 18.5891 24.6403C18.7643 24.6937 18.9431 24.745 19.1251 24.7938C20.2841 25.1044 21.3413 25.2598 22.3084 25.2598C23.4256 25.2598 24.4225 25.0523 25.3167 24.637C27.3069 23.7127 28.7165 21.7488 29.5067 18.8C30.2519 16.0185 30.1478 12.2071 29.2283 8.60418ZM20.7145 5.84563C21.2179 5.399 21.6906 5.0274 22.1261 4.72378C21.7688 5.28481 21.3949 5.92253 21.0154 6.62067C19.5725 9.27449 18.2975 12.3181 17.5382 14.9016C17.1209 13.8339 16.6197 12.7699 16.0453 11.7471C16.0374 11.733 16.0293 11.7192 16.0213 11.7051C17.1741 9.61617 18.9039 7.45203 20.7145 5.84563ZM7.4081 27.9542C4.82477 27.1383 3.64062 25.0665 3.64062 21.5234C3.64062 18.9127 4.64906 15.5584 6.3383 12.5505C6.92778 11.5009 7.55581 10.5779 8.18062 9.83799C7.98084 10.4721 7.78484 11.1847 7.59896 11.9569C6.83257 15.1411 6.375 18.7174 6.375 21.5234C6.375 24.4687 6.71313 26.5727 7.4081 27.9542ZM12.0667 27.2428C11.5596 28.2325 10.9505 28.3594 10.4766 28.3594C10.0026 28.3594 9.39348 28.2325 8.88641 27.2428C8.30859 26.115 8.01562 24.1907 8.01562 21.5234C8.01562 19.0069 8.39548 15.8735 9.05781 12.9264C9.5874 10.5701 10.1245 9.11639 10.4766 8.44832C10.8286 9.11639 11.3657 10.5701 11.8953 12.9264C12.5576 15.8735 12.9375 19.0069 12.9375 21.5234C12.9375 24.1907 12.6445 26.115 12.0667 27.2428ZM13.545 27.9542C14.24 26.5727 14.5781 24.4687 14.5781 21.5234C14.5781 18.7174 14.1206 15.1411 13.3542 11.9569C13.1683 11.1846 12.9723 10.4721 12.7725 9.83799C13.3973 10.5779 14.0253 11.5009 14.6148 12.5505C16.3041 15.5584 17.3125 18.9127 17.3125 21.5234C17.3125 25.0665 16.1284 27.1383 13.545 27.9542ZM21.3746 22.5421C20.6288 23.3667 20.0077 23.3317 19.5497 23.209C19.2825 23.1374 19.0688 23.0275 18.8928 22.8716C18.9328 22.4409 18.9531 21.9916 18.9531 21.5234C18.9531 20.4129 18.7908 19.1867 18.4876 17.9136C18.6045 17.3124 18.7569 16.6596 18.9419 15.9691C19.5931 13.5384 20.7711 10.61 22.1737 7.93475C23.2949 5.79598 24.1901 4.53073 24.7031 3.97647C24.8702 4.71289 25.0128 6.25612 24.9144 8.66915C24.7915 11.6872 24.3473 14.8123 23.696 17.2431C23.0057 19.8193 22.2246 21.6022 21.3746 22.5421ZM27.9219 18.3753C27.0049 21.7977 25.3249 23.4925 22.6184 23.6119C23.6472 22.4574 24.5185 20.5126 25.2807 17.6677C26.007 14.9573 26.4906 11.3844 26.5745 8.1103C26.5948 7.31629 26.5899 6.5773 26.5611 5.91301C26.973 6.78943 27.3408 7.84359 27.6385 9.00996C28.4917 12.3525 28.5976 15.8535 27.9219 18.3753Z" fill="black"/>
</g>
<defs>
<clipPath id="clip0_47_155">
<rect width="28" height="28" fill="white" transform="translate(2 2)"/>
</clipPath>
</defs>
</svg>
