<svg width="32" height="32" viewBox="0 0 32 32" fill="none" xmlns="http://www.w3.org/2000/svg">
<path d="M26.1386 2H5.86139C5.5594 2 5.31451 2.24484 5.31451 2.54688V13.7491C5.31451 14.0511 5.5594 14.2959 5.86139 14.2959C6.16337 14.2959 6.40826 14.0511 6.40826 13.7491V3.09375H25.5917V28.9062H6.40826V12.9375C6.40826 12.6355 6.16337 12.3906 5.86139 12.3906C5.5594 12.3906 5.31451 12.6355 5.31451 12.9375V29.4531C5.31451 29.7552 5.5594 30 5.86139 30H26.1386C26.4406 30 26.6855 29.7552 26.6855 29.4531V2.54688C26.6855 2.24484 26.4406 2 26.1386 2Z" fill="black"/>
<path d="M8.36399 27.3409L23.6366 27.3408C23.9386 27.3408 24.1835 27.096 24.1835 26.794V23.6894V19.4107V5.21269C24.1835 4.91065 23.9386 4.66581 23.6366 4.66581L8.36399 4.66565C8.06594 4.66565 7.81689 4.91475 7.81689 5.21269V26.794C7.81689 27.092 8.06578 27.3409 8.36399 27.3409ZM15.2296 5.75956L15.543 7.43202C14.7084 7.51088 13.8913 7.76829 13.1537 8.1645C12.3145 8.61524 11.3355 9.44085 10.7271 10.3688C10.6242 10.5259 10.6769 10.7447 10.7916 10.9011C11.9916 12.5374 13.8905 13.7238 15.959 13.7459L17.4002 16.0766H16.1491C15.8471 16.0766 15.6022 16.3215 15.6022 16.6235V20.0044H13.0436C12.7158 20.0044 12.4555 20.3044 12.5023 20.6291C12.507 20.6619 12.6233 21.4397 13.119 22.2151C13.5369 22.8686 14.2958 23.633 15.6044 23.8023V26.2472H8.91086V5.75956H15.2296ZM16.2786 12.6525C14.5575 12.6041 13.0471 11.929 11.9258 10.5774C12.5171 9.86348 13.2582 9.28182 14.1111 8.91476C14.0641 9.08265 14.0386 9.25896 14.0386 9.44091C14.0386 10.559 14.9854 11.4687 16.1491 11.4687C17.3128 11.4687 18.2595 10.559 18.2595 9.44091C18.2595 9.26109 18.2348 9.08681 18.1888 8.92072C18.8813 9.21707 19.6619 9.72118 20.3724 10.5776C18.7266 12.5643 16.7251 12.6578 16.2786 12.6525ZM16.1491 8.5069C16.7097 8.5069 17.1658 8.92592 17.1658 9.44091C17.1658 9.9559 16.7097 10.3749 16.1491 10.3749C15.5885 10.3749 15.1324 9.9559 15.1324 9.44091C15.1324 8.92592 15.5885 8.5069 16.1491 8.5069ZM23.0897 23.3122C22.4644 23.6163 21.6777 23.7333 21.2463 23.0228C20.7675 22.2337 19.8404 21.8036 18.9283 21.9497V20.8732C19.3346 20.5054 19.9593 20.4669 20.4087 20.7794C21.204 21.332 22.3158 21.2828 23.0897 20.7163L23.0897 23.3122ZM23.0897 19.1387C22.9407 19.2668 22.8087 19.4132 22.6964 19.5768C22.3413 20.0919 21.5471 20.2384 21.0329 19.8812C20.0642 19.2078 18.7046 19.3988 17.9583 20.3105C17.8782 20.4082 17.8346 20.5306 17.8346 20.6569V22.7247C17.8346 23.144 18.31 23.4108 18.6679 23.1905C19.2257 22.8475 19.9729 23.0326 20.3112 23.5903C20.8695 24.5096 22.089 24.9024 23.0897 24.5334V26.2471H16.6982V23.2896C16.6982 22.9876 16.4533 22.7428 16.1513 22.7428C14.6848 22.7428 14.0385 21.7707 13.767 21.0981H16.1491C16.4511 21.0981 16.696 20.8533 16.696 20.5512V17.1703H18.3814C18.7978 17.1703 19.067 16.6923 18.8465 16.3359L17.1945 13.6644C18.309 13.4737 20.0741 12.8542 21.5065 10.9008C21.6477 10.7083 21.6477 10.4466 21.5065 10.2541C19.8118 7.94302 17.6517 7.49901 16.6541 7.42338L16.3424 5.75956H23.0897L23.0897 19.1387Z" fill="black"/>
<path d="M5.40648 16.531C5.5286 16.7091 5.75221 16.8026 5.96478 16.7631C6.2275 16.7143 6.42186 16.4685 6.40764 16.2007C6.38227 15.7228 5.76047 15.5021 5.44815 15.8709C5.29278 16.0543 5.27249 16.3302 5.40648 16.531Z" fill="black"/>
</svg>
