<svg width="32" height="32" viewBox="0 0 32 32" fill="none" xmlns="http://www.w3.org/2000/svg">
<g clip-path="url(#clip0_53_523)">
<path d="M28.5278 12.6094H21.9997C21.3092 12.6087 20.6472 12.3341 20.1589 11.8459C19.6706 11.3576 19.3958 10.6957 19.395 10.0052V3.47656C19.395 3.08495 19.5505 2.70938 19.8274 2.43248C20.1043 2.15557 20.4799 2 20.8715 2C23.2918 2.00621 25.6111 2.97041 27.3225 4.6818C29.0339 6.39319 29.9981 8.71255 30.0043 11.1328C30.0043 11.5244 29.8488 11.9 29.5719 12.1769C29.2949 12.4538 28.9194 12.6094 28.5278 12.6094ZM21.0356 3.64062V10.0052C21.036 10.2607 21.1378 10.5056 21.3185 10.6862C21.4992 10.8669 21.7442 10.9685 21.9997 10.9688H28.3621C28.2757 6.96727 25.0371 3.72867 21.0356 3.64062Z" fill="black"/>
<path d="M10.0002 12.6094H3.47217C3.08056 12.6094 2.70499 12.4538 2.42808 12.1769C2.15117 11.9 1.99561 11.5244 1.99561 11.1328C2.00181 8.71255 2.96601 6.39319 4.6774 4.6818C6.38879 2.97041 8.70815 2.00621 11.1284 2C11.52 2 11.8956 2.15557 12.1725 2.43248C12.4494 2.70938 12.605 3.08495 12.605 3.47656V10.0052C12.6041 10.6957 12.3294 11.3576 11.8411 11.8459C11.3528 12.3341 10.6907 12.6087 10.0002 12.6094ZM3.64061 10.9688H10.0002C10.2557 10.9685 10.5007 10.8669 10.6815 10.6862C10.8622 10.5056 10.9639 10.2607 10.9644 10.0052V3.64062C6.96287 3.72867 3.72428 6.96727 3.64061 10.9688Z" fill="black"/>
<path d="M16 23.5469C15.7824 23.5469 15.5738 23.4604 15.42 23.3066C15.2661 23.1528 15.1797 22.9441 15.1797 22.7266V10.668C15.1797 10.4504 15.2661 10.2418 15.42 10.0879C15.5738 9.93408 15.7824 9.84766 16 9.84766C16.2176 9.84766 16.4262 9.93408 16.58 10.0879C16.7339 10.2418 16.8203 10.4504 16.8203 10.668V22.7266C16.8203 22.9441 16.7339 23.1528 16.58 23.3066C16.4262 23.4604 16.2176 23.5469 16 23.5469Z" fill="black"/>
<path d="M15.9251 23.5468C15.8649 23.5468 15.8049 23.5402 15.7462 23.5272L8.46185 21.9008C7.8056 21.8373 7.28115 21.2368 7.25107 20.4964L6.04685 11.9028C6.01748 11.6877 6.07456 11.4697 6.20558 11.2967C6.3366 11.1236 6.53089 11.0095 6.74587 10.9794C6.96085 10.9493 7.179 11.0056 7.35252 11.1361C7.52605 11.2665 7.64079 11.4604 7.67162 11.6753L8.88185 20.3159L15.9185 21.8843L22.4613 20.3154C22.4613 20.299 22.4662 20.282 22.4695 20.2656L24.2315 11.625C24.2516 11.518 24.2928 11.4161 24.3526 11.3252C24.4124 11.2343 24.4897 11.1562 24.5801 11.0955C24.6704 11.0348 24.7718 10.9926 24.8786 10.9715C24.9854 10.9504 25.0952 10.9507 25.2019 10.9725C25.3085 10.9943 25.4097 11.037 25.4997 11.0983C25.5896 11.1596 25.6664 11.2381 25.7257 11.3294C25.785 11.4207 25.8255 11.5228 25.8449 11.6299C25.8644 11.737 25.8623 11.8468 25.8388 11.9531L24.0937 20.5265C24.0516 21.25 23.5387 21.8335 22.8906 21.8997L16.1165 23.5244C16.0537 23.5393 15.9895 23.5468 15.9251 23.5468Z" fill="black"/>
<path d="M26.1719 30.0273H5.82812C5.43652 30.0273 5.06095 29.8718 4.78404 29.5948C4.50713 29.3179 4.35156 28.9424 4.35156 28.5508C4.35197 28.4576 4.36805 28.3651 4.39914 28.2773L7.29758 20.1562C7.37605 19.9593 7.52774 19.8003 7.72083 19.7128C7.91391 19.6252 8.1334 19.6158 8.33327 19.6865C8.53314 19.7573 8.69787 19.9026 8.79291 20.0921C8.88794 20.2817 8.90591 20.5006 8.84305 20.7031L6.10156 28.3867H25.8607L22.522 20.7578C22.4428 20.5599 22.4436 20.3389 22.5245 20.1416C22.6054 19.9443 22.7599 19.7863 22.9552 19.701C23.1506 19.6157 23.3715 19.6098 23.5712 19.6845C23.7709 19.7593 23.9336 19.9089 24.0248 20.1015L27.5795 28.2226C27.6248 28.3261 27.6483 28.4378 27.6484 28.5508C27.6484 28.9424 27.4929 29.3179 27.216 29.5948C26.9391 29.8718 26.5635 30.0273 26.1719 30.0273Z" fill="black"/>
<path d="M15.9453 11.2559C14.7334 11.2559 13.4925 10.7757 12.541 9.93898C11.5227 9.0432 10.9622 7.87508 10.9622 6.64844C10.9622 6.43088 11.0486 6.22223 11.2024 6.06839C11.3563 5.91455 11.5649 5.82812 11.7825 5.82812C12 5.82812 12.2087 5.91455 12.3625 6.06839C12.5164 6.22223 12.6028 6.43088 12.6028 6.64844C12.6028 7.39656 12.9654 8.12773 13.6243 8.70687C14.2833 9.28602 15.1266 9.61523 15.9453 9.61523C16.764 9.61523 17.6543 9.27234 18.3286 8.69813C19.0149 8.11461 19.3928 7.38562 19.3928 6.64844C19.3928 6.43088 19.4792 6.22223 19.633 6.06839C19.7869 5.91455 19.9955 5.82812 20.2131 5.82812C20.4307 5.82812 20.6393 5.91455 20.7931 6.06839C20.947 6.22223 21.0334 6.43088 21.0334 6.64844C21.0334 7.87508 20.4504 9.04703 19.3928 9.94773C18.4172 10.779 17.161 11.2559 15.9453 11.2559Z" fill="black"/>
</g>
<defs>
<clipPath id="clip0_53_523">
<rect width="28" height="28" fill="white" transform="translate(2 2)"/>
</clipPath>
</defs>
</svg>
