<svg width="32" height="32" viewBox="0 0 32 32" fill="none" xmlns="http://www.w3.org/2000/svg">
<g clip-path="url(#clip0_3_232)">
<path d="M11.6068 12.3987H11.6681C11.6301 12.8701 12.0131 13.2794 12.4854 13.2773C12.9577 13.2794 13.3408 12.8701 13.3028 12.3987H14.2427C15.3299 12.3583 15.3291 10.798 14.2427 10.7581H11.6068C10.5196 10.7984 10.5204 12.3587 11.6068 12.3987Z" fill="black"/>
<path d="M17.7573 12.3987H18.6972C18.6593 12.8701 19.0423 13.2794 19.5146 13.2773C19.9869 13.2794 20.37 12.8701 20.332 12.3987H20.3932C21.4804 12.3583 21.4796 10.798 20.3932 10.7581H17.7573C16.6701 10.7984 16.6709 12.3587 17.7573 12.3987Z" fill="black"/>
<path d="M24.7281 18.2048V17.6156C27.7093 17.2159 30 14.6656 30 11.5784C30 11.1253 29.6327 10.7581 29.1797 10.7581H24.7281V10.6997C24.2879 -0.866379 7.7079 -0.857573 7.27193 10.6997V10.7581H2.82031C2.36728 10.7581 2 11.1253 2 11.5784C2 14.6656 4.29075 17.2159 7.27188 17.6156V18.2048C5.71809 19.4464 4.42769 21.024 3.52529 22.7902C2.51319 24.7715 2 26.9116 2 29.1512C2 29.6042 2.36728 29.9715 2.82031 29.9715H29.1797C29.6327 29.9715 30 29.6042 30 29.1512C30 26.9116 29.4868 24.7715 28.4747 22.7903C27.5723 21.024 26.2819 19.4464 24.7281 18.2048ZM24.7281 12.3986H28.2846C28.0643 13.5892 27.0585 15.5236 24.7281 15.955V12.3986ZM8.9125 10.6996C9.26988 1.30767 22.7334 1.31483 23.0874 10.6996V18.6075C23.0874 20.5775 21.4846 22.1804 19.5145 22.1804H12.4854C10.5153 22.1804 8.9125 20.5775 8.9125 18.6075V10.6996ZM3.71544 12.3986H7.27188V15.955C4.94153 15.5236 3.93572 13.5892 3.71544 12.3986ZM3.66687 28.3309C3.7751 26.6506 4.21763 25.0414 4.98632 23.5367C5.62595 22.2846 6.48634 21.1399 7.51091 20.1697C8.17613 22.2837 10.1546 23.821 12.4854 23.821H19.5145C21.8454 23.821 23.8238 22.2837 24.489 20.1697C25.5136 21.1399 26.374 22.2846 27.0136 23.5367C27.7823 25.0414 28.2248 26.6506 28.3331 28.3309H3.66687Z" fill="black"/>
<path d="M12.5438 16.8502C12.5438 17.3033 12.911 17.6705 13.3641 17.6705H18.636C19.7232 17.6302 19.7224 16.0699 18.636 16.0299H13.3641C12.911 16.0299 12.5438 16.3971 12.5438 16.8502Z" fill="black"/>
</g>
<defs>
<clipPath id="clip0_3_232">
<rect width="28" height="28" fill="white" transform="translate(2 2)"/>
</clipPath>
</defs>
</svg>
