<svg width="32" height="32" viewBox="0 0 32 32" fill="none" xmlns="http://www.w3.org/2000/svg">
<g clip-path="url(#clip0_47_152)">
<path d="M14.6406 6H4.70312C4.31481 6 4 6.31481 4 6.70312V16.5938C4 16.9821 4.31481 17.2969 4.70312 17.2969H14.6406C15.0289 17.2969 15.3438 16.9821 15.3438 16.5938V6.70312C15.3438 6.31481 15.0289 6 14.6406 6ZM13.9375 15.8906H5.40625V7.40625H13.9375V15.8906Z" fill="black"/>
<path d="M17.4531 10.2656H20.2656C21.4287 10.2656 22.375 11.2119 22.375 12.375V14.4844L21.5312 13.3594C21.2982 13.0487 20.8575 12.9858 20.5469 13.2188C20.2362 13.4518 20.1732 13.8925 20.4062 14.2031L22.5156 17.0156C22.7969 17.3903 23.3607 17.3884 23.6406 17.0156L25.75 14.2031C25.983 13.8925 25.92 13.4518 25.6094 13.2188C25.2988 12.9857 24.858 13.0488 24.625 13.3594L23.7812 14.4844V12.375C23.7812 10.4365 22.2041 8.85938 20.2656 8.85938H17.4531C17.0648 8.85938 16.75 9.17419 16.75 9.5625C16.75 9.95081 17.0648 10.2656 17.4531 10.2656Z" fill="black"/>
<path d="M22.375 18.7031C19.2734 18.7031 16.75 21.2265 16.75 24.3281C16.75 27.4556 19.2734 30 22.375 30C25.4766 30 28 27.4556 28 24.3281C28 21.2265 25.4766 18.7031 22.375 18.7031ZM22.375 28.5938C20.0488 28.5938 18.1562 26.6802 18.1562 24.3281C18.1562 22.0019 20.0488 20.1094 22.375 20.1094C24.7012 20.1094 26.5938 22.0019 26.5938 24.3281C26.5938 26.6802 24.7012 28.5938 22.375 28.5938Z" fill="black"/>
<path d="M14.6407 25.7344H11.8282C10.6651 25.7344 9.71879 24.7881 9.71879 23.625V21.5156L10.5625 22.6406C10.7944 22.9498 11.2348 23.0154 11.5469 22.7813C11.8576 22.5482 11.9206 22.1075 11.6875 21.7969L9.57817 18.9844C9.57559 18.981 9.57254 18.978 9.56987 18.9746C9.55918 18.9609 9.54789 18.9477 9.53622 18.9348C9.24376 18.6114 8.73015 18.6295 8.46142 18.9746C8.45879 18.978 8.45575 18.981 8.45317 18.9844L6.34379 21.7969C6.11078 22.1075 6.17378 22.5482 6.48442 22.7813C6.79511 23.0143 7.23587 22.9513 7.46879 22.6406L8.31254 21.5156V23.625C8.31254 25.5635 9.88965 27.1406 11.8282 27.1406H14.6407C15.029 27.1406 15.3438 26.8258 15.3438 26.4375C15.3438 26.0492 15.029 25.7344 14.6407 25.7344Z" fill="black"/>
</g>
<defs>
<clipPath id="clip0_47_152">
<rect width="24" height="24" fill="white" transform="translate(4 6)"/>
</clipPath>
</defs>
</svg>
