<svg width="32" height="32" viewBox="0 0 32 32" fill="none" xmlns="http://www.w3.org/2000/svg">
<g clip-path="url(#clip0_10_1133)">
<path d="M30.1667 28H26V7.16667C26 4.86875 24.1302 3 21.8333 3H10.1667C7.86979 3 6 4.86875 6 7.16667V28H1.83333C1.37292 28 1 28.375 1 28.8333C1 29.2917 1.37292 29.6667 1.83333 29.6667H30.1667C30.6266 29.6667 31 29.2932 31 28.8333C31 28.375 30.625 28 30.1667 28ZM24.3333 28H7.66667V7.16667C7.66667 5.78802 8.78646 4.66667 10.1667 4.66667H21.8333C23.2135 4.66667 24.3333 5.78802 24.3333 7.16667V28ZM21 15.0833C20.3099 15.0833 19.75 15.6432 19.75 16.3333C19.75 17.0234 20.3073 17.5833 21 17.5833C21.6927 17.5833 22.25 17.026 22.25 16.3333C22.25 15.6406 21.6927 15.0833 21 15.0833Z" fill="black"/>
</g>
<defs>
<clipPath id="clip0_10_1133">
<rect width="30" height="26.6667" fill="white" transform="translate(1 3)"/>
</clipPath>
</defs>
</svg>
