<svg width="32" height="32" viewBox="0 0 32 32" fill="none" xmlns="http://www.w3.org/2000/svg">
<path d="M26.5746 5.51306C25.5155 5.51306 24.5658 5.99065 23.9297 6.74184C23.2936 5.99059 22.344 5.51306 21.2848 5.51306H17.8594V8.32033C17.8594 10.291 19.2626 11.9401 21.1224 12.3209V13.3334C21.1224 15.0134 19.7556 16.3803 18.0754 16.3803H2V19.6907C2 24.0356 5.53478 27.5703 9.87965 27.5703H11.9433C12.5599 29.2696 14.1903 30.487 16.0999 30.487H17.987V27.5703H18.8573C23.2022 27.5703 26.737 24.0356 26.737 19.6907V12.3209C28.5967 11.9401 30 10.291 30 8.32033V5.51306H26.5746ZM18.8574 25.9297H17.987V23.487H23.8048C22.6632 24.9713 20.8702 25.9297 18.8574 25.9297ZM28.3594 8.32033C28.3594 9.66942 27.2657 10.7631 25.9166 10.7631H25.0963V19.6907C25.0963 20.4481 24.9605 21.1742 24.7123 21.8464H16.3463V28.8464C14.6751 28.8464 13.3203 27.4916 13.3203 25.8203V23.8334H11.6797V25.9297H9.87965C6.43395 25.9297 3.64062 23.1364 3.64062 19.6907V18.0209H18.0755C20.6644 18.0209 22.763 15.9222 22.763 13.3334V10.7631H21.9427C20.5937 10.7631 19.5001 9.66942 19.5001 8.32039V7.15369H21.2848C22.2909 7.15369 23.1094 7.97219 23.1094 8.97833H24.7501C24.7501 7.97219 25.5686 7.15369 26.5746 7.15369H28.3594V8.32033Z" fill="black"/>
<path d="M7.59637 19.8594H9.237V21.5H7.59637V19.8594Z" fill="black"/>
</svg>
