<svg width="32" height="32" viewBox="0 0 32 32" fill="none" xmlns="http://www.w3.org/2000/svg">
<g clip-path="url(#clip0_10_1173)">
<path d="M28.7443 16.9754C28.693 16.6141 28.409 16.3301 28.0476 16.2787L19.7301 15.095L18.8454 11.793C18.6753 11.158 18.2681 10.6273 17.6989 10.2986L14.7354 8.58774L15.5557 7.16696L17.6869 8.39738C18.0775 8.62296 18.58 8.49117 18.8074 8.09714C19.0339 7.70481 18.8995 7.20311 18.5072 6.97659L12.8241 3.69545C12.4316 3.46883 11.9299 3.60336 11.7035 3.99569C11.477 4.38802 11.6114 4.88972 12.0037 5.11624L14.1349 6.34665L13.3146 7.76743L9.87799 5.7832L8.03442 3.70415C6.91869 2.44601 4.90269 2.65027 4.06198 4.10643L3.33042 5.37349C2.79995 6.29229 2.91649 7.44286 3.62038 8.23665L5.88564 10.7913L3.7204 14.5416C3.04195 15.7167 3.44598 17.2248 4.62116 17.9032L13.8355 23.2231C14.5199 23.6183 15.3607 23.6614 16.0825 23.333L28.2692 17.8386C28.602 17.6886 28.7956 17.3368 28.7443 16.9754ZM4.84784 7.14815C4.61317 6.88357 4.57434 6.49999 4.75115 6.19374L5.48276 4.92669C5.76265 4.44188 6.43509 4.37325 6.80685 4.79259L8.34647 6.52881C8.20773 6.76911 6.96271 8.9256 6.7503 9.29354L4.84784 7.14815ZM15.4055 21.8386C15.165 21.9481 14.8847 21.9344 14.6557 21.8023L5.44141 16.4824C5.04969 16.2562 4.91499 15.7535 5.14113 15.3618L5.55128 14.6514L16.8622 21.1818L15.4055 21.8386ZM18.7047 20.3511L6.37154 13.2307C6.76742 12.545 9.58257 7.66905 9.65268 7.54759C10.3959 7.97672 16.0493 11.2406 16.8785 11.7194C17.0683 11.8289 17.204 12.0058 17.2608 12.2175L18.2856 16.043C18.3707 16.3605 18.6371 16.5966 18.9625 16.6429L25.0183 17.5047L18.7047 20.3511Z" fill="black"/>
<path d="M30.6109 24.2931L28.4602 19.751C28.3245 19.4644 28.0358 19.2817 27.7188 19.2817C27.4018 19.2817 27.1131 19.4644 26.9774 19.751L24.8268 24.2931C24.5721 24.7673 24.4376 25.303 24.4376 25.8441C24.4376 27.6533 25.9095 29.1252 27.7188 29.1252C29.528 29.1252 31 27.6534 31 25.8441C31 25.303 30.8655 24.7673 30.6109 24.2931ZM27.7189 27.4847C26.8142 27.4847 26.0783 26.7487 26.0783 25.8441C26.0783 25.565 26.1456 25.3006 26.2782 25.0583C26.2859 25.0442 26.2932 25.0299 26.3001 25.0154L27.7189 22.0189L29.1376 25.0154C29.1445 25.0299 29.1518 25.0442 29.1595 25.0583C29.2922 25.3006 29.3594 25.565 29.3594 25.8441C29.3594 26.7487 28.6235 27.4847 27.7189 27.4847Z" fill="black"/>
</g>
<defs>
<clipPath id="clip0_10_1173">
<rect width="28" height="28" fill="white" transform="translate(3 2)"/>
</clipPath>
</defs>
</svg>
