<svg width="32" height="32" viewBox="0 0 32 32" fill="none" xmlns="http://www.w3.org/2000/svg">
<g clip-path="url(#clip0_10_1083)">
<path d="M16.618 9.25703C16.4484 9.0875 16.2242 9 16 9C15.7758 9 15.5516 9.0875 15.382 9.25703L10.132 14.507C9.79023 14.8488 9.79023 15.4028 10.132 15.7441C10.4738 16.0853 11.0278 16.0859 11.3691 15.7441L15.125 11.9859V22.125C15.125 22.6084 15.516 23 16 23C16.4834 23 16.875 22.6084 16.875 22.125V11.9859L20.6315 15.7424C20.9733 16.0842 21.5273 16.0842 21.8685 15.7424C22.2098 15.4006 22.2103 14.8466 21.8685 14.5054L16.618 9.25703ZM16 2C8.26719 2 2 8.26719 2 16C2 23.7328 8.26719 30 16 30C23.7328 30 30 23.7328 30 16C30 8.26719 23.7328 2 16 2ZM16 28.25C9.24609 28.25 3.75 22.7539 3.75 16C3.75 9.24609 9.24609 3.75 16 3.75C22.7539 3.75 28.25 9.24609 28.25 16C28.25 22.7539 22.7539 28.25 16 28.25Z" fill="black"/>
</g>
<defs>
<clipPath id="clip0_10_1083">
<rect width="28" height="28" fill="white" transform="translate(2 2)"/>
</clipPath>
</defs>
</svg>
