<svg width="32" height="32" viewBox="0 0 32 32" fill="none" xmlns="http://www.w3.org/2000/svg">
<g clip-path="url(#clip0_47_248)">
<path d="M16 2.22375L2 25.0992H30L16 2.22375ZM10.72 15.742C11.3389 15.411 11.9811 15.1428 12.6434 14.9372C12.4258 15.4078 12.3034 15.9312 12.3034 16.4829C12.3034 17.0347 12.4258 17.5581 12.6434 18.0287C11.9811 17.8231 11.3389 17.555 10.72 17.2238C10.2354 16.9646 9.83839 16.7036 9.5352 16.4829C9.83844 16.2622 10.2354 16.0013 10.72 15.742ZM13.9541 16.4829C13.9541 15.3548 14.8719 14.4371 16 14.4371C17.1281 14.4371 18.0459 15.3548 18.0459 16.4829C18.0459 17.611 17.1281 18.5288 16 18.5288C14.8719 18.5288 13.9541 17.611 13.9541 16.4829ZM19.3566 14.9372C20.0189 15.1428 20.6611 15.4109 21.28 15.742C21.7646 16.0013 22.1616 16.2622 22.4648 16.4829C22.1616 16.7038 21.7646 16.9646 21.28 17.2239C20.6611 17.555 20.0189 17.8232 19.3566 18.0288C19.5742 17.5581 19.6966 17.0347 19.6966 16.483C19.6966 15.9312 19.5743 15.4078 19.3566 14.9372ZM21.1858 13.8594C19.8462 13.2716 18.1037 12.7864 16 12.7864C13.8964 12.7864 12.1539 13.2716 10.8142 13.8594L16 5.38604L21.1858 13.8594ZM8.44424 17.7318C9.66666 18.6498 12.2642 20.1796 16 20.1796C19.7358 20.1796 22.3333 18.6498 23.5558 17.7318L27.0545 23.4485H4.9456L8.44424 17.7318Z" fill="black"/>
<path d="M11.8732 26.7499H13.5239V28.4006H11.8732V26.7499Z" fill="black"/>
<path d="M15.1747 26.7499H16.8254V29.7762H15.1747V26.7499Z" fill="black"/>
<path d="M18.4761 26.7499H20.1269V28.4006H18.4761V26.7499Z" fill="black"/>
<path d="M7.00562 10.6172L7.86894 9.21077L9.27535 10.0741L8.41203 11.4805L7.00562 10.6172Z" fill="black"/>
<path d="M4.10608 12.7098L4.96941 11.3034L7.54783 12.8861L6.6845 14.2925L4.10608 12.7098Z" fill="black"/>
<path d="M3.55054 16.2416L4.41386 14.8352L5.82028 15.6985L4.95695 17.1049L3.55054 16.2416Z" fill="black"/>
<path d="M22.7157 10.0797L24.1221 9.21632L24.9854 10.6227L23.579 11.4861L22.7157 10.0797Z" fill="black"/>
<path d="M24.4423 12.8929L27.0207 11.3102L27.884 12.7166L25.3056 14.2994L24.4423 12.8929Z" fill="black"/>
<path d="M26.1687 15.7068L27.5751 14.8435L28.4384 16.2499L27.032 17.1132L26.1687 15.7068Z" fill="black"/>
</g>
<defs>
<clipPath id="clip0_47_248">
<rect width="28" height="28" fill="white" transform="translate(2 2)"/>
</clipPath>
</defs>
</svg>
