<svg width="32" height="32" viewBox="0 0 32 32" fill="none" xmlns="http://www.w3.org/2000/svg">
<path d="M13.2039 6.95524L16.9057 13.2662C17.271 13.8913 17.936 14.2522 18.6289 14.2522C18.8564 14.2522 19.0872 14.2128 19.3114 14.1319C20.2187 13.8027 20.7595 12.8746 20.596 11.9274L19.3617 4.72509C19.1949 3.7511 18.6076 2.90946 17.7512 2.41454C17.2644 2.13235 16.7208 2.00165 16.1762 2.00165C14.8057 2.00165 13.4292 2.82907 12.9988 4.15579C12.6133 5.08165 12.7051 6.10266 13.2039 6.95469V6.95524ZM14.5946 4.75134C14.8013 4.17985 15.4811 3.75001 16.1762 3.75001C16.437 3.75001 16.6716 3.80907 16.874 3.9261C17.2808 4.16126 17.5587 4.55884 17.6374 5.01766L18.8717 12.22C18.8908 12.3332 18.8252 12.4437 18.7148 12.4836C18.6896 12.4858 18.6661 12.4869 18.6442 12.4869C18.5305 12.4869 18.4588 12.4527 18.4156 12.3786L14.7122 6.06876C14.4787 5.66899 14.4349 5.18774 14.5935 4.75024L14.5946 4.75134Z" fill="black"/>
</svg>
