<svg width="32" height="32" viewBox="0 0 32 32" fill="none" xmlns="http://www.w3.org/2000/svg">
<g clip-path="url(#clip0_47_251)">
<path d="M18.625 8.5625C18.625 7.83516 19.2102 7.25 19.9375 7.25C20.6648 7.25 21.25 7.83516 21.25 8.5625C21.25 9.28984 20.6648 9.875 19.9375 9.875C19.2102 9.875 18.625 9.28984 18.625 8.5625ZM3.55531 10.75H12.5C13.468 10.75 14.25 9.96797 14.25 9V7.6875C14.25 4.54625 16.7984 2 19.9375 2C22.3602 2 24.4328 3.51758 25.2531 5.65531L29.5734 8.25078C29.8414 8.40938 30 8.69375 30 9C30 9.30625 29.8414 9.59062 29.5734 9.74922L25.625 12.1227V12.9375C25.625 17.7828 22.7047 21.95 18.532 23.7711L21.1461 28.7148C21.3758 29.1414 21.2117 29.6719 20.7852 29.8961C20.3586 30.1258 19.7789 29.9617 19.6039 29.5352L16.8586 24.3508C15.8852 24.6133 14.868 24.75 13.8125 24.75H13.8016L15.8961 28.7148C16.1258 29.1414 15.9617 29.6719 15.5352 29.8961C15.1086 30.1258 14.5289 29.9617 14.3539 29.5352L11.7234 24.5641C6.19453 23.5797 2 18.7453 2 12.9375V12.3031C2 11.4445 2.69672 10.75 3.55531 10.75ZM3.75 12.5V12.9375C3.75 18.4937 8.25625 23 13.8125 23C19.3687 23 23.875 18.4937 23.875 12.9375V7.6875C23.875 5.51313 22.1141 3.75 19.9375 3.75C17.7609 3.75 16 5.51313 16 7.6875V9C16 10.9305 14.4305 12.5 12.5 12.5H3.75ZM25.625 7.92266V10.0773L27.4242 9L25.625 7.92266Z" fill="black"/>
</g>
<defs>
<clipPath id="clip0_47_251">
<rect width="28" height="28" fill="white" transform="translate(2 2)"/>
</clipPath>
</defs>
</svg>
