<svg width="32" height="32" viewBox="0 0 32 32" fill="none" xmlns="http://www.w3.org/2000/svg">
<path d="M28.25 18C28.25 24.7539 22.7594 30.2445 16.0055 30.2445C12.2096 30.2445 8.68281 28.5328 6.34219 25.5387C6.04469 25.1591 6.11195 24.609 6.49258 24.3115C6.8743 24.0085 7.42391 24.0791 7.72141 24.4619C9.72734 27.0289 12.7461 28.5 16 28.5C21.7914 28.5 26.5 23.7898 26.5 18C26.5 12.2102 21.7898 7.5 16 7.5C12.232 7.5 8.80859 9.50703 6.93008 12.75H11.625C12.1063 12.75 12.5 13.1437 12.5 13.625C12.5 14.1063 12.1063 14.5 11.625 14.5H4.625C4.14156 14.5 3.75 14.1063 3.75 13.625V6.625C3.75 6.14156 4.14156 5.75 4.625 5.75C5.10844 5.75 5.5 6.14156 5.5 6.625V11.7416C7.70938 8.03977 11.6578 5.75602 16.0055 5.75602C22.7594 5.75602 28.25 11.2461 28.25 18Z" fill="black"/>
</svg>
