<svg width="32" height="32" viewBox="0 0 32 32" fill="none" xmlns="http://www.w3.org/2000/svg">
<g clip-path="url(#clip0_53_538)">
<path d="M12.243 7.50703C12.5875 7.84609 12.5875 8.40391 12.243 8.74297L10.493 10.493C10.1539 10.8375 9.59609 10.8375 9.25703 10.493C8.9125 10.1539 8.9125 9.59609 9.25703 9.25703L11.007 7.50703C11.3461 7.16469 11.9039 7.16469 12.243 7.50703ZM2 16C2 8.26719 8.26719 2 16 2C23.7328 2 30 8.26719 30 16C30 23.7328 23.7328 30 16 30C8.26719 30 2 23.7328 2 16ZM28.1242 17.75C28.2063 17.1758 28.25 16.5961 28.25 16C28.25 9.75469 23.5742 4.59984 17.5367 3.84516L17.2906 4.82078C18.1109 4.61461 18.9914 4.93453 19.4781 5.6575C20.1727 6.67961 19.8062 8.07578 18.7016 8.62812L15.4641 10.2469C15.2562 10.3508 15.125 10.5641 15.125 10.7992C15.125 11.2805 14.9336 11.7398 14.5945 12.0844L13.5719 13.1016C13.4461 13.2273 13.375 13.4023 13.375 13.5773V13.6648C13.375 13.9875 13.6375 14.25 13.9602 14.25C14.1406 14.25 14.3156 14.1625 14.425 14.0148L15.0102 13.2328C15.3602 12.7242 15.9016 12.5 16.4758 12.5C16.9625 12.5 17.4328 12.6914 17.7719 13.0359L17.9305 13.1945C18.0727 13.3367 18.3023 13.3367 18.4445 13.1945L20.2 11.4391C20.9109 10.7281 22.125 11.2313 22.125 12.232V12.7516C22.125 13.0961 22.4039 13.375 22.7484 13.375H22.9508C24.2359 13.375 24.9469 14.857 24.0992 15.8578C23.9461 16.1094 23.9789 16.4813 24.2305 16.6891L25.1 17.4109C25.3625 17.6297 25.6906 17.75 26.0297 17.75H28.1242ZM27.7414 19.5H26.0297C25.2805 19.5 24.5531 19.2375 23.9789 18.7562L23.1094 18.0344C22.2398 17.307 22.0266 16.082 22.5461 15.1141C21.6164 15.0375 20.8398 14.425 20.5281 13.5883L19.6805 14.4305C18.8547 15.2563 17.5203 15.2563 16.6945 14.4305L16.5359 14.2719C16.5195 14.2609 16.4977 14.25 16.4812 14.25C16.4539 14.25 16.4266 14.2609 16.4102 14.2828L15.825 15.0648C15.382 15.6555 14.693 16 13.9602 16C12.6695 16 11.625 14.9555 11.625 13.6648V13.5773C11.625 12.8883 11.882 12.3195 12.2867 11.8656L13.3531 10.843C13.3695 10.832 13.375 10.8156 13.375 10.7992C13.375 9.90234 13.8836 9.08203 14.682 8.67734L17.9195 7.06242C18.0289 6.98367 18.1273 6.78406 18.0289 6.63805C17.9469 6.51773 17.7883 6.47508 17.6625 6.48984L17.2195 6.75453C16.2187 7.24125 15.1086 6.33945 15.3766 5.26102L15.7539 3.75273C9.10391 3.88344 3.75 9.31719 3.75 16C3.75 22.7047 9.14219 28.157 15.825 28.2008C15.5133 27.7305 15.0211 27.375 14.3977 27.375C13.5117 27.375 12.6586 27.0195 12.0297 26.3961L11.1547 25.5211C10.3344 24.7008 9.875 23.5852 9.875 22.4258V22.2508C9.875 20.7852 10.6078 19.418 11.8219 18.6086L13.3203 17.6078C14.0367 17.132 14.8844 16.875 15.7484 16.875H16.8914C17.9359 16.875 18.9477 17.2469 19.7406 17.9305L21.1461 19.1719C21.4359 19.3852 21.7531 19.5 22.0758 19.5C22.9016 19.5 23.6891 19.7789 24.2742 20.4078L24.493 20.632C24.8922 21.0258 25.4281 21.25 25.9859 21.25H27.0687C27.3367 20.6867 27.5609 20.1016 27.7414 19.5ZM26.0516 23H25.9859C24.9633 23 23.9789 22.5953 23.257 21.868L23.0328 21.6492C22.732 21.3922 22.4367 21.25 22.0758 21.25C21.332 21.25 20.6156 20.982 20.0523 20.5008L18.6031 19.2594C18.1273 18.8492 17.5203 18.5758 16.8914 18.5758H15.7484C15.2289 18.5758 14.7203 18.7781 14.2938 19.068L12.7953 20.0633C12.0625 20.55 11.625 21.3703 11.625 22.2508V22.4258C11.625 23.1203 11.9039 23.7875 12.3961 24.2797L13.2711 25.1547C13.5664 25.4555 13.9273 25.625 14.3977 25.625C15.9617 25.625 17.2742 26.6914 17.6461 28.0914C21.1242 27.6758 24.1375 25.7508 26.0516 23Z" fill="black"/>
</g>
<defs>
<clipPath id="clip0_53_538">
<rect width="28" height="28" fill="white" transform="translate(2 2)"/>
</clipPath>
</defs>
</svg>
