<svg width="32" height="32" viewBox="0 0 32 32" fill="none" xmlns="http://www.w3.org/2000/svg">
<path d="M22.1367 10.33C21.6817 10.155 21.18 10.3883 21.0167 10.8433C20.8533 11.2983 21.075 11.8 21.53 11.9633C24.0617 12.9083 25.625 14.4483 25.625 16C25.625 18.6833 21.215 20.9583 16 20.9583C10.785 20.9583 6.375 18.6833 6.375 16C6.375 13.69 9.61833 11.7066 13.83 11.1816L11.8817 13.13C11.5433 13.4683 11.5433 14.0283 11.8817 14.3666C12.0567 14.5416 12.2783 14.6233 12.5 14.6233C12.7217 14.6233 12.9433 14.5416 13.1183 14.3666L17.2483 10.2366C17.4117 10.0733 17.505 9.85163 17.505 9.6183C17.505 9.38496 17.4117 9.16329 17.2483 8.99996L13.1183 4.86996C12.78 4.53163 12.22 4.53163 11.8817 4.86996C11.5433 5.20829 11.5433 5.76829 11.8817 6.10663L15.0783 9.3033C9.15167 9.57163 4.625 12.4066 4.625 15.9883C4.625 19.745 9.61833 22.6966 16 22.6966C22.3817 22.6966 27.375 19.745 27.375 15.9883C27.375 13.655 25.415 11.5316 22.1367 10.3183V10.33Z" fill="black"/>
</svg>
