<svg width="32" height="32" viewBox="0 0 32 32" fill="none" xmlns="http://www.w3.org/2000/svg">
<g clip-path="url(#clip0_10_1108)">
<path d="M15.5 2.875C9.70312 2.875 5 13.8453 5 19.2812C5 24.7172 9.65391 29.125 15.5 29.125C21.2477 29.125 26 24.7155 26 19.2812C26 13.847 21.2477 2.875 15.5 2.875ZM15.5 27.375C10.6755 27.375 6.75 23.7443 6.75 19.2812C6.75 14.157 11.2453 4.625 15.5 4.625C19.7547 4.625 24.25 14.157 24.25 19.2812C24.25 23.7437 20.3234 27.375 15.5 27.375ZM12.3937 8.40391C10.507 10.7883 8.5 15.1469 8.5 18.625C8.5 19.1063 8.89156 19.5 9.375 19.5C9.85844 19.5 10.25 19.1063 10.25 18.625C10.25 15.6615 12.0323 11.6852 13.7571 9.59609C14.0601 9.22012 14.001 8.66969 13.6253 8.36563C13.2518 7.96641 12.6995 8.07031 12.3935 8.40391H12.3937Z" fill="black"/>
</g>
<defs>
<clipPath id="clip0_10_1108">
<rect width="21" height="28" fill="white" transform="translate(5 2)"/>
</clipPath>
</defs>
</svg>
