<svg width="32" height="32" viewBox="0 0 32 32" fill="none" xmlns="http://www.w3.org/2000/svg">
<g clip-path="url(#clip0_47_181)">
<path d="M15.5 3.875C9.70312 3.875 5 14.8453 5 20.2812C5 25.7172 9.65391 30.125 15.5 30.125C21.2477 30.125 26 25.7155 26 20.2812C26 14.847 21.2477 3.875 15.5 3.875ZM15.5 28.375C10.6755 28.375 6.75 24.7443 6.75 20.2812C6.75 15.157 11.2453 5.625 15.5 5.625C19.7547 5.625 24.25 15.157 24.25 20.2812C24.25 24.7437 20.3234 28.375 15.5 28.375ZM12.3937 9.40391C10.507 11.7883 8.5 16.1469 8.5 19.625C8.5 20.1063 8.89156 20.5 9.375 20.5C9.85844 20.5 10.25 20.1063 10.25 19.625C10.25 16.6615 12.0323 12.6852 13.7571 10.5961C14.0601 10.2201 14.001 9.66969 13.6253 9.36563C13.2518 8.96641 12.6995 9.07031 12.3935 9.40391H12.3937Z" fill="black"/>
</g>
<defs>
<clipPath id="clip0_47_181">
<rect width="21" height="28" fill="white" transform="translate(5 3)"/>
</clipPath>
</defs>
</svg>
