<svg width="32" height="32" viewBox="0 0 32 32" fill="none" xmlns="http://www.w3.org/2000/svg">
<path d="M28.25 17.0758C29.3109 17.9234 30 19.1922 30 20.625V29.375C30 29.8563 29.6063 30.25 29.125 30.25C28.6437 30.25 28.25 29.8563 28.25 29.375V26.75H3.75V29.375C3.75 29.8563 3.35844 30.25 2.875 30.25C2.39156 30.25 2 29.8563 2 29.375V20.625C2 19.1922 2.68742 17.9234 3.75 17.0758V9.25C3.75 7.3168 5.3168 5.75 7.25 5.75H24.75C26.6805 5.75 28.25 7.3168 28.25 9.25V17.0758ZM5.5 11.4703C6.01461 11.1695 6.61234 11 7.25 11H13.375C14.4195 11 15.3602 11.4594 16 12.1867C16.6398 11.4594 17.5805 11 18.625 11H24.75C25.3898 11 25.9859 11.1695 26.5 11.4703V9.25C26.5 8.28367 25.718 7.5 24.75 7.5H7.25C6.28367 7.5 5.5 8.28367 5.5 9.25V11.4703ZM26.5 16.3375V14.5C26.5 13.532 25.718 12.75 24.75 12.75H18.625C17.657 12.75 16.875 13.532 16.875 14.5V16.25H25.625C25.9258 16.25 26.2156 16.2828 26.5 16.3375ZM15.125 16.25V14.5C15.125 13.532 14.343 12.75 13.375 12.75H7.25C6.28367 12.75 5.5 13.532 5.5 14.5V16.3375C5.78273 16.2828 6.07531 16.25 6.375 16.25H15.125ZM25.625 18H6.375C4.92523 18 3.75 19.1758 3.75 20.625V25H28.25V20.625C28.25 19.1758 27.0742 18 25.625 18Z" fill="black"/>
</svg>
