<svg width="32" height="32" viewBox="0 0 32 32" fill="none" xmlns="http://www.w3.org/2000/svg">
<g clip-path="url(#clip0_47_161)">
<path d="M16 6.55556C9.98679 6.55556 5.1111 11.4313 5.1111 17.4444C5.1111 23.4576 9.98679 28.3333 16 28.3333C17.9833 28.3333 19.8354 27.8035 21.4347 26.8799C21.809 26.666 22.2854 26.7924 22.4993 27.1667C22.7132 27.541 22.5868 28.0125 22.2125 28.2313C20.3847 29.2861 18.2604 29.8889 16 29.8889C9.12638 29.8889 3.55554 24.3181 3.55554 17.4444C3.55554 10.5708 9.12638 5 16 5C22.5965 5 27.9923 10.1285 28.4153 16.6132C28.4444 17.0458 28.1187 17.4153 27.691 17.4007C27.2632 17.4688 26.8937 17.1479 26.8646 16.7201C26.4903 11.0424 21.7701 6.55556 16 6.55556ZM13.2826 23.6715C13.2826 22.1646 14.4979 20.9493 16.0048 20.9493C17.4632 20.9493 18.7271 22.1646 18.7271 23.6715C18.7271 25.1299 17.4632 26.3938 16.0048 26.3938C14.4979 26.3938 13.2826 25.1299 13.2826 23.6715ZM16.0048 24.8382C16.6465 24.8382 17.1715 24.3132 17.1715 23.6715C17.1715 23.025 16.6465 22.5049 16.0048 22.5049C15.3583 22.5049 14.8382 23.025 14.8382 23.6715C14.8382 24.3132 15.3583 24.8382 16.0048 24.8382ZM18.9604 16.5938C19.816 17.7313 21.5271 17.7313 22.3826 16.5938C22.6403 16.2486 23.1264 16.1368 23.4715 16.4382C23.8118 16.6958 23.8847 17.1819 23.6271 17.5271C22.1493 19.4958 19.1937 19.4958 17.716 17.5271C17.4146 17.1819 17.5264 16.6958 17.8715 16.4382C18.2118 16.1368 18.7028 16.2486 18.9604 16.5938ZM14.1382 16.4382C14.4785 16.6958 14.5514 17.1819 14.2937 17.5271C12.816 19.4958 9.8604 19.4958 8.38263 17.5271C8.08124 17.1819 8.19304 16.6958 8.53818 16.4382C8.87846 16.1368 9.36943 16.2486 9.62707 16.5938C10.4826 17.7313 12.1937 17.7313 13.0493 16.5938C13.3069 16.2486 13.793 16.1368 14.1382 16.4382ZM30.1069 21.1486C30.9771 21.6493 31.5604 22.5924 31.5604 23.6715C31.5604 24.7458 30.9771 25.6889 30.1069 26.1896C29.9173 27.4 28.8771 28.3382 27.6083 28.3382C26.918 28.3382 26.2958 28.0563 25.8437 27.609C25.7368 27.6236 25.6298 27.6285 25.5229 27.6285C24.1958 27.6285 23.1215 26.6028 23.0097 25.3097L20.0542 24.4153C19.7285 24.3132 19.5048 24.0118 19.5048 23.6715C19.5048 23.3264 19.7285 23.025 20.0542 22.9278L23.068 22.009C23.3354 20.9007 24.3271 20.0646 25.5229 20.0646H25.5569C26.0139 19.4229 26.7625 19.0049 27.6083 19.0049C28.8771 19.0049 29.9125 19.9382 30.1069 21.1486ZM25.7757 21.6542C25.6979 21.6299 25.6104 21.6201 25.5229 21.6201C24.9979 21.6201 24.5118 22.0528 24.5118 22.6069C24.5118 22.9521 24.3319 23.2535 24.0014 23.3556L22.9611 23.6715L24.0354 23.9972C24.4146 24.1139 24.6479 24.4979 24.5701 24.8868C24.5604 24.95 24.5118 25.0181 24.5118 25.0861C24.5118 25.6403 24.9979 26.0729 25.5229 26.0729C25.6444 26.0729 25.7562 26.0535 25.8583 26.0146C26.1646 25.8833 26.5535 26.0146 26.7917 26.3257C26.9667 26.6028 27.2729 26.7826 27.6083 26.7826C28.1382 26.7826 28.5805 26.3451 28.5805 25.791C28.5805 25.7715 28.5805 25.7472 28.5805 25.7278C28.5562 25.3778 28.7701 25.0569 29.1055 24.9451C29.6208 24.7653 30.0048 24.2646 30.0048 23.6715C30.0048 23.0736 29.6208 22.5729 29.1055 22.3931C28.7701 22.2812 28.5562 21.9604 28.5805 21.6104C28.5805 21.591 28.5805 21.5715 28.5805 21.5472C28.5805 20.9931 28.1382 20.5604 27.6083 20.5604C27.2048 20.5604 26.85 20.8132 26.709 21.1826C26.5632 21.5569 26.1597 21.7611 25.7757 21.6542Z" fill="black"/>
</g>
<defs>
<clipPath id="clip0_47_161">
<rect width="28" height="24.8889" fill="white" transform="translate(2 5)"/>
</clipPath>
</defs>
</svg>
