<svg width="32" height="32" viewBox="0 0 32 32" fill="none" xmlns="http://www.w3.org/2000/svg">
<g clip-path="url(#clip0_53_707)">
<path d="M29.1797 15.2344H28.1092C26.5108 15.2344 25.0015 15.8144 23.8218 16.875H22.7741C18.161 16.875 15.1664 17.7784 15.019 17.8053C14.4324 17.9481 13.8615 18.1467 13.313 18.3974L13.1581 17.623C12.286 13.2626 11.8438 8.79692 11.8438 4.35014V2.82043C11.8438 2.3674 11.4766 2.00012 11.0235 2.00012H4.46107C4.00804 2.00012 3.64077 2.3674 3.64077 2.82043V7.71854L2.82051 10.1794C1.74837 13.3954 1.70484 16.9428 2.82051 20.2894L3.25637 21.5969C3.48299 22.2769 3.028 22.8752 2.82188 23.1009C2.29202 23.681 2.0002 24.4331 2.0002 25.2189C2.0002 26.9621 3.18134 28.4748 4.87243 28.8976C7.2797 29.4384 8.54517 30 10.7621 30H16.2269C19.1288 30 21.8251 28.9563 23.8994 27.2345L25.0554 29.5465C25.1944 29.8245 25.4784 30 25.7891 30H29.1797C29.6328 30 30 29.6327 30 29.1797V16.0548C30 15.6016 29.6327 15.2344 29.1797 15.2344ZM28.3594 28.3593H26.2961L24.8822 25.5316C24.6322 25.0314 23.9642 24.9225 23.5684 25.3184C21.6074 27.2794 19.0002 28.3593 16.2269 28.3593H10.7621C8.81811 28.3593 7.74509 27.8673 5.27033 27.306C4.3109 27.0661 3.64082 26.2078 3.64082 25.2189C3.64082 24.8436 3.78016 24.4844 4.0332 24.2074C4.86937 23.292 5.1608 22.1222 4.81282 21.0782L4.37696 19.7706C3.41288 16.8787 3.37777 13.6954 4.37696 10.6983L5.23933 8.11109C5.26722 8.02742 5.28144 7.93986 5.28144 7.8517V3.64079H10.2033V4.35019C10.2033 8.90476 10.6562 13.4787 11.5494 17.9448L11.8111 19.2533C11.3258 19.5899 10.8679 19.9722 10.4435 20.3966C10.1232 20.7169 10.1232 21.2363 10.4435 21.5566C10.7638 21.8769 11.2832 21.877 11.6036 21.5566C12.6684 20.4918 13.9836 19.7458 15.407 19.3994C17.816 18.813 20.2947 18.5157 22.7741 18.5157H24.1485C24.3661 18.5157 24.5746 18.4293 24.7285 18.2754C25.6315 17.3724 26.8322 16.8751 28.1092 16.8751H28.3594V28.3593Z" fill="black"/>
</g>
<defs>
<clipPath id="clip0_53_707">
<rect width="28" height="28" fill="white" transform="translate(2 2)"/>
</clipPath>
</defs>
</svg>
