<svg width="32" height="33" viewBox="0 0 32 33" fill="none" xmlns="http://www.w3.org/2000/svg">
<path d="M11.45 21.2C11.45 21.7819 10.9819 22.25 10.4 22.25C9.81812 22.25 9.35 21.7819 9.35 21.2C9.35 20.6181 9.81812 20.15 10.4 20.15C10.9819 20.15 11.45 20.6181 11.45 21.2ZM13.55 21.2C13.55 20.6181 14.0181 20.15 14.6 20.15C15.1819 20.15 15.65 20.6181 15.65 21.2C15.65 21.7819 15.1819 22.25 14.6 22.25C14.0181 22.25 13.55 21.7819 13.55 21.2ZM19.85 21.2C19.85 21.7819 19.3819 22.25 18.8 22.25C18.2181 22.25 17.75 21.7819 17.75 21.2C17.75 20.6181 18.2181 20.15 18.8 20.15C19.3819 20.15 19.85 20.6181 19.85 21.2ZM20.2 13.5C20.2 13.8867 19.885 14.2 19.5 14.2H16V15.6H19.3512C19.9069 15.6 20.445 15.7619 20.9044 16.0681L23.1531 17.5687C23.9319 18.0894 24.4 18.9644 24.4 19.9006V26.8C24.4 28.3444 23.1444 29.6 21.6 29.6H13.1475C12.2944 29.6 11.4894 29.215 10.96 28.5106L9.56 26.8H8.3C7.14062 26.8 6.2 25.8594 6.2 24.7V21.9H3.4V25.4C3.4 25.785 3.08675 26.1 2.7 26.1C2.31325 26.1 2 25.785 2 25.4V17C2 16.615 2.31325 16.3 2.7 16.3C3.08675 16.3 3.4 16.615 3.4 17V20.5H6.2V17.7C6.2 16.5406 7.14062 15.6 8.3 15.6H14.6V14.2H11.1C10.715 14.2 10.4 13.8867 10.4 13.5C10.4 13.1132 10.715 12.8 11.1 12.8H19.5C19.885 12.8 20.2 13.1132 20.2 13.5ZM8.3 17C7.915 17 7.6 17.315 7.6 17.7V24.7C7.6 25.085 7.915 25.4 8.3 25.4H10.2337L12.0537 27.6356C12.3162 28.0075 12.7187 28.2 13.1475 28.2H21.6C22.3744 28.2 23 27.5744 23 26.8V19.9006C23 19.4325 22.7681 18.995 22.3787 18.7325L20.13 17.2362C19.8981 17.0831 19.6269 17 19.3512 17H8.3ZM25.8 19.8C25.8 19.0256 26.4256 18.4 27.2 18.4H28.6C29.3744 18.4 30 19.0256 30 19.8V28.2C30 28.9744 29.3744 29.6 28.6 29.6H27.2C26.4256 29.6 25.8 28.9744 25.8 28.2V19.8ZM27.2 28.2H28.6V19.8H27.2V28.2Z" fill="black"/>
</svg>
