<svg width="32" height="32" viewBox="0 0 32 32" fill="none" xmlns="http://www.w3.org/2000/svg">
<path d="M18.7891 12.45L22.6234 10.4897C23.575 10.0036 24.625 9.74999 25.6937 9.74999H28.5578C30.2453 9.74999 31.3656 11.4984 30.6578 13.0312C29.7906 14.9062 28.3141 16.4297 26.4672 17.3531L13.6516 23.7609C13.3375 23.9203 12.9953 24 12.6437 24H6.12344C5.52438 24 4.9525 23.7609 4.53016 23.339L1.53906 20.3484C0.839641 19.65 0.99625 18.4781 1.85547 17.9859L2.96828 17.3484C3.59031 16.9969 4.34406 16.9594 4.99844 17.2078L7.35156 18.2953L11.2422 16.3031L5.87969 13.0031C4.90281 12.3703 5.00031 10.8562 6.09062 10.3617L7.82031 9.57608C8.71563 9.16827 9.7375 9.1303 10.6609 9.46921L18.7891 12.45ZM6.71406 11.7281L14.2938 16.4297L7.39844 19.9547L4.38953 18.6187C4.17109 18.5203 3.91984 18.5344 3.71266 18.6515L2.59984 19.289L5.59094 22.2797C5.72969 22.4203 5.92188 22.5 6.12344 22.5H12.6437C12.7609 22.5 12.8781 22.4719 12.9813 22.4203L25.7969 16.0125C27.3391 15.2437 28.5719 13.9687 29.2937 12.4031C29.5422 11.864 29.1484 11.25 28.5578 11.25H25.6937C24.8641 11.25 24.0437 11.4469 23.3031 11.8265L18.8875 14.0812L10.1453 10.8797C9.59219 10.6739 8.97812 10.6969 8.43906 10.9406L6.71406 11.7281ZM30.25 28.5C30.6625 28.5 31 28.8375 31 29.25C31 29.6625 30.6625 30 30.25 30H1.75C1.33562 30 1 29.6625 1 29.25C1 28.8375 1.33562 28.5 1.75 28.5H30.25Z" fill="black"/>
</svg>
