<svg width="32" height="32" viewBox="0 0 32 32" fill="none" xmlns="http://www.w3.org/2000/svg">
<g clip-path="url(#clip0_47_222)">
<path d="M20.2184 11.4322L21.7047 6.68852C21.7297 6.60857 21.7422 6.52588 21.7422 6.44325V2.82031C21.7422 2.36728 21.375 2 20.9219 2C20.4689 2 20.1016 2.36728 20.1016 2.82031V4.52744C19.9609 4.46881 19.8148 4.41943 19.6629 4.38213C18.7339 4.15398 17.7846 4.38022 17.0584 5.00267L16 5.90977L14.9417 5.00273C14.2155 4.38027 13.2663 4.15414 12.3371 4.38219C12.1853 4.41948 12.0391 4.46887 11.8984 4.52749V2.82031C11.8984 2.36728 11.5312 2 11.0781 2C10.6251 2 10.2578 2.36728 10.2578 2.82031V6.44325C10.2578 6.52583 10.2703 6.60857 10.2954 6.68852L11.7816 11.4322C7.68028 15.346 5.33594 20.8092 5.33594 26.4885C5.33594 26.8416 5.56191 27.155 5.89687 27.2667C7.05017 27.6512 8.25598 27.9732 9.48973 28.2288L9.44051 28.8008C9.40228 29.2452 9.7262 29.6387 10.1697 29.6866C12.1041 29.8955 14.052 30 16 30C17.948 30 19.8959 29.8955 21.8302 29.6866C22.2737 29.6388 22.5977 29.2452 22.5594 28.8008L22.5102 28.2288C23.7441 27.9732 24.9498 27.6511 26.1031 27.2667C26.4381 27.155 26.664 26.8415 26.664 26.4885C26.6641 20.8092 24.3198 15.346 20.2184 11.4322ZM12.7285 5.9754C13.1371 5.87516 13.5545 5.97452 13.874 6.24834L15.4661 7.61302C15.7733 7.87628 16.2266 7.87628 16.5338 7.61302L18.1259 6.24834C18.4454 5.97452 18.8631 5.87516 19.2714 5.9754C19.5937 6.05453 19.8633 6.24643 20.0395 6.51566L18.6786 10.8594H13.3214L11.9605 6.51566C12.1366 6.24643 12.4062 6.05453 12.7285 5.9754ZM9.64252 26.5854C8.73591 26.392 7.84686 26.1607 6.98586 25.8936C7.14462 20.8188 9.33004 15.9775 13.0417 12.5H13.3069C11.3956 16.9974 10.1652 21.725 9.64252 26.5854ZM11.1445 28.1355L11.1744 27.7874C11.6298 22.4944 12.9482 17.3541 15.0944 12.5H16.9056C19.0518 17.3541 20.3702 22.4945 20.8256 27.7874L20.8555 28.1355C17.6295 28.434 14.3705 28.434 11.1445 28.1355ZM22.3573 26.5854C21.8347 21.7251 20.6041 16.9974 18.6928 12.5H18.9583C22.67 15.9775 24.8553 20.8188 25.0141 25.8937C24.153 26.1607 23.2639 26.3921 22.3573 26.5854Z" fill="black"/>
</g>
<defs>
<clipPath id="clip0_47_222">
<rect width="28" height="28" fill="white" transform="translate(2 2)"/>
</clipPath>
</defs>
</svg>
