<svg width="32" height="32" viewBox="0 0 32 32" fill="none" xmlns="http://www.w3.org/2000/svg">
<g clip-path="url(#clip0_53_708)">
<path d="M29.1797 19.5553H27.98L29.3831 17.3103C29.7239 16.7651 29.3312 16.0553 28.6874 16.0553H25.1874C24.9046 16.0553 24.6417 16.2009 24.4918 16.4408L22.7862 19.1697C22.6353 19.4111 22.3753 19.5553 22.0906 19.5553H19.5753C20.8386 18.4042 21.6327 16.7465 21.6327 14.9068V11.6256C21.6327 11.1725 21.2654 10.8053 20.8124 10.8053H20.2374C20.2924 10.5008 20.3202 10.1904 20.3202 9.87557C20.3202 8.50609 19.7791 6.81521 18.9081 5.46289C17.8563 3.82965 16.5127 2.93026 15.125 2.93026C14.288 2.93026 13.4671 3.258 12.7165 3.87614C10.5249 2.07347 8.1302 2.97735 6.52933 5.46284C5.65832 6.81521 5.11719 8.50609 5.11719 9.87557C5.11719 10.1904 5.14497 10.5008 5.20004 10.8053H5.0625C4.60947 10.8053 4.24219 11.1725 4.24219 11.6256V14.9068C4.24219 16.7465 5.03625 18.4042 6.29959 19.5553H2.82031C2.36728 19.5553 2 19.9225 2 20.3756V24.7506C2 25.2036 2.36728 25.5709 2.82031 25.5709H14.6532C14.9379 25.5709 15.198 25.715 15.3488 25.9564L17.0544 28.6853C17.2043 28.9252 17.4672 29.0709 17.7501 29.0709H21.2501C21.8932 29.0709 22.2868 28.3616 21.9457 27.8158L20.5426 25.5709H29.1797C29.6327 25.5709 30 25.2036 30 24.7506V20.3756C30 19.9225 29.6327 19.5553 29.1797 19.5553ZM17.5289 6.35118C18.228 7.43662 18.6797 8.82 18.6797 9.87557C18.6797 10.1934 18.638 10.5044 18.5564 10.8053H11.6936C11.612 10.5044 11.5703 10.1934 11.5703 9.87557C11.5703 7.79045 13.3069 4.57089 15.125 4.57089C15.9239 4.57089 16.8001 5.21981 17.5289 6.35118ZM6.75781 9.87557C6.75781 8.82 7.20953 7.43662 7.9086 6.35124C8.63737 5.21981 9.51357 4.57089 10.3125 4.57089C10.7946 4.57089 11.2373 4.79932 11.6015 5.08342C10.515 6.58278 9.92969 8.46617 9.92969 9.87557C9.92969 10.1904 9.95747 10.5008 10.0125 10.8053H6.88113C6.79954 10.5044 6.75781 10.1934 6.75781 9.87557ZM5.88281 14.9068V12.4459H19.9922V14.9068C19.9922 17.47 17.9069 19.5553 15.3438 19.5553H10.5312C7.9681 19.5553 5.88281 17.47 5.88281 14.9068ZM28.3594 23.9303H19.0625C18.4194 23.9303 18.0257 24.6396 18.3669 25.1853L19.7699 27.4303H18.2046L16.74 25.0868C16.2874 24.3626 15.5073 23.9303 14.6532 23.9303H3.64062V21.1959H22.0907C22.9448 21.1959 23.7249 20.7635 24.1775 20.0393L25.6421 17.6959H27.2074L25.8044 19.9408C25.4635 20.486 25.8562 21.1959 26.5 21.1959H28.3594V23.9303Z" fill="black"/>
<path d="M10.2578 14.688C10.2578 14.235 9.89053 13.8677 9.4375 13.8677H8.5625C8.10947 13.8677 7.74219 14.235 7.74219 14.688C7.74219 15.1411 8.10947 15.5084 8.5625 15.5084H9.4375C9.89053 15.5084 10.2578 15.1411 10.2578 14.688Z" fill="black"/>
<path d="M11.625 16.4927H10.75C10.297 16.4927 9.92969 16.86 9.92969 17.313C9.92969 17.7661 10.297 18.1334 10.75 18.1334H11.625C12.078 18.1334 12.4453 17.7661 12.4453 17.313C12.4453 16.86 12.078 16.4927 11.625 16.4927Z" fill="black"/>
<path d="M16.3828 17.313C16.3828 16.86 16.0155 16.4927 15.5625 16.4927H14.6875C14.2345 16.4927 13.8672 16.86 13.8672 17.313C13.8672 17.7661 14.2345 18.1334 14.6875 18.1334H15.5625C16.0155 18.1334 16.3828 17.7661 16.3828 17.313Z" fill="black"/>
<path d="M14.1953 14.688C14.1953 14.235 13.828 13.8677 13.375 13.8677H12.5C12.047 13.8677 11.6797 14.235 11.6797 14.688C11.6797 15.1411 12.047 15.5084 12.5 15.5084H13.375C13.828 15.5084 14.1953 15.1411 14.1953 14.688Z" fill="black"/>
<path d="M16.4375 15.5084H17.3125C17.7655 15.5084 18.1328 15.1411 18.1328 14.688C18.1328 14.235 17.7655 13.8677 17.3125 13.8677H16.4375C15.9845 13.8677 15.6172 14.235 15.6172 14.688C15.6172 15.1411 15.9845 15.5084 16.4375 15.5084Z" fill="black"/>
</g>
<defs>
<clipPath id="clip0_53_708">
<rect width="28" height="28" fill="white" transform="translate(2 2)"/>
</clipPath>
</defs>
</svg>
