<svg width="32" height="32" viewBox="0 0 32 32" fill="none" xmlns="http://www.w3.org/2000/svg">
<g clip-path="url(#clip0_47_228)">
<path d="M11.882 11.882C12.2211 11.5375 12.7789 11.5375 13.118 11.882L16 14.7641L18.882 11.882C19.2211 11.5375 19.7789 11.5375 20.118 11.882C20.4625 12.2211 20.4625 12.7789 20.118 13.118L17.2359 16L20.118 18.882C20.4625 19.2211 20.4625 19.7789 20.118 20.118C19.7789 20.4625 19.2211 20.4625 18.882 20.118L16 17.2359L13.118 20.118C12.7789 20.4625 12.2211 20.4625 11.882 20.118C11.5375 19.7789 11.5375 19.2211 11.882 18.882L14.7641 16L11.882 13.118C11.5375 12.7789 11.5375 12.2211 11.882 11.882ZM30 16C30 23.7328 23.7328 30 16 30C8.26719 30 2 23.7328 2 16C2 8.26719 8.26719 2 16 2C23.7328 2 30 8.26719 30 16ZM16 3.75C9.23516 3.75 3.75 9.23516 3.75 16C3.75 22.7648 9.23516 28.25 16 28.25C22.7648 28.25 28.25 22.7648 28.25 16C28.25 9.23516 22.7648 3.75 16 3.75Z" fill="black"/>
</g>
<defs>
<clipPath id="clip0_47_228">
<rect width="28" height="28" fill="white" transform="translate(2 2)"/>
</clipPath>
</defs>
</svg>
