<svg width="32" height="32" viewBox="0 0 32 32" fill="none" xmlns="http://www.w3.org/2000/svg">
<g clip-path="url(#clip0_53_524)">
<path d="M27.9602 4.04969C26.593 2.68305 24.7992 2 23.011 2C21.2227 2 19.4257 2.68305 18.0596 4.04969L11.2532 10.8484C11.0946 10.7992 10.9305 10.7008 10.7555 10.7008C9.78862 10.7008 9.00495 11.4845 9.00495 12.4508C9.00495 12.628 9.05635 12.7887 9.10557 12.9501L4.05081 18.0503C1.31534 20.7847 1.31534 25.2144 4.05081 27.9487C5.4169 29.3159 7.21065 29.9995 9.00495 29.9995C10.7008 29.9995 12.3863 29.3657 13.7212 28.1412C13.8924 28.197 14.0668 28.249 14.2566 28.249C15.2235 28.249 16.0071 27.4653 16.0071 26.499C16.0071 26.3212 15.9552 26.1599 15.906 25.9991L26.0122 15.8983C26.1735 15.947 26.3343 15.999 26.5121 15.999C27.4789 15.999 28.2626 15.2153 28.2626 14.249C28.2626 14.0586 28.2101 13.8842 28.1543 13.713C30.671 10.9179 30.6218 6.70865 27.9585 4.0481L27.9602 4.04969ZM26.7242 12.7133L12.7188 26.7133C11.7235 27.7031 10.4055 28.25 9.0055 28.25C7.60221 28.25 6.2837 27.7037 5.29221 26.7127C3.24417 24.6658 3.24417 21.3348 5.29221 19.2862L19.2977 5.28617C20.2875 4.29578 21.6055 3.75 23.011 3.75C24.4148 3.75 25.7333 4.29573 26.7242 5.28672C28.7696 7.33422 28.7696 10.6625 26.7242 12.7133ZM10.7555 18.357C10.1517 18.357 9.6612 18.847 9.6612 19.4508C9.6612 20.054 10.1517 20.5445 10.7555 20.5445C11.3587 20.5445 11.8498 20.054 11.8498 19.4508C11.8498 18.847 11.3571 18.357 10.7555 18.357ZM19.5055 14.857C18.9017 14.857 18.4112 15.347 18.4112 15.9508C18.4112 16.554 18.9017 17.0445 19.5055 17.0445C20.1092 17.0445 20.5998 16.554 20.5998 15.9508C20.5998 15.347 20.1125 14.857 19.5055 14.857ZM21.2555 7.85703C20.6517 7.85703 20.1612 8.34703 20.1612 8.95078C20.1612 9.55398 20.6517 10.0445 21.2555 10.0445C21.8592 10.0445 22.3498 9.55398 22.3498 8.95078C22.3498 8.34703 21.8625 7.85703 21.2555 7.85703Z" fill="black"/>
</g>
<defs>
<clipPath id="clip0_53_524">
<rect width="28" height="28" fill="white" transform="translate(2 2)"/>
</clipPath>
</defs>
</svg>
