<svg width="32" height="32" viewBox="0 0 32 32" fill="none" xmlns="http://www.w3.org/2000/svg">
<g clip-path="url(#clip0_3_293)">
<path d="M25.6444 15.8839C26.0644 15.3193 26.4582 14.7078 26.8208 14.055C27.7558 12.372 28.125 10.7531 27.9212 9.23519L29.6509 7.50559C29.9712 7.18523 29.9712 6.66591 29.6509 6.34555L29.4584 6.15305C28.8851 5.57982 28.1319 5.28593 27.373 5.28593C27.3665 5.28593 27.36 5.28593 27.3535 5.28598C27.3586 4.52052 27.0646 3.75927 26.4865 3.18112L26.294 2.98867C25.9737 2.66831 25.4544 2.66831 25.134 2.98867L23.7886 4.33409C22.3197 3.96698 20.9826 4.10277 19.808 4.73949C18.7696 5.30239 17.9868 6.18685 17.3983 7.1627L14.0283 2.34987C13.7685 1.97876 13.257 1.88858 12.8859 2.1484C11.64 3.02083 10.7736 4.28258 10.4041 5.72048L8.88635 4.84422C8.49402 4.6177 7.99237 4.75213 7.76586 5.14445C6.92591 6.59925 6.70279 8.29413 7.13761 9.91676C7.49384 11.2463 8.25701 12.3971 9.32134 13.2314C7.6292 13.4971 6.0146 14.0044 4.71583 14.4126C4.14199 14.5929 3.64641 14.7487 3.22144 14.8611C2.59948 15.0256 2.14191 15.5207 2.02717 16.1532C1.91244 16.7857 2.16712 17.41 2.69168 17.7825L3.24654 18.1764L3.05781 19.203C2.94259 19.8302 3.19169 20.4524 3.70805 20.8266C4.22583 21.202 4.89526 21.2431 5.45334 20.9393L9.50837 18.7334C11.6278 19.7489 13.6482 20.3504 15.5354 20.5296C15.3399 21.192 15.2344 21.8924 15.2344 22.6172C15.2344 26.688 18.5463 30 22.6172 30C26.6881 30 30 26.688 30 22.6172C30 19.6244 28.21 17.0419 25.6444 15.8839ZM13.1961 4.02155L16.5795 8.85363C16.5334 8.97291 16.4892 9.09174 16.4474 9.20954L11.9008 6.58454C12.0516 5.60689 12.5033 4.7151 13.1961 4.02155ZM9.85531 17.0767C9.61539 16.9567 9.33206 16.9616 9.09646 17.0898L4.67191 19.4968L4.95465 17.9587C5.01229 17.6449 4.88284 17.3263 4.62275 17.1416L3.64368 16.4465C4.10448 16.3245 4.64036 16.1561 5.20758 15.9778C7.06663 15.3936 9.61222 14.5933 11.922 14.7003H11.9222C12.7808 14.7399 13.1145 13.6002 12.3702 13.1705L10.8881 12.3148C9.81281 11.6939 9.04358 10.6915 8.72223 9.49216C8.4728 8.56133 8.51628 7.59834 8.83855 6.71109L16.5132 11.142C16.9783 11.4106 17.5717 11.1671 17.7142 10.6494C18.0657 9.37251 18.9066 7.09434 20.5898 6.18188C21.4984 5.68936 22.5414 5.64178 23.7787 6.03635C24.0711 6.12959 24.391 6.05183 24.608 5.83488L25.6299 4.8131C25.777 5.20942 25.7265 5.66459 25.4661 6.02913C24.9276 6.78311 25.8565 7.71198 26.6105 7.17341C26.9751 6.91299 27.4302 6.86252 27.8265 7.00973L26.4609 8.37534C26.2645 8.57172 26.1808 8.85413 26.2385 9.12576C26.5035 10.3736 26.2169 11.7639 25.3867 13.2582C24.958 14.0299 24.4832 14.734 23.9728 15.3596C23.5332 15.2777 23.0802 15.2344 22.6172 15.2344C19.8866 15.2344 17.4976 16.7245 16.2204 18.9342C14.2794 18.843 12.141 18.2195 9.85531 17.0767ZM22.6172 28.3594C19.4509 28.3594 16.875 25.7834 16.875 22.6172C16.875 19.4509 19.4509 16.875 22.6172 16.875C25.7834 16.875 28.3594 19.4509 28.3594 22.6172C28.3594 25.7834 25.7835 28.3594 22.6172 28.3594Z" fill="black"/>
<path d="M22.2348 8.83594C22.6878 8.83594 23.0551 8.46867 23.0551 8.01562C23.0551 7.56258 22.6878 7.19531 22.2348 7.19531C21.7818 7.19531 21.4145 7.56258 21.4145 8.01562C21.4145 8.46867 21.7818 8.83594 22.2348 8.83594Z" fill="black"/>
<path d="M21.8248 22.234C21.8248 22.7504 21.6201 23.2457 21.2556 23.6115L20.4703 24.3994C20.1455 24.7253 20.1455 25.2525 20.4703 25.5784V25.5784C20.7966 25.9058 21.3269 25.9058 21.6533 25.5784L22.7832 24.4447C23.2372 23.9892 23.4922 23.3722 23.4922 22.7291V19.3493C23.4922 18.8889 23.1189 18.5156 22.6585 18.5156V18.5156C22.198 18.5156 21.8248 18.8889 21.8248 19.3493V22.234Z" fill="black"/>
</g>
<defs>
<clipPath id="clip0_3_293">
<rect width="28" height="28" fill="white" transform="translate(2 2)"/>
</clipPath>
</defs>
</svg>
