<svg width="32" height="32" viewBox="0 0 32 32" fill="none" xmlns="http://www.w3.org/2000/svg">
<g clip-path="url(#clip0_3_177)">
<path d="M16.5 1C10.7031 1 6 5.70312 6 11.5V21.125C6 25.4727 9.52734 29 13.875 29C18.2227 29 21.75 25.4727 21.75 21.125V20.585C24.8891 18.7677 27 15.3828 27 11.5C27 5.70312 22.2969 1 16.5 1ZM20.8258 19.0687C20.3336 19.3859 20 19.9602 20 20.5836V21.125C20 24.5025 17.2525 27.25 13.875 27.25C10.4975 27.25 7.75 24.5047 7.75 21.125V11.5C7.75 6.67547 11.6755 2.75 16.5 2.75C21.3245 2.75 25.25 6.67547 25.25 11.5C25.25 14.6062 23.5711 17.5047 20.8258 19.0687ZM21.318 6.42008C19.8934 5.06984 18.0438 4.37805 16.1248 4.5093C12.4695 4.7007 9.5 8.00547 9.5 11.8719V14.125C9.5 14.6063 9.89156 15 10.375 15H10.7064C11.4901 15 12.1245 15.6344 12.1245 16.4164C12.1245 16.7937 11.9762 17.1514 11.7088 17.4194L9.62742 19.5008C9.28563 19.8426 9.28563 20.3966 9.62742 20.7378C9.79832 20.9087 10.0217 20.9938 10.2459 20.9938C10.4696 20.9938 10.6933 20.9079 10.8645 20.7373L12.947 18.6559C13.4966 18.0565 13.8739 17.2635 13.8739 16.4159C13.8739 14.854 12.738 13.5513 11.2489 13.2938V11.8713C11.2489 8.91984 13.4763 6.40258 16.2227 6.25492C17.6703 6.1707 19.0435 6.67328 20.1116 7.68719C21.1692 8.69398 21.7489 10.0448 21.7489 11.4995C21.7489 11.9829 22.1399 12.3745 22.6239 12.3745C23.1073 12.3745 23.4989 11.9807 23.4989 11.4995C23.4989 9.55805 22.7223 7.75336 21.3169 6.41953L21.318 6.42008Z" fill="black"/>
</g>
<defs>
<clipPath id="clip0_3_177">
<rect width="21" height="28" fill="white" transform="translate(6 1)"/>
</clipPath>
</defs>
</svg>
