<svg width="32" height="32" viewBox="0 0 32 32" fill="none" xmlns="http://www.w3.org/2000/svg">
<g clip-path="url(#clip0_10_1073)">
<path d="M29.6253 7.23809C29.2973 7.07803 28.8991 7.21468 28.739 7.54655L28.0909 8.88181L27.5716 8.63192L28.2549 7.22635C28.2549 7.22246 28.2588 7.21857 28.2588 7.21461C28.2627 7.20683 28.2665 7.19508 28.2705 7.18731C28.3759 6.92575 28.497 6.61729 28.5399 6.26978C28.6727 5.23513 28.2784 4.14191 27.4819 3.34152C26.7244 2.58017 25.5648 2.15069 24.4638 2.21703C24.2334 2.23267 23.9875 2.2756 23.7337 2.3498C23.3315 2.46693 22.9372 2.66992 22.5663 2.95497C22.3007 3.15797 21.9298 3.50547 21.676 3.99352C21.676 3.9974 21.6722 4.00129 21.6722 4.00526C21.6722 4.00922 21.6683 4.01304 21.6683 4.01304L19.2476 9.00672C19.2358 9.02624 19.2242 9.04576 19.2124 9.06917C19.2007 9.0887 19.1929 9.11211 19.1851 9.13552L12.9147 22.059C12.8209 22.2542 12.7741 22.4728 12.7819 22.6915V22.6954L12.9224 26.8613C12.9381 27.2673 13.0904 27.646 13.3441 27.9428L12.9732 28.6924C12.8093 29.0203 12.9459 29.4186 13.2738 29.5826C13.3676 29.6294 13.4691 29.6529 13.5667 29.6529C13.8127 29.6529 14.0469 29.5162 14.1641 29.282L14.5232 28.5519C14.5779 28.5558 14.6286 28.5597 14.6833 28.5597C15.0503 28.5597 15.4134 28.4464 15.7179 28.22L19.0835 25.7525C19.1538 25.7017 19.2201 25.6393 19.2787 25.5768C19.2904 25.5651 19.2982 25.5534 19.3099 25.5417C19.3841 25.4558 19.4466 25.3582 19.4974 25.2566L26.9899 9.82267L27.5092 10.0726L24.1709 16.9481C24.0109 17.2761 24.1475 17.6743 24.4794 17.8344C24.5731 17.8812 24.6707 17.9007 24.7683 17.9007C25.0143 17.9007 25.2525 17.7641 25.3657 17.5259L28.95 10.1428C28.9695 10.1155 28.989 10.0842 29.0046 10.053C29.0203 10.0217 29.028 9.9944 29.0398 9.96313L29.9339 8.12031C30.0938 7.79637 29.9533 7.39816 29.6253 7.23809ZM14.9294 27.1542C14.8084 27.24 14.6561 27.2596 14.5194 27.2089C14.4999 27.1971 14.4804 27.1854 14.457 27.1737C14.4452 27.1698 14.4374 27.1659 14.4257 27.162C14.3125 27.0839 14.2422 26.959 14.2383 26.8223L14.1445 24.1088C15.023 24.792 16.0343 25.284 17.1118 25.5573L14.9294 27.1542ZM18.4198 24.4329C16.8229 24.2767 15.3315 23.5505 14.2226 22.387L20.1104 10.2522L24.3154 12.2864L18.4198 24.4329ZM27.2202 6.10194C27.1968 6.28542 27.1226 6.48063 27.0484 6.66418L24.901 11.0878L20.6921 9.05369L22.8473 4.61051C22.9644 4.39577 23.1479 4.18103 23.3744 4.00922C23.6086 3.82964 23.8585 3.69688 24.0967 3.62657C24.2567 3.57975 24.409 3.55237 24.5379 3.54459C25.2602 3.50166 26.045 3.7906 26.5369 4.28253C27.0368 4.78224 27.2983 5.48113 27.2202 6.10194Z" fill="black"/>
<path d="M10.8922 28.4621C10.7243 28.4582 10.5291 28.4621 10.3261 28.4621C9.26415 28.4738 7.2846 28.4934 6.65212 27.7866C6.54277 27.6656 6.40223 27.447 6.45302 26.994C6.60141 25.7173 7.31975 24.3742 7.9523 23.1911L8.05769 22.992C8.26465 22.6055 8.47939 22.2151 8.69017 21.8325C9.29534 20.7393 9.92004 19.607 10.4159 18.4162C10.7829 17.5377 10.9859 16.71 11.021 15.9642C11.0679 14.9647 10.818 14.094 10.2792 13.3756C9.63499 12.5127 8.69405 11.8802 7.40562 11.4352C6.33581 11.0642 5.15673 10.8729 4.11818 10.7011C3.64966 10.623 3.20455 10.5527 2.79459 10.4668C2.43542 10.3927 2.08403 10.6269 2.01372 10.9862C1.93953 11.3453 2.17379 11.6967 2.53303 11.767C2.97029 11.8569 3.42714 11.931 3.90733 12.0091C5.87903 12.3332 8.11626 12.6962 9.21725 14.1682C9.86925 15.0389 9.86147 16.2961 9.18995 17.9046C8.72143 19.0291 8.11626 20.1262 7.52671 21.1882C7.31586 21.5708 7.09724 21.9691 6.88639 22.3634L6.781 22.5586C6.08996 23.847 5.30909 25.3073 5.13339 26.8339C5.04753 27.5639 5.22711 28.1809 5.66437 28.6689C6.58189 29.6879 8.39741 29.7894 9.80687 29.7894C9.99034 29.7894 10.17 29.7894 10.3378 29.7855C10.537 29.7855 10.7205 29.7816 10.8767 29.7855C10.8806 29.7855 10.8806 29.7855 10.8845 29.7855C11.2476 29.7855 11.5443 29.4927 11.5482 29.1296C11.5521 28.7706 11.2592 28.466 10.8922 28.4621Z" fill="black"/>
</g>
<defs>
<clipPath id="clip0_10_1073">
<rect width="28" height="28" fill="white" transform="translate(2 2)"/>
</clipPath>
</defs>
</svg>
