<svg width="32" height="32" viewBox="0 0 32 32" fill="none" xmlns="http://www.w3.org/2000/svg">
<g clip-path="url(#clip0_47_216)">
<path d="M28.4444 14.3334C28.4444 12.6149 27.0517 11.266 25.3333 11.266C23.6149 11.266 22.2222 12.6587 22.2222 14.3334C22.2222 15.7815 23.2158 16.9875 24.5555 17.3346V22.1111C24.5555 25.5426 21.7643 28.2896 18.3333 28.2896C14.9023 28.2896 12.1111 25.4988 12.1111 22.1111V22.0324C16.0306 21.6352 19.1111 18.3549 19.1111 14.3324V7.37613C19.1111 7.08106 18.9444 6.81273 18.6809 6.68051L15.5698 5.1687C15.1857 4.97571 14.7181 5.1337 14.5261 5.51627C14.3321 5.81426 14.4877 6.28044 14.8717 6.47342L17.5551 7.81314V14.3319C17.5551 17.7634 14.7638 20.5104 11.3328 20.5104C7.90186 20.5104 5.11061 17.7648 5.11061 14.3329V7.81314L7.792 6.47342C8.17602 6.28044 8.33207 5.81426 8.13957 5.42974C7.94901 5.04669 7.47768 4.8887 7.09345 5.08169L3.98234 6.59349C3.72082 6.76898 3.55457 7.0378 3.55457 7.33287V14.2891C3.55457 18.3112 6.63554 21.5905 10.5546 21.9891V22.0674C10.5546 26.3559 14.0439 29.8014 18.3323 29.8014C22.6208 29.8014 26.1101 26.3121 26.1101 22.0674V17.3312C27.4518 16.9861 28.4435 15.7805 28.4435 14.3319L28.4444 14.3334ZM25.3333 15.8889C24.4744 15.8889 23.7778 15.1923 23.7778 14.3771C23.7778 13.5181 24.4744 12.8653 25.3333 12.8653C26.1923 12.8653 26.8889 13.5619 26.8889 14.3771C26.8889 15.1938 26.1937 15.8889 25.3333 15.8889Z" fill="black"/>
</g>
<defs>
<clipPath id="clip0_47_216">
<rect width="28" height="24.8889" fill="white" transform="translate(2 5)"/>
</clipPath>
</defs>
</svg>
