<svg width="32" height="32" viewBox="0 0 32 32" fill="none" xmlns="http://www.w3.org/2000/svg">
<g clip-path="url(#clip0_47_158)">
<path d="M13.3337 22.1119C13.3337 20.3958 14.729 19.0006 16.445 19.0006C18.161 19.0006 19.5562 20.3958 19.5562 22.1119V23.6675C19.5562 25.3835 18.161 26.7787 16.445 26.7787C14.729 26.7787 13.3337 25.3835 13.3337 23.6675V22.1119ZM16.445 20.5562C15.5845 20.5562 14.8894 21.2514 14.8894 22.1119V23.6675C14.8894 24.528 15.5845 25.2231 16.445 25.2231C17.3055 25.2231 18.0006 24.528 18.0006 23.6675V22.1119C18.0006 21.2514 17.3055 20.5562 16.445 20.5562ZM13.7421 15.8894C13.7421 16.5359 13.2171 17.0561 12.5754 17.0561C11.9288 17.0561 11.4087 16.5359 11.4087 15.8894C11.4087 15.2428 11.9288 14.7227 12.5754 14.7227C13.2171 14.7227 13.7421 15.2428 13.7421 15.8894ZM19.1868 15.8894C19.1868 15.2428 19.707 14.7227 20.3535 14.7227C20.9952 14.7227 21.5202 15.2428 21.5202 15.8894C21.5202 16.5359 20.9952 17.0561 20.3535 17.0561C19.707 17.0561 19.1868 16.5359 19.1868 15.8894ZM13.3337 11.2225C13.1199 11.2225 12.906 11.2371 12.658 11.2663C11.6712 11.4024 10.7281 11.8642 9.97457 12.5691C9.66345 12.8608 9.16759 12.8462 8.87591 12.5302C8.58326 12.2191 8.59979 11.7232 8.9148 11.4315C9.88707 10.5225 11.1267 9.90508 12.4976 9.72181C12.7698 9.68535 13.0518 9.66687 13.3337 9.66687C13.7615 9.66687 14.1116 10.0169 14.1116 10.4447C14.1116 10.8725 13.7615 11.2225 13.3337 11.2225ZM20.1882 11.2663C19.984 11.2371 19.7701 11.2225 19.5562 11.2225C19.1285 11.2225 18.7784 10.8725 18.7784 10.4447C18.7784 10.0169 19.1285 9.66687 19.5562 9.66687C19.8382 9.66687 20.1202 9.68535 20.3924 9.72181C21.7633 9.90508 23.0029 10.5225 23.9752 11.4315C24.2912 11.7232 24.3058 12.2191 24.0141 12.5302C23.7224 12.8462 23.2266 12.8608 22.9154 12.5691C22.1619 11.8642 21.2188 11.4024 20.1882 11.2663ZM28.89 17.445C28.89 24.3189 23.3189 29.89 16.445 29.89C9.57108 29.89 4 24.3189 4 17.445C4 10.5711 9.57108 5 16.445 5C23.3189 5 28.89 10.5711 28.89 17.445ZM16.445 6.55562C10.4315 6.55562 5.55562 11.4315 5.55562 17.445C5.55562 23.4585 10.4315 28.3344 16.445 28.3344C22.4585 28.3344 27.3344 23.4585 27.3344 17.445C27.3344 11.4315 22.4585 6.55562 16.445 6.55562Z" fill="black"/>
</g>
<defs>
<clipPath id="clip0_47_158">
<rect width="24.89" height="24.89" fill="white" transform="translate(4 5)"/>
</clipPath>
</defs>
</svg>
