<svg width="32" height="32" viewBox="0 0 32 32" fill="none" xmlns="http://www.w3.org/2000/svg">
<g clip-path="url(#clip0_47_187)">
<path d="M29.9141 16.0445L26.6328 6.74766C26.5557 6.52902 26.3491 6.38278 26.1171 6.38278H18.7343V5.83564C19.2498 5.83547 19.4785 5.18404 19.076 4.86204L16.3416 2.67454C16.1419 2.51474 15.858 2.51474 15.6583 2.67454L12.9239 4.86204C12.5212 5.1842 12.7501 5.83525 13.2656 5.83564V6.38278H5.88276C5.65089 6.38278 5.44423 6.52902 5.36706 6.74766L2.08581 16.0445C1.95998 16.4012 2.2257 16.7734 2.60157 16.7734H3.14844V29.8984C3.14844 30.2004 3.39333 30.4453 3.69532 30.4453H28.3047C28.6067 30.4453 28.8516 30.2004 28.8516 29.8984V16.7734H29.3984C29.7759 16.7734 30.0394 16.3996 29.9141 16.0445ZM16 3.80186L17.6406 5.11436V7.47653H16.5469V6.92966C16.5469 6.62762 16.302 6.38278 16 6.38278C15.698 6.38278 15.4531 6.62762 15.4531 6.92966V7.47653H14.3594V5.11436L16 3.80186ZM6.26973 7.47653H13.2656V8.02341C13.2656 8.32545 13.5105 8.57028 13.8125 8.57028H18.1875C18.4895 8.57028 18.7344 8.32545 18.7344 8.02341V7.47653H25.7303L28.6255 15.6797C27.4066 15.6797 4.57901 15.6797 3.37452 15.6797L6.26973 7.47653ZM4.24219 27.7109H12.3669C12.3075 28.2818 12.3357 28.5772 12.3282 29.3515H4.24219V27.7109ZM18.5781 28.4421V29.3515H16.5468V23.9107C17.8269 25.0548 18.5781 26.7132 18.5781 28.4421ZM15.4531 29.3515H13.4219V28.4421C13.4219 26.7132 14.1731 25.0548 15.4531 23.9107V29.3515ZM19.6718 29.3515C19.6643 28.5776 19.6925 28.282 19.6331 27.7109H27.7578V29.3515H19.6718ZM27.7578 26.6172H19.4326C18.9088 24.6435 17.8142 23.4363 16.3256 22.3498C16.133 22.2064 15.8668 22.206 15.6719 22.3515C15.4772 22.5481 13.3337 23.7299 12.5674 26.6172H4.24219V16.7734H27.7578V26.6172Z" fill="black"/>
<path d="M8.07038 11.8513V14.039C8.07038 14.3411 8.31527 14.5859 8.61725 14.5859H12.9923C13.2942 14.5859 13.5391 14.3411 13.5391 14.039V11.8513C14.0546 11.8511 14.2833 11.1997 13.8808 10.8777L11.1464 8.69016C10.9467 8.53036 10.6628 8.53036 10.4631 8.69016L7.72874 10.8777C7.32602 11.1998 7.55489 11.8509 8.07038 11.8513ZM10.8048 9.81749L12.4454 11.13V13.4922H11.3516V12.9453C11.3516 12.6432 11.1067 12.3984 10.8048 12.3984C10.5028 12.3984 10.2579 12.6432 10.2579 12.9453V13.4922H9.16413V11.13L10.8048 9.81749Z" fill="black"/>
<path d="M18.461 11.8513V14.039C18.461 14.3411 18.7059 14.5859 19.0078 14.5859H23.3828C23.6848 14.5859 23.9297 14.3411 23.9297 14.039V11.8515C24.4449 11.8512 24.6739 11.1996 24.2714 10.8776L21.537 8.6901C21.3373 8.5303 21.0534 8.5303 20.8537 8.6901L18.1193 10.8776C17.8835 11.0663 17.8452 11.4104 18.0339 11.6463C18.1419 11.7811 18.3007 11.8511 18.461 11.8513ZM21.1953 9.81748L22.836 11.13V13.4922H21.7422V12.9453C21.7422 12.6432 21.4973 12.3984 21.1953 12.3984C20.8934 12.3984 20.6485 12.6432 20.6485 12.9453V13.4922H19.5547V11.13L21.1953 9.81748Z" fill="black"/>
<path d="M21.7422 24.9766H26.1172C26.4192 24.9766 26.6641 24.7317 26.6641 24.4297V20.6016C26.6641 19.0938 25.4374 17.8672 23.9297 17.8672C22.422 17.8672 21.1953 19.0938 21.1953 20.6016V24.4297C21.1953 24.7317 21.4401 24.9766 21.7422 24.9766ZM22.2891 22.7891H23.3828V23.8828H22.2891V22.7891ZM24.4766 23.8828V22.7891H25.5703V23.8828H24.4766ZM25.5703 20.6016V21.6953H24.4766V19.055C25.1131 19.2808 25.5703 19.8887 25.5703 20.6016ZM23.3828 19.055V21.6953H22.2891V20.6016C22.2891 19.8887 22.7463 19.2808 23.3828 19.055Z" fill="black"/>
<path d="M5.88281 24.9766H10.2578C10.5598 24.9766 10.8047 24.7317 10.8047 24.4297V20.6016C10.8047 19.0938 9.57805 17.8672 8.07031 17.8672C6.56258 17.8672 5.33594 19.0938 5.33594 20.6016V24.4297C5.33594 24.7317 5.58077 24.9766 5.88281 24.9766ZM6.42969 22.7891H7.52344V23.8828H6.42969V22.7891ZM8.61719 23.8828V22.7891H9.71094V23.8828H8.61719ZM9.71094 20.6016V21.6953H8.61719V19.055C9.2537 19.2808 9.71094 19.8887 9.71094 20.6016ZM7.52344 19.055V21.6953H6.42969V20.6016C6.42969 19.8887 6.88693 19.2808 7.52344 19.055Z" fill="black"/>
<path d="M12.4453 21.1484H19.5547C19.8567 21.1484 20.1016 20.9035 20.1016 20.6016V18.4141C20.1016 18.1121 19.8567 17.8672 19.5547 17.8672H12.4453C12.1433 17.8672 11.8984 18.1121 11.8984 18.4141V20.6016C11.8984 20.9035 12.1433 21.1484 12.4453 21.1484ZM15.1797 20.0547V18.9609H16.8203V20.0547H15.1797ZM19.0078 20.0547H17.9141V18.9609H19.0078V20.0547ZM12.9922 18.9609H14.0859V20.0547H12.9922V18.9609Z" fill="black"/>
</g>
<defs>
<clipPath id="clip0_47_187">
<rect width="28" height="28" fill="white" transform="translate(2 2.5)"/>
</clipPath>
</defs>
</svg>
