<svg width="32" height="32" viewBox="0 0 32 32" fill="none" xmlns="http://www.w3.org/2000/svg">
<g clip-path="url(#clip0_10_1148)">
<path d="M15.5 2C9.70312 2 5 6.70312 5 12.5V22.125C5 26.4727 8.52734 30 12.875 30C17.2227 30 20.75 26.4727 20.75 22.125V21.585C23.8891 19.7677 26 16.3828 26 12.5C26 6.70312 21.2969 2 15.5 2ZM19.8258 20.0687C19.3336 20.3859 19 20.9602 19 21.5836V22.125C19 25.5025 16.2525 28.25 12.875 28.25C9.4975 28.25 6.75 25.5047 6.75 22.125V12.5C6.75 7.67547 10.6755 3.75 15.5 3.75C20.3245 3.75 24.25 7.67547 24.25 12.5C24.25 15.6062 22.5711 18.5047 19.8258 20.0687ZM20.318 7.42008C18.8934 6.06984 17.0438 5.37805 15.1248 5.5093C11.4695 5.7007 8.5 9.00547 8.5 12.8719V15.125C8.5 15.6063 8.89156 16 9.375 16H9.70641C10.4901 16 11.1245 16.6344 11.1245 17.4164C11.1245 17.7937 10.9762 18.1514 10.7088 18.4194L8.62742 20.5008C8.28563 20.8426 8.28563 21.3966 8.62742 21.7378C8.79832 21.9087 9.02172 21.9938 9.24594 21.9938C9.46961 21.9938 9.69328 21.9079 9.86445 21.7373L11.947 19.6559C12.4966 19.0565 12.8739 18.2635 12.8739 17.4159C12.8739 15.854 11.738 14.5513 10.2489 14.2938V12.8713C10.2489 9.91984 12.4763 7.40258 15.2227 7.25492C16.6703 7.1707 18.0435 7.67328 19.1116 8.68719C20.1692 9.69398 20.7489 11.0448 20.7489 12.4995C20.7489 12.9829 21.1399 13.3745 21.6239 13.3745C22.1073 13.3745 22.4989 12.9807 22.4989 12.4995C22.4989 10.558 21.7223 8.75336 20.3169 7.41953L20.318 7.42008Z" fill="black"/>
</g>
<defs>
<clipPath id="clip0_10_1148">
<rect width="21" height="28" fill="white" transform="translate(5 2)"/>
</clipPath>
</defs>
</svg>
