<svg width="32" height="32" viewBox="0 0 32 32" fill="none" xmlns="http://www.w3.org/2000/svg">
<path fill-rule="evenodd" clip-rule="evenodd" d="M6.98663 13.4666C5.33699 13.4666 4 14.8059 4 16.4532V20.9332C4 21.7578 4.66873 22.4265 5.49332 22.4265V29.1464C5.49332 29.5571 5.82745 29.8931 6.23998 29.8931C6.65251 29.8931 6.98663 29.5571 6.98663 29.1464V22.4265H9.97327V29.1464C9.97327 29.5589 10.3069 29.8931 10.7199 29.8931C11.1325 29.8931 11.4666 29.5589 11.4666 29.1464V22.4265C12.2912 22.4265 12.9599 21.7578 12.9599 20.9332V16.4532C12.9599 14.8059 11.6206 13.4666 9.97327 13.4666H6.98663ZM5.49332 20.9332V16.4532C5.49332 15.63 6.16344 14.9599 6.98663 14.9599H9.97327C10.7965 14.9599 11.4666 15.63 11.4666 16.4532V20.9332H5.49332ZM8.47995 11.9733C10.131 11.9733 11.4666 10.6377 11.4666 8.98663C11.4666 7.33559 10.131 6 8.47995 6C6.8289 6 5.49332 7.33559 5.49332 8.98663C5.49332 10.6377 6.82937 11.9733 8.47995 11.9733ZM8.47995 7.49332C9.30314 7.49332 9.97327 8.16344 9.97327 8.98663C9.97327 9.80983 9.30314 10.48 8.47995 10.48C7.65676 10.48 6.98663 9.80983 6.98663 8.98663C6.98663 8.16344 7.65863 7.49332 8.47995 7.49332ZM27.2591 21.9422L26.0311 17.6438C25.8153 16.8918 25.129 16.375 24.347 16.375H23.204C22.422 16.375 21.7354 16.8918 21.5207 17.6438L20.2927 21.9422C20.2126 22.2211 20.4223 22.5 20.7133 22.5H22.0255V25.5625C22.0255 25.8031 22.2213 26 22.463 26C22.7047 26 22.9005 25.8031 22.9005 25.5625V22.5H24.6505V25.5625C24.6505 25.8042 24.846 26 25.088 26C25.3297 26 25.5255 25.8042 25.5255 25.5625V22.5H26.8377C27.1276 22.5 27.3381 22.2211 27.2588 21.9422H27.2591ZM21.2932 21.625L22.3618 17.8844C22.4693 17.5098 22.8127 17.25 23.204 17.25H24.3483C24.7391 17.25 25.0823 17.5089 25.1897 17.8846L26.2583 21.625H21.2932ZM23.7755 15.5C24.7429 15.5 25.5255 14.7174 25.5255 13.75C25.5255 12.7826 24.7435 12 23.7755 12C22.8075 12 22.0009 12.7826 22.0009 13.75C22.0009 14.7174 22.8083 15.5 23.7755 15.5ZM23.7755 12.875C24.2578 12.875 24.6505 13.2677 24.6505 13.75C24.6505 14.2323 24.2578 14.625 23.7755 14.625C23.2931 14.625 22.9005 14.2323 22.9005 13.75C22.9005 13.2677 23.2942 12.875 23.7755 12.875ZM17.6349 24.6875V13.3125C17.6349 13.0708 17.4391 12.875 17.1974 12.875C16.9557 12.875 16.7599 13.0708 16.7599 13.3125V24.6875C16.7599 24.9281 16.9557 25.125 17.1974 25.125C17.4391 25.125 17.6349 24.9281 17.6349 24.6875Z" fill="black"/>
</svg>
