<svg width="32" height="32" viewBox="0 0 32 32" fill="none" xmlns="http://www.w3.org/2000/svg">
<g clip-path="url(#clip0_47_146)">
<path d="M18.5625 1.99993C18.8742 1.99993 19.1641 2.16782 19.3227 2.44072L21.0727 5.50267C21.2367 5.79032 21.2258 6.14634 21.0398 6.42251L18.9398 9.57361C23.0469 11.001 26 14.8564 26 19.4994C26 25.2963 21.2969 29.9994 15.5 29.9994C9.70094 29.9994 5 25.2963 5 19.4994C5 14.8564 7.95148 11.001 12.0602 9.57361L9.95961 6.42251C9.77586 6.14634 9.76328 5.79032 9.92789 5.50267L11.6773 2.44017C11.7867 2.16728 12.1258 1.99884 12.4375 1.99884H18.5625V1.99993ZM17.1352 9.12572L19.2844 5.90189L18.0539 3.74993H12.9461L11.7156 5.90189L13.8648 9.12572C14.3953 9.04368 14.9422 8.99993 15.5 8.99993C16.0578 8.99993 16.6047 9.04368 17.1352 9.12572ZM15.5 10.7499C10.6656 10.7499 6.75 14.6656 6.75 19.4999C6.75 24.3343 10.6656 28.2499 15.5 28.2499C20.3344 28.2499 24.25 24.3343 24.25 19.4999C24.25 14.6656 20.3344 10.7499 15.5 10.7499Z" fill="black"/>
</g>
<defs>
<clipPath id="clip0_47_146">
<rect width="21" height="28" fill="white" transform="translate(5 2)"/>
</clipPath>
</defs>
</svg>
