<svg width="32" height="32" viewBox="0 0 32 32" fill="none" xmlns="http://www.w3.org/2000/svg">
<g id="&#201;&#185;_rain_&#203;&#136;&#201;&#185;e&#201;&#170;n">
<g id="cloud-rain 1" clip-path="url(#clip0_10_1053)">
<path id="Vector" d="M24.679 8.13594C24.2688 5.65039 22.1032 3.75 19.5001 3.75C18.4626 3.75 17.4717 4.04859 16.624 4.60805C15.4915 2.99641 13.6266 2 11.6251 2C8.25084 2 5.50006 4.74805 5.50006 8.125C5.50006 8.2732 5.50498 8.42195 5.51701 8.57234C3.41264 9.44242 1.99951 11.4987 1.99951 13.812C1.99951 16.9455 4.55123 19.4995 7.68701 19.4995H24.312C27.4456 19.4995 29.9995 16.9455 29.9995 13.812C29.9995 10.7987 27.6425 8.3268 24.6784 8.13539L24.679 8.13594ZM24.3126 17.75H7.68756C5.51701 17.75 3.75006 15.9836 3.75006 13.8125C3.75006 12.0302 4.96357 10.4695 6.70154 10.0183C7.15053 9.90016 7.43107 9.45281 7.3392 8.99781C7.28068 8.71562 7.25006 8.42578 7.25006 8.125C7.25006 5.71219 9.21334 3.75 11.6251 3.75C13.3187 3.75 14.874 4.75133 15.5883 6.30008C15.7075 6.56148 15.9487 6.74742 16.2325 6.79555C16.5158 6.85516 16.8051 6.75453 17.0069 6.54727C17.6735 5.87133 18.5594 5.49891 19.5001 5.49891C21.4294 5.49891 23.0001 7.06953 23.0001 8.99891C23.0001 9.48234 23.3911 9.87391 23.8751 9.87391H24.3126C26.4837 9.87391 28.2501 11.6403 28.2501 13.8114C28.2501 15.9825 26.4837 17.7489 24.3126 17.7489V17.75ZM15.2782 21.6273C14.6936 22.4734 12.7899 25.3428 12.7899 26.792C12.7899 28.5617 14.2337 30 16.0001 30C17.7665 30 19.208 28.5612 19.208 26.792C19.208 25.3428 17.3044 22.4734 16.7197 21.6273C16.3938 21.157 15.6063 21.157 15.2782 21.6273ZM16.0001 28.25C15.1967 28.25 14.5421 27.5954 14.5421 26.792C14.5421 26.3234 15.212 25.0043 16.0001 23.7262C16.7881 25.0048 17.458 26.3239 17.458 26.792C17.4602 27.5937 16.804 28.25 16.0001 28.25ZM6.53037 21.6273C5.94576 22.4734 4.04209 25.3428 4.04209 26.792C4.04154 28.5617 5.48146 30 7.25006 30C9.01865 30 10.458 28.5612 10.458 26.792C10.458 25.3428 8.55436 22.4734 7.96975 21.6273C7.64381 21.157 6.85521 21.157 6.53037 21.6273ZM7.25006 28.25C6.4467 28.25 5.79209 27.5954 5.79209 26.792C5.79209 26.3234 6.46201 25.0043 7.25006 23.7262C8.03811 25.0048 8.70803 26.3239 8.70803 26.792C8.71022 27.5937 8.05396 28.25 7.25006 28.25ZM24.0282 21.6273C23.4436 22.4734 21.5399 25.3428 21.5399 26.792C21.5399 28.5617 22.9837 30 24.7501 30C26.5165 30 27.958 28.5612 27.958 26.792C27.958 25.3428 26.0544 22.4734 25.4697 21.6273C25.1438 21.157 24.3563 21.157 24.0282 21.6273ZM24.7501 28.25C23.9467 28.25 23.2921 27.5954 23.2921 26.792C23.2921 26.3234 23.962 25.0043 24.7501 23.7262C25.5381 25.0048 26.208 26.3239 26.208 26.792C26.2102 27.5937 25.554 28.25 24.7501 28.25Z" fill="black"/>
</g>
</g>
<defs>
<clipPath id="clip0_10_1053">
<rect width="28" height="28" fill="white" transform="translate(2 2)"/>
</clipPath>
</defs>
</svg>
