<svg width="32" height="32" viewBox="0 0 32 32" fill="none" xmlns="http://www.w3.org/2000/svg">
<g clip-path="url(#clip0_53_724)">
<path d="M16 28.25C22.7648 28.25 28.25 22.7648 28.25 16C28.25 15.5187 28.6437 15.125 29.125 15.125C29.6063 15.125 30 15.5187 30 16C30 23.7328 23.7328 30 16 30C8.26719 30 2 23.7328 2 16C2 8.26719 8.26719 2 16 2C19.5492 2 22.7922 3.32289 25.2641 5.50109L27.632 3.13148C27.9711 2.78969 28.5289 2.78969 28.868 3.13148C29.2125 3.47273 29.2125 4.02727 28.868 4.36852L16.618 16.618C16.2789 16.9625 15.7211 16.9625 15.382 16.618C15.0375 16.2789 15.0375 15.7211 15.382 15.382L17.7773 12.9867C17.2086 12.675 16.6508 12.5 16 12.5C14.0695 12.5 12.5 14.0695 12.5 16C12.5 17.9305 14.0695 19.5 16 19.5C17.9305 19.5 19.5 17.9305 19.5 16C19.5 15.5187 19.8937 15.125 20.375 15.125C20.8563 15.125 21.25 15.5187 21.25 16C21.25 18.8984 18.8984 21.25 16 21.25C13.0523 21.25 10.75 18.8984 10.75 16C10.75 13.0523 13.0523 10.75 16 10.75C17.132 10.75 18.182 11.1109 19.0406 11.718L20.9164 9.84766C19.5656 8.77031 17.8594 8.125 16 8.125C12.7242 8.125 9.99531 10.0664 8.73203 12.85C8.58437 13.293 8.07031 13.4953 7.62734 13.3039C7.18492 13.107 6.98258 12.593 7.17617 12.15C8.66094 8.75391 12.0516 6.375 16 6.375C18.3406 6.375 20.4898 7.21281 22.1578 8.60078L24.0227 6.74141C21.8734 4.87711 19.068 3.75 16 3.75C9.23516 3.75 3.75 9.23516 3.75 16C3.75 22.7648 9.23516 28.25 16 28.25ZM24.75 15.125C25.2313 15.125 25.625 15.5187 25.625 16C25.625 19.9484 23.2461 23.3391 19.85 24.8211C19.407 25.018 18.893 24.8156 18.6961 24.3727C18.5047 23.8805 18.707 23.4156 19.15 23.2188C21.9336 22.0047 23.875 19.2266 23.875 16C23.875 15.5187 24.2687 15.125 24.75 15.125ZM7.62734 18.6961C8.07031 18.5047 8.58437 18.707 8.73203 19.15C9.57422 20.9656 11.0344 22.4258 12.85 23.2188C13.293 23.4156 13.4953 23.8805 13.3039 24.3727C13.107 24.8156 12.593 25.018 12.15 24.8211C9.88047 23.8531 8.14688 22.0703 7.17617 19.85C6.98258 19.407 7.18492 18.893 7.62734 18.6961ZM8.5625 16C8.5625 16.7273 7.97734 17.3125 7.25 17.3125C6.52539 17.3125 5.9375 16.7273 5.9375 16C5.9375 15.2727 6.52539 14.6875 7.25 14.6875C7.97734 14.6875 8.5625 15.2727 8.5625 16ZM14.6875 24.75C14.6875 24.0227 15.2727 23.4375 16 23.4375C16.7273 23.4375 17.3125 24.0227 17.3125 24.75C17.3125 25.4773 16.7273 26.0625 16 26.0625C15.2727 26.0625 14.6875 25.4773 14.6875 24.75Z" fill="black"/>
</g>
<defs>
<clipPath id="clip0_53_724">
<rect width="28" height="28" fill="white" transform="translate(2 2)"/>
</clipPath>
</defs>
</svg>
