<svg width="32" height="32" viewBox="0 0 32 32" fill="none" xmlns="http://www.w3.org/2000/svg">
<g clip-path="url(#clip0_47_190)">
<path d="M9.375 10.75H12.875C13.3563 10.75 13.75 10.3563 13.75 9.875C13.75 9.39375 13.3563 9 12.875 9H9.375C8.89156 9 8.5 9.39375 8.5 9.875C8.5 10.3563 8.89156 10.75 9.375 10.75ZM9.375 7.25H12.875C13.3563 7.25 13.75 6.85844 13.75 6.375C13.75 5.89156 13.3563 5.5 12.875 5.5H9.375C8.89156 5.5 8.5 5.89156 8.5 6.375C8.5 6.85844 8.89156 7.25 9.375 7.25ZM24.9773 8.85234L19.1531 3.02812C18.4914 2.36859 17.6055 2 16.6758 2H8.5C6.5668 2 5 3.5668 5 5.5V26.5C5 28.4332 6.5668 30 8.5 30H22.4995C24.4327 30 25.9995 28.4332 25.9995 26.5V11.3242C25.9995 10.3945 25.6336 9.50859 24.9773 8.85234ZM17.25 3.86375C17.4945 3.94906 17.7236 4.07375 17.9128 4.26242L23.737 10.0866C23.9273 10.2737 24.0531 10.5034 24.1352 10.7495H18.125C17.6437 10.7495 17.25 10.3557 17.25 9.87445V3.86375ZM24.25 26.5C24.25 27.4647 23.4647 28.25 22.5 28.25H8.5C7.53531 28.25 6.75 27.4647 6.75 26.5V5.5C6.75 4.53531 7.53531 3.75 8.5 3.75H15.5V9.875C15.5 11.3242 16.6758 12.5 18.125 12.5H24.25V26.5ZM8.5 16.875V20.375C8.5 21.3397 9.28531 22.125 10.25 22.125H20.75C21.7147 22.125 22.5 21.3397 22.5 20.375V16.875C22.5 15.9103 21.7147 15.125 20.75 15.125H10.25C9.28531 15.125 8.5 15.9125 8.5 16.875ZM20.75 20.375H10.25V16.875H20.75V20.375ZM21.625 24.75H18.125C17.641 24.75 17.25 25.141 17.25 25.625C17.25 26.1084 17.641 26.5 18.125 26.5H21.625C22.1084 26.5 22.5 26.1084 22.5 25.625C22.5 25.141 22.1063 24.75 21.625 24.75Z" fill="black"/>
</g>
<defs>
<clipPath id="clip0_47_190">
<rect width="21" height="28" fill="white" transform="translate(5 2)"/>
</clipPath>
</defs>
</svg>
