<svg width="32" height="32" viewBox="0 0 32 32" fill="none" xmlns="http://www.w3.org/2000/svg">
<path d="M2.875 14.5H22.125C24.5367 14.5 26.5 12.5367 26.5 10.125C26.5 7.71328 24.5367 5.75 22.125 5.75H20.375C19.8937 5.75 19.5 6.14156 19.5 6.625C19.5 7.10844 19.8937 7.5 20.375 7.5H22.125C23.5742 7.5 24.75 8.67742 24.75 10.125C24.75 11.5726 23.5742 12.75 22.125 12.75H2.875C2.39102 12.75 2 13.1437 2 13.625C2 14.1063 2.39134 14.5 2.875 14.5ZM11.625 21.5H2.875C2.39102 21.5 2 21.8937 2 22.375C2 22.8563 2.39134 23.25 2.875 23.25H11.625C13.0742 23.25 14.25 24.4258 14.25 25.875C14.25 27.3242 13.0742 28.5 11.625 28.5H9.875C9.39375 28.5 9 28.8937 9 29.375C9 29.8563 9.39375 30.25 9.875 30.25H11.625C14.0384 30.25 16 28.2878 16 25.875C16 23.4622 14.0367 21.5 11.625 21.5ZM25.1875 17.125H2.875C2.39102 17.125 2 17.5187 2 18C2 18.4813 2.39134 18.875 2.875 18.875H25.1875C26.8762 18.875 28.25 20.2488 28.25 21.9375C28.25 23.6262 26.8773 25 25.1875 25H23.875C23.391 25 23 25.391 23 25.875C23 26.3584 23.391 26.75 23.875 26.75H25.1875C27.8415 26.75 30 24.5915 30 21.9375C30 19.2835 27.8398 17.125 25.1875 17.125Z" fill="black"/>
</svg>
