<svg width="32" height="32" viewBox="0 0 32 32" fill="none" xmlns="http://www.w3.org/2000/svg">
<g clip-path="url(#clip0_53_725)">
<path d="M29.6664 26.6531C29.632 26.5984 29.598 26.5437 29.557 26.4959L23.3008 18.625H23.4033C26.0764 18.625 28.2503 16.4512 28.2503 13.7786C28.2503 12.2134 27.4912 10.7434 26.2197 9.83398C26.1853 9.80664 26.1514 9.78613 26.1172 9.76562L24.7702 8.9382L24.8112 8.77414C25.5703 5.9375 25.5758 2.68359 23.3008 2.0752C23.1094 2.02734 22.918 2 22.7211 2C21.757 2 20.9848 2.56766 20.3766 3.33984C19.768 2.56766 18.9969 2 18.0344 2C17.8361 2 17.6412 2.02734 17.4503 2.0752C15.1742 2.68359 15.1797 5.9375 15.9398 8.77578C16.0629 9.24746 16.2133 9.70547 16.3839 10.1495C16.2403 10.505 16.131 10.8878 16.0695 11.2772C16.0216 11.5594 15.9995 11.8383 15.9995 12.1172V14.3933C12.3146 15.0156 9.28383 17.5652 7.96586 20.9558C7.35883 20.5828 6.66867 20.375 5.93695 20.375C4.88422 20.375 3.89273 20.7852 3.14789 21.53C1.61664 23.0612 1.61664 25.5632 3.14789 27.0972C3.89328 27.8398 4.88422 28.25 5.93695 28.25C6.4975 28.25 7.0307 28.0928 7.53 27.8672C8.06429 29.1195 9.3057 30 10.7495 30H19.4995C20.4636 30 21.25 29.2136 21.25 28.25C21.25 26.9785 20.5664 25.864 19.5547 25.2487L20.416 24.7087L23.9778 29.0974C24.3885 29.6661 25.0393 29.9997 25.7502 29.9997H27.8147C28.6077 29.9997 29.3459 29.5691 29.7287 28.8721C30.1088 28.1732 30.087 27.3255 29.6659 26.6529L29.6664 26.6531ZM7.25 24.75V26.0078C6.86062 26.3141 6.40234 26.5 5.9375 26.5C5.37695 26.5 4.8164 26.2881 4.38547 25.8574C3.5307 25.0032 3.5307 23.6223 4.38547 22.7676C4.8164 22.3383 5.37695 22.125 5.9375 22.125C6.43515 22.125 7.02469 22.3369 7.44851 22.7473C7.32547 23.3938 7.25 24.0664 7.25 24.75ZM27.8125 28.25H25.748C25.5977 28.25 25.4609 28.1748 25.3789 28.0449L20.7988 22.4066L14.25 26.5H17.75C18.7141 26.5 19.5 27.2859 19.5 28.2008L10.75 28.2495C9.77929 28.2495 9 27.463 9 26.4995L8.99945 24.7495C8.99945 19.9162 12.9167 16.0487 17.7495 16.0487V12.2151C17.7495 12.0237 17.7631 11.8399 17.797 11.6556C17.8791 11.1498 18.0634 10.697 18.316 10.3278C18.0562 9.76727 17.817 9.13125 17.6253 8.42031C17.0101 6.10977 17.1331 4.07266 17.8987 3.86047C17.9398 3.75602 17.989 3.74945 18.0273 3.74945C18.7727 3.74945 19.7844 5.31352 20.3723 7.42555C20.9695 5.31352 21.9757 3.74945 22.7195 3.74945C22.7605 3.74945 22.8083 3.75629 22.8493 3.76313C23.615 3.97504 23.738 6.01242 23.1228 8.32297C22.9861 8.81516 22.8288 9.27344 22.6579 9.69727L25.202 11.2564C26.0157 11.8377 26.5003 12.774 26.5003 13.7786C26.5003 15.4876 25.1118 16.875 23.4028 16.875L21.2481 16.8745V18.864L28.1825 27.5812C28.3629 27.8721 28.1551 28.2495 27.8106 28.2495L27.8125 28.25ZM22.0758 12.4508C22.0758 11.9652 21.6861 11.5758 21.2008 11.5758C20.7154 11.5758 20.3258 11.9654 20.3258 12.4508C20.3258 12.9361 20.7152 13.3258 21.2008 13.3258C21.6859 13.3258 22.0758 12.9867 22.0758 12.4508Z" fill="black"/>
</g>
<defs>
<clipPath id="clip0_53_725">
<rect width="28" height="28" fill="white" transform="translate(2 2)"/>
</clipPath>
</defs>
</svg>
