<svg width="32" height="32" viewBox="0 0 32 32" fill="none" xmlns="http://www.w3.org/2000/svg">
<path fill-rule="evenodd" clip-rule="evenodd" d="M26.8 20.2H27.5C28.662 20.2 29.6 19.262 29.6 18.1V16.7C29.6 16.161 29.397 15.671 29.068 15.3C29.404 14.929 29.6 14.439 29.6 13.9V12.5C29.6 11.961 29.397 11.471 29.068 11.1C29.404 10.729 29.6 10.239 29.6 9.7V8.3C29.6 7.138 28.662 6.2 27.5 6.2H26.8V4.8C26.8 3.253 25.547 2 24 2H5.1C4.54 2 4.008 2.224 3.616 2.616C3.224 3.008 3 3.547 3 4.1V27.9C3 28.46 3.224 28.992 3.616 29.384C4.008 29.776 4.547 30 5.1 30H24C25.547 30 26.8 28.747 26.8 27.2V20.2ZM5.8 3.4V28.6H5.1C4.911 28.6 4.736 28.523 4.603 28.397C4.47 28.264 4.4 28.089 4.4 27.9V4.1C4.4 3.911 4.477 3.736 4.603 3.603C4.736 3.47 4.911 3.4 5.1 3.4H5.8ZM7.2 3.4H24C24.77 3.4 25.4 4.03 25.4 4.8V27.2C25.4 27.97 24.77 28.6 24 28.6H7.2V3.4ZM13.5 26.5H19.1C19.485 26.5 19.8 26.185 19.8 25.8C19.8 25.415 19.485 25.1 19.1 25.1H13.5C13.115 25.1 12.8 25.415 12.8 25.8C12.8 26.185 13.115 26.5 13.5 26.5ZM13.003 13.83C11.946 13.774 9.951 14.012 9.321 16.532C9.223 16.924 9.307 17.505 9.538 18.128C9.867 19.01 10.455 20.004 10.7 20.403V21.6C10.7 22.762 11.638 23.7 12.8 23.7H19.8C20.962 23.7 21.9 22.762 21.9 21.6V20.403C22.145 20.004 22.733 19.01 23.062 18.128C23.293 17.505 23.377 16.924 23.279 16.532C22.649 14.012 20.654 13.774 19.597 13.83C19.464 13.452 19.254 13.088 18.953 12.766C18.428 12.22 17.602 11.8 16.3 11.8C14.998 11.8 14.179 12.22 13.647 12.766C13.339 13.081 13.136 13.452 13.003 13.83ZM20.5 20.9H12.1V21.6C12.1 21.985 12.415 22.3 12.8 22.3H19.8C20.185 22.3 20.5 21.985 20.5 21.6V20.9ZM19.842 15.223C19.856 15.762 19.786 16.14 19.786 16.14C19.709 16.518 19.345 16.763 18.96 16.686C18.582 16.609 18.337 16.245 18.414 15.86C18.414 15.86 18.708 14.53 17.945 13.739C17.623 13.403 17.098 13.193 16.3 13.193C15.502 13.193 14.977 13.403 14.655 13.739C13.892 14.53 14.186 15.86 14.186 15.86C14.263 16.238 14.018 16.609 13.64 16.686C13.262 16.763 12.891 16.518 12.814 16.14C12.814 16.14 12.744 15.762 12.758 15.223C12.093 15.223 11.036 15.461 10.679 16.875C10.651 16.98 10.693 17.113 10.728 17.267C10.791 17.519 10.903 17.792 11.022 18.072C11.274 18.632 11.582 19.178 11.785 19.507H13.227L12.835 18.331C12.709 17.967 12.912 17.568 13.276 17.449C13.64 17.323 14.039 17.526 14.158 17.89L14.697 19.514H15.593V17.414C15.593 17.029 15.908 16.714 16.293 16.714C16.678 16.714 16.993 17.029 16.993 17.414V19.514H17.889L18.428 17.89C18.547 17.526 18.946 17.323 19.31 17.449C19.674 17.568 19.877 17.967 19.751 18.331L19.359 19.507H20.801C20.997 19.178 21.312 18.625 21.564 18.072C21.69 17.799 21.795 17.519 21.858 17.267C21.9 17.113 21.935 16.98 21.907 16.875C21.557 15.461 20.5 15.23 19.828 15.223H19.842ZM27.5 16C27.885 16 28.2 16.315 28.2 16.7V18.1C28.2 18.485 27.885 18.8 27.5 18.8H26.8V16H27.5ZM27.5 14.6H26.8V11.8H27.5C27.885 11.8 28.2 12.115 28.2 12.5V13.9C28.2 14.285 27.885 14.6 27.5 14.6ZM28.2 8.3V9.7C28.2 10.085 27.885 10.4 27.5 10.4H26.8V7.6H27.5C27.885 7.6 28.2 7.915 28.2 8.3ZM23.3 6.2C23.3 5.815 22.985 5.5 22.6 5.5H10C9.615 5.5 9.3 5.815 9.3 6.2V9.7C9.3 10.085 9.615 10.4 10 10.4H22.6C22.985 10.4 23.3 10.085 23.3 9.7V6.2ZM21.9 6.9V9H10.7V6.9H21.9Z" fill="black"/>
</svg>
