<svg width="32" height="32" viewBox="0 0 32 32" fill="none" xmlns="http://www.w3.org/2000/svg">
<g id="&#202;&#131;_sheep_&#203;&#136;&#202;&#131;ip">
<g id="sheep 1">
<path id="Vector" d="M21.25 13.5C21.25 13.0875 21.5875 12.75 22 12.75C22.4125 12.75 22.75 13.0875 22.75 13.5C22.75 13.9125 22.4125 14.25 22 14.25C21.5875 14.25 21.25 13.9125 21.25 13.5ZM25.75 13.5C25.75 13.9125 25.4125 14.25 25 14.25C24.5875 14.25 24.25 13.9125 24.25 13.5C24.25 13.0875 24.5875 12.75 25 12.75C25.4125 12.75 25.75 13.0875 25.75 13.5ZM18.4609 10.9594C19.0656 8.95734 20.9266 7.5 23.125 7.5C25.2063 7.5 26.9781 8.80219 27.6813 10.6355L29.9172 12.1266C30.2594 12.3562 30.3531 12.8203 30.1234 13.1672C29.8937 13.5094 29.4297 13.6031 29.0828 13.3734L28 12.6516V15.75C28 18.2344 25.9844 20.25 23.5 20.25H22.75C20.2234 20.25 18.25 18.2344 18.25 15.75V12.9L17.5422 13.3734C17.1953 13.6031 16.7313 13.5094 16.5016 13.1672C16.2719 12.8203 16.3656 12.3562 16.7078 12.1266L18.4609 10.9594ZM23.125 9C21.4328 9 20.0312 10.245 19.7875 11.8687L19.7922 11.8734L19.7875 11.8781C19.7641 12.0375 19.75 12.2063 19.75 12.375V15.75C19.75 17.4047 21.0953 18.75 22.75 18.75H23.5C25.1547 18.75 26.5 17.4047 26.5 15.75V12.375C26.5 10.5113 24.9906 9 23.125 9ZM20.5 22.125C20.9641 22.125 21.3813 21.9141 21.6578 21.5812C22.1266 21.6891 22.6187 21.75 23.125 21.75C23.1766 21.75 23.2281 21.7078 23.2844 21.7078C22.8766 22.7578 21.9344 23.4938 20.8094 23.6109L19.6375 28.2938C19.3844 29.2969 18.4844 30 17.4531 30H16.75C15.5078 30 14.4578 28.9922 14.4578 27.75V25.8469C14.0594 26.1047 13.5484 26.25 12.9578 26.25C12.4516 26.25 11.9406 26.1047 11.4578 25.8469V27.75C11.4578 28.9922 10.4922 30 9.20781 30H8.50469C7.47344 30 6.61563 29.2969 6.3625 28.2938L5.19156 23.6109C3.67984 23.4563 2.5 22.1766 2.5 20.625C2.5 20.3766 2.53094 20.1328 2.58859 19.8984C1.64312 19.3922 1 18.3984 1 17.25C1 16.1016 1.64312 15.1078 2.58859 14.6016C2.53094 14.3672 2.5 14.1234 2.5 13.875C2.5 12.2203 3.84297 10.875 5.5 10.875C5.65656 10.875 5.80938 10.8891 5.95938 10.9125C6.28281 9.59859 7.46406 8.625 8.875 8.625C9.57812 8.625 10.2297 8.86828 10.7406 9.27562C11.2891 8.64703 12.1 8.25 13 8.25C13.9 8.25 14.7109 8.64703 15.2594 9.27562C15.7703 8.86828 16.3797 8.625 17.125 8.625C17.3922 8.625 17.65 8.65969 17.8984 8.72531C17.5984 9.15609 17.3453 9.62578 17.1578 10.1255L17.125 10.125C16.7688 10.125 16.45 10.2459 16.1922 10.4498C15.5641 10.95 14.6594 10.8656 14.1297 10.2633C13.8531 9.94641 13.45 9.75 12.9578 9.75C12.55 9.75 12.1469 9.94641 11.8703 10.2633C11.3406 10.8656 10.4359 10.95 9.80781 10.4498C9.55 10.2459 9.23125 10.125 8.83281 10.125C8.12969 10.125 7.57656 10.6102 7.41719 11.2641C7.19219 12.0234 6.50312 12.5109 5.69219 12.3937C5.6575 12.3797 5.57969 12.375 5.45781 12.375C4.67172 12.375 3.95781 13.0453 3.95781 13.875C3.95781 14.0016 4.01547 14.1234 4.04406 14.2406C4.21047 14.9063 3.90156 15.6 3.29547 15.9234C2.81875 16.1812 2.45781 16.6781 2.45781 17.25C2.45781 17.8219 2.81875 18.3187 3.29547 18.5766C3.90156 18.9 4.21047 19.5516 4.04406 20.2594C4.01547 20.3766 3.95781 20.4984 3.95781 20.625C3.95781 21.4547 4.67172 22.125 5.45781 22.125C5.57969 22.125 5.6575 22.1203 5.69219 22.1063C6.50312 21.9891 7.19219 22.4766 7.41719 23.2359C7.57656 23.8875 8.12969 24.375 8.83281 24.375C9.23125 24.375 9.55 24.2531 9.80781 24.0516C10.4359 23.55 11.3406 23.6344 11.8703 24.2344C12.1469 24.5531 12.55 24.75 13 24.75C13.45 24.75 13.8531 24.5531 14.1297 24.2344C14.6594 23.6344 15.5641 23.55 16.1922 24.0516C16.45 24.2531 16.7688 24.375 17.125 24.375C17.8281 24.375 18.4234 23.8875 18.5828 23.2359C18.7656 22.4766 19.4969 21.9891 20.2656 22.1063C20.3406 22.1203 20.4203 22.125 20.5 22.125ZM15.9578 25.6547V27.75C15.9578 28.1625 16.3375 28.5 16.75 28.5H17.4531C17.8 28.5 18.1 28.2656 18.1797 27.9328L18.8266 25.3453C18.3437 25.6781 17.7578 25.875 17.125 25.875C16.7266 25.875 16.3469 25.7953 15.9578 25.6547ZM7.17344 25.3453L7.82031 27.9328C7.9 28.2656 8.2 28.5 8.50469 28.5H9.20781C9.6625 28.5 9.95781 28.1625 9.95781 27.75V25.6547C9.65313 25.7953 9.27344 25.875 8.83281 25.875C8.24219 25.875 7.61406 25.6781 7.17344 25.3453Z" fill="black"/>
</g>
</g>
</svg>
