<svg width="32" height="32" viewBox="0 0 32 32" fill="none" xmlns="http://www.w3.org/2000/svg">
<path d="M7.8417 7.68115H5.47453L7.03688 5.59804C7.19369 5.38795 7.15227 5.09207 6.94218 4.93525C6.73208 4.77844 6.43621 4.82075 6.27939 5.02995L4.14895 7.87051C4.0424 8.01254 3.99804 8.20488 4.10456 8.3676C4.18443 8.52739 4.34719 8.628 4.52768 8.628H6.89484L5.3325 10.7111C5.17568 10.9212 5.2171 11.2171 5.4272 11.3739C5.63729 11.5307 5.93317 11.4893 6.08999 11.2792L8.22042 8.43864C8.32694 8.2966 8.3447 8.10427 8.26482 7.94154C8.18494 7.78175 8.02218 7.68115 7.8417 7.68115Z" fill="black"/>
<path d="M16.2639 17.5H13.0694L15.1778 14.75C15.3894 14.4727 15.3335 14.082 15.05 13.875C14.7665 13.668 14.3672 13.7238 14.1556 14L11.2806 17.75C11.1368 17.9375 11.0769 18.1914 11.2207 18.4062C11.3285 18.6172 11.5481 18.75 11.7917 18.75H14.9861L12.8778 21.5C12.6661 21.7773 12.722 22.168 13.0056 22.375C13.2891 22.582 13.6884 22.5273 13.9 22.25L16.775 18.5C16.9187 18.3125 16.9427 18.0586 16.8349 17.8438C16.7271 17.6328 16.5075 17.5 16.2639 17.5Z" fill="black"/>
<path fill-rule="evenodd" clip-rule="evenodd" d="M3.84059 2H8.57489C9.61938 2 10.4686 2.84773 10.4686 3.8937L10.4686 10.0253C10.5877 10.0086 10.7095 10 10.8333 10H17.2222C18.6318 10 19.7778 11.1191 19.7778 12.5V20H20.4167C22.1816 20 23.6111 21.3984 23.6111 23.125V25C23.6111 25.6914 24.1821 26.25 24.8889 26.25C25.5957 26.25 26.1667 25.6914 26.1667 25V20.5625C24.7092 20.2383 23.6111 19.0117 23.6111 17.5V15.625C23.6111 15.2812 23.8986 15 24.25 15H24.8889V13.125C24.8889 12.7797 25.1764 12.5 25.5278 12.5C25.8792 12.5 26.1667 12.7797 26.1667 13.125V15H27.4444V13.125C27.4444 12.7797 27.7319 12.5 28.0833 12.5C28.4347 12.5 28.7222 12.7797 28.7222 13.125V15H29.3611C29.7125 15 30 15.2812 30 15.625V17.5C30 19.0117 28.9019 20.2383 27.4444 20.5625V25C27.4444 26.3789 26.2984 27.5 24.8889 27.5C23.4793 27.5 22.3333 26.3789 22.3333 25V23.125C22.3333 22.0898 21.4748 21.25 20.4167 21.25H19.7778V28.75H20.4167C20.7681 28.75 21.0556 29.0312 21.0556 29.375C21.0556 29.7188 20.7681 30 20.4167 30H7.63889C7.2859 30 7 29.7188 7 29.375C7 29.0312 7.2859 28.75 7.63889 28.75H8.27778V17.1498H1.47343C1.21188 17.1498 1 16.9367 1 16.6763C1 16.416 1.21188 16.2029 1.47343 16.2029H1.94685V3.8937C1.94685 2.84773 2.79458 2 3.84059 2ZM9.52174 10.3539C8.77653 10.7906 8.27778 11.5882 8.27778 12.5V16.2029H2.8937V3.8937C2.8937 3.37087 3.31772 2.94685 3.84055 2.94685H8.57485C9.09858 2.94685 9.52174 3.37087 9.52174 3.8937L9.52174 10.3539ZM10.8333 11.25H17.2222C17.929 11.25 18.5 11.8098 18.5 12.5V28.75H9.55556V12.5C9.55556 11.8098 10.1278 11.25 10.8333 11.25ZM24.8889 17.5V16.25H28.7222V17.5C28.7222 18.5352 27.8637 19.375 26.8056 19.375C25.7474 19.375 24.8889 18.5352 24.8889 17.5Z" fill="black"/>
</svg>
