<svg width="32" height="32" viewBox="0 0 32 32" fill="none" xmlns="http://www.w3.org/2000/svg">
<path d="M21.4508 11.2422V6.37391C21.4508 5.89156 21.1063 5.5 20.5758 5.5C20.0929 5.5 19.7019 5.89102 19.7013 6.37391L19.7008 11.2422C19.7002 11.8837 20.0486 12.4765 20.6146 12.7795C23.7936 14.4835 25.8094 17.7948 25.8148 21.2505C24.1868 21.2588 22.0507 21.1182 19.4656 19.617C15.5391 17.2633 11.2023 17.1648 6.88039 19.15C7.49398 16.437 9.25711 14.081 11.8138 12.7406C12.3902 12.4393 12.7489 11.8421 12.7495 11.1919L12.7008 6.37445C12.7008 5.89156 12.3563 5.5 11.875 5.5C11.3937 5.5 10.9508 5.89156 10.9508 6.37391V11.1941C7.36984 13.0961 4.875 16.8695 4.875 21.25C4.875 24.1895 5.98953 26.8719 7.82758 28.8953C8.47727 29.6117 9.42062 30 10.3492 30H22.0031C22.953 30 23.8849 29.6374 24.5275 28.9385C26.3338 26.9736 27.4566 24.3716 27.526 21.5502C27.718 17.1375 25.175 13.2164 21.4508 11.2422ZM23.3922 27.6922C23.0805 28.0422 22.5938 28.25 22.0523 28.25H10.3492C9.84609 28.25 9.38234 28.0559 9.07445 27.7157C7.46336 25.9427 6.57687 23.6415 6.57687 21.2462C6.57687 21.2495 6.57687 21.2423 6.57687 21.2462C10.7441 18.9816 14.7855 18.9225 18.5863 21.1346C21.4683 22.8075 23.8931 22.9869 25.6464 22.9984C25.3719 24.733 24.5898 26.3627 23.3922 27.6917V27.6922ZM10.125 3.75H22.375C22.8563 3.75 23.25 3.35844 23.25 2.875C23.25 2.39156 22.8563 2 22.375 2H10.125C9.64375 2 9.25 2.39134 9.25 2.875C9.25 3.35844 9.64375 3.75 10.125 3.75Z" fill="black"/>
</svg>
