<svg width="32" height="32" viewBox="0 0 32 32" fill="none" xmlns="http://www.w3.org/2000/svg">
<g clip-path="url(#clip0_47_184)">
<path d="M9.25005 19.9375C9.25005 19.2102 9.83521 18.625 10.5626 18.625C11.2899 18.625 11.8751 19.2102 11.8751 19.9375C11.8751 20.6648 11.2899 21.25 10.5626 21.25C9.83521 21.25 9.25005 20.6648 9.25005 19.9375ZM23.2501 19.9375C23.2501 20.6648 22.6649 21.25 21.9376 21.25C21.2102 21.25 20.6251 20.6648 20.6251 19.9375C20.6251 19.2102 21.2102 18.625 21.9376 18.625C22.6649 18.625 23.2501 19.2102 23.2501 19.9375ZM23.2501 2C26.1485 2 28.5001 4.35047 28.5001 7.25V21.25C28.5001 23.7656 26.7282 25.8656 24.3657 26.3797L26.493 28.507C26.8376 28.8461 26.8376 29.4039 26.493 29.743C26.154 30.0875 25.5961 30.0875 25.2571 29.743L22.0141 26.5H10.486L7.24357 29.743C6.90232 30.0875 6.34834 30.0875 6.00654 29.743C5.66474 29.4039 5.66474 28.8461 6.00654 28.507L8.1317 26.3797C5.76974 25.8656 4 23.7656 4 21.25V7.25C4 4.35047 6.35047 2 9.25 2H23.25H23.2501ZM15.3751 3.75H9.25005C7.31685 3.75 5.75005 5.3168 5.75005 7.25V14.25H15.3751V3.75ZM17.1251 3.75V14.25H26.7501V7.25C26.7501 5.3168 25.1805 3.75 23.2501 3.75H17.1251ZM9.25005 24.75H23.2501C25.1805 24.75 26.7501 23.1805 26.7501 21.25V16H5.75005V21.25C5.75005 23.1805 7.31685 24.75 9.25005 24.75Z" fill="black"/>
</g>
<defs>
<clipPath id="clip0_47_184">
<rect width="24.5" height="28" fill="white" transform="translate(4 2)"/>
</clipPath>
</defs>
</svg>
