<svg width="32" height="32" viewBox="0 0 32 32" fill="none" xmlns="http://www.w3.org/2000/svg">
<path d="M15.0018 14.0233C13.1187 14.0233 11.344 13.865 10.0049 13.5773C8.41689 13.2364 7.64496 12.7595 7.64496 12.1195C7.64496 11.4795 8.41689 11.0027 10.0049 10.6617C11.3441 10.3741 13.1187 10.2157 15.0018 10.2157C16.885 10.2157 18.6596 10.3741 19.9988 10.6617C21.5867 11.0027 22.3587 11.4795 22.3587 12.1195C22.3587 12.7595 21.5867 13.2363 19.9988 13.5773C18.6596 13.865 16.885 14.0233 15.0018 14.0233ZM8.48098 12.1195C8.57498 12.2437 9.04404 12.5495 10.3934 12.8149C11.6507 13.062 13.2874 13.1982 15.0018 13.1982C16.7163 13.1982 18.353 13.062 19.6103 12.8149C20.9596 12.5495 21.4286 12.2437 21.5226 12.1195C21.4286 11.9953 20.9596 11.6895 19.6103 11.4241C18.3529 11.177 16.7163 11.0408 15.0018 11.0408C13.2874 11.0408 11.6507 11.177 10.3934 11.4241C9.04404 11.6895 8.57498 11.9953 8.48098 12.1195Z" fill="black"/>
<path d="M16.6824 12.4457H13.3212C13.0934 12.4457 12.9087 12.261 12.9087 12.0331C12.9087 11.8053 13.0934 11.6206 13.3212 11.6206H16.6824C16.9103 11.6206 17.0949 11.8054 17.0949 12.0331C17.0949 12.2609 16.9103 12.4457 16.6824 12.4457Z" fill="black"/>
<path d="M29.3009 15.1014C28.8567 14.7459 28.2836 14.6137 27.7284 14.7386C27.6975 14.7455 27.667 14.7546 27.6375 14.7658L26.0037 15.3798V12.3121C26.0037 12.312 26.0037 12.3119 26.0037 12.3118C26.0037 12.3115 26.0037 12.3113 26.0037 12.3111C26.0037 11.4155 25.3992 10.1394 22.5193 9.14634C20.5009 8.45037 17.8312 8.06714 15.0019 8.06714C12.1725 8.06714 9.50282 8.45037 7.48441 9.14634C4.60446 10.1394 4 11.4155 4 12.3111V12.3118V12.3121V24.5036C4 25.3993 4.60446 26.6754 7.48441 27.6684C9.50275 28.3643 12.1724 28.7475 15.0018 28.7475C17.8312 28.7475 20.5008 28.3643 22.5192 27.6683C25.3992 26.6754 26.0036 25.3993 26.0036 24.5035C26.0036 24.4875 26.0036 20.6788 26.0036 20.6788L28.8562 19.1734C29.5525 18.8826 30 18.2128 30 17.455V16.5559C30.0001 15.987 29.7452 15.4568 29.3009 15.1014ZM7.93261 10.4464C9.81055 9.79888 12.321 9.44225 15.0018 9.44225C17.6825 9.44225 20.193 9.79888 22.071 10.4464C23.9586 11.0973 24.6285 11.8576 24.6285 12.311C24.6285 12.7644 23.9586 13.5248 22.071 14.1757C20.1931 14.8232 17.6826 15.1797 15.0018 15.1797C12.321 15.1797 9.81049 14.8231 7.93261 14.1757C6.04494 13.5248 5.37511 12.7644 5.37511 12.311C5.37518 11.8576 6.04494 11.0973 7.93261 10.4464ZM7.93261 26.3682C6.04494 25.7174 5.37511 24.9569 5.37511 24.5035C5.37511 24.4913 5.37511 14.4646 5.37511 14.4646C5.88436 14.8161 6.56904 15.1602 7.48428 15.4758C9.18158 16.061 11.34 16.424 13.666 16.5251V18.9767C13.666 19.2045 13.8507 19.3892 14.0786 19.3892C14.3064 19.3892 14.4911 19.2045 14.4911 18.9767V16.5507C14.6607 16.5534 14.8309 16.555 15.0017 16.555C17.4145 16.555 19.7097 16.2754 21.5855 15.7617V26.5236C20.8229 26.754 19.9725 26.9404 19.0601 27.0792C19.0601 27.0791 19.0601 27.0791 19.0601 27.079V19.1595C19.0601 18.9316 18.8753 18.7469 18.6475 18.7469C18.4198 18.7469 18.235 18.9317 18.235 19.1595V27.079C18.235 27.1168 18.2405 27.1533 18.25 27.1881C17.2197 27.3087 16.1261 27.3723 15.0017 27.3723C12.321 27.3723 9.81049 27.0157 7.93261 26.3682ZM24.6285 24.5035C24.6285 24.9286 24.0397 25.6235 22.4108 26.245V15.5114C22.4466 15.4994 22.4838 15.488 22.5193 15.4758C23.4345 15.1602 24.1192 14.816 24.6285 14.4646V24.5035ZM28.6248 17.455C28.6248 17.6571 28.5032 17.8353 28.3151 17.909C28.2911 17.9183 28.2677 17.9291 28.2449 17.9411L26.0037 19.1239V16.8489L28.0676 16.0732C28.2473 16.046 28.3779 16.124 28.4419 16.1752C28.5102 16.2299 28.6249 16.3521 28.6249 16.5559V17.455H28.6248Z" fill="black"/>
<path d="M7.18478 21.7032C6.80506 21.7032 6.49719 21.3954 6.49719 21.0157V19.5992C6.49719 19.2194 6.80506 18.9116 7.18478 18.9116C7.5645 18.9116 7.87237 19.2195 7.87237 19.5992V21.0157C7.87237 21.3954 7.5645 21.7032 7.18478 21.7032Z" fill="black"/>
<path d="M7.17941 18.1611C6.79969 18.1611 6.49182 17.8533 6.49182 17.4736C6.49182 17.4004 6.49364 17.3652 6.4954 17.3299C6.49635 17.3116 6.49722 17.2932 6.49722 17.2551C6.49722 16.8753 6.80509 16.5675 7.18481 16.5675C7.56454 16.5675 7.8724 16.8754 7.8724 17.2551C7.8724 17.3282 7.87058 17.3634 7.86883 17.3987C7.86788 17.417 7.867 17.4354 7.867 17.4735C7.86707 17.8533 7.5592 18.1611 7.17941 18.1611Z" fill="black"/>
<path d="M14.0964 22.3022C13.8685 22.3022 13.6838 22.1175 13.6838 21.8897V21.1105C13.6838 20.8827 13.8686 20.698 14.0964 20.698C14.3242 20.698 14.509 20.8828 14.509 21.1105V21.8896C14.5089 22.1175 14.3242 22.3022 14.0964 22.3022Z" fill="black"/>
</svg>
