<svg width="32" height="32" viewBox="0 0 32 32" fill="none" xmlns="http://www.w3.org/2000/svg">
<path d="M11.7222 9.1111C8.07153 9.1111 5.11111 12.0715 5.11111 15.7222V17.6667C5.11111 18.0944 4.76306 18.4444 4.33333 18.4444C3.90361 18.4444 3.55556 18.0944 3.55556 17.6667V15.7222C3.55556 11.2111 7.21111 7.55554 11.7222 7.55554C16.2333 7.55554 19.8889 11.2111 19.8889 15.7222V17.6667C19.8889 18.0944 19.5389 18.4444 19.1111 18.4444C18.6833 18.4444 18.3333 18.0944 18.3333 17.6667V15.7222C18.3333 12.0715 15.3729 9.1111 11.7222 9.1111ZM24.5556 16.1111C24.5556 15.6833 24.9056 15.3333 25.3333 15.3333C25.7611 15.3333 26.1111 15.6833 26.1111 16.1111C26.1111 16.5389 25.7611 16.8889 25.3333 16.8889C24.9056 16.8889 24.5556 16.5389 24.5556 16.1111ZM21.4444 15.168C21.4444 13.1118 23.1118 11.4444 25.1681 11.4444C27.8368 11.4444 30 13.6076 30 16.2764V16.8889C30 18.6048 28.6049 20 26.8889 20H25.8924C24.9056 22.7903 22.266 24.6667 19.291 24.6667H19.1111V27C19.1111 28.2882 18.066 29.3333 16.7778 29.3333H15.2222C13.934 29.3333 12.8889 28.2882 12.8889 27V24.6667H11.3333V27C11.3333 28.2882 10.2882 29.3333 9 29.3333H7.44444C6.15576 29.3333 5.11111 28.2882 5.11111 27V24.6667H4.33333C3.04465 24.6667 2 23.6215 2 22.3333C2 21.0451 3.04465 20 4.33333 20H19.5C20.5743 20 21.4444 19.1298 21.4444 18.0555V15.168ZM14.4444 27C14.4444 27.4278 14.7944 27.7778 15.2222 27.7778H16.7778C17.2056 27.7778 17.5556 27.4278 17.5556 27V23.1111H19.291C21.5951 23.1111 23.7146 21.6139 24.4146 19.3875L24.5944 18.9743C24.6576 18.6583 24.9979 18.4444 25.3333 18.4444H26.8889C27.7493 18.4444 28.4444 17.7493 28.4444 16.8889V16.2764C28.4444 14.468 26.9764 13 25.1681 13C23.9285 13 23 13.9285 23 15.168V18.0555C23 19.9903 21.4347 21.5555 19.5 21.5555H4.28958C3.90361 21.5555 3.51181 21.9055 3.51181 22.3333C3.51181 22.7611 3.90361 23.1111 4.28958 23.1111H6.62292V27C6.62292 27.4278 7.01667 27.7778 7.40069 27.7778H8.95625C9.42778 27.7778 9.73403 27.4278 9.73403 27V23.1111H14.4007L14.4444 27Z" fill="black"/>
</svg>
