<svg width="32" height="32" viewBox="0 0 32 32" fill="none" xmlns="http://www.w3.org/2000/svg">
<g clip-path="url(#clip0_10_1093)">
<path d="M22.6875 22.5625C23.2031 22.5625 23.625 22.9844 23.625 23.5C23.625 24.0156 23.2031 24.4375 22.6875 24.4375H9.5625C9.04687 24.4375 8.625 24.0156 8.625 23.5C8.625 22.9844 9.04687 22.5625 9.5625 22.5625H22.6875ZM11.4375 7.5625C11.707 7.5625 11.9648 7.62695 12.1406 7.88477L15.4219 11.6348C15.7676 12.0215 15.7266 12.6133 15.334 12.9531C14.9473 13.2988 14.3555 13.2578 13.9629 12.8652L12.375 10.9961V18.8125C12.375 19.3281 11.9531 19.75 11.4375 19.75C10.9219 19.75 10.5 19.3281 10.5 18.8125V10.9961L8.85938 12.8652C8.5207 13.2578 7.92832 13.2988 7.53867 12.9531C7.14902 12.6133 7.10977 12.0215 7.45078 11.6348L10.6816 7.88477C10.8574 7.62695 11.168 7.5625 11.4375 7.5625ZM20.8125 7.5625C21.082 7.5625 21.3398 7.62695 21.5156 7.88477L24.7969 11.6348C25.1426 12.0215 25.1016 12.6133 24.709 12.9531C24.3223 13.2988 23.7305 13.2578 23.3379 12.8652L21.75 10.9961V18.8125C21.75 19.3281 21.3281 19.75 20.8125 19.75C20.2969 19.75 19.875 19.3281 19.875 18.8125V10.9961L18.2344 12.8652C17.8945 13.2578 17.3027 13.2988 16.916 12.9531C16.5234 12.6133 16.4824 12.0215 16.7754 11.6348L20.0566 7.88477C20.2324 7.62695 20.543 7.5625 20.8125 7.5625ZM3 6.625C3 4.55371 4.67871 2.875 6.75 2.875H25.5C27.5684 2.875 29.25 4.55371 29.25 6.625V25.375C29.25 27.4434 27.5684 29.125 25.5 29.125H6.75C4.67871 29.125 3 27.4434 3 25.375V6.625ZM4.875 6.625V25.375C4.875 26.4121 5.71465 27.25 6.75 27.25H25.5C26.5371 27.25 27.375 26.4121 27.375 25.375V6.625C27.375 5.58965 26.5371 4.75 25.5 4.75H6.75C5.71465 4.75 4.875 5.58965 4.875 6.625Z" fill="black"/>
</g>
<defs>
<clipPath id="clip0_10_1093">
<rect width="26.25" height="30" fill="white" transform="translate(3 1)"/>
</clipPath>
</defs>
</svg>
