<svg width="32" height="32" viewBox="0 0 32 32" fill="none" xmlns="http://www.w3.org/2000/svg">
<g id="&#202;&#146; - genre - &#203;&#136;&#202;&#146;&#201;&#145;n r&#201;&#153;">
<g id="masks-theater 1" clip-path="url(#clip0_3_101)">
<path id="Vector" d="M8.60625 16.0125C9.45369 15.8649 10.1756 15.2303 10.5859 14.2787C10.7391 13.9232 10.575 13.5131 10.2141 13.3599C9.86406 13.2068 9.44844 13.3709 9.29531 13.7264C9.17019 14.026 8.87269 14.5467 8.36519 14.6342C7.85331 14.726 7.40269 14.341 7.17956 14.1004C6.91269 13.816 6.46644 13.8029 6.1895 14.0654C5.90513 14.3334 5.89419 14.7764 6.15669 15.055C6.38769 15.2948 7.31081 16.2485 8.60581 16.0123L8.60625 16.0125ZM16.84 16.9269C17.0642 16.6917 17.5181 16.2925 18.0322 16.3909C18.5406 16.4839 18.8306 16.9982 18.9619 17.2988C19.115 17.6597 19.4913 17.8185 19.8413 17.6652C20.1967 17.5175 20.361 17.1017 20.2131 16.7464C19.7975 15.7787 19.0923 15.1605 18.2334 15.0126C17.4219 14.866 16.5469 15.1985 15.825 15.9685C15.5625 16.2485 15.5756 16.6904 15.86 16.9529C16.1356 17.2198 16.5819 17.211 16.84 16.9267V16.9269ZM9.0175 21.2188C9.049 21.175 9.55738 20.5166 10.6402 20.0642C10.6428 20.0471 10.6419 20.0292 10.645 20.0121L10.9119 18.4918C8.96281 19.0273 7.97756 20.2759 7.92856 20.3381C7.68794 20.6389 7.73169 21.0818 8.03247 21.3224C8.37809 21.6033 8.81559 21.4721 9.01684 21.2183L9.0175 21.2188ZM24.4831 16.1044C23.63 15.9513 22.755 16.2903 22.0279 17.0616C21.7654 17.3405 21.7763 17.7835 22.0607 18.0513C22.3396 18.3138 22.7826 18.3028 23.0503 18.0184C23.2743 17.7778 23.7228 17.3893 24.2368 17.4825C24.7509 17.5755 25.0405 18.0898 25.1665 18.3903C25.3251 18.7513 25.7405 18.9101 26.0905 18.7567C26.446 18.6091 26.6103 18.1932 26.4569 17.838C26.0448 16.8873 25.3273 16.2529 24.4829 16.1042L24.4831 16.1044ZM24.7281 20.9475C23.5797 21.6475 22.0113 21.8772 20.3138 21.5871C18.6622 21.2918 17.2294 20.5262 16.3876 19.4762C15.9884 18.9783 15.1954 19.2356 15.1408 19.859C14.9111 22.6153 16.8361 25.0653 19.612 25.5596C20.536 25.7237 24.6039 25.844 25.7633 21.7315C25.8919 21.1269 25.2356 20.6194 24.7281 20.9475ZM19.8588 24.1763C18.4041 23.9192 17.2666 22.946 16.7801 21.6825C17.7154 22.3003 18.8473 22.7434 20.0723 22.9622C21.2579 23.1755 22.5113 23.1481 23.5994 22.8856C22.7113 23.9094 21.3113 24.43 19.8588 24.1763ZM4.81181 20.1819L3.428 12.3113C3.31338 11.6594 3.59775 11.025 4.13369 10.7244C5.22963 10.1172 9.60681 7.73326 15.6881 8.59426C16.4563 8.47614 17.2311 8.41182 18.0055 8.37814C17.5518 7.76607 16.9293 7.36226 16.2271 7.2507C15.1819 7.08051 14.1319 6.99957 13.0863 6.99957C9.72888 6.99957 6.41875 7.84482 3.45688 9.49639C2.39463 10.0818 1.83113 11.3089 2.04463 12.5383L3.43369 20.4221C4.05713 23.9549 9.40119 26.6521 12.3806 26.6521C12.5534 26.6521 12.7135 26.6411 12.8732 26.6219C12.5061 26.1612 12.171 25.6953 11.8888 25.2245C9.31019 24.9585 5.26244 22.7185 4.81138 20.181L4.81181 20.1819ZM28.5475 12.2938C24.8288 10.2279 21.2588 9.80001 18.9094 9.80001C17.8664 9.80001 16.812 9.88007 15.7729 10.0459C14.5781 10.2393 13.6288 11.1955 13.41 12.3852L12.0188 20.2777C11.7178 21.9678 12.5136 24.0796 14.1975 26.0614C14.6744 26.6171 17.1681 29.3996 19.6225 29.3996C22.7056 29.3996 27.9306 26.7286 28.565 23.1827L29.9541 15.3296C30.1663 14.1002 29.5975 12.8796 28.5475 12.2933V12.2938ZM28.5781 15.0544L27.1891 22.9075C26.7472 25.6012 22.1359 27.9694 19.6597 27.9694C17.9928 27.9694 15.8591 25.7718 15.3066 25.123C13.9118 23.4819 13.2175 21.7477 13.4415 20.4899L14.8249 12.6368C14.9397 11.9932 15.4264 11.4918 16.0333 11.3934C17.0531 11.2306 18.0274 11.1606 18.9496 11.1606C23.6528 11.1606 26.9865 12.971 27.9053 13.4811C28.4031 13.8158 28.6481 14.4502 28.5781 15.0539V15.0544Z" fill="black"/>
</g>
</g>
<defs>
<clipPath id="clip0_3_101">
<rect width="28" height="22.4" fill="white" transform="translate(2 7)"/>
</clipPath>
</defs>
</svg>
