<svg width="32" height="32" viewBox="0 0 32 32" fill="none" xmlns="http://www.w3.org/2000/svg">
<g clip-path="url(#clip0_53_704)">
<path d="M24.084 21.1438L27.5403 20.5653C27.8174 20.5118 28.1819 20.6625 28.3424 20.9444C28.5028 21.2264 28.4736 21.5813 28.2646 21.8292L24.1424 26.7778H22.1153L25.7271 22.4465L23.1264 22.8792C22.8639 22.9229 22.5965 22.8306 22.4215 22.6313C22.2417 22.432 22.1785 22.1549 22.2514 21.8972L25.2993 11.2368L18.9993 21.732C18.8389 22.0042 18.5278 22.15 18.2167 22.1014C17.9056 22.0576 17.6528 21.8292 17.5799 21.5229L15.9563 15.1646L14.4201 21.5229C14.3521 21.7951 14.1431 22.009 13.8757 22.0819C13.6035 22.116 13.3167 22.0819 13.1174 21.8826L9.22361 17.9889L10.5167 21.8632C10.5993 22.1208 10.5458 22.359 10.3757 22.607C10.2007 22.816 9.93333 22.9181 9.67083 22.8792L6.19319 22.3882L9.89444 26.7778H7.8625L3.69021 21.834C3.48215 21.5861 3.44812 21.241 3.56042 20.959C3.76021 20.6771 4.07424 20.5167 4.39361 20.5653L8.64028 21.1632L6.70653 15.359C6.59229 15.0139 6.72889 14.6396 7.03611 14.45C7.34236 14.2604 7.74097 14.3042 7.99375 14.5618L13.2438 19.8118L15.2465 11.8104C15.334 11.4215 15.6451 11.2222 16 11.2222C16.3549 11.2222 16.666 11.4215 16.7535 11.8104L18.6347 19.3208L27.0007 5.37771C27.2 5.04278 27.6181 4.90862 27.9778 5.06417C28.3326 5.21924 28.5222 5.6162 28.4153 5.99119L24.084 21.1433V21.1438ZM16.7778 8.88889C16.7778 9.31862 16.4278 9.66667 16 9.66667C15.5722 9.66667 15.2222 9.31862 15.2222 8.88889V5.77778C15.2222 5.34835 15.5722 5.00001 16 5.00001C16.4278 5.00001 16.7778 5.34806 16.7778 5.7773V8.88841V8.88889ZM11.3965 28.3333C11.766 26.1264 13.6861 24.4444 16 24.4444C18.3139 24.4444 20.234 26.1264 20.6035 28.3333H29.2222C29.65 28.3333 30 28.6833 30 29.1111C30 29.5389 29.65 29.8889 29.2222 29.8889H2.77778C2.34806 29.8889 2 29.5389 2 29.1111C2 28.6833 2.34806 28.3333 2.77778 28.3333H11.3965ZM12.9861 28.3333H18.9701C18.6688 26.9917 17.4486 26 16 26C14.5514 26 13.3313 26.9917 12.9861 28.3333Z" fill="black"/>
</g>
<defs>
<clipPath id="clip0_53_704">
<rect width="28" height="24.8889" fill="white" transform="translate(2 5)"/>
</clipPath>
</defs>
</svg>
