<svg width="32" height="32" viewBox="0 0 32 32" fill="none" xmlns="http://www.w3.org/2000/svg">
<g id="&#206;&#184; - thumb - &#203;&#136;&#206;&#184;&#202;&#140;m">
<g id="thumbs-up 1">
<path id="Vector" d="M6.15625 13.25H3.34375C2.05117 13.25 1 14.2988 1 15.5938V27.7812C1 29.0762 2.05117 30.125 3.34375 30.125H6.15625C7.45117 30.125 8.5 29.0762 8.5 27.7812V15.5938C8.5 14.2988 7.45117 13.25 6.15625 13.25ZM6.625 27.7812C6.625 28.0391 6.41465 28.25 6.15625 28.25H3.34375C3.08535 28.25 2.875 28.0391 2.875 27.7812V15.5938C2.875 15.3359 3.08535 15.125 3.34375 15.125H6.15625C6.41465 15.125 6.625 15.3359 6.625 15.5938V27.7812ZM31 14.9785C31 12.9922 29.3828 11.375 27.3965 11.375H21.3906C22.0926 9.78945 22.4939 8.24141 22.4939 7.42988C22.498 5.68203 21.1328 3.875 18.8652 3.875C16.45 3.875 15.8945 5.58066 15.4012 7.08652C13.7793 12.0254 10.375 12.8281 10.375 14.1875C10.375 14.7207 10.8145 15.125 11.3125 15.125C11.5527 15.125 11.793 15.0313 11.9746 14.8496C15.0613 11.7418 15.9016 11.5619 17.1783 7.67188C17.7168 6.04004 17.8867 5.75 18.8652 5.75C20.0758 5.75 20.6195 6.73262 20.6195 7.42988C20.6195 8.02109 20.098 10.0051 19.0598 11.8525C18.9795 11.9949 18.9396 12.1532 18.9396 12.3113C18.9408 12.8691 19.3979 13.25 19.8783 13.25H27.3959C28.351 13.25 29.1244 14.0234 29.1244 14.9785C29.1244 15.8768 28.4166 16.6285 27.5143 16.6895C27.018 16.7234 26.6406 17.1371 26.6406 17.6246C26.6406 18.3389 27.3473 18.3781 27.3473 19.4193C27.3473 20.2479 26.7549 20.9604 25.9393 21.1121C25.6006 21.1754 25.174 21.4877 25.174 22.035C25.174 22.5553 25.5701 22.6631 25.5701 23.4154C25.5701 25.233 23.7238 24.7115 23.7238 25.9379C23.7238 26.1441 23.793 26.2385 23.793 26.5244C23.7918 27.4766 23.0184 28.25 22.0633 28.25H18.8055C14.0002 28.25 12.4598 24.4988 11.3113 24.4988C10.791 24.4988 10.3738 24.9201 10.3738 25.434C10.3211 26.3926 14.159 30.125 18.8055 30.125H22.065C24.052 30.125 25.6686 28.509 25.6686 26.5232C26.7555 25.8869 27.4457 24.7068 27.4457 23.4143C27.4457 23.133 27.4105 22.8518 27.3438 22.5781C28.4752 21.9617 29.2223 20.7635 29.2223 19.4176C29.2223 18.9945 29.1467 18.5791 29.0025 18.1883C30.1896 17.5977 30.9982 16.373 30.9982 14.9785H31Z" fill="black"/>
</g>
</g>
</svg>
