<svg width="62" height="34" viewBox="0 0 62 34" fill="none" xmlns="http://www.w3.org/2000/svg">
<path d="M27.5671 3.635C27.5671 1.62742 29.1946 0 31.2021 0H38.4721C40.479 0 42.1071 1.62742 42.1071 3.635V10.905C42.1071 12.9118 40.479 14.54 38.4721 14.54H31.2021C29.1946 14.54 27.5671 12.9118 27.5671 10.905V3.635ZM29.9905 3.635V10.905C29.9905 11.5714 30.5327 12.1167 31.2021 12.1167H38.4721C39.1385 12.1167 39.6838 11.5714 39.6838 10.905V3.635C39.6838 2.96555 39.1385 2.42333 38.4721 2.42333H31.2021C30.5327 2.42333 29.9905 2.96555 29.9905 3.635ZM27.5671 23.0217C27.5671 21.0148 29.1946 19.3867 31.2021 19.3867H38.4721C40.479 19.3867 42.1071 21.0148 42.1071 23.0217V30.2917C42.1071 32.2985 40.479 33.9267 38.4721 33.9267H31.2021C29.1946 33.9267 27.5671 32.2985 27.5671 30.2917V23.0217ZM29.9905 23.0217V30.2917C29.9905 30.9581 30.5327 31.5033 31.2021 31.5033H38.4721C39.1385 31.5033 39.6838 30.9581 39.6838 30.2917V23.0217C39.6838 22.3552 39.1385 21.81 38.4721 21.81H31.2021C30.5327 21.81 29.9905 22.3552 29.9905 23.0217ZM57.8588 0C59.8656 0 61.4938 1.62742 61.4938 3.635V10.905C61.4938 12.9118 59.8656 14.54 57.8588 14.54H50.5888C48.582 14.54 46.9538 12.9118 46.9538 10.905V3.635C46.9538 1.62742 48.582 0 50.5888 0H57.8588ZM57.8588 2.42333H50.5888C49.9224 2.42333 49.3771 2.96555 49.3771 3.635V10.905C49.3771 11.5714 49.9224 12.1167 50.5888 12.1167H57.8588C58.5252 12.1167 59.0705 11.5714 59.0705 10.905V3.635C59.0705 2.96555 58.5252 2.42333 57.8588 2.42333ZM46.9538 23.0217C46.9538 21.0148 48.582 19.3867 50.5888 19.3867H57.8588C59.8656 19.3867 61.4938 21.0148 61.4938 23.0217V30.2917C61.4938 32.2985 59.8656 33.9267 57.8588 33.9267H50.5888C48.582 33.9267 46.9538 32.2985 46.9538 30.2917V23.0217ZM49.3771 23.0217V30.2917C49.3771 30.9581 49.9224 31.5033 50.5888 31.5033H57.8588C58.5252 31.5033 59.0705 30.9581 59.0705 30.2917V23.0217C59.0705 22.3552 58.5252 21.81 57.8588 21.81H50.5888C49.9224 21.81 49.3771 22.3552 49.3771 23.0217Z" fill="#445DBE"/>
<path d="M16.6383 0.398926C16.898 0.636716 17.0283 0.961594 17.0283 1.28874C17.0283 1.58333 16.9215 1.87792 16.7064 2.11116L2.92826 17.0404L16.6428 31.9666C17.0972 32.4589 17.0688 33.2267 16.5739 33.6789C16.0816 34.1332 15.3175 34.1022 14.8632 33.6107L0.323174 17.859C-0.107725 17.3925 -0.107725 16.6807 0.323174 16.2142L14.8632 0.462539C15.3796 -0.0251569 16.1445 -0.0562058 16.6367 0.398169L16.6383 0.398926Z" fill="#445DBE"/>
</svg>
