<svg width="76" height="76" viewBox="0 0 76 76" fill="none" xmlns="http://www.w3.org/2000/svg">
<g id="close-menu-button" filter="url(#filter0_d_547_2011)">
<circle id="Ellipse 9" cx="38" cy="38" r="22" fill="#9FADDE"/>
<path id="Vector" d="M38 60C50.1516 60 60 50.1516 60 38C60 25.8484 50.1516 16 38 16C25.8484 16 16 25.8484 16 38C16 50.1516 25.8484 60 38 60ZM31.0391 31.0391C31.8469 30.2313 33.1531 30.2313 33.9523 31.0391L37.9914 35.0781L42.0305 31.0391C42.8383 30.2313 44.1445 30.2313 44.9437 31.0391C45.743 31.8469 45.7516 33.1531 44.9437 33.9523L40.9047 37.9914L44.9437 42.0305C45.7516 42.8383 45.7516 44.1445 44.9437 44.9437C44.1359 45.743 42.8297 45.7516 42.0305 44.9437L37.9914 40.9047L33.9523 44.9437C33.1445 45.7516 31.8383 45.7516 31.0391 44.9437C30.2398 44.1359 30.2313 42.8297 31.0391 42.0305L35.0781 37.9914L31.0391 33.9523C30.2313 33.1445 30.2313 31.8383 31.0391 31.0391Z" fill="white"/>
</g>
<defs>
<filter id="filter0_d_547_2011" x="0" y="0" width="76" height="76" filterUnits="userSpaceOnUse" color-interpolation-filters="sRGB">
<feFlood flood-opacity="0" result="BackgroundImageFix"/>
<feColorMatrix in="SourceAlpha" type="matrix" values="0 0 0 0 0 0 0 0 0 0 0 0 0 0 0 0 0 0 127 0" result="hardAlpha"/>
<feOffset/>
<feGaussianBlur stdDeviation="8"/>
<feComposite in2="hardAlpha" operator="out"/>
<feColorMatrix type="matrix" values="0 0 0 0 0 0 0 0 0 0 0 0 0 0 0 0 0 0 0.2 0"/>
<feBlend mode="normal" in2="BackgroundImageFix" result="effect1_dropShadow_547_2011"/>
<feBlend mode="normal" in="SourceGraphic" in2="effect1_dropShadow_547_2011" result="shape"/>
</filter>
</defs>
</svg>
