<svg width="44" height="44" viewBox="0 0 44 44" fill="none" xmlns="http://www.w3.org/2000/svg">
<circle cx="22" cy="22" r="22" fill="#9FADDE"/>
<path d="M22 44C34.1516 44 44 34.1516 44 22C44 9.84844 34.1516 0 22 0C9.84844 0 0 9.84844 0 22C0 34.1516 9.84844 44 22 44ZM15.0391 15.0391C15.8469 14.2313 17.1531 14.2313 17.9523 15.0391L21.9914 19.0781L26.0305 15.0391C26.8383 14.2313 28.1445 14.2313 28.9437 15.0391C29.743 15.8469 29.7516 17.1531 28.9437 17.9523L24.9047 21.9914L28.9437 26.0305C29.7516 26.8383 29.7516 28.1445 28.9437 28.9437C28.1359 29.743 26.8297 29.7516 26.0305 28.9437L21.9914 24.9047L17.9523 28.9437C17.1445 29.7516 15.8383 29.7516 15.0391 28.9437C14.2398 28.1359 14.2313 26.8297 15.0391 26.0305L19.0781 21.9914L15.0391 17.9523C14.2313 17.1445 14.2313 15.8383 15.0391 15.0391Z" fill="white"/>
</svg>
