<svg width="34" height="34" viewBox="0 0 34 34" fill="none" xmlns="http://www.w3.org/2000/svg">
<g id="menu-icon-speak">
<path id="Vector" d="M9.73466 24.9875C10.9604 24.9339 11.4916 24.5625 11.7985 24.1757C12.1087 23.7805 12.1988 23.2492 12.1988 22.8327C12.1988 22.667 12.1844 22.5242 12.1725 22.4273C12.1657 22.378 12.1589 22.3414 12.1546 22.3193C12.1512 22.2947 12.1512 22.2964 12.1512 22.2947L12.1334 22.2199V20.8488C11.7645 20.6499 11.1559 20.321 10.4912 19.964C9.42526 19.3962 8.20636 18.7536 7.68361 18.5079C7.43286 18.3881 7.24246 18.2759 7.07076 18.1178C6.91011 17.9682 6.73841 17.7242 6.73671 17.4055C6.73671 17.1462 6.85656 16.9354 6.96281 16.8181C7.19826 16.5793 7.39461 16.5045 7.50426 16.4696L11.8707 14.1967V11.243H12.5584C12.5584 11.2413 12.5584 11.2413 16.6826 11.243C16.7302 11.243 16.7752 11.2413 16.8152 11.2396L11.4976 1.5241L12.7029 0.863647L17.9737 10.4958C18.0103 10.5443 18.0638 10.6174 18.1199 10.71C18.2126 10.8758 18.3375 11.0985 18.346 11.4504C18.3656 11.7623 18.1505 12.1907 17.8148 12.3701C17.4892 12.5613 17.1356 12.6123 16.6809 12.6157C14.8262 12.6157 13.807 12.6157 13.2443 12.6157V15.0297L8.62286 17.4369C10.0424 18.1441 13.1398 19.8305 13.1483 19.8356L13.507 20.0303V22.072C13.5316 22.2046 13.5716 22.4766 13.5733 22.8319C13.5716 23.4192 13.4636 24.2633 12.8873 25.0147C12.3127 25.7737 11.2766 26.3194 9.76611 26.3628H9.75421H9.74231C6.20631 26.3628 6.20631 26.3628 6.20631 26.3628V24.9866C6.20631 24.9866 6.20886 24.9875 9.73466 24.9875ZM8.10606 5.97215C7.16681 5.97215 6.40436 5.21055 6.40436 4.27045C6.40436 3.33035 7.16681 2.56705 8.10606 2.56705C9.04531 2.56705 9.80776 3.33035 9.80776 4.27045C9.80776 5.21055 9.04616 5.97215 8.10606 5.97215ZM25.3866 13.0076C25.2591 12.4959 25.1307 12.0913 25.0347 11.8159C24.9896 11.6816 24.9514 11.5804 24.925 11.5116L26.1754 10.9319C26.3326 11.3271 27.2719 13.8006 27.2744 17.1275C27.2744 19.0196 26.9676 21.1931 26.019 23.3929L24.7559 22.8514C25.6152 20.8531 25.8991 18.8726 25.8991 17.1275C25.9 15.4709 25.6433 14.0284 25.3866 13.0076ZM18.9138 14.2996L20.2041 13.702C20.386 14.6685 20.5305 15.8338 20.5305 17.1284C20.5305 18.309 20.4107 19.5968 20.0919 20.9355L18.8033 20.3958C19.0575 19.2551 19.1552 18.1526 19.1552 17.1284C19.1561 16.082 19.0558 15.1224 18.9138 14.2996ZM21.8506 13.0076C21.8455 12.9863 21.8404 12.9659 21.8361 12.9447L23.1026 12.3573C23.4052 13.4742 23.7384 15.1513 23.7401 17.1284C23.7401 18.6575 23.5378 20.3703 22.9615 22.1306L21.6882 21.5994C22.1863 20.0337 22.364 18.5096 22.364 17.1284C22.3657 15.4709 22.1081 14.0284 21.8506 13.0076Z" fill="#445DBE"/>
</g>
</svg>
