<svg width="30" height="24" viewBox="0 0 30 24" fill="none" xmlns="http://www.w3.org/2000/svg">
<path d="M15 0C10.0312 0 6 4.03125 6 9V17.25C6 20.9766 9.02344 24 12.75 24C16.4766 24 19.5 20.9766 19.5 17.25V16.7871C22.1906 15.2295 24 12.3281 24 9C24 4.03125 19.9688 0 15 0ZM18.7078 15.4875C18.2859 15.7594 18 16.2516 18 16.7859V17.25C18 20.145 15.645 22.5 12.75 22.5C9.855 22.5 7.5 20.1469 7.5 17.25V9C7.5 4.86469 10.8647 1.5 15 1.5C19.1353 1.5 22.5 4.86469 22.5 9C22.5 11.6625 21.0609 14.1469 18.7078 15.4875ZM19.1297 4.64578C17.9086 3.48844 16.3233 2.89547 14.6784 3.00797C11.5453 3.17203 9 6.00469 9 9.31875V11.25C9 11.6625 9.33562 12 9.75 12H10.0341C10.7058 12 11.2495 12.5437 11.2495 13.2141C11.2495 13.5375 11.1225 13.8441 10.8933 14.0737L9.10922 15.8578C8.81625 16.1508 8.81625 16.6256 9.10922 16.9181C9.2557 17.0646 9.44719 17.1375 9.63937 17.1375C9.83109 17.1375 10.0228 17.0639 10.1695 16.9177L11.9545 15.1336C12.4256 14.6198 12.7491 13.9402 12.7491 13.2136C12.7491 11.8748 11.7755 10.7583 10.4991 10.5375V9.31828C10.4991 6.78844 12.4083 4.63078 14.7623 4.50422C16.0031 4.43203 17.1802 4.86281 18.0956 5.73187C19.0022 6.59484 19.4991 7.75266 19.4991 8.99953C19.4991 9.41391 19.8342 9.74953 20.2491 9.74953C20.6634 9.74953 20.9991 9.41203 20.9991 8.99953C20.9991 7.33547 20.3334 5.78859 19.1287 4.64531L19.1297 4.64578Z" fill="#445DBE"/>
</svg>
