<svg width="30" height="24" viewBox="0 0 30 24" fill="none" xmlns="http://www.w3.org/2000/svg">
<g clip-path="url(#clip0_942_56)">
<path d="M6 8.99984C6 8.9061 6 8.81235 6.00469 8.7186C6.50155 9.11234 7.00311 9.50608 7.49997 9.89983C7.49997 12.3513 7.49997 14.7982 7.49997 17.2497C7.49997 20.1512 9.84837 22.4996 12.7499 22.4996C15.3514 22.4996 17.5076 20.6106 17.9248 18.1309C18.356 18.4731 18.792 18.8153 19.2232 19.1575C18.4029 21.9559 15.8155 23.9996 12.7499 23.9996C9.02339 23.9996 6 20.9762 6 17.2497C6 14.4982 6 11.7514 6 8.99984ZM8.35308 2.92964C10.0031 1.12967 12.3702 0 14.9998 0C19.9685 0 23.9997 4.03118 23.9997 8.99984C23.9997 10.8748 23.4278 12.6138 22.4482 14.0576L21.2669 13.1248C22.0497 11.9435 22.4997 10.5233 22.4997 8.99984C22.4997 4.85617 19.1435 1.49997 14.9998 1.49997C12.8436 1.49997 10.903 2.40933 9.53431 3.86243C9.14057 3.55306 8.74683 3.24369 8.35308 2.92964ZM9.92337 16.2278C9.66087 15.9138 9.70306 15.4357 10.0171 15.1732C10.5421 14.7372 11.0718 14.2966 11.5968 13.8607C11.7468 13.7341 11.8593 13.5748 11.9296 13.3966C12.328 13.7107 12.7311 14.0294 13.1296 14.3435C12.9796 14.5919 12.7874 14.8169 12.5624 15.0091C12.0374 15.445 11.5077 15.8857 10.9827 16.3216C10.664 16.5888 10.1906 16.5419 9.92806 16.2278H9.92337ZM11.3108 5.26397C12.2577 4.32649 13.5608 3.74993 14.9998 3.74993C17.9014 3.74993 20.2498 6.09833 20.2498 8.99984C20.2498 9.24828 20.2498 9.5014 20.2498 9.74983C20.2498 10.1623 19.9123 10.4998 19.4998 10.4998C19.0873 10.4998 18.7498 10.1623 18.7498 9.74983C18.7498 9.5014 18.7498 9.24828 18.7498 8.99984C18.7498 6.928 17.0717 5.24991 14.9998 5.24991C14.0389 5.24991 13.1624 5.61084 12.5015 6.20614C12.103 5.89208 11.7093 5.57803 11.3108 5.26397Z" fill="#9FADDE"/>
<path d="M0.159439 0.285877C0.417247 -0.0375547 0.890676 -0.0938037 1.21411 0.159317C10.7155 7.65919 20.2122 15.1591 29.7136 22.6589C30.0417 22.9167 30.0933 23.348 29.8402 23.7136C29.5824 24.0417 29.1089 24.0933 28.7855 23.8402C19.2841 16.3403 9.78271 8.84042 0.285999 1.34055C-0.0374326 1.08274 -0.0936817 0.609309 0.159439 0.285877Z" fill="#445DBE"/>
</g>
<defs>
<clipPath id="clip0_942_56">
<rect width="29.9989" height="24" fill="white" transform="translate(0.00109863)"/>
</clipPath>
</defs>
</svg>
