<svg width="34" height="34" viewBox="0 0 34 34" fill="none" xmlns="http://www.w3.org/2000/svg">
<g id="pictogram-arch">
<path id="Vector" d="M0 3.1875C0 2.60047 0.475469 2.125 1.0625 2.125H32.9375C33.5219 2.125 34 2.60047 34 3.1875C34 3.77453 33.5219 4.25 32.9375 4.25H31.875V29.75H32.9375C33.5219 29.75 34 30.2281 34 30.8125C34 31.3969 33.5219 31.875 32.9375 31.875H23.375V23.375C23.375 19.7957 20.5195 17 17 17C13.4207 17 10.625 19.7957 10.625 23.375V31.875H1.0625C0.475469 31.875 0 31.3969 0 30.8125C0 30.2281 0.475469 29.75 1.0625 29.75H2.125V4.25H1.0625C0.475469 4.25 0 3.77453 0 3.1875ZM4.25 8.5H29.75V4.25H4.25V8.5ZM4.25 10.625V29.75H8.5V23.375C8.5 18.6801 12.3051 14.875 17 14.875C21.6949 14.875 25.5 18.6801 25.5 23.375V29.75H29.75V10.625H4.25Z" fill="#6B6B6B"/>
</g>
</svg>
