<svg xmlns="http://www.w3.org/2000/svg" width="24" height="24"><path d="M 16.509 3.858 L 16.453 3.459 C 16.313 2.47 15.534 1.692 14.545 1.552 L 14.147 1.495 C 13.739 1.439 13.453 1.055 13.509 0.647 C 13.566 0.239 13.945 -0.052 14.358 0.009 L 14.756 0.066 C 16.406 0.3 17.705 1.598 17.939 3.248 L 17.995 3.647 C 18.052 4.055 17.77 4.439 17.358 4.495 C 16.945 4.552 16.566 4.27 16.509 3.858 Z M 8.691 3.309 C 8.105 2.723 8.105 1.772 8.691 1.186 C 9.277 0.6 10.228 0.6 10.814 1.186 L 19.814 10.186 C 19.969 10.341 20.255 10.238 20.255 10.013 L 20.255 6.37 C 20.255 5.334 21.094 4.495 22.13 4.495 C 23.166 4.495 24.005 5.334 24.005 6.37 L 24.005 14.639 C 24.005 17.461 22.697 20.119 20.466 21.844 C 18.08 23.686 15.047 24.173 12.328 23.377 C 10.997 23.044 9.736 22.355 8.691 21.309 L 8.461 21.08 L 3.441 16.059 L 1.941 14.559 C 1.355 13.973 1.355 13.022 1.941 12.436 C 2.527 11.85 3.478 11.85 4.064 12.436 L 5.559 13.931 L 5.564 13.936 L 7.748 16.125 C 7.992 16.369 8.386 16.369 8.625 16.125 C 8.864 15.881 8.869 15.488 8.625 15.248 L 2.691 9.309 C 2.105 8.723 2.105 7.772 2.691 7.186 C 3.277 6.6 4.228 6.6 4.814 7.186 L 10.748 13.125 C 10.992 13.369 11.386 13.369 11.625 13.125 C 11.864 12.881 11.869 12.488 11.625 12.248 L 4.941 5.559 C 4.355 4.973 4.355 4.022 4.941 3.436 C 5.527 2.85 6.478 2.85 7.064 3.436 L 13.748 10.125 C 13.992 10.369 14.385 10.369 14.625 10.125 C 14.864 9.881 14.868 9.488 14.625 9.248 L 8.69 3.309 Z M 0.642 16.509 C 1.05 16.453 1.434 16.734 1.491 17.147 L 1.547 17.545 C 1.688 18.534 2.466 19.313 3.455 19.453 L 3.853 19.509 C 4.261 19.57 4.547 19.95 4.491 20.358 C 4.434 20.766 4.05 21.052 3.642 20.995 L 3.244 20.939 C 1.594 20.705 0.295 19.406 0.061 17.756 L 0.009 17.358 C -0.047 16.95 0.234 16.566 0.647 16.509 Z" fill="#d4d5d7"></path></svg>