<svg width="34" height="34" viewBox="0 0 34 34" fill="none" xmlns="http://www.w3.org/2000/svg">
<g id="pictogram-hi">
<path id="Vector" d="M20.1875 2.125C21.9473 2.125 23.375 3.55473 23.375 5.3125C23.375 5.89953 23.8531 6.375 24.4375 6.375C25.0219 6.375 25.5 5.89953 25.5 5.3125C25.5 2.38332 23.116 0 20.1875 0C19.6031 0 19.125 0.475203 19.125 1.0625C19.125 1.64953 19.6031 2.125 20.1875 2.125ZM27.7512 7.09883C24.9475 7.09883 23.9707 9.54324 23.8033 10.113L16.3525 2.68215C15.652 1.97957 14.7156 1.53398 13.7262 1.53398C13.3297 1.53398 11.0732 1.68473 10.2538 3.93457C9.91844 3.83695 9.56848 3.78715 9.20988 3.78715C7.33723 3.78715 5.51504 5.25539 5.51504 7.45875C5.51504 7.81535 5.56484 8.17395 5.66445 8.52191C4.50035 8.94957 3.25656 10.1223 3.25656 11.9651C3.25656 12.8064 3.53514 13.6558 4.08332 14.3564C3.80242 14.5622 2.06457 15.4919 2.06457 17.6634C2.06457 18.6548 2.45105 19.6496 3.21008 20.406L11.5109 28.6868C13.6325 30.6857 16.3685 31.8743 19.2837 31.8743C22.1989 31.8743 24.9395 30.7434 26.9935 28.6908L28.3243 27.4225C30.6106 25.1414 31.8697 22.108 31.8697 18.8826V11.2087C31.8743 8.94426 30.0282 7.09816 27.7505 7.09816L27.7512 7.09883ZM29.6902 18.8195C29.6902 21.4605 28.639 23.9939 26.767 25.8586L25.4363 27.127C23.7243 28.8349 21.4751 29.6896 19.2259 29.6896C16.9768 29.6896 14.7282 28.8356 13.0156 27.127L4.77328 18.9059C4.43395 18.5672 4.24668 18.109 4.24668 17.6508C4.24668 16.5923 5.17039 16.1035 5.81984 16.1035C6.22824 16.1035 6.6373 16.2589 6.94875 16.5697L11.9465 21.5561C12.1019 21.7115 12.3064 21.7892 12.5109 21.7892C12.9399 21.7892 13.3091 21.4439 13.3091 20.993C13.3091 20.7891 13.2308 20.5846 13.0754 20.4292L5.90352 13.2706C5.56219 12.9346 5.37559 12.4764 5.37559 12.0182C5.37559 10.9597 6.29863 10.4709 6.94875 10.4709C7.35715 10.4709 7.76621 10.6263 8.07766 10.9371L15.3325 18.18C15.4919 18.3328 15.6911 18.4125 15.897 18.4125C16.329 18.4125 16.6952 18.0638 16.6952 17.6754C16.6952 17.4715 16.6168 17.2676 16.4608 17.1116L8.16 8.76961C7.82133 8.37117 7.57563 7.96609 7.57563 7.51453C7.57563 6.45602 8.49934 5.96727 9.14812 5.96727C9.55652 5.96727 9.96559 6.12266 10.277 6.43344L18.6641 14.7409C18.8195 14.8962 19.0241 14.9739 19.2286 14.9739C19.6616 14.9739 20.0268 14.6253 20.0268 14.2368C20.0268 14.033 19.9484 13.8284 19.793 13.673L12.6212 6.51445C12.3363 6.17379 12.0906 5.7116 12.0906 5.25738C12.0906 4.20617 13.001 3.71012 13.6631 3.71012C14.0715 3.71012 14.4805 3.86551 14.792 4.17629L24.9203 14.2262C25.0199 14.3258 25.1421 14.3703 25.2623 14.3703C25.5139 14.3703 25.755 14.1751 25.755 13.8802V11.3103C25.755 10.9351 26.0465 9.21387 27.7505 9.21387C28.8535 9.21387 29.746 10.105 29.746 11.2054V18.8142L29.6902 18.8195ZM5.3125 27.625C3.55473 27.625 2.125 26.1973 2.125 24.4375C2.125 23.8531 1.64953 23.375 1.0625 23.375C0.475469 23.375 0 23.8531 0 24.4375C0 27.366 2.38266 29.75 5.3125 29.75C5.89953 29.75 6.375 29.2719 6.375 28.6875C6.375 28.1031 5.89953 27.625 5.3125 27.625Z" fill="#6B6B6B"/>
</g>
</svg>
