<svg width="34" height="34" viewBox="0 0 34 34" fill="none" xmlns="http://www.w3.org/2000/svg">
<g id="pictogram-key" clip-path="url(#clip0_526_3415)">
<path id="Vector" d="M22.8438 9.5625C22.8438 8.6793 23.5543 7.96875 24.4375 7.96875C25.3207 7.96875 26.0312 8.6793 26.0312 9.5625C26.0312 10.4457 25.3207 11.1562 24.4375 11.1562C23.5543 11.1562 22.8438 10.4457 22.8438 9.5625ZM22.3125 23.375C21.6816 23.375 21.0641 23.3285 20.4598 23.2289L18.6004 24.9754C18.3613 25.334 17.9563 25.5 17.5312 25.5H14.875V28.1562C14.875 29.0395 14.1645 29.75 13.2812 29.75H10.625V32.4062C10.625 33.2895 9.91445 34 9.03125 34H1.59375C0.713867 34 0 33.2895 0 32.4062V26.0312C0 25.6062 0.167941 25.2012 0.46677 24.9023L10.9504 14.4234C10.7379 13.4871 10.625 12.6305 10.625 11.6875C10.625 5.23281 15.8578 0 22.3125 0C28.7672 0 34 5.23281 34 11.6875C34 18.1422 28.7672 23.375 22.3125 23.375ZM22.3125 21.25C27.5918 21.25 31.875 16.9668 31.875 11.6875C31.875 6.40621 27.5918 2.125 22.3125 2.125C17.0332 2.125 12.75 6.40621 12.75 11.6875C12.75 12.4645 12.843 13.1551 12.9559 13.9254L13.2879 15.0875L2.125 26.2504V31.875H8.5V27.625H12.75V23.375H17.3121L19.7227 20.9578L20.7984 21.1305C21.2898 21.2102 21.7945 21.25 22.3125 21.25Z" fill="#6B6B6B"/>
</g>
<defs>
<clipPath id="clip0_526_3415">
<rect width="34" height="34" fill="white"/>
</clipPath>
</defs>
</svg>
