<svg xmlns="http://www.w3.org/2000/svg" width="24" height="23"><path d="M 13.529 8.44 L 14.291 8.44 C 15.274 10.124 17.118 11.253 19.228 11.253 C 19.718 11.253 20.198 11.192 20.653 11.078 L 20.653 11.253 L 20.653 12.66 L 20.653 21.1 C 20.653 21.878 20.016 22.507 19.228 22.507 C 18.44 22.507 17.803 21.878 17.803 21.1 L 17.803 14.911 L 11.748 19.693 L 14.242 19.693 C 15.03 19.693 15.666 20.322 15.666 21.1 C 15.666 21.878 15.03 22.507 14.242 22.507 L 7.831 22.507 C 5.471 22.507 3.557 20.617 3.557 18.287 L 3.557 8.462 C 3.557 7.754 3.022 7.152 2.31 7.064 L 1.958 7.02 C 1.175 6.928 0.623 6.224 0.716 5.451 C 0.81 4.677 1.526 4.132 2.306 4.229 L 2.657 4.273 C 4.794 4.537 6.402 6.33 6.402 8.462 L 6.402 12.212 C 7.933 9.939 10.551 8.44 13.525 8.44 Z M 20.653 9.605 C 20.207 9.759 19.727 9.847 19.228 9.847 C 17.964 9.847 16.824 9.302 16.04 8.44 C 15.876 8.26 15.729 8.066 15.599 7.86 C 15.19 7.209 14.954 6.444 14.954 5.627 L 14.954 1.407 L 14.954 0.528 L 14.954 0.47 C 14.954 0.211 15.163 0.004 15.426 0 L 15.435 0 C 15.582 0 15.72 0.07 15.809 0.185 L 15.809 0.189 L 16.379 0.936 L 17.59 2.532 L 17.803 2.813 L 20.653 2.813 L 20.866 2.532 L 22.077 0.936 L 22.647 0.189 L 22.647 0.185 C 22.736 0.07 22.874 0 23.021 0 L 23.03 0 C 23.293 0.004 23.502 0.211 23.502 0.47 L 23.502 0.528 L 23.502 1.407 L 23.502 5.627 C 23.502 6.387 23.297 7.104 22.941 7.719 C 22.438 8.59 21.623 9.266 20.653 9.605 Z M 18.516 5.627 C 18.516 5.24 18.195 4.923 17.803 4.923 C 17.411 4.923 17.091 5.24 17.091 5.627 C 17.091 6.014 17.411 6.33 17.803 6.33 C 18.195 6.33 18.516 6.014 18.516 5.627 Z M 20.653 6.33 C 21.044 6.33 21.365 6.014 21.365 5.627 C 21.365 5.24 21.044 4.923 20.653 4.923 C 20.261 4.923 19.94 5.24 19.94 5.627 C 19.94 6.014 20.261 6.33 20.653 6.33 Z" fill="#d4d5d7"></path></svg>