<svg width="34" height="34" viewBox="0 0 34 34" fill="none" xmlns="http://www.w3.org/2000/svg">
<g id="pictogram-timber">
<g id="Vector">
<path d="M30.824 16.599L24.2144 14.3122L25.0885 13.8075C26.5602 12.9578 26.3916 10.8184 24.8125 10.2494L18.9381 8.15766L19.5575 7.80006C20.7813 7.0935 20.7025 5.41371 19.4275 5.01423L6.80517 1.06819C6.33766 0.9225 5.83671 0.997791 5.42264 1.23685C5.00857 1.47592 4.69319 1.87263 4.58597 2.35098L1.69848 15.2488C1.40833 16.5512 2.82193 17.4603 4.04574 16.7538L4.66281 16.3975L3.53393 22.5318C3.24009 24.1891 5.00569 25.4011 6.47793 24.5511L7.35207 24.0464L6.02757 30.9137C5.71413 32.7747 7.68054 34.2841 9.32014 33.3374L19.3473 27.48L20.1989 29.0625L22.0392 28L21.2175 26.4693L31.2705 20.666C32.9146 19.7152 32.6341 17.224 30.8234 16.5978L30.824 16.599ZM30.1781 18.7739L20.1553 24.6296L18.2501 21.3297L19.3028 17.4009C19.4547 16.8339 19.1184 16.2514 18.5518 16.1C17.9851 15.9487 17.4022 16.2845 17.2509 16.8511L16.7487 18.7291L12.1865 10.8273C11.8927 10.3183 11.2432 10.1443 10.7348 10.4378C10.2258 10.7316 10.0541 11.3837 10.3462 11.8898L13.0028 16.4911L11.0483 15.6558C10.5078 15.4235 9.88618 15.675 9.65384 16.2155C9.4215 16.7561 9.67302 17.3776 10.2136 17.61L14.7722 19.5558L18.315 25.6921L8.24508 31.5059C8.22926 31.5051 8.17677 31.4832 8.13966 31.4349C8.11066 31.398 8.10477 31.3692 8.11548 31.3147L10.3206 19.8739L5.69189 22.5455L7.58499 12.251L4.08956 14.2691L6.5616 3.21091L17.38 6.59582L13.8892 8.61125L23.7453 12.1224L19.1215 14.7919L30.1321 18.6026C30.1752 18.6176 30.1997 18.6334 30.2196 18.6824C30.2371 18.746 30.2316 18.8028 30.1763 18.7734L30.1781 18.7739Z" fill="#6B6B6B"/>
<path d="M20.5 32.9309V30.2188H22.625V32.9309C22.625 33.5153 22.1568 33.9934 21.5698 33.9934C20.9821 33.9934 20.5 33.5179 20.5 32.9309Z" fill="#6B6B6B"/>
</g>
</g>
</svg>
