<svg width="34" height="34" viewBox="0 0 34 34" fill="none" xmlns="http://www.w3.org/2000/svg">
<g id="pictogram-cat" clip-path="url(#clip0_526_3421)">
<path id="cat" d="M32.1111 3.78628C31.5651 3.78628 31.0262 4.02947 30.6578 4.4651L28.0736 7.56406H26.7012L24.1188 4.4651C23.5804 3.82766 22.6661 3.58269 21.8385 3.97405C21.1674 4.29274 20.7778 5.01872 20.7778 5.76259V13.2296H19.8333C13.7003 13.2296 8.37604 16.6827 5.66667 21.7473V14.174C5.66667 11.5709 3.54934 9.45182 0.944444 9.45182C0.420573 9.45182 0 9.87092 0 10.3963C0 10.9216 0.420278 11.3407 0.944444 11.3407C2.50868 11.3407 3.77778 12.6098 3.77778 14.174V29.2852C3.77778 31.8942 5.89215 34.0074 8.5 34.0074H20.7365C21.8178 34.0074 22.6915 33.1155 22.6673 32.0341C22.6248 30.1239 21.1502 28.6046 19.2814 28.3626L24.5556 26.015V31.174C24.5556 32.7324 25.8306 34.0074 27.3889 34.0074C28.9472 34.0074 30.2222 32.7324 30.2222 31.174V19.1796C32.4505 18.1171 34 15.8593 34 13.2355V5.67405C34 4.6263 33.15 3.78516 32.1111 3.78516V3.78628ZM28.3333 31.1752C28.3333 31.6964 27.9101 32.1196 27.3889 32.1196C26.8671 32.1196 26.4444 31.6946 26.4444 31.1752V24.6172C26.4444 23.9336 25.7408 23.4762 25.1163 23.7542L17.9031 26.9635C17.6894 24.8834 16.4103 23.0801 14.5486 22.2024C14.0002 21.9438 13.3515 22.2307 13.2045 22.8192C13.0941 23.2595 13.319 23.7005 13.7245 23.9018C15.0456 24.5576 16.0585 25.6897 16.0585 27.1642L16.0556 30.2307H18.8889C19.929 30.2307 20.7778 31.0795 20.7778 32.1196H8.5C6.99597 32.1196 5.68497 30.9479 5.66844 29.4445C5.58108 21.559 11.9649 15.1191 19.8333 15.1191H21.0871C21.9052 17.8397 24.408 19.8407 27.3889 19.8407C27.7135 19.8407 28.0234 19.7888 28.3333 19.7448V31.174V31.1752ZM32.1111 13.2307C32.1111 15.8356 29.9932 17.9529 27.3889 17.9529C24.7846 17.9529 22.6667 15.8338 22.6667 13.2307V5.67517L25.8176 9.45294H28.9608L32.1111 5.67517V13.2307ZM25.5 11.3418C24.9747 11.3418 24.5556 11.7609 24.5556 12.2863C24.5556 12.8116 24.9747 13.2307 25.5 13.2307C26.0253 13.2307 26.4444 12.8116 26.4444 12.2863C26.4444 11.7609 26.0253 11.3418 25.5 11.3418ZM28.3333 12.2863C28.3333 12.8116 28.7524 13.2307 29.2778 13.2307C29.8031 13.2307 30.2222 12.8116 30.2222 12.2863C30.2222 11.7609 29.8031 11.3418 29.2778 11.3418C28.7524 11.3418 28.3333 11.7609 28.3333 12.2863Z" fill="#6B6B6B"/>
</g>
<defs>
<clipPath id="clip0_526_3421">
<rect width="34" height="34" fill="white"/>
</clipPath>
</defs>
</svg>
