<svg width="35" height="34" viewBox="0 0 35 34" fill="none" xmlns="http://www.w3.org/2000/svg">
<g id="pictogram-camel" clip-path="url(#clip0_526_3427)">
<g id="camel">
<mask id="path-1-outside-1_526_3427" maskUnits="userSpaceOnUse" x="0" y="5" width="35" height="29" fill="black">
<rect fill="white" y="5" width="35" height="29"/>
<path fill-rule="evenodd" clip-rule="evenodd" d="M32.0213 11.1018C31.463 10.4057 30.7526 9.84675 29.9447 9.46786C29.1367 9.08897 28.2527 8.9002 27.3605 8.91602C26.3078 8.91602 25.1908 9.77586 24.1462 10.6116C23.5174 11.1962 23.3747 11.5367 21.872 11.8652C21.268 11.8022 20.8067 11.6275 20.3693 11.2062C19.5056 10.4684 18.4254 10.0312 17.2916 9.96069C14.0692 10.033 13.9085 11.9054 13.7879 13.2474C13.6674 14.5893 13.5469 15.2965 12.3415 15.7867C12.2852 15.7867 11.795 15.9153 10.3084 13.0465L10.1959 12.8375C9.86569 12.2707 9.61937 11.6589 9.46463 11.0214C9.64496 10.4456 9.68064 9.83426 9.56852 9.2414C9.45639 8.64853 9.19991 8.09242 8.82176 7.62225C8.95917 7.30884 8.99295 6.95975 8.91819 6.6258C8.9219 6.58839 8.9219 6.55071 8.91819 6.5133C8.63693 5.70971 7.74495 6.06329 7.44762 6.16776L7.1503 6.28026L7.00565 6.34454H6.60386C6.25524 6.26907 5.89217 6.297 5.55919 6.4249C5.39409 6.49823 5.23775 6.58987 5.09311 6.69812C4.99456 6.78234 4.87965 6.84527 4.75561 6.88295C4.62181 6.89133 4.48761 6.89133 4.35381 6.88295C3.67443 6.79689 2.98454 6.85438 2.32877 7.0517C2.09522 7.13836 1.90106 7.30682 1.78233 7.52582L1.62162 7.62225C1.36953 7.85545 1.19082 8.15702 1.10732 8.49012C1.01976 8.6936 0.984906 8.91587 1.00597 9.13638C1.02704 9.35689 1.10335 9.56854 1.22786 9.75175C1.78233 10.5634 3.14843 10.708 3.71898 10.7402C5.06097 11.7447 5.21365 12.7009 5.41455 14.0108C5.53383 15.0026 5.80486 15.9701 6.21814 16.8796C6.52881 17.5089 6.90022 18.1064 7.32709 18.6635C7.75395 19.2207 7.32708 18.6635 8.10657 19.5555C8.86483 20.2204 9.71122 20.7774 10.6218 21.2109V29.6004C9.60927 30.2432 9.55302 30.5004 9.55302 32.0111V32.204C9.55302 32.3638 9.61652 32.5171 9.72955 32.6301C9.84257 32.7432 9.99587 32.8067 10.1557 32.8067H14.3665C14.5264 32.8067 14.6797 32.7432 14.7927 32.6301C14.9057 32.5171 14.9692 32.3638 14.9692 32.204V27.2217C15.8739 25.7798 16.3298 24.1017 16.279 22.4002H26.3882C26.6834 23.0004 27.1543 23.4965 27.7382 23.8226V29.5923C26.7257 30.2352 26.6694 30.4923 26.6694 32.0031V32.1959C26.6694 32.3558 26.7329 32.5091 26.846 32.6221C26.959 32.7351 27.1123 32.7986 27.2721 32.7986H31.5151C31.6749 32.7986 31.8282 32.7351 31.9412 32.6221C32.0543 32.5091 32.1178 32.3558 32.1178 32.1959V27.2298C33.7249 24.5217 33.7249 23.6458 33.7249 20.56V20.343C34.416 16.7028 33.7892 13.2474 32.0213 11.1018ZM32.5115 20.2386C32.5106 20.2573 32.5106 20.2761 32.5115 20.2948V20.552C32.5115 23.2199 32.5115 24.0235 31.4829 25.9119C31.3315 25.922 31.1895 25.9888 31.0852 26.0991C30.981 26.2093 30.9221 26.3548 30.9204 26.5065V31.6013H27.8748C27.8748 30.9263 27.9552 30.8781 28.4454 30.5727L28.6704 30.4361C28.756 30.3821 28.8266 30.3074 28.8758 30.219C28.9249 30.1305 28.951 30.031 28.9516 29.9298V23.4208C28.9524 23.2869 28.9086 23.1566 28.8271 23.0504C28.7456 22.9441 28.6311 22.8681 28.5016 22.8342C27.4168 22.5449 26.8543 20.4234 26.8543 19.6198C26.8543 19.46 26.7908 19.3067 26.6777 19.1936C26.5647 19.0806 26.4114 19.0171 26.2516 19.0171C26.0917 19.0171 25.9384 19.0806 25.8254 19.1936C25.7124 19.3067 25.6489 19.46 25.6489 19.6198C25.6603 20.1531 25.7413 20.6826 25.89 21.1948H16.2469C16.2469 20.7288 16.2469 20.2225 16.2469 19.66C16.2469 19.5001 16.1834 19.3468 16.0704 19.2338C15.9574 19.1208 15.8041 19.0573 15.6442 19.0573C15.4844 19.0573 15.3311 19.1208 15.218 19.2338C15.105 19.3468 15.0415 19.5001 15.0415 19.66C15.0415 20.2305 15.0415 20.7448 15.0415 21.2189C15.0415 21.3797 15.0415 21.5243 15.0415 21.669C15.0349 21.7196 15.0349 21.771 15.0415 21.8216C15.0318 21.8829 15.0318 21.9452 15.0415 22.0065C15.1297 23.3672 14.8523 24.7267 14.2379 25.944C14.0915 25.9579 13.9555 26.0256 13.8561 26.1339C13.7566 26.2423 13.7009 26.3836 13.6995 26.5307V31.6254H10.7504C10.7504 30.9504 10.8307 30.9022 11.3209 30.5968L11.5459 30.4602C11.6315 30.4062 11.7022 30.3315 11.7513 30.2431C11.8005 30.1546 11.8266 30.0552 11.8272 29.9539V20.5279C11.8272 20.368 11.7637 20.2147 11.6507 20.1017C11.5376 19.9887 11.3843 19.9252 11.2245 19.9252C11.1192 19.9274 11.0165 19.958 10.9272 20.0136C10.0444 19.5846 9.24668 18.9992 8.57265 18.2859C8.06587 17.7021 7.63891 17.0535 7.30298 16.3572C6.94206 15.5541 6.70629 14.7005 6.60386 13.8259C6.56719 12.9953 6.3366 12.1847 5.93054 11.4591C5.52449 10.7335 4.95424 10.113 4.26542 9.64729C4.16703 9.57622 4.04926 9.53697 3.92791 9.53479C3.32501 9.57186 2.72585 9.41715 2.21627 9.09281C2.21627 9.09281 2.21627 9.05263 2.21627 8.89995C2.24655 8.80347 2.28416 8.70945 2.32877 8.6187L2.44128 8.50619L2.53771 8.42584C2.65175 8.33729 2.74501 8.22483 2.81093 8.09636C3.27743 7.99043 3.75911 7.96866 4.23328 8.03208C4.46803 8.06218 4.70567 8.06218 4.94043 8.03208C5.25606 7.96728 5.55117 7.82662 5.80027 7.62225C5.87316 7.5644 5.95116 7.51329 6.03331 7.46957C6.16461 7.43205 6.3038 7.43205 6.4351 7.46957C6.56557 7.4898 6.697 7.50322 6.82886 7.50975C7.1053 7.54895 7.38703 7.49824 7.63245 7.3651V7.41332C7.56508 7.51298 7.52908 7.63053 7.52908 7.75082C7.52908 7.87112 7.56508 7.98866 7.63245 8.08833C7.6874 8.1627 7.75894 8.22323 7.84138 8.26512C8.13753 8.5958 8.3393 9.00004 8.42554 9.43549C8.51178 9.87094 8.47933 10.3216 8.33157 10.7402C8.16282 11.3429 8.91015 12.942 9.19944 13.4081L9.28784 13.5768C10.0914 15.0554 11.337 17.5305 12.8558 16.8796C14.7924 16.076 14.9371 14.4688 15.0335 13.3277C15.154 11.9536 15.2183 11.1982 17.2916 11.142C17.6487 11.1466 18.0013 11.2231 18.3282 11.367C18.3282 11.367 20.3748 12.8135 21.872 12.8305C23.7415 12.8517 26.1391 10.6598 26.1391 10.6598C26.5055 10.3734 26.9404 10.1878 27.4007 10.1214C28.1148 10.1035 28.8233 10.2517 29.4703 10.5543C30.1174 10.8569 30.6853 11.3057 31.1293 11.8652C32.6562 13.7215 33.2026 16.9037 32.5517 20.1743C32.5369 20.1948 32.5235 20.2163 32.5115 20.2386Z"/>
</mask>
<path fill-rule="evenodd" clip-rule="evenodd" d="M32.0213 11.1018C31.463 10.4057 30.7526 9.84675 29.9447 9.46786C29.1367 9.08897 28.2527 8.9002 27.3605 8.91602C26.3078 8.91602 25.1908 9.77586 24.1462 10.6116C23.5174 11.1962 23.3747 11.5367 21.872 11.8652C21.268 11.8022 20.8067 11.6275 20.3693 11.2062C19.5056 10.4684 18.4254 10.0312 17.2916 9.96069C14.0692 10.033 13.9085 11.9054 13.7879 13.2474C13.6674 14.5893 13.5469 15.2965 12.3415 15.7867C12.2852 15.7867 11.795 15.9153 10.3084 13.0465L10.1959 12.8375C9.86569 12.2707 9.61937 11.6589 9.46463 11.0214C9.64496 10.4456 9.68064 9.83426 9.56852 9.2414C9.45639 8.64853 9.19991 8.09242 8.82176 7.62225C8.95917 7.30884 8.99295 6.95975 8.91819 6.6258C8.9219 6.58839 8.9219 6.55071 8.91819 6.5133C8.63693 5.70971 7.74495 6.06329 7.44762 6.16776L7.1503 6.28026L7.00565 6.34454H6.60386C6.25524 6.26907 5.89217 6.297 5.55919 6.4249C5.39409 6.49823 5.23775 6.58987 5.09311 6.69812C4.99456 6.78234 4.87965 6.84527 4.75561 6.88295C4.62181 6.89133 4.48761 6.89133 4.35381 6.88295C3.67443 6.79689 2.98454 6.85438 2.32877 7.0517C2.09522 7.13836 1.90106 7.30682 1.78233 7.52582L1.62162 7.62225C1.36953 7.85545 1.19082 8.15702 1.10732 8.49012C1.01976 8.6936 0.984906 8.91587 1.00597 9.13638C1.02704 9.35689 1.10335 9.56854 1.22786 9.75175C1.78233 10.5634 3.14843 10.708 3.71898 10.7402C5.06097 11.7447 5.21365 12.7009 5.41455 14.0108C5.53383 15.0026 5.80486 15.9701 6.21814 16.8796C6.52881 17.5089 6.90022 18.1064 7.32709 18.6635C7.75395 19.2207 7.32708 18.6635 8.10657 19.5555C8.86483 20.2204 9.71122 20.7774 10.6218 21.2109V29.6004C9.60927 30.2432 9.55302 30.5004 9.55302 32.0111V32.204C9.55302 32.3638 9.61652 32.5171 9.72955 32.6301C9.84257 32.7432 9.99587 32.8067 10.1557 32.8067H14.3665C14.5264 32.8067 14.6797 32.7432 14.7927 32.6301C14.9057 32.5171 14.9692 32.3638 14.9692 32.204V27.2217C15.8739 25.7798 16.3298 24.1017 16.279 22.4002H26.3882C26.6834 23.0004 27.1543 23.4965 27.7382 23.8226V29.5923C26.7257 30.2352 26.6694 30.4923 26.6694 32.0031V32.1959C26.6694 32.3558 26.7329 32.5091 26.846 32.6221C26.959 32.7351 27.1123 32.7986 27.2721 32.7986H31.5151C31.6749 32.7986 31.8282 32.7351 31.9412 32.6221C32.0543 32.5091 32.1178 32.3558 32.1178 32.1959V27.2298C33.7249 24.5217 33.7249 23.6458 33.7249 20.56V20.343C34.416 16.7028 33.7892 13.2474 32.0213 11.1018ZM32.5115 20.2386C32.5106 20.2573 32.5106 20.2761 32.5115 20.2948V20.552C32.5115 23.2199 32.5115 24.0235 31.4829 25.9119C31.3315 25.922 31.1895 25.9888 31.0852 26.0991C30.981 26.2093 30.9221 26.3548 30.9204 26.5065V31.6013H27.8748C27.8748 30.9263 27.9552 30.8781 28.4454 30.5727L28.6704 30.4361C28.756 30.3821 28.8266 30.3074 28.8758 30.219C28.9249 30.1305 28.951 30.031 28.9516 29.9298V23.4208C28.9524 23.2869 28.9086 23.1566 28.8271 23.0504C28.7456 22.9441 28.6311 22.8681 28.5016 22.8342C27.4168 22.5449 26.8543 20.4234 26.8543 19.6198C26.8543 19.46 26.7908 19.3067 26.6777 19.1936C26.5647 19.0806 26.4114 19.0171 26.2516 19.0171C26.0917 19.0171 25.9384 19.0806 25.8254 19.1936C25.7124 19.3067 25.6489 19.46 25.6489 19.6198C25.6603 20.1531 25.7413 20.6826 25.89 21.1948H16.2469C16.2469 20.7288 16.2469 20.2225 16.2469 19.66C16.2469 19.5001 16.1834 19.3468 16.0704 19.2338C15.9574 19.1208 15.8041 19.0573 15.6442 19.0573C15.4844 19.0573 15.3311 19.1208 15.218 19.2338C15.105 19.3468 15.0415 19.5001 15.0415 19.66C15.0415 20.2305 15.0415 20.7448 15.0415 21.2189C15.0415 21.3797 15.0415 21.5243 15.0415 21.669C15.0349 21.7196 15.0349 21.771 15.0415 21.8216C15.0318 21.8829 15.0318 21.9452 15.0415 22.0065C15.1297 23.3672 14.8523 24.7267 14.2379 25.944C14.0915 25.9579 13.9555 26.0256 13.8561 26.1339C13.7566 26.2423 13.7009 26.3836 13.6995 26.5307V31.6254H10.7504C10.7504 30.9504 10.8307 30.9022 11.3209 30.5968L11.5459 30.4602C11.6315 30.4062 11.7022 30.3315 11.7513 30.2431C11.8005 30.1546 11.8266 30.0552 11.8272 29.9539V20.5279C11.8272 20.368 11.7637 20.2147 11.6507 20.1017C11.5376 19.9887 11.3843 19.9252 11.2245 19.9252C11.1192 19.9274 11.0165 19.958 10.9272 20.0136C10.0444 19.5846 9.24668 18.9992 8.57265 18.2859C8.06587 17.7021 7.63891 17.0535 7.30298 16.3572C6.94206 15.5541 6.70629 14.7005 6.60386 13.8259C6.56719 12.9953 6.3366 12.1847 5.93054 11.4591C5.52449 10.7335 4.95424 10.113 4.26542 9.64729C4.16703 9.57622 4.04926 9.53697 3.92791 9.53479C3.32501 9.57186 2.72585 9.41715 2.21627 9.09281C2.21627 9.09281 2.21627 9.05263 2.21627 8.89995C2.24655 8.80347 2.28416 8.70945 2.32877 8.6187L2.44128 8.50619L2.53771 8.42584C2.65175 8.33729 2.74501 8.22483 2.81093 8.09636C3.27743 7.99043 3.75911 7.96866 4.23328 8.03208C4.46803 8.06218 4.70567 8.06218 4.94043 8.03208C5.25606 7.96728 5.55117 7.82662 5.80027 7.62225C5.87316 7.5644 5.95116 7.51329 6.03331 7.46957C6.16461 7.43205 6.3038 7.43205 6.4351 7.46957C6.56557 7.4898 6.697 7.50322 6.82886 7.50975C7.1053 7.54895 7.38703 7.49824 7.63245 7.3651V7.41332C7.56508 7.51298 7.52908 7.63053 7.52908 7.75082C7.52908 7.87112 7.56508 7.98866 7.63245 8.08833C7.6874 8.1627 7.75894 8.22323 7.84138 8.26512C8.13753 8.5958 8.3393 9.00004 8.42554 9.43549C8.51178 9.87094 8.47933 10.3216 8.33157 10.7402C8.16282 11.3429 8.91015 12.942 9.19944 13.4081L9.28784 13.5768C10.0914 15.0554 11.337 17.5305 12.8558 16.8796C14.7924 16.076 14.9371 14.4688 15.0335 13.3277C15.154 11.9536 15.2183 11.1982 17.2916 11.142C17.6487 11.1466 18.0013 11.2231 18.3282 11.367C18.3282 11.367 20.3748 12.8135 21.872 12.8305C23.7415 12.8517 26.1391 10.6598 26.1391 10.6598C26.5055 10.3734 26.9404 10.1878 27.4007 10.1214C28.1148 10.1035 28.8233 10.2517 29.4703 10.5543C30.1174 10.8569 30.6853 11.3057 31.1293 11.8652C32.6562 13.7215 33.2026 16.9037 32.5517 20.1743C32.5369 20.1948 32.5235 20.2163 32.5115 20.2386Z" fill="#6B6B6B"/>
<path fill-rule="evenodd" clip-rule="evenodd" d="M32.0213 11.1018C31.463 10.4057 30.7526 9.84675 29.9447 9.46786C29.1367 9.08897 28.2527 8.9002 27.3605 8.91602C26.3078 8.91602 25.1908 9.77586 24.1462 10.6116C23.5174 11.1962 23.3747 11.5367 21.872 11.8652C21.268 11.8022 20.8067 11.6275 20.3693 11.2062C19.5056 10.4684 18.4254 10.0312 17.2916 9.96069C14.0692 10.033 13.9085 11.9054 13.7879 13.2474C13.6674 14.5893 13.5469 15.2965 12.3415 15.7867C12.2852 15.7867 11.795 15.9153 10.3084 13.0465L10.1959 12.8375C9.86569 12.2707 9.61937 11.6589 9.46463 11.0214C9.64496 10.4456 9.68064 9.83426 9.56852 9.2414C9.45639 8.64853 9.19991 8.09242 8.82176 7.62225C8.95917 7.30884 8.99295 6.95975 8.91819 6.6258C8.9219 6.58839 8.9219 6.55071 8.91819 6.5133C8.63693 5.70971 7.74495 6.06329 7.44762 6.16776L7.1503 6.28026L7.00565 6.34454H6.60386C6.25524 6.26907 5.89217 6.297 5.55919 6.4249C5.39409 6.49823 5.23775 6.58987 5.09311 6.69812C4.99456 6.78234 4.87965 6.84527 4.75561 6.88295C4.62181 6.89133 4.48761 6.89133 4.35381 6.88295C3.67443 6.79689 2.98454 6.85438 2.32877 7.0517C2.09522 7.13836 1.90106 7.30682 1.78233 7.52582L1.62162 7.62225C1.36953 7.85545 1.19082 8.15702 1.10732 8.49012C1.01976 8.6936 0.984906 8.91587 1.00597 9.13638C1.02704 9.35689 1.10335 9.56854 1.22786 9.75175C1.78233 10.5634 3.14843 10.708 3.71898 10.7402C5.06097 11.7447 5.21365 12.7009 5.41455 14.0108C5.53383 15.0026 5.80486 15.9701 6.21814 16.8796C6.52881 17.5089 6.90022 18.1064 7.32709 18.6635C7.75395 19.2207 7.32708 18.6635 8.10657 19.5555C8.86483 20.2204 9.71122 20.7774 10.6218 21.2109V29.6004C9.60927 30.2432 9.55302 30.5004 9.55302 32.0111V32.204C9.55302 32.3638 9.61652 32.5171 9.72955 32.6301C9.84257 32.7432 9.99587 32.8067 10.1557 32.8067H14.3665C14.5264 32.8067 14.6797 32.7432 14.7927 32.6301C14.9057 32.5171 14.9692 32.3638 14.9692 32.204V27.2217C15.8739 25.7798 16.3298 24.1017 16.279 22.4002H26.3882C26.6834 23.0004 27.1543 23.4965 27.7382 23.8226V29.5923C26.7257 30.2352 26.6694 30.4923 26.6694 32.0031V32.1959C26.6694 32.3558 26.7329 32.5091 26.846 32.6221C26.959 32.7351 27.1123 32.7986 27.2721 32.7986H31.5151C31.6749 32.7986 31.8282 32.7351 31.9412 32.6221C32.0543 32.5091 32.1178 32.3558 32.1178 32.1959V27.2298C33.7249 24.5217 33.7249 23.6458 33.7249 20.56V20.343C34.416 16.7028 33.7892 13.2474 32.0213 11.1018ZM32.5115 20.2386C32.5106 20.2573 32.5106 20.2761 32.5115 20.2948V20.552C32.5115 23.2199 32.5115 24.0235 31.4829 25.9119C31.3315 25.922 31.1895 25.9888 31.0852 26.0991C30.981 26.2093 30.9221 26.3548 30.9204 26.5065V31.6013H27.8748C27.8748 30.9263 27.9552 30.8781 28.4454 30.5727L28.6704 30.4361C28.756 30.3821 28.8266 30.3074 28.8758 30.219C28.9249 30.1305 28.951 30.031 28.9516 29.9298V23.4208C28.9524 23.2869 28.9086 23.1566 28.8271 23.0504C28.7456 22.9441 28.6311 22.8681 28.5016 22.8342C27.4168 22.5449 26.8543 20.4234 26.8543 19.6198C26.8543 19.46 26.7908 19.3067 26.6777 19.1936C26.5647 19.0806 26.4114 19.0171 26.2516 19.0171C26.0917 19.0171 25.9384 19.0806 25.8254 19.1936C25.7124 19.3067 25.6489 19.46 25.6489 19.6198C25.6603 20.1531 25.7413 20.6826 25.89 21.1948H16.2469C16.2469 20.7288 16.2469 20.2225 16.2469 19.66C16.2469 19.5001 16.1834 19.3468 16.0704 19.2338C15.9574 19.1208 15.8041 19.0573 15.6442 19.0573C15.4844 19.0573 15.3311 19.1208 15.218 19.2338C15.105 19.3468 15.0415 19.5001 15.0415 19.66C15.0415 20.2305 15.0415 20.7448 15.0415 21.2189C15.0415 21.3797 15.0415 21.5243 15.0415 21.669C15.0349 21.7196 15.0349 21.771 15.0415 21.8216C15.0318 21.8829 15.0318 21.9452 15.0415 22.0065C15.1297 23.3672 14.8523 24.7267 14.2379 25.944C14.0915 25.9579 13.9555 26.0256 13.8561 26.1339C13.7566 26.2423 13.7009 26.3836 13.6995 26.5307V31.6254H10.7504C10.7504 30.9504 10.8307 30.9022 11.3209 30.5968L11.5459 30.4602C11.6315 30.4062 11.7022 30.3315 11.7513 30.2431C11.8005 30.1546 11.8266 30.0552 11.8272 29.9539V20.5279C11.8272 20.368 11.7637 20.2147 11.6507 20.1017C11.5376 19.9887 11.3843 19.9252 11.2245 19.9252C11.1192 19.9274 11.0165 19.958 10.9272 20.0136C10.0444 19.5846 9.24668 18.9992 8.57265 18.2859C8.06587 17.7021 7.63891 17.0535 7.30298 16.3572C6.94206 15.5541 6.70629 14.7005 6.60386 13.8259C6.56719 12.9953 6.3366 12.1847 5.93054 11.4591C5.52449 10.7335 4.95424 10.113 4.26542 9.64729C4.16703 9.57622 4.04926 9.53697 3.92791 9.53479C3.32501 9.57186 2.72585 9.41715 2.21627 9.09281C2.21627 9.09281 2.21627 9.05263 2.21627 8.89995C2.24655 8.80347 2.28416 8.70945 2.32877 8.6187L2.44128 8.50619L2.53771 8.42584C2.65175 8.33729 2.74501 8.22483 2.81093 8.09636C3.27743 7.99043 3.75911 7.96866 4.23328 8.03208C4.46803 8.06218 4.70567 8.06218 4.94043 8.03208C5.25606 7.96728 5.55117 7.82662 5.80027 7.62225C5.87316 7.5644 5.95116 7.51329 6.03331 7.46957C6.16461 7.43205 6.3038 7.43205 6.4351 7.46957C6.56557 7.4898 6.697 7.50322 6.82886 7.50975C7.1053 7.54895 7.38703 7.49824 7.63245 7.3651V7.41332C7.56508 7.51298 7.52908 7.63053 7.52908 7.75082C7.52908 7.87112 7.56508 7.98866 7.63245 8.08833C7.6874 8.1627 7.75894 8.22323 7.84138 8.26512C8.13753 8.5958 8.3393 9.00004 8.42554 9.43549C8.51178 9.87094 8.47933 10.3216 8.33157 10.7402C8.16282 11.3429 8.91015 12.942 9.19944 13.4081L9.28784 13.5768C10.0914 15.0554 11.337 17.5305 12.8558 16.8796C14.7924 16.076 14.9371 14.4688 15.0335 13.3277C15.154 11.9536 15.2183 11.1982 17.2916 11.142C17.6487 11.1466 18.0013 11.2231 18.3282 11.367C18.3282 11.367 20.3748 12.8135 21.872 12.8305C23.7415 12.8517 26.1391 10.6598 26.1391 10.6598C26.5055 10.3734 26.9404 10.1878 27.4007 10.1214C28.1148 10.1035 28.8233 10.2517 29.4703 10.5543C30.1174 10.8569 30.6853 11.3057 31.1293 11.8652C32.6562 13.7215 33.2026 16.9037 32.5517 20.1743C32.5369 20.1948 32.5235 20.2163 32.5115 20.2386Z" stroke="#6B6B6B" stroke-width="0.4" mask="url(#path-1-outside-1_526_3427)"/>
</g>
</g>
<defs>
<clipPath id="clip0_526_3427">
<rect width="34" height="34" fill="white" transform="translate(0.5)"/>
</clipPath>
</defs>
</svg>
