<svg width="480" height="57" viewBox="0 0 480 57" fill="none" xmlns="http://www.w3.org/2000/svg">
<path d="M31.6805 10.5609C31.6172 9.68906 30.893 9 30 9C29.107 9 28.3828 9.68906 28.3195 10.5609C27.6586 9.99141 26.6531 10.0195 26.0273 10.6453C25.4016 11.2711 25.3664 12.2766 25.943 12.9375C25.0641 13.0078 24.375 13.732 24.375 14.625C24.375 15.518 25.0641 16.2422 25.9359 16.3055C25.3664 16.9664 25.3945 17.9719 26.0203 18.5977C26.6461 19.2234 27.6516 19.2586 28.3125 18.682C28.3828 19.5609 29.107 20.25 30 20.25C30.893 20.25 31.6172 19.5609 31.6805 18.6891C32.3414 19.2586 33.3469 19.2305 33.9727 18.6047C34.5984 17.9789 34.6336 16.9734 34.057 16.3125C34.9359 16.2422 35.625 15.518 35.625 14.625C35.625 13.732 34.9359 13.0078 34.0641 12.9445C34.6336 12.2836 34.6055 11.2781 33.9797 10.6523C33.3539 10.0266 32.3484 9.99141 31.6875 10.568L31.6805 10.5609ZM12 42.75C12 43.9945 13.0055 45 14.25 45H45.75C46.9945 45 48 43.9945 48 42.75C48 41.5055 46.9945 40.5 45.75 40.5H14.25C13.0055 40.5 12 41.5055 12 42.75ZM27.2156 21.3469C26.2172 21.3468 25.2188 20.9672 24.4523 20.2148C20.0438 22.1203 17.5195 26.2195 16.0922 30.0305C16.3875 30.143 16.718 30.1289 17.0062 29.9883L19.4953 28.7437C20.4445 28.2656 21.5625 28.2656 22.5117 28.7437L25.0008 29.9883C25.3172 30.15 25.6898 30.15 26.0062 29.9883L28.4953 28.7437C29.4445 28.2656 30.5625 28.2656 31.5117 28.7437L34.0008 29.9883C34.3172 30.15 34.6898 30.15 35.0063 29.9883L37.4953 28.7437C38.4445 28.2656 39.5625 28.2656 40.5117 28.7437L43.0008 29.9883C43.2891 30.1289 43.6195 30.143 43.9148 30.0305C42.4875 26.2195 39.9633 22.1203 35.5547 20.2148C34.7883 20.9672 33.7898 21.3469 32.7914 21.3469C32.0742 22.057 31.0898 22.5 30 22.5C28.9102 22.5 27.9258 22.057 27.2156 21.3469ZM15.382 32.168C14.4117 35.543 14.25 38.25 14.25 38.25H45.75C45.75 38.25 45.5883 35.543 44.618 32.168C43.7602 32.4703 42.818 32.4141 41.9953 31.9992L39.5063 30.7547C39.1898 30.593 38.8172 30.593 38.5008 30.7547L36.0117 31.9992C35.0625 32.4773 33.9445 32.4773 32.9953 31.9992L30.5063 30.7547C30.1898 30.593 29.8172 30.593 29.5008 30.7547L27.0117 31.9992C26.0625 32.4773 24.9445 32.4773 23.9953 31.9992L21.5062 30.7547C21.1898 30.593 20.8172 30.593 20.5008 30.7547L18.0117 32.0063C17.1891 32.4141 16.2398 32.4703 15.3891 32.175L15.382 32.168Z" fill="#445DBE"/>
<path d="M77.4001 26.8C76.7757 26.8 76.1851 26.9575 75.6732 27.2387C75.8982 25.1744 76.6182 23.3687 77.6138 22.0412C78.8232 20.4325 80.3588 19.6 81.9001 19.6C83.4413 19.6 84.9769 20.4325 86.1863 22.0412C87.3957 23.6556 88.2001 25.9675 88.2001 28.6C88.2001 31.2325 87.3957 33.5444 86.1863 35.1587C84.9769 36.7731 83.4413 37.6 81.9001 37.6C80.3588 37.6 78.8232 36.7675 77.6138 35.1587C77.3382 34.7931 77.0851 34.3937 76.8601 33.9606C77.0344 33.9887 77.2201 34 77.4001 34C79.3857 34 81.0001 32.3856 81.0001 30.4C81.0001 28.4144 79.3857 26.8 77.4001 26.8ZM90.0001 21.3269C89.7188 20.815 89.4094 20.3369 89.0663 19.8812C87.3451 17.5863 84.8307 16 81.9001 16C78.9694 16 76.4551 17.5863 74.7338 19.8812C73.0126 22.1762 72 25.2644 72 28.6C72 31.9356 73.0125 35.0237 74.7337 37.3187C76.455 39.6137 78.9694 41.2 81.9 41.2C84.8306 41.2 87.345 39.6137 89.0662 37.3187C89.4037 36.8687 89.7187 36.385 90 35.8731C90.2812 36.385 90.5906 36.8631 90.9337 37.3187C92.655 39.6137 95.1694 41.2 98.1 41.2C101.031 41.2 103.545 39.6137 105.266 37.3187C106.988 35.0237 108 31.9356 108 28.6C108 25.2644 106.988 22.1762 105.266 19.8812C103.545 17.5863 101.031 16 98.1001 16C95.1694 16 92.6551 17.5863 90.9338 19.8812C90.5963 20.3312 90.2813 20.815 90.0001 21.3269ZM93.0601 33.9606C93.2344 33.9887 93.4201 34 93.6001 34C95.5857 34 97.2001 32.3856 97.2001 30.4C97.2001 28.4144 95.5857 26.8 93.6001 26.8C92.9757 26.8 92.3851 26.9575 91.8732 27.2387C92.0982 25.1744 92.8182 23.3687 93.8138 22.0412C95.0232 20.4325 96.5588 19.6 98.1001 19.6C99.6413 19.6 101.177 20.4325 102.386 22.0412C103.596 23.6556 104.4 25.9675 104.4 28.6C104.4 31.2325 103.596 33.5444 102.386 35.1587C101.177 36.7731 99.6413 37.6 98.1001 37.6C96.5588 37.6 95.0232 36.7675 93.8138 35.1587C93.5382 34.7931 93.2851 34.3937 93.0601 33.9606Z" fill="#445DBE"/>
<path d="M166 28C166 25.0875 165.219 22.3563 163.862 20H161C159.788 20 158.694 19.2688 158.231 18.15C157.788 17.0813 158 15.8562 158.769 15C158.587 14.8 158.431 14.5688 158.312 14.325C155.888 12.85 153.044 12 150 12C141.163 12 134 19.1625 134 28C134 36.8375 141.163 44 150 44C158.837 44 166 36.8375 166 28ZM151 18C150.45 18 150 17.55 150 17C150 16.45 150.45 16 151 16H155C155.406 16 155.769 16.2438 155.925 16.6188C156.081 16.9938 155.994 17.425 155.706 17.7063L153.413 20H155C155.55 20 156 20.45 156 21C156 21.55 155.55 22 155 22H151C150.594 22 150.231 21.7563 150.075 21.3813C149.919 21.0063 150.006 20.575 150.294 20.2937L152.587 18H151ZM152.5 36C152.5 37.3813 151.381 38.5 150 38.5C148.619 38.5 147.5 37.3813 147.5 36C147.5 34.6187 148.619 33.5 150 33.5C151.381 33.5 152.5 34.6187 152.5 36ZM158.2 26.9C158.531 26.4562 159.156 26.3687 159.6 26.7C160.044 27.0312 160.131 27.6563 159.8 28.1C157.9 30.6313 154.1 30.6313 152.2 28.1C151.869 27.6563 151.956 27.0312 152.4 26.7C152.844 26.3687 153.469 26.4562 153.8 26.9C154.9 28.3687 157.1 28.3687 158.2 26.9ZM141.8 26.9C142.9 28.3687 145.1 28.3687 146.2 26.9C146.531 26.4562 147.156 26.3687 147.6 26.7C148.044 27.0312 148.131 27.6563 147.8 28.1C145.9 30.6313 142.1 30.6313 140.2 28.1C139.869 27.6563 139.956 27.0312 140.4 26.7C140.844 26.3687 141.469 26.4562 141.8 26.9ZM160 13C160 13.55 160.45 14 161 14H162.587L160.294 16.2937C160.006 16.5812 159.925 17.0125 160.075 17.3812C160.225 17.75 160.594 18 161 18H165C165.55 18 166 17.55 166 17C166 16.45 165.55 16 165 16H163.413L165.706 13.7062C165.994 13.4187 166.075 12.9875 165.925 12.6187C165.775 12.25 165.406 12 165 12H161C160.45 12 160 12.45 160 13Z" fill="#445DBE"/>
<path d="M216.271 20.0731C216.574 20.0731 216.876 20.092 217.173 20.1298C217.242 18.6161 217.009 17.1087 216.485 15.7086C216.965 14.5859 217.659 13.5515 218.548 12.6622L218.838 12.3721C219.071 12.1388 219.393 12.0063 219.721 12.0063C220.301 12.0063 220.806 12.41 220.938 12.9776L221.001 13.2551C221.619 15.9293 221.115 18.7107 219.677 20.975C220.024 21.1705 220.352 21.3913 220.661 21.6435L222.856 23.4158C223.739 24.1348 224.256 25.2197 224.256 26.3613C224.256 28.4615 222.553 30.1644 220.453 30.1644H218.201V31.7917L222.092 41.5235C222.509 42.5579 222.004 43.731 220.97 44.1473C219.935 44.5635 218.762 44.059 218.346 43.0246L215.861 36.8058L212.752 40.2558H214.164C215.281 40.2558 216.183 41.1577 216.183 42.2741C216.183 43.3904 215.281 44.2923 214.164 44.2923H209.119H206.091C204.294 44.2923 202.774 43.1192 202.25 41.5046C201.601 42.2804 200.623 42.7786 199.532 42.7786C197.583 42.7786 196 41.1955 196 39.2466C196 37.2978 197.583 35.7147 199.532 35.7147C200.629 35.7147 201.613 36.2192 202.263 37.0076C203.19 32.0376 207.151 28.1399 212.146 27.3073V24.1979C212.146 23.5104 212.316 22.8608 212.613 22.2932C210.45 19.9911 209.44 16.8186 209.888 13.6651L209.932 13.356C210.046 12.5803 210.708 12 211.497 12C211.913 12 212.31 12.164 212.607 12.4604L212.802 12.6559C214.808 14.6427 215.823 17.3736 215.666 20.1235C215.861 20.092 216.063 20.0794 216.271 20.0794V20.0731ZM219.21 26.1279C219.765 26.1279 220.219 25.6738 220.219 25.1188C220.219 24.5637 219.765 24.1096 219.21 24.1096C218.655 24.1096 218.201 24.5637 218.201 25.1188C218.201 25.6738 218.655 26.1279 219.21 26.1279Z" fill="#445DBE"/>
<path d="M254.188 13C252.978 13 252 13.9895 252 15.2143C252 16.4391 252.978 17.4286 254.188 17.4286H284.812C286.022 17.4286 287 16.4391 287 15.2143C287 13.9895 286.022 13 284.812 13H254.188ZM254.188 39.5714C252.978 39.5714 252 40.5609 252 41.7857C252 43.0105 252.978 44 254.188 44H258.562H262.938V35.1429C262.938 31.4754 265.877 28.5 269.5 28.5C273.123 28.5 276.062 31.4754 276.062 35.1429V44H280.438H284.812C286.022 44 287 43.0105 287 41.7857C287 40.5609 286.022 39.5714 284.812 39.5714V19.6429H254.188V39.5714Z" fill="#445DBE"/>
<path d="M332.166 24.1096H333.245C334.639 26.5252 337.25 28.1462 340.24 28.1462C340.933 28.1462 341.614 28.0579 342.258 27.8939V28.1462V30.1644V42.274C342.258 43.3904 341.356 44.2923 340.24 44.2923C339.123 44.2923 338.221 43.3904 338.221 42.274V33.3937L329.644 40.2558H333.176C334.292 40.2558 335.194 41.1577 335.194 42.274C335.194 43.3904 334.292 44.2923 333.176 44.2923H324.093C320.751 44.2923 318.039 41.5803 318.039 38.2375V24.1412C318.039 23.1257 317.282 22.2616 316.273 22.1355L315.774 22.0724C314.664 21.94 313.882 20.9308 314.015 19.8208C314.147 18.7107 315.163 17.9287 316.266 18.0674L316.765 18.1305C319.792 18.5089 322.069 21.0822 322.069 24.1412V29.5211C324.238 26.2603 327.947 24.1096 332.16 24.1096H332.166ZM342.258 25.781C341.627 26.0017 340.946 26.1279 340.24 26.1279C338.448 26.1279 336.834 25.3458 335.724 24.1096C335.49 23.851 335.282 23.5735 335.099 23.2771C334.519 22.3436 334.185 21.2462 334.185 20.0731V14.0183V12.7569V12.6749C334.185 12.3027 334.481 12.0063 334.853 12H334.866C335.074 12 335.27 12.1009 335.396 12.2649V12.2712L336.203 13.3434L337.919 15.6329L338.221 16.0365H342.258L342.561 15.6329L344.276 13.3434L345.083 12.2712V12.2649C345.21 12.1009 345.405 12 345.613 12H345.626C345.998 12.0063 346.294 12.3027 346.294 12.6749V12.7569V14.0183V20.0731C346.294 21.1642 346.004 22.1923 345.5 23.0753C344.787 24.3241 343.633 25.2954 342.258 25.781ZM339.23 20.0731C339.23 19.5181 338.776 19.0639 338.221 19.0639C337.666 19.0639 337.212 19.5181 337.212 20.0731C337.212 20.6281 337.666 21.0822 338.221 21.0822C338.776 21.0822 339.23 20.6281 339.23 20.0731ZM342.258 21.0822C342.813 21.0822 343.267 20.6281 343.267 20.0731C343.267 19.5181 342.813 19.0639 342.258 19.0639C341.703 19.0639 341.249 19.5181 341.249 20.0731C341.249 20.6281 341.703 21.0822 342.258 21.0822Z" fill="#445DBE"/>
<path d="M392.111 15.1165V23.2857H374.2C377.61 18.2884 383.409 15 390 15C390.713 15 391.418 15.0388 392.111 15.1165ZM394.222 23.2857V15.4596C399.032 16.5342 403.142 19.3888 405.8 23.2857H394.222ZM372.973 25.3571H377.333V33.6429H371C371 30.6652 371.712 27.8558 372.973 25.3571ZM383.667 33.6429H379.444V25.3571H400.556V33.6429H396.333V35.7143H409V40.8929C409 42.6083 407.582 44 405.833 44H394.222V35.7143C394.222 33.4292 392.329 31.5714 390 31.5714C387.671 31.5714 385.778 33.4292 385.778 35.7143V44H374.167C372.418 44 371 42.6083 371 40.8929V35.7143H383.667V33.6429ZM402.667 33.6429V25.3571H407.027C408.294 27.8558 409 30.6652 409 33.6429H402.667Z" fill="#445DBE"/>
<path fill-rule="evenodd" clip-rule="evenodd" d="M450.387 38.4896C451.303 39.0467 452.526 39.197 453.629 39.197C453.41 39.6678 452.843 40.1715 452.146 40.4618C451.449 40.7495 450.668 40.8659 450.387 40.8659C450.105 40.8659 449.324 40.7498 448.629 40.4618C447.931 40.1715 447.365 39.6678 447.146 39.197C448.247 39.1975 449.47 39.0472 450.387 38.4896ZM445.662 21.0587C446.169 21.0476 446.685 21.1119 447.199 21.2091C447.681 21.3002 448.145 21.4229 448.582 21.5385C449.26 21.7179 449.873 21.8799 450.387 21.8799C450.902 21.8799 451.514 21.7179 452.191 21.5387L452.191 21.5387L452.191 21.5387C452.629 21.423 453.093 21.3001 453.576 21.2091C454.09 21.1121 454.606 21.0476 455.114 21.0587C455.959 21.0735 456.78 21.2913 457.542 21.8974C459.194 23.2117 459.619 25.6248 459.167 27.2956C458.836 28.5179 457.528 29.6472 456.383 30.637C456.192 30.8016 456.006 30.9625 455.829 31.1192C455.511 31.4033 455.619 31.6415 455.924 32.2139C456.438 33.1751 456.86 34.0269 456.327 35.6894C455.487 38.311 452.602 38.6983 451.014 37.9325V36.7714C451.014 35.5562 452.286 34.6639 453.173 34.1068C453.735 33.7564 453.679 32.6033 452.739 32.842C451.934 33.0484 451.21 33.227 450.386 33.227C449.563 33.227 448.84 33.0486 448.036 32.842C447.096 32.603 447.04 33.7559 447.601 34.1068C448.489 34.6639 449.76 35.5567 449.76 36.7714V37.9325C448.173 38.6985 445.287 38.3113 444.448 35.6894C443.915 34.0264 444.334 33.1751 444.85 32.2139C445.156 31.6421 445.263 31.4033 444.945 31.1192C444.768 30.9624 444.582 30.8014 444.391 30.6367C443.246 29.6469 441.939 28.5178 441.607 27.2956C441.155 25.6246 441.582 23.2114 443.233 21.8974C443.995 21.2913 444.816 21.0735 445.662 21.0587ZM445.999 12.6128C445.427 12.6296 444.786 12.7369 444.048 12.993C443.223 13.2763 442.548 13.676 441.941 14.0353C441.579 14.2495 441.241 14.4494 440.911 14.6018C440.024 15.008 439.226 15.1374 437.94 14.3934C437.779 14.2988 437.57 14.3765 437.511 14.5549C437.511 14.5549 437.128 16.0823 438.1 17.2864C435.911 19.4331 434.244 22.0155 434.001 26.1425C433.988 26.3488 434.188 26.5059 434.386 26.4414L436.27 25.8522C435.138 28.0649 434.603 30.495 435.1 32.73C435.145 32.9493 435.412 33.0392 435.582 32.8915L437.44 31.2915C437.356 32.3966 437.36 33.5559 437.547 34.5884C437.773 35.8294 438.102 36.8616 438.423 37.4166C438.53 37.6053 438.792 37.6209 438.92 37.4464L440.246 35.6398C440.332 37.0096 440.522 38.3622 440.943 39.4466C441.445 40.7394 442.111 41.7524 442.851 42.3054C443.012 42.4257 443.244 42.352 443.307 42.1613L443.89 40.3824C445.322 42.6237 447.447 44.5529 450.312 45.3204C450.361 45.3337 450.413 45.3337 450.464 45.3204C453.327 44.5529 455.454 42.6237 456.886 40.3824L457.467 42.1613C457.531 42.3526 457.761 42.4254 457.923 42.3054C458.665 41.7524 459.332 40.7396 459.833 39.4466C460.254 38.3628 460.443 37.0098 460.53 35.6398L461.854 37.4464C461.981 37.6212 462.246 37.6053 462.353 37.4166C462.673 36.8616 463.003 35.8294 463.228 34.5884C463.416 33.5562 463.42 32.3967 463.334 31.2915L465.194 32.8915C465.364 33.0372 465.628 32.9493 465.676 32.73C466.173 30.4952 465.635 28.0651 464.504 25.8522L466.39 26.4414C466.588 26.5039 466.788 26.3488 466.775 26.1425C466.53 22.0153 464.865 19.4326 462.675 17.2864C463.648 16.0822 463.265 14.5549 463.265 14.5549C463.205 14.3786 462.998 14.3008 462.837 14.3934C461.551 15.1379 460.749 15.0083 459.863 14.6018C459.533 14.4497 459.197 14.2503 458.837 14.0367C458.23 13.677 457.555 13.2767 456.729 12.993C455.252 12.4813 454.172 12.5632 453.224 12.7717C452.971 12.8273 452.728 12.8902 452.487 12.9527C451.826 13.1243 451.179 13.2919 450.389 13.2919C449.599 13.2919 448.95 13.124 448.287 12.9522C448.046 12.8899 447.804 12.8271 447.552 12.7717C447.077 12.6662 446.571 12.5936 445.999 12.6128L445.999 12.6128ZM444.49 27.1687C444.707 27.1625 444.873 27.2377 444.924 27.3492C445.098 27.7258 445.376 28.0011 445.741 28.1883C446.24 28.4444 446.952 28.4919 447.817 28.4976L447.818 28.5008C447.921 28.7234 447.993 28.882 448.03 29.1495C448.075 29.4894 448.408 29.5625 448.477 29.1148C448.54 27.9906 448.032 27.1193 447.249 26.5795C446.356 25.9647 445.127 25.8825 444.408 26.6957C444.215 26.9241 444.195 27.1799 444.49 27.1687ZM455.852 27.3492C455.903 27.2377 456.069 27.1625 456.286 27.1687C456.581 27.1799 456.562 26.9241 456.368 26.6957C455.649 25.8825 454.417 25.9647 453.527 26.5795C452.744 27.1193 452.236 27.9906 452.298 29.1148C452.367 29.5625 452.701 29.4894 452.746 29.1495C452.782 28.8807 452.853 28.7218 452.957 28.4976C453.824 28.4919 454.536 28.4444 455.034 28.1883C455.4 28.0011 455.677 27.7258 455.852 27.3492Z" fill="#445DBE"/>
</svg>
