<svg width="480" height="57" viewBox="0 0 480 57" fill="none" xmlns="http://www.w3.org/2000/svg">
<path d="M31.6805 12.5609C31.6172 11.6891 30.893 11 30 11C29.107 11 28.3828 11.6891 28.3195 12.5609C27.6586 11.9914 26.6531 12.0195 26.0273 12.6453C25.4016 13.2711 25.3664 14.2766 25.943 14.9375C25.0641 15.0078 24.375 15.732 24.375 16.625C24.375 17.518 25.0641 18.2422 25.9359 18.3055C25.3664 18.9664 25.3945 19.9719 26.0203 20.5977C26.6461 21.2234 27.6516 21.2586 28.3125 20.682C28.3828 21.5609 29.107 22.25 30 22.25C30.893 22.25 31.6172 21.5609 31.6805 20.6891C32.3414 21.2586 33.3469 21.2305 33.9727 20.6047C34.5984 19.9789 34.6336 18.9734 34.057 18.3125C34.9359 18.2422 35.625 17.518 35.625 16.625C35.625 15.732 34.9359 15.0078 34.0641 14.9445C34.6336 14.2836 34.6055 13.2781 33.9797 12.6523C33.3539 12.0266 32.3484 11.9914 31.6875 12.568L31.6805 12.5609ZM12 44.75C12 45.9945 13.0055 47 14.25 47H45.75C46.9945 47 48 45.9945 48 44.75C48 43.5055 46.9945 42.5 45.75 42.5H14.25C13.0055 42.5 12 43.5055 12 44.75ZM27.2156 23.3469C26.2172 23.3468 25.2188 22.9672 24.4523 22.2148C20.0438 24.1203 17.5195 28.2195 16.0922 32.0305C16.3875 32.143 16.718 32.1289 17.0062 31.9883L19.4953 30.7437C20.4445 30.2656 21.5625 30.2656 22.5117 30.7437L25.0008 31.9883C25.3172 32.15 25.6898 32.15 26.0062 31.9883L28.4953 30.7437C29.4445 30.2656 30.5625 30.2656 31.5117 30.7437L34.0008 31.9883C34.3172 32.15 34.6898 32.15 35.0063 31.9883L37.4953 30.7437C38.4445 30.2656 39.5625 30.2656 40.5117 30.7437L43.0008 31.9883C43.2891 32.1289 43.6195 32.143 43.9148 32.0305C42.4875 28.2195 39.9633 24.1203 35.5547 22.2148C34.7883 22.9672 33.7898 23.3469 32.7914 23.3469C32.0742 24.057 31.0898 24.5 30 24.5C28.9102 24.5 27.9258 24.057 27.2156 23.3469ZM15.382 34.168C14.4117 37.543 14.25 40.25 14.25 40.25H45.75C45.75 40.25 45.5883 37.543 44.618 34.168C43.7602 34.4703 42.818 34.4141 41.9953 33.9992L39.5063 32.7547C39.1898 32.593 38.8172 32.593 38.5008 32.7547L36.0117 33.9992C35.0625 34.4773 33.9445 34.4773 32.9953 33.9992L30.5063 32.7547C30.1898 32.593 29.8172 32.593 29.5008 32.7547L27.0117 33.9992C26.0625 34.4773 24.9445 34.4773 23.9953 33.9992L21.5062 32.7547C21.1898 32.593 20.8172 32.593 20.5008 32.7547L18.0117 34.0063C17.1891 34.4141 16.2398 34.4703 15.3891 34.175L15.382 34.168Z" fill="#1A79C7"/>
<path d="M77.4001 26.8C76.7757 26.8 76.1851 26.9575 75.6732 27.2387C75.8982 25.1744 76.6182 23.3687 77.6138 22.0412C78.8232 20.4325 80.3588 19.6 81.9001 19.6C83.4413 19.6 84.9769 20.4325 86.1863 22.0412C87.3957 23.6556 88.2001 25.9675 88.2001 28.6C88.2001 31.2325 87.3957 33.5444 86.1863 35.1588C84.9769 36.7731 83.4413 37.6 81.9001 37.6C80.3588 37.6 78.8232 36.7675 77.6138 35.1588C77.3382 34.7931 77.0851 34.3937 76.8601 33.9606C77.0344 33.9887 77.2201 34 77.4001 34C79.3857 34 81.0001 32.3856 81.0001 30.4C81.0001 28.4144 79.3857 26.8 77.4001 26.8ZM90.0001 21.3269C89.7188 20.815 89.4094 20.3369 89.0663 19.8812C87.3451 17.5862 84.8307 16 81.9001 16C78.9694 16 76.4551 17.5862 74.7338 19.8812C73.0126 22.1762 72 25.2644 72 28.6C72 31.9356 73.0125 35.0238 74.7337 37.3188C76.455 39.6137 78.9694 41.2 81.9 41.2C84.8306 41.2 87.345 39.6137 89.0662 37.3188C89.4037 36.8687 89.7188 36.385 90 35.8731C90.2812 36.385 90.5906 36.8631 90.9338 37.3188C92.655 39.6137 95.1694 41.2 98.1 41.2C101.031 41.2 103.545 39.6137 105.266 37.3188C106.988 35.0238 108 31.9356 108 28.6C108 25.2644 106.988 22.1762 105.266 19.8812C103.545 17.5862 101.031 16 98.1001 16C95.1694 16 92.6551 17.5862 90.9338 19.8812C90.5963 20.3312 90.2813 20.815 90.0001 21.3269ZM93.0601 33.9606C93.2344 33.9887 93.4201 34 93.6001 34C95.5857 34 97.2001 32.3856 97.2001 30.4C97.2001 28.4144 95.5857 26.8 93.6001 26.8C92.9757 26.8 92.3851 26.9575 91.8732 27.2387C92.0982 25.1744 92.8182 23.3687 93.8138 22.0412C95.0232 20.4325 96.5588 19.6 98.1001 19.6C99.6413 19.6 101.177 20.4325 102.386 22.0412C103.596 23.6556 104.4 25.9675 104.4 28.6C104.4 31.2325 103.596 33.5444 102.386 35.1588C101.177 36.7731 99.6413 37.6 98.1001 37.6C96.5588 37.6 95.0232 36.7675 93.8138 35.1588C93.5382 34.7931 93.2851 34.3937 93.0601 33.9606Z" fill="#1A79C7"/>
<path d="M149.054 13C145.378 13 142.403 16.0334 142.403 19.7812C142.403 23.5291 145.378 26.5625 149.054 26.5625C149.576 26.5625 150.004 26.9984 150.004 27.5312C150.004 28.0641 149.576 28.5 149.054 28.5C144.333 28.5 140.503 24.5947 140.503 19.7812C140.503 18.2494 140.889 16.8084 141.572 15.5551C140.354 15.9789 139.232 16.6025 138.24 17.3957C135.004 19.7752 132.901 23.6441 132.901 28.0156V29.166C132.901 29.9168 132.83 30.6615 132.682 31.4002C132.569 31.9633 132.337 32.49 132.005 32.9502L131.286 33.925C130.811 34.5668 130.942 35.475 131.571 35.9594C132.201 36.4438 133.092 36.3105 133.567 35.6687L134.285 34.6879C134.475 34.4275 134.647 34.1551 134.802 33.8705V42.0625C134.802 43.1342 135.651 44 136.702 44H140.503C141.554 44 142.403 43.1342 142.403 42.0625V37.8242C143.311 38.0604 144.268 38.1875 145.253 38.1875C146.239 38.1875 147.195 38.0604 148.104 37.8242V42.0625C148.104 43.1342 148.953 44 150.004 44H153.805C154.856 44 155.705 43.1342 155.705 42.0625V33.6283C156.697 34.7727 158.009 35.6143 159.505 36.0078V37.134C159.505 39.8586 161.673 42.0625 164.339 42.0625C166.168 42.0625 167.843 41.009 168.662 39.3379L168.799 39.0533C169.268 38.0967 168.888 36.9342 167.95 36.4559C167.012 35.9775 165.871 36.365 165.402 37.3217L165.266 37.6062C165.088 37.9635 164.731 38.1875 164.339 38.1875C163.769 38.1875 163.306 37.7152 163.306 37.134V36.0078C164.666 35.6506 165.883 34.918 166.833 33.925C167.202 33.5436 167.196 32.932 166.822 32.5566C166.447 32.1812 165.854 32.1873 165.485 32.5627C165.408 32.6414 165.331 32.7201 165.248 32.7988C165.159 32.8836 165.064 32.9623 164.975 33.041C164.482 33.4467 163.918 33.7676 163.312 33.9855C162.718 34.1975 162.077 34.3186 161.412 34.3186C160.747 34.3186 160.105 34.2035 159.511 33.9855C159.066 33.8281 158.644 33.6102 158.258 33.3498C157.718 32.9805 157.237 32.5203 156.851 31.9936C156.536 31.5637 156.619 30.9582 157.041 30.6373C157.463 30.3164 158.056 30.4012 158.371 30.8311C159.06 31.7695 160.165 32.375 161.406 32.375C162.101 32.375 162.748 32.1873 163.306 31.8543V24.625C163.306 19.2727 159.054 14.9375 153.805 14.9375H153.71C152.51 13.7387 150.865 13 149.054 13ZM158.555 26.5625C158.033 26.5625 157.605 26.1266 157.605 25.5938C157.605 25.0609 158.033 24.625 158.555 24.625C159.078 24.625 159.505 25.0609 159.505 25.5938C159.505 26.1266 159.078 26.5625 158.555 26.5625Z" fill="#1A79C7"/>
<path d="M216.271 21.0731C216.574 21.0731 216.876 21.092 217.173 21.1298C217.242 19.6161 217.009 18.1087 216.485 16.7086C216.965 15.5859 217.659 14.5515 218.548 13.6622L218.838 13.3721C219.071 13.1388 219.393 13.0063 219.721 13.0063C220.301 13.0063 220.806 13.41 220.938 13.9776L221.001 14.2551C221.619 16.9293 221.115 19.7107 219.677 21.975C220.024 22.1705 220.352 22.3913 220.661 22.6435L222.856 24.4158C223.739 25.1348 224.256 26.2197 224.256 27.3613C224.256 29.4615 222.553 31.1644 220.453 31.1644H218.201V32.7917L222.092 42.5235C222.509 43.5579 222.004 44.731 220.97 45.1473C219.935 45.5635 218.762 45.059 218.346 44.0246L215.861 37.8058L212.752 41.2558H214.164C215.281 41.2558 216.183 42.1577 216.183 43.274C216.183 44.3904 215.281 45.2923 214.164 45.2923H209.119H206.091C204.294 45.2923 202.774 44.1192 202.25 42.5046C201.601 43.2804 200.623 43.7786 199.532 43.7786C197.583 43.7786 196 42.1955 196 40.2466C196 38.2978 197.583 36.7147 199.532 36.7147C200.629 36.7147 201.613 37.2192 202.263 38.0076C203.19 33.0376 207.151 29.1399 212.146 28.3073V25.1979C212.146 24.5104 212.316 23.8608 212.613 23.2932C210.45 20.9911 209.44 17.8186 209.888 14.6651L209.932 14.356C210.046 13.5803 210.708 13 211.497 13C211.913 13 212.31 13.164 212.607 13.4604L212.802 13.6559C214.808 15.6427 215.823 18.3736 215.666 21.1235C215.861 21.092 216.063 21.0794 216.271 21.0794V21.0731ZM219.21 27.1279C219.765 27.1279 220.219 26.6738 220.219 26.1188C220.219 25.5637 219.765 25.1096 219.21 25.1096C218.655 25.1096 218.201 25.5637 218.201 26.1188C218.201 26.6738 218.655 27.1279 219.21 27.1279Z" fill="#1A79C7"/>
<path d="M286 28C286 25.0875 285.219 22.3562 283.862 20H281C279.788 20 278.694 19.2688 278.231 18.15C277.788 17.0813 278 15.8563 278.769 15C278.587 14.8 278.431 14.5688 278.312 14.325C275.888 12.85 273.044 12 270 12C261.163 12 254 19.1625 254 28C254 36.8375 261.163 44 270 44C278.837 44 286 36.8375 286 28ZM271 18C270.45 18 270 17.55 270 17C270 16.45 270.45 16 271 16H275C275.406 16 275.769 16.2438 275.925 16.6188C276.081 16.9938 275.994 17.425 275.706 17.7063L273.413 20H275C275.55 20 276 20.45 276 21C276 21.55 275.55 22 275 22H271C270.594 22 270.231 21.7563 270.075 21.3813C269.919 21.0063 270.006 20.575 270.294 20.2937L272.587 18H271ZM272.5 36C272.5 37.3813 271.381 38.5 270 38.5C268.619 38.5 267.5 37.3813 267.5 36C267.5 34.6187 268.619 33.5 270 33.5C271.381 33.5 272.5 34.6187 272.5 36ZM278.2 26.9C278.531 26.4562 279.156 26.3687 279.6 26.7C280.044 27.0312 280.131 27.6562 279.8 28.1C277.9 30.6313 274.1 30.6313 272.2 28.1C271.869 27.6562 271.956 27.0312 272.4 26.7C272.844 26.3687 273.469 26.4562 273.8 26.9C274.9 28.3687 277.1 28.3687 278.2 26.9ZM261.8 26.9C262.9 28.3687 265.1 28.3687 266.2 26.9C266.531 26.4562 267.156 26.3687 267.6 26.7C268.044 27.0312 268.131 27.6562 267.8 28.1C265.9 30.6313 262.1 30.6313 260.2 28.1C259.869 27.6562 259.956 27.0312 260.4 26.7C260.844 26.3687 261.469 26.4562 261.8 26.9ZM280 13C280 13.55 280.45 14 281 14H282.587L280.294 16.2937C280.006 16.5812 279.925 17.0125 280.075 17.3812C280.225 17.75 280.594 18 281 18H285C285.55 18 286 17.55 286 17C286 16.45 285.55 16 285 16H283.413L285.706 13.7062C285.994 13.4187 286.075 12.9875 285.925 12.6187C285.775 12.25 285.406 12 285 12H281C280.45 12 280 12.45 280 13Z" fill="#1A79C7"/>
<path d="M332.166 25.1096H333.245C334.639 27.5252 337.25 29.1462 340.24 29.1462C340.933 29.1462 341.614 29.0579 342.258 28.8939V29.1462V31.1644V43.274C342.258 44.3904 341.356 45.2923 340.24 45.2923C339.123 45.2923 338.221 44.3904 338.221 43.274V34.3937L329.644 41.2558H333.176C334.292 41.2558 335.194 42.1577 335.194 43.274C335.194 44.3904 334.292 45.2923 333.176 45.2923H324.093C320.751 45.2923 318.039 42.5803 318.039 39.2375V25.1412C318.039 24.1257 317.282 23.2616 316.273 23.1355L315.774 23.0724C314.664 22.94 313.882 21.9308 314.015 20.8208C314.147 19.7107 315.163 18.9287 316.266 19.0674L316.765 19.1305C319.792 19.5089 322.069 22.0822 322.069 25.1412V30.5211C324.238 27.2603 327.947 25.1096 332.16 25.1096H332.166ZM342.258 26.781C341.627 27.0017 340.946 27.1279 340.24 27.1279C338.448 27.1279 336.834 26.3458 335.724 25.1096C335.49 24.851 335.282 24.5735 335.099 24.2771C334.519 23.3436 334.185 22.2462 334.185 21.0731V15.0183V13.7569V13.6749C334.185 13.3027 334.481 13.0063 334.853 13H334.866C335.074 13 335.27 13.1009 335.396 13.2649V13.2712L336.203 14.3434L337.919 16.6329L338.221 17.0365H342.258L342.561 16.6329L344.276 14.3434L345.083 13.2712V13.2649C345.209 13.1009 345.405 13 345.613 13H345.626C345.998 13.0063 346.294 13.3027 346.294 13.6749V13.7569V15.0183V21.0731C346.294 22.1642 346.004 23.1923 345.5 24.0753C344.787 25.3241 343.633 26.2954 342.258 26.781ZM339.23 21.0731C339.23 20.5181 338.776 20.0639 338.221 20.0639C337.666 20.0639 337.212 20.5181 337.212 21.0731C337.212 21.6281 337.666 22.0822 338.221 22.0822C338.776 22.0822 339.23 21.6281 339.23 21.0731ZM342.258 22.0822C342.813 22.0822 343.267 21.6281 343.267 21.0731C343.267 20.5181 342.813 20.0639 342.258 20.0639C341.703 20.0639 341.249 20.5181 341.249 21.0731C341.249 21.6281 341.703 22.0822 342.258 22.0822Z" fill="#1A79C7"/>
<path d="M392 15.1125V23H375.031C378.262 18.175 383.756 15 390 15C390.675 15 391.344 15.0375 392 15.1125ZM394 23V15.4437C398.556 16.4812 402.45 19.2375 404.969 23H394ZM373.869 25H378V33H372C372 30.125 372.675 27.4125 373.869 25ZM384 33H380V25H400V33H396V35H408V40C408 41.6562 406.656 43 405 43H394V35C394 32.7938 392.206 31 390 31C387.794 31 386 32.7938 386 35V43H375C373.344 43 372 41.6562 372 40V35H384V33ZM402 33V25H406.131C407.331 27.4125 408 30.125 408 33H402Z" fill="#1A79C7"/>
<path fill-rule="evenodd" clip-rule="evenodd" d="M449.611 39.4262C450.618 40.0381 451.961 40.2032 453.173 40.2032C452.932 40.7203 452.309 41.2735 451.544 41.5924C450.778 41.9085 449.92 42.0363 449.611 42.0363C449.302 42.0363 448.444 41.9088 447.681 41.5924C446.914 41.2735 446.292 40.7203 446.052 40.2032C447.261 40.2038 448.605 40.0386 449.611 39.4262ZM444.421 20.2803C444.979 20.2681 445.546 20.3387 446.11 20.4455C446.64 20.5456 447.149 20.6804 447.629 20.8073L447.629 20.8073C448.374 21.0043 449.047 21.1824 449.611 21.1824C450.177 21.1824 450.85 21.0044 451.594 20.8076C452.074 20.6805 452.584 20.5455 453.115 20.4455C453.679 20.339 454.246 20.2681 454.804 20.2803C455.732 20.2966 456.634 20.5358 457.47 21.2015C459.285 22.6451 459.752 25.2957 459.256 27.1308C458.891 28.4734 457.456 29.7138 456.197 30.801C455.988 30.9818 455.783 31.1585 455.589 31.3306C455.24 31.6427 455.358 31.9044 455.693 32.5331C456.258 33.5888 456.721 34.5245 456.136 36.3505C455.214 39.23 452.044 39.6554 450.3 38.8143V37.539C450.3 36.2042 451.697 35.2241 452.672 34.6122C453.289 34.2273 453.227 32.9608 452.195 33.223C451.311 33.4496 450.515 33.6458 449.611 33.6458C448.707 33.6458 447.912 33.4499 447.029 33.223C445.997 32.9605 445.935 34.2267 446.552 34.6122C447.527 35.2241 448.923 36.2048 448.923 37.539V38.8143C447.18 39.6557 444.01 39.2303 443.089 36.3505C442.503 34.5239 442.963 33.5888 443.53 32.5331C443.866 31.9049 443.984 31.6427 443.634 31.3306C443.44 31.1584 443.236 30.9817 443.026 30.8007L443.026 30.8006C441.768 29.7135 440.333 28.4733 439.967 27.1308C439.472 25.2954 439.94 22.6448 441.754 21.2015C442.59 20.5358 443.493 20.2966 444.421 20.2803ZM444.792 11.0034C444.164 11.0219 443.46 11.1398 442.649 11.4211C441.743 11.7322 441.002 12.1712 440.335 12.5659C439.937 12.8012 439.566 13.0207 439.203 13.1881C438.229 13.6343 437.353 13.7764 435.94 12.9592C435.763 12.8553 435.534 12.9407 435.468 13.1366C435.468 13.1366 435.048 14.8143 436.116 16.1368C433.711 18.4947 431.88 21.3313 431.613 25.8643C431.599 26.0909 431.819 26.2635 432.036 26.1926L434.105 25.5454C432.862 27.9759 432.275 30.645 432.82 33.0999C432.87 33.3408 433.163 33.4396 433.35 33.2773L435.391 31.5199C435.299 32.7337 435.303 34.0071 435.508 35.1412C435.757 36.5042 436.118 37.6381 436.47 38.2477C436.588 38.4549 436.876 38.472 437.016 38.2804L438.473 36.2961C438.568 37.8006 438.776 39.2863 439.238 40.4774C439.789 41.8973 440.521 43.0101 441.334 43.6174C441.511 43.7495 441.766 43.6687 441.835 43.4591L442.475 41.5052C444.048 43.967 446.382 46.0861 449.529 46.9291C449.583 46.9436 449.64 46.9436 449.696 46.9291C452.841 46.0861 455.177 43.967 456.75 41.5052L457.388 43.4591C457.459 43.6692 457.712 43.7492 457.889 43.6174C458.704 43.0101 459.436 41.8976 459.987 40.4774C460.449 39.2869 460.657 37.8008 460.752 36.2961L462.207 38.2804C462.346 38.4723 462.637 38.4549 462.755 38.2477C463.107 37.638 463.469 36.5042 463.717 35.1412C463.922 34.0074 463.927 32.7338 463.832 31.5199L465.875 33.2773C466.062 33.4373 466.353 33.3408 466.405 33.0999C466.951 30.6452 466.36 27.9761 465.117 25.5454L467.189 26.1926C467.407 26.2612 467.626 26.0909 467.612 25.8643C467.343 21.331 465.514 18.4942 463.109 16.1368C464.177 14.8142 463.756 13.1366 463.756 13.1366C463.691 12.943 463.464 12.8576 463.287 12.9592C461.874 13.777 460.993 13.6346 460.019 13.1881C459.658 13.021 459.288 12.8021 458.893 12.5674C458.226 12.1723 457.485 11.7326 456.578 11.4211C454.955 10.859 453.769 10.949 452.727 11.1779C452.45 11.239 452.183 11.3082 451.919 11.3768C451.192 11.5653 450.482 11.7494 449.614 11.7494C448.746 11.7494 448.033 11.5649 447.305 11.3762C447.041 11.3078 446.774 11.2388 446.498 11.1779C445.976 11.062 445.42 10.9823 444.792 11.0034L444.792 11.0034ZM443.134 26.9915C443.372 26.9847 443.555 27.0672 443.611 27.1897C443.802 27.6034 444.107 27.9058 444.509 28.1114C445.057 28.3927 445.839 28.4448 446.789 28.4511L446.79 28.4547C446.903 28.6991 446.983 28.8734 447.022 29.1672C447.073 29.5405 447.438 29.6208 447.514 29.129C447.583 27.8942 447.024 26.9372 446.165 26.3444C445.185 25.669 443.834 25.5787 443.044 26.4719C442.832 26.7228 442.811 27.0038 443.134 26.9915ZM455.614 27.1897C455.671 27.0672 455.853 26.9847 456.091 26.9915C456.415 27.0038 456.394 26.7228 456.181 26.4719C455.391 25.5787 454.038 25.669 453.06 26.3444C452.2 26.9372 451.642 27.8942 451.711 29.129C451.787 29.6208 452.153 29.5405 452.203 29.1672C452.242 28.8719 452.32 28.6974 452.434 28.4511C453.387 28.4448 454.168 28.3927 454.716 28.1114C455.118 27.9058 455.422 27.6034 455.614 27.1897Z" fill="#1A79C7"/>
</svg>
