<svg xmlns="http://www.w3.org/2000/svg" width="25" height="25"><path d="M 0.37 1.254 L 0.907 12.504 C 0.918 12.796 1.044 13.074 1.25 13.279 C 1.47 13.5 1.77 13.625 2.083 13.625 C 2.395 13.625 2.695 13.5 2.915 13.279 L 3.813 12.381 L 3.813 17.673 C 3.815 18.139 4.096 18.558 4.526 18.736 C 4.957 18.914 5.452 18.816 5.782 18.488 L 6.985 17.284 L 7.522 23.199 C 7.565 23.662 7.871 24.058 8.308 24.215 C 8.745 24.373 9.234 24.263 9.562 23.934 L 15.636 17.861 L 16.466 18.69 L 18.773 16.383 L 17.943 15.553 L 24.018 9.48 C 24.347 9.152 24.457 8.663 24.299 8.226 C 24.141 7.789 23.745 7.482 23.282 7.44 L 17.367 6.902 L 18.571 5.698 C 18.788 5.482 18.91 5.189 18.91 4.883 C 18.91 4.577 18.788 4.284 18.571 4.068 C 18.355 3.852 18.062 3.731 17.756 3.73 L 12.464 3.73 L 13.362 2.832 C 13.69 2.502 13.793 2.011 13.626 1.577 C 13.458 1.143 13.051 0.849 12.587 0.825 L 1.337 0.287 C 1.077 0.274 0.824 0.372 0.641 0.557 C 0.456 0.74 0.358 0.994 0.371 1.254 Z M 18.074 24.011 C 17.641 24.012 17.226 23.84 16.92 23.534 C 16.614 23.228 16.442 22.813 16.442 22.38 L 16.442 18.811 L 19.705 18.811 L 19.705 22.38 C 19.705 22.813 19.534 23.228 19.228 23.534 C 18.922 23.84 18.507 24.011 18.074 24.011 Z" fill="#d4d5d7"></path></svg>