<svg xmlns="http://www.w3.org/2000/svg" width="24" height="24"><path d="M 15.75 16.5 C 20.306 16.5 24 12.806 24 8.25 C 24 3.694 20.306 0 15.75 0 C 11.194 0 7.5 3.694 7.5 8.25 C 7.5 9.127 7.636 9.975 7.889 10.767 L 0.328 18.328 C 0.117 18.539 0 18.825 0 19.125 L 0 22.875 C 0 23.498 0.502 24 1.125 24 L 4.875 24 C 5.498 24 6 23.498 6 22.875 L 6 21 L 7.875 21 C 8.498 21 9 20.498 9 19.875 L 9 18 L 10.875 18 C 11.175 18 11.461 17.883 11.672 17.672 L 13.233 16.111 C 14.025 16.364 14.873 16.5 15.75 16.5 Z M 17.625 8.25 C 16.589 8.25 15.75 7.411 15.75 6.375 C 15.75 5.339 16.589 4.5 17.625 4.5 C 18.661 4.5 19.5 5.339 19.5 6.375 C 19.5 7.411 18.661 8.25 17.625 8.25 Z" fill="#d4d5d7"></path></svg>