<svg xmlns="http://www.w3.org/2000/svg" width="30" height="24.333"><path d="M 18.376 5.676 L 16.243 3.376 C 15.843 2.943 15.276 2.71 14.676 2.71 L 14.409 2.71 C 13.943 2.71 13.509 2.51 13.209 2.176 L 12.476 1.31 C 11.076 -0.19 8.709 -0.224 7.309 1.276 L 6.576 2.043 C 6.176 2.443 5.676 2.676 5.109 2.71 C 3.176 2.876 1.476 4.043 0.609 5.776 C 0.076 6.876 -0.124 8.11 0.076 9.276 L 1.276 16.21 L 1.276 19.243 L 2.909 22.943 L 2.909 24.043 L 4.843 24.043 L 4.843 23.576 L 3.709 22.943 L 2.409 19.21 L 2.476 17.21 L 4.543 21.476 L 4.743 22.443 L 6.609 22.443 L 6.609 21.876 L 5.409 21.41 L 3.809 17.043 L 4.776 12.51 L 5.709 11.476 C 7.043 12.176 8.876 12.576 10.876 12.576 C 11.443 12.576 11.976 12.543 12.476 12.476 L 13.143 16.376 L 13.176 24.076 L 15.109 24.076 L 15.109 23.543 L 15.076 23.51 L 15.909 23.51 L 15.909 22.976 L 14.776 22.376 L 15.243 16.31 L 18.009 10.276 L 20.209 10.276 C 20.343 10.276 20.509 10.243 20.643 10.243 C 20.876 10.21 21.143 10.143 21.376 10.076 C 21.609 10.01 21.843 9.91 22.043 9.81 C 22.243 9.71 22.443 9.61 22.643 9.476 C 22.743 9.41 22.843 9.343 22.909 9.276 C 22.943 9.243 23.009 9.21 23.043 9.176 L 23.176 9.076 C 23.209 9.043 23.243 9.01 23.309 8.976 C 23.343 8.943 23.376 8.91 23.443 8.876 L 23.543 8.776 L 23.643 8.676 L 23.843 8.476 L 23.943 8.376 L 23.976 8.343 L 24.009 8.31 L 24.043 8.276 L 24.143 8.143 L 24.176 8.11 L 24.209 8.076 L 24.276 8.01 C 24.309 7.976 24.343 7.91 24.376 7.876 C 24.409 7.843 24.443 7.776 24.476 7.743 C 24.609 7.576 24.709 7.376 24.809 7.21 C 25.009 6.843 25.176 6.476 25.309 6.143 C 25.343 6.076 25.343 6.043 25.376 5.976 L 25.643 6.243 L 25.643 5.043 L 26.009 5.41 L 26.009 4.31 L 26.343 4.643 L 26.343 3.71 L 27.609 3.01 L 29.143 3.01 C 29.409 3.01 29.609 2.81 29.609 2.543 L 29.609 2.476 L 29.643 2.476 C 29.943 2.476 30.076 2.143 29.909 1.91 L 29.309 1.11 C 29.176 0.91 28.943 0.81 28.709 0.81 L 26.976 0.81 L 26.276 0.476 L 24.809 0.476 L 24.376 0.11 C 24.209 -0.057 23.943 -0.024 23.776 0.143 L 24.076 0.843 L 24.343 1.043 C 24.343 1.076 24.309 1.11 24.309 1.143 L 22.809 4.81 C 22.243 5.976 21.143 6.776 20.343 6.776 C 19.376 6.743 18.376 5.676 18.376 5.676 Z" fill="#d4d5d7"></path></svg>