<svg width="64" height="64" viewBox="0 0 64 64" fill="none" xmlns="http://www.w3.org/2000/svg">
<circle cx="32" cy="32" r="31" fill="#E7F2FB" stroke="#1A79C7" stroke-width="2"/>
<path d="M47 31.0218C47 24.9473 40.7618 20 33.0266 20C25.2977 20 19 24.9467 19 31.0212C19 33.3758 19.9677 35.599 21.779 37.5635C22.2939 38.1722 22.4498 38.9131 22.1817 39.6188L19.6226 44C22.3884 43.7263 24.6708 42.534 26.055 41.5163C26.5654 41.1537 27.2168 41.0529 27.8131 41.2452C29.5041 41.7775 31.2572 42.0436 33.0266 42.0436C40.7618 42.0436 47 37.0963 47 31.0218Z" fill="white"/>
<path d="M33.0273 20.8571C40.2765 20.8571 46.1228 25.442 46.1228 31.0714C46.1228 36.7009 40.2765 41.2857 33.0273 41.2857C31.3691 41.2857 29.7261 41.0391 28.1413 40.5458C27.5825 40.3676 26.972 40.461 26.4936 40.7971C25.1964 41.7401 23.0574 42.8451 20.4653 43.0987C21.1169 42.2212 22.2116 40.7483 22.8567 39.0583L22.8637 39.0386C23.115 38.3845 22.9688 37.6979 22.4863 37.1338C20.7888 35.3133 19.8819 33.253 19.8819 31.0708C19.8819 25.4414 25.784 20.8571 33.0273 20.8571ZM33.0273 19C24.7333 19 18.0018 24.4031 18.0018 31.0714C18.0017 33.8357 19.171 36.3672 21.1075 38.3955C20.2346 40.6879 18.415 42.6252 18.3857 42.6467C17.9965 43.0529 17.8941 43.6478 18.1139 44.1556C18.3411 44.6634 18.8435 45 19.4082 45C23.0175 45 25.8121 43.5056 27.5731 42.3158C29.2753 42.8411 31.1067 43.1429 33.0261 43.1429C41.326 43.1429 48 37.738 48 31.0714C48 24.4049 41.326 19 33.0261 19H33.0273Z" fill="#1A79C7"/>
<path d="M25.0102 33H31.9898C32.5454 33 33 33.45 33 34C33 34.55 32.5454 35 31.9898 35H25.0102C24.4546 35 24 34.55 24 34C24 33.45 24.4546 33 25.0102 33Z" fill="#E7F2FB"/>
<path d="M37.947 29H41.053C41.5738 29 42 29.4469 42 30C42 30.5525 41.5762 31 41.053 31H37.947C37.4262 31 37 30.55 37 30C37 29.45 37.4262 29 37.947 29Z" fill="#015498"/>
<path d="M24.9408 29H27.0592C27.5767 29 28 29.45 28 30C28 30.55 27.5767 31 27.0592 31H24.9408C24.4233 31 24 30.55 24 30C24 29.45 24.4233 29 24.9408 29Z" fill="#015498"/>
<path d="M35.0512 29C35.573 29 36 29.45 36 30C36 30.55 35.573 31 35.0512 31H29.9488C29.4246 31 29 30.55 29 30C29 29.45 29.4246 29 29.9488 29H35.0512Z" fill="#015498"/>
<rect x="34" y="34" width="1" height="1" rx="0.5" fill="#E7F2FB"/>
</svg>
