<svg width="64" height="64" viewBox="0 0 64 64" fill="none" xmlns="http://www.w3.org/2000/svg">
<circle cx="32" cy="32" r="31" fill="#E7F2FB" stroke="#1A79C7" stroke-width="2"/>
<path d="M48 31.0218C48 24.9473 41.7618 20 34.0266 20C26.2977 20 20 24.9467 20 31.0212C20 33.3758 20.9677 35.599 22.779 37.5635C23.2939 38.1722 23.4498 38.9131 23.1817 39.6188L20.6226 44C23.3884 43.7263 25.6708 42.534 27.055 41.5163C27.5654 41.1537 28.2168 41.0529 28.8131 41.2452C30.5041 41.7775 32.2572 42.0436 34.0266 42.0436C41.7618 42.0436 48 37.0963 48 31.0218Z" fill="white"/>
<path d="M34.0273 20.8571C41.2765 20.8571 47.1228 25.442 47.1228 31.0714C47.1228 36.7009 41.2765 41.2857 34.0273 41.2857C32.3691 41.2857 30.7261 41.0391 29.1413 40.5458C28.5825 40.3676 27.972 40.461 27.4936 40.7971C26.1964 41.7401 24.0574 42.8451 21.4653 43.0987C22.1169 42.2212 23.2116 40.7483 23.8567 39.0583L23.8637 39.0386C24.115 38.3845 23.9688 37.6979 23.4863 37.1338C21.7888 35.3133 20.8819 33.253 20.8819 31.0708C20.8819 25.4414 26.784 20.8571 34.0273 20.8571ZM34.0273 19C25.7333 19 19.0018 24.4031 19.0018 31.0714C19.0017 33.8357 20.171 36.3672 22.1075 38.3955C21.2346 40.6879 19.415 42.6252 19.3857 42.6467C18.9965 43.0529 18.8941 43.6478 19.1139 44.1556C19.3411 44.6634 19.8435 45 20.4082 45C24.0175 45 26.8121 43.5056 28.5731 42.3158C30.2753 42.8411 32.1067 43.1429 34.0261 43.1429C42.326 43.1429 49 37.738 49 31.0714C49 24.4049 42.326 19 34.0261 19H34.0273Z" fill="#1A79C7"/>
<path d="M26.0102 33H32.9898C33.5454 33 34 33.45 34 34C34 34.55 33.5454 35 32.9898 35H26.0102C25.4546 35 25 34.55 25 34C25 33.45 25.4546 33 26.0102 33Z" fill="#E7F2FB"/>
<path d="M38.947 29H42.053C42.5738 29 43 29.4469 43 30C43 30.5525 42.5762 31 42.053 31H38.947C38.4262 31 38 30.55 38 30C38 29.45 38.4262 29 38.947 29Z" fill="#015498"/>
<path d="M25.9408 29H28.0592C28.5767 29 29 29.45 29 30C29 30.55 28.5767 31 28.0592 31H25.9408C25.4233 31 25 30.55 25 30C25 29.45 25.4233 29 25.9408 29Z" fill="#015498"/>
<path d="M36.0512 29C36.573 29 37 29.45 37 30C37 30.55 36.573 31 36.0512 31H30.9488C30.4246 31 30 30.55 30 30C30 29.45 30.4246 29 30.9488 29H36.0512Z" fill="#015498"/>
<rect x="35" y="34" width="1" height="1" rx="0.5" fill="#E7F2FB"/>
</svg>
