<svg width="64" height="64" viewBox="0 0 64 64" fill="none" xmlns="http://www.w3.org/2000/svg">
<circle cx="32" cy="32" r="31" fill="white" stroke="#445DBE" stroke-width="2"/>
<path d="M33.0273 20.8571C40.2765 20.8571 46.1228 25.442 46.1228 31.0714C46.1228 36.7009 40.2765 41.2857 33.0273 41.2857C31.3691 41.2857 29.7261 41.0391 28.1413 40.5458C27.5825 40.3676 26.972 40.461 26.4936 40.7971C25.1964 41.7401 23.0574 42.8451 20.4653 43.0987C21.1169 42.2212 22.2116 40.7483 22.8567 39.0583L22.8637 39.0386C23.115 38.3845 22.9688 37.6979 22.4863 37.1338C20.7888 35.3133 19.8819 33.253 19.8819 31.0708C19.8819 25.4414 25.7834 20.8566 33.0267 20.8566L33.0273 20.8571ZM33.0273 19C24.7333 19 18.0018 24.4031 18.0018 31.0714C18.0017 33.8357 19.171 36.3672 21.1075 38.3955C20.2346 40.6879 18.415 42.6252 18.3857 42.6467C17.9965 43.0529 17.8941 43.6478 18.1139 44.1556C18.3411 44.6634 18.8435 45 19.4082 45C23.0175 45 25.8121 43.5056 27.5731 42.3158C29.2753 42.8411 31.1067 43.1429 33.0261 43.1429C41.326 43.1429 48 37.738 48 31.0714C48 24.4049 41.326 19 33.0261 19H33.0273Z" fill="#445DBE"/>
</svg>
