<svg width="64" height="64" viewBox="0 0 64 64" fill="none" xmlns="http://www.w3.org/2000/svg">
<circle cx="32" cy="32" r="31" fill="#E7F2FB" stroke="#1A79C7" stroke-width="2"/>
<path d="M47 31.0218C47 24.9473 40.7618 20 33.0266 20C25.2977 20 19 24.9467 19 31.0212C19 33.3758 19.9677 35.599 21.779 37.5635C22.2939 38.1722 22.4498 38.9131 22.1817 39.6188L19.6226 44C22.3884 43.7263 24.6708 42.534 26.055 41.5163C26.5654 41.1537 27.2168 41.0529 27.8131 41.2452C29.5041 41.7775 31.2572 42.0436 33.0266 42.0436C40.7618 42.0436 47 37.0963 47 31.0218Z" fill="white"/>
<path d="M33.0273 20.8571C40.2765 20.8571 46.1228 25.442 46.1228 31.0714C46.1228 36.7009 40.2765 41.2857 33.0273 41.2857C31.3691 41.2857 29.7261 41.0391 28.1413 40.5458C27.5825 40.3676 26.972 40.461 26.4936 40.7971C25.1964 41.7401 23.0574 42.8451 20.4653 43.0987C21.1169 42.2212 22.2116 40.7483 22.8567 39.0583L22.8637 39.0386C23.115 38.3845 22.9688 37.6979 22.4863 37.1338C20.7888 35.3133 19.8819 33.253 19.8819 31.0708C19.8819 25.4414 25.784 20.8571 33.0273 20.8571ZM33.0273 19C24.7333 19 18.0018 24.4031 18.0018 31.0714C18.0017 33.8357 19.171 36.3672 21.1075 38.3955C20.2346 40.6879 18.415 42.6252 18.3857 42.6467C17.9965 43.0529 17.8941 43.6478 18.1139 44.1556C18.3411 44.6634 18.8435 45 19.4082 45C23.0175 45 25.8121 43.5056 27.5731 42.3158C29.2753 42.8411 31.1067 43.1429 33.0261 43.1429C41.326 43.1429 48 37.738 48 31.0714C48 24.4049 41.326 19 33.0261 19H33.0273Z" fill="#1A79C7"/>
<path d="M35 29C35.5174 29 35.9408 29.4233 35.9408 29.9408C35.9408 30.4582 35.5174 30.8815 35 30.8815H29.9408C29.421 30.8815 29 30.4582 29 29.9408C29 29.4233 29.421 29 29.9408 29H35Z" fill="#015498"/>
<path d="M37.9147 29H41C41.5174 29 41.9407 29.4204 41.9407 29.9408C41.9407 30.4605 41.5198 30.8815 41 30.8815H37.9147C37.3973 30.8815 36.974 30.4582 36.974 29.9408C36.974 29.4233 37.3973 29 37.9147 29Z" fill="#015498"/>
<path d="M25 29H27.1185C27.6359 29 28.0592 29.4233 28.0592 29.9408C28.0592 30.4582 27.6359 30.8815 27.1185 30.8815H25C24.4826 30.8815 24.0592 30.4582 24.0592 29.9408C24.0592 29.4233 24.4826 29 25 29Z" fill="#015498"/>
<path d="M25.0001 32H31.5001C32.0175 32 32.4408 32.4233 32.4408 32.9408C32.4408 33.4582 32.0175 33.8815 31.5001 33.8815H25.0001C24.4827 33.8815 24.0593 33.4582 24.0593 32.9408C24.0593 32.4233 24.4827 32 25.0001 32Z" fill="#015498"/>
<path d="M37.9147 29H41C41.5174 29 41.9407 29.4204 41.9407 29.9408C41.9407 30.4605 41.5198 30.8815 41 30.8815H37.9147C37.3973 30.8815 36.974 30.4582 36.974 29.9408C36.974 29.4233 37.3973 29 37.9147 29Z" fill="#015498"/>
<path d="M25 29H27.1185C27.6359 29 28.0592 29.4233 28.0592 29.9408C28.0592 30.4582 27.6359 30.8815 27.1185 30.8815H25C24.4826 30.8815 24.0592 30.4582 24.0592 29.9408C24.0592 29.4233 24.4826 29 25 29Z" fill="#015498"/>
<path d="M35 29C35.5174 29 35.9408 29.4233 35.9408 29.9408C35.9408 30.4582 35.5174 30.8815 35 30.8815H29.9408C29.421 30.8815 29 30.4582 29 29.9408C29 29.4233 29.421 29 29.9408 29H35Z" fill="#015498"/>
<rect x="33" y="33" width="1" height="1" rx="0.5" fill="#E7F2FB"/>
</svg>
