<svg width="100" height="105" viewBox="0 0 100 105" fill="none" xmlns="http://www.w3.org/2000/svg">
<g id="Sammy">
<g id="body">
<g id="Shadow" filter="url(#filter0_d_214_1585)">
<path fill-rule="evenodd" clip-rule="evenodd" d="M66.8727 85.7405C74.7952 80.3416 79.9991 71.2474 79.9991 60.9361C79.9991 48.1947 72.0499 37.3161 60.8431 32.9683L60.8588 32.9688C48.7298 26.7748 53.0422 15.3027 53.0422 15.3027C47.3705 20.0422 48.8716 28.0522 48.8716 28.0522C46.3854 26.3878 45.8647 20.2507 45.8647 20.2507C43.8478 25.0354 46.9061 30.9398 41.5598 32.1463L41.578 32.1468C29.1109 35.7882 20.001 47.2964 20.001 60.9361C20.001 71.2474 25.2044 80.3416 33.1275 85.7393C37.5646 82.5123 43.4812 80.5272 49.9987 80.5272C56.5159 80.5272 62.435 82.5123 66.8727 85.7405Z" fill="white"/>
</g>
<path id="Beack closed" fill-rule="evenodd" clip-rule="evenodd" d="M66.8741 85.7427C74.7969 80.3436 80.001 71.2491 80.001 60.9374C80.001 48.1957 72.0515 37.3168 60.8443 32.9688L60.8601 32.9694C48.7306 26.7752 53.0432 15.3027 53.0432 15.3027C47.3714 20.0424 48.8725 28.0525 48.8725 28.0525C46.3862 26.3882 45.8655 20.2508 45.8655 20.2508C43.8486 25.0357 46.9069 30.9402 41.5605 32.1468L41.5787 32.1474C29.1111 35.7888 20.001 47.2973 20.001 60.9374C20.001 71.2491 25.2046 80.3436 33.1279 85.7414C37.5652 82.5144 43.4819 80.5292 49.9996 80.5292C56.517 80.5292 62.4363 82.5144 66.8741 85.7427ZM60.1122 39.6996C65.0759 39.6996 69.1001 44.5102 69.1001 50.4429C69.1001 56.373 65.0759 61.1834 60.1122 61.1834C55.1506 61.1834 51.1294 56.373 51.1294 50.4429C51.1294 44.5102 55.1506 39.6996 60.1122 39.6996ZM30.9018 50.4429C30.9018 44.5102 34.923 39.6996 39.8868 39.6996C44.8504 39.6996 48.8725 44.5102 48.8725 50.4429C48.8725 56.373 44.8504 61.1834 39.8868 61.1834C34.923 61.1834 30.9018 56.373 30.9018 50.4429ZM49.1412 72.258L41.1523 65.5442C40.6828 65.1463 40.7671 64.6441 41.3452 64.4268L48.9544 61.5571C49.5273 61.3395 50.4717 61.3395 51.0505 61.5571L58.6587 64.4268C59.2323 64.6441 59.3211 65.1463 58.8467 65.5442L50.8578 72.258C50.3874 72.656 49.6166 72.656 49.1412 72.258V72.258Z" fill="#1A79C7"/>
<g id="Eyes">
<g id="Ahead">
<path id="Left eye" fill-rule="evenodd" clip-rule="evenodd" d="M41.6041 51.8796L44.5015 50.8535C44.0973 48.2707 42.2074 46.3103 39.9286 46.3103C37.3564 46.3103 35.2711 48.8041 35.2711 51.8796C35.2711 54.9521 37.3564 57.4463 39.9286 57.4463C42.194 57.4463 44.0792 55.5108 44.4981 52.9499L41.6041 51.8796" fill="#333436"/>
<path id="Right Eye" fill-rule="evenodd" clip-rule="evenodd" d="M60.1554 57.4463C62.4223 57.4463 64.3061 55.5108 64.7248 52.9499L61.8313 51.8796L64.7289 50.8535C64.3247 48.2706 62.4345 46.3103 60.1554 46.3103C57.5834 46.3103 55.4983 48.8041 55.4983 51.8796C55.4983 54.952 57.5834 57.4463 60.1554 57.4463" fill="#333436"/>
</g>
</g>
<g id="Feet">
<path id="Left foot" fill-rule="evenodd" clip-rule="evenodd" d="M41.2907 93.5767C40.6491 94.2661 39.7338 94.6973 38.7178 94.6973C37.7216 94.6973 36.8223 94.2828 36.1828 93.6168C35.5433 94.2828 34.644 94.6973 33.6478 94.6973C31.7071 94.6973 30.1338 93.124 30.1338 91.1832C30.1338 89.2425 31.7071 87.6692 33.6478 87.6692C34.644 87.6692 35.5433 88.0837 36.1828 88.7496C36.8222 88.0837 37.7216 87.6692 38.7178 87.6692C39.7338 87.6692 40.6491 88.1004 41.2907 88.7898C41.9323 88.1004 42.8476 87.6692 43.8636 87.6692C45.8043 87.6692 47.3776 89.2425 47.3776 91.1832C47.3776 93.124 45.8043 94.6973 43.8636 94.6973C42.8476 94.6973 41.9323 94.2661 41.2907 93.5767Z" fill="#0E0E0E"/>
<path id="Right foot" fill-rule="evenodd" clip-rule="evenodd" d="M63.8728 93.5766C63.2312 94.266 62.3159 94.6972 61.2998 94.6972C60.3037 94.6972 59.4043 94.2827 58.7648 93.6168C58.1254 94.2827 57.226 94.6973 56.2299 94.6973C54.2891 94.6973 52.7158 93.124 52.7158 91.1832C52.7158 89.2425 54.2891 87.6692 56.2299 87.6692C57.226 87.6692 58.1253 88.0837 58.7648 88.7496C59.4043 88.0837 60.3036 87.6691 61.2998 87.6691C62.3159 87.6691 63.2312 88.1004 63.8728 88.7898C64.5144 88.1004 65.4297 87.6691 66.4457 87.6691C68.3865 87.6691 69.9598 89.2424 69.9598 91.1832C69.9598 93.1239 68.3865 94.6972 66.4457 94.6972C65.4297 94.6972 64.5144 94.266 63.8728 93.5766Z" fill="#0E0E0E"/>
</g>
</g>
</g>
<defs>
<filter id="filter0_d_214_1585" x="5.00098" y="0.302719" width="89.9982" height="100.438" filterUnits="userSpaceOnUse" color-interpolation-filters="sRGB">
<feFlood flood-opacity="0" result="BackgroundImageFix"/>
<feColorMatrix in="SourceAlpha" type="matrix" values="0 0 0 0 0 0 0 0 0 0 0 0 0 0 0 0 0 0 127 0" result="hardAlpha"/>
<feOffset/>
<feGaussianBlur stdDeviation="7.5"/>
<feComposite in2="hardAlpha" operator="out"/>
<feColorMatrix type="matrix" values="0 0 0 0 0 0 0 0 0 0 0 0 0 0 0 0 0 0 0.3 0"/>
<feBlend mode="normal" in2="BackgroundImageFix" result="effect1_dropShadow_214_1585"/>
<feBlend mode="normal" in="SourceGraphic" in2="effect1_dropShadow_214_1585" result="shape"/>
</filter>
</defs>
</svg>
