<svg width="100" height="100" viewBox="0 0 100 100" fill="none" xmlns="http://www.w3.org/2000/svg">
<path fill-rule="evenodd" clip-rule="evenodd" d="M41.2907 88.5767C40.6491 89.2661 39.7338 89.6973 38.7178 89.6973C37.7216 89.6973 36.8223 89.2828 36.1828 88.6168C35.5433 89.2828 34.644 89.6973 33.6478 89.6973C31.7071 89.6973 30.1338 88.124 30.1338 86.1832C30.1338 84.2425 31.7071 82.6692 33.6478 82.6692C34.644 82.6692 35.5433 83.0837 36.1828 83.7496C36.8222 83.0837 37.7216 82.6692 38.7178 82.6692C39.7338 82.6692 40.6491 83.1004 41.2907 83.7898C41.9323 83.1004 42.8476 82.6692 43.8636 82.6692C45.8043 82.6692 47.3776 84.2425 47.3776 86.1832C47.3776 88.124 45.8043 89.6973 43.8636 89.6973C42.8476 89.6973 41.9323 89.2661 41.2907 88.5767Z" fill="#0E0E0E"/>
<path fill-rule="evenodd" clip-rule="evenodd" d="M63.8728 88.5766C63.2312 89.266 62.3159 89.6972 61.2998 89.6972C60.3037 89.6972 59.4043 89.2827 58.7648 88.6168C58.1254 89.2827 57.226 89.6973 56.2299 89.6973C54.2891 89.6973 52.7158 88.124 52.7158 86.1832C52.7158 84.2425 54.2891 82.6692 56.2299 82.6692C57.226 82.6692 58.1253 83.0837 58.7648 83.7496C59.4043 83.0837 60.3036 82.6691 61.2998 82.6691C62.3159 82.6691 63.2312 83.1004 63.8728 83.7898C64.5144 83.1004 65.4297 82.6691 66.4457 82.6691C68.3865 82.6691 69.9598 84.2424 69.9598 86.1832C69.9598 88.1239 68.3865 89.6972 66.4457 89.6972C65.4297 89.6972 64.5144 89.266 63.8728 88.5766Z" fill="#0E0E0E"/>
</svg>
