<svg width="100" height="100" viewBox="0 0 100 100" fill="none" xmlns="http://www.w3.org/2000/svg">
<path fill-rule="evenodd" clip-rule="evenodd" d="M41.604 46.8796L44.5013 45.8535C44.0971 43.2707 42.2072 41.3103 39.9285 41.3103C37.3563 41.3103 35.271 43.8041 35.271 46.8796C35.271 49.9521 37.3563 52.4463 39.9285 52.4463C42.1939 52.4463 44.0791 50.5108 44.4979 47.9499L41.604 46.8796" fill="#333436"/>
<path fill-rule="evenodd" clip-rule="evenodd" d="M60.1552 52.4463C62.4222 52.4463 64.306 50.5108 64.7247 47.9499L61.8312 46.8796L64.7287 45.8535C64.3245 43.2706 62.4344 41.3103 60.1552 41.3103C57.5833 41.3103 55.4982 43.8041 55.4982 46.8796C55.4982 49.952 57.5833 52.4463 60.1552 52.4463" fill="#333436"/>
</svg>
