<svg width="100" height="105" viewBox="0 0 100 105" fill="none" xmlns="http://www.w3.org/2000/svg">
<g filter="url(#filter0_d_214_1585)">
<path fill-rule="evenodd" clip-rule="evenodd" d="M66.8727 85.7405C74.7952 80.3416 79.9991 71.2474 79.9991 60.9361C79.9991 48.1947 72.0499 37.3161 60.8431 32.9683L60.8588 32.9688C48.7298 26.7748 53.0422 15.3027 53.0422 15.3027C47.3705 20.0422 48.8716 28.0522 48.8716 28.0522C46.3854 26.3878 45.8647 20.2507 45.8647 20.2507C43.8478 25.0354 46.9061 30.9398 41.5598 32.1463L41.578 32.1468C29.1109 35.7882 20.001 47.2964 20.001 60.9361C20.001 71.2474 25.2044 80.3416 33.1275 85.7393C37.5646 82.5123 43.4812 80.5272 49.9987 80.5272C56.5159 80.5272 62.435 82.5123 66.8727 85.7405Z" fill="white"/>
</g>
<defs>
<filter id="filter0_d_214_1585" x="5.00098" y="0.302719" width="89.9982" height="100.438" filterUnits="userSpaceOnUse" color-interpolation-filters="sRGB">
<feFlood flood-opacity="0" result="BackgroundImageFix"/>
<feColorMatrix in="SourceAlpha" type="matrix" values="0 0 0 0 0 0 0 0 0 0 0 0 0 0 0 0 0 0 127 0" result="hardAlpha"/>
<feOffset/>
<feGaussianBlur stdDeviation="7.5"/>
<feComposite in2="hardAlpha" operator="out"/>
<feColorMatrix type="matrix" values="0 0 0 0 0 0 0 0 0 0 0 0 0 0 0 0 0 0 0.3 0"/>
<feBlend mode="normal" in2="BackgroundImageFix" result="effect1_dropShadow_214_1585"/>
<feBlend mode="normal" in="SourceGraphic" in2="effect1_dropShadow_214_1585" result="shape"/>
</filter>
</defs>
</svg>
