<svg width="100" height="100" viewBox="0 0 100 100" fill="none" xmlns="http://www.w3.org/2000/svg">
<path fill-rule="evenodd" clip-rule="evenodd" d="M66.8741 80.7427C74.7969 75.3436 80.001 66.2491 80.001 55.9374C80.001 43.1957 72.0515 32.3168 60.8443 27.9688L60.8601 27.9694C48.7306 21.7752 53.0432 10.3027 53.0432 10.3027C47.3714 15.0424 48.8725 23.0525 48.8725 23.0525C46.3862 21.3882 45.8655 15.2508 45.8655 15.2508C43.8486 20.0357 46.9069 25.9402 41.5605 27.1468L41.5787 27.1474C29.1111 30.7888 20.001 42.2973 20.001 55.9374C20.001 66.2491 25.2046 75.3436 33.1279 80.7414C37.5652 77.5144 43.4819 75.5292 49.9996 75.5292C56.517 75.5292 62.4363 77.5144 66.8741 80.7427ZM60.1122 34.6996C65.0759 34.6996 69.1001 39.5102 69.1001 45.4429C69.1001 51.373 65.0759 56.1834 60.1122 56.1834C55.1506 56.1834 51.1294 51.373 51.1294 45.4429C51.1294 39.5102 55.1506 34.6996 60.1122 34.6996ZM30.9018 45.4429C30.9018 39.5102 34.923 34.6996 39.8868 34.6996C44.8504 34.6996 48.8725 39.5102 48.8725 45.4429C48.8725 51.373 44.8504 56.1834 39.8868 56.1834C34.923 56.1834 30.9018 51.373 30.9018 45.4429ZM49.1412 67.258L41.1523 60.5442C40.6828 60.1463 40.7671 59.6441 41.3452 59.4268L48.9544 56.5571C49.5273 56.3395 50.4717 56.3395 51.0505 56.5571L58.6587 59.4268C59.2323 59.6441 59.3211 60.1463 58.8467 60.5442L50.8578 67.258C50.3874 67.656 49.6166 67.656 49.1412 67.258V67.258Z" fill="#1A79C7"/>
</svg>
