<svg width="100" height="100" viewBox="0 0 100 100" fill="none" xmlns="http://www.w3.org/2000/svg">
<path fill-rule="evenodd" clip-rule="evenodd" d="M66.8741 80.7427C74.7969 75.3436 80.001 66.2491 80.001 55.9374C80.001 43.1957 72.0515 32.3168 60.8443 27.9688L60.8601 27.9694C48.7306 21.7752 53.0432 10.3027 53.0432 10.3027C47.3714 15.0424 48.8725 23.0525 48.8725 23.0525C46.3862 21.3882 45.8655 15.2508 45.8655 15.2508C43.8486 20.0357 46.9069 25.9402 41.5605 27.1468L41.5787 27.1474C29.1111 30.7888 20.001 42.2973 20.001 55.9374C20.001 66.2491 25.2046 75.3436 33.1279 80.7414C37.5652 77.5144 43.4819 75.5292 49.9996 75.5292C56.517 75.5292 62.4363 77.5144 66.8741 80.7427ZM60.1127 34.6998C65.0779 34.6998 69.0997 39.5105 69.0997 45.4434C69.0997 51.3736 65.0779 56.1841 60.1127 56.1841C55.1515 56.1841 51.1284 51.3736 51.1284 45.4434C51.1284 39.5105 55.1515 34.6998 60.1127 34.6998ZM30.9017 45.4434C30.9017 39.5105 34.9243 34.6998 39.886 34.6998C44.8496 34.6998 48.8727 39.5105 48.8727 45.4434C48.8727 51.3736 44.8496 56.1841 39.886 56.1841C34.9243 56.1841 30.9017 51.3736 30.9017 45.4434ZM41.2291 60.8462C41.0685 60.6313 40.9722 60.4336 40.9241 60.2583C40.7547 59.9293 40.9004 59.5959 41.3441 59.4276L48.9529 56.5578C49.5288 56.3402 50.4732 56.3402 51.0496 56.5578L58.6582 59.4276C59.0983 59.5927 59.2479 59.9246 59.0845 60.2508C59.0414 60.4361 58.9487 60.6385 58.7804 60.8663L51.2913 70.9617C50.9506 71.4217 50.4997 71.6515 50.0482 71.6515C49.5982 71.6515 49.1486 71.4239 48.807 70.9669L41.2291 60.8462V60.8462Z" fill="#015498"/>
<path fill-rule="evenodd" clip-rule="evenodd" d="M50.4572 70.3412L55.8637 63.0541L50.8593 67.2589C50.3871 67.657 49.6158 67.657 49.1436 67.2589L44.25 63.1479L49.6391 70.3437C49.7663 70.5145 49.9159 70.6105 50.0482 70.6105C50.1806 70.6105 50.3302 70.5145 50.4572 70.3412" fill="#D40F67"/>
</svg>
