<svg width="100" height="100" viewBox="0 0 100 100" fill="none" xmlns="http://www.w3.org/2000/svg">
<path fill-rule="evenodd" clip-rule="evenodd" d="M66.8741 80.7427C74.7969 75.3436 80.001 66.2491 80.001 55.9374C80.001 43.1957 72.0515 32.3168 60.8443 27.9688L60.8601 27.9694C48.7306 21.7752 53.0432 10.3027 53.0432 10.3027C47.3714 15.0424 48.8725 23.0525 48.8725 23.0525C46.3862 21.3882 45.8655 15.2508 45.8655 15.2508C43.8486 20.0357 46.9069 25.9402 41.5605 27.1468L41.5787 27.1474C29.1111 30.7888 20.001 42.2973 20.001 55.9374C20.001 66.2491 25.2046 75.3436 33.1279 80.7414C37.5652 77.5144 43.4819 75.5292 49.9996 75.5292C56.517 75.5292 62.4363 77.5144 66.8741 80.7427ZM60.1129 56.1861C57.3218 56.1861 54.8587 54.6288 53.2097 52.2407C54.8463 52.923 57.046 53.5041 59.9383 53.5041C61.9136 53.5041 64.2077 53.2196 66.8131 52.5376C65.1679 54.7575 62.7913 56.1861 60.1129 56.1861ZM60.1129 34.6996C65.0775 34.6996 69.0994 39.5105 69.0994 45.4427C69.0994 46.8419 68.86 48.1722 68.4519 49.3983C56.6456 53.3932 51.7289 48.5081 51.5224 48.2908L51.4953 48.3177C51.2802 47.3956 51.1281 46.4467 51.1281 45.4427C51.1281 39.5105 55.1513 34.6996 60.1129 34.6996ZM39.8854 34.6996C44.8493 34.6996 48.8725 39.5105 48.8725 45.4427C48.8725 46.8466 48.6314 48.1821 48.2225 49.4103C36.4409 53.3778 31.5376 48.5081 31.3324 48.2908L31.2755 48.3446C31.0555 47.4153 30.9011 46.4565 30.9011 45.4427C30.9011 39.5105 34.9245 34.6996 39.8854 34.6996ZM32.9678 52.2188C34.608 52.911 36.8242 53.5041 39.7484 53.5041C41.7124 53.5041 43.9929 53.2221 46.5784 52.5473C44.9332 54.7623 42.5594 56.1861 39.8855 56.1861C37.0849 56.1861 34.6152 54.619 32.9678 52.2188ZM41.1539 60.544C40.6817 60.1464 40.7682 59.6471 41.3441 59.4293L48.9527 56.5568C49.5291 56.339 50.473 56.339 51.0494 56.5568L58.658 59.4293C59.2339 59.6471 59.3204 60.1464 58.8482 60.544L50.8589 67.2609C50.3865 67.6563 49.6156 67.6563 49.1434 67.2609L41.1539 60.544V60.544Z" fill="#015498"/>
</svg>
