<svg width="64" height="64" viewBox="0 0 64 64" fill="none" xmlns="http://www.w3.org/2000/svg">
<circle cx="32" cy="32" r="31" stroke="#445DBE" stroke-width="2"/>
<path d="M32.0765 34.4307C30.9378 34.4307 30.014 33.4972 30.014 32.3445C30.014 31.1919 30.9378 30.2584 32.0765 30.2584C33.216 30.2584 34.139 31.1919 34.139 32.3445C34.139 33.4972 33.1421 34.4307 32.0765 34.4307ZM44.4515 39.2985C44.4515 38.943 44.5864 38.5874 44.8545 38.3154L49.307 33.7353L38.8741 33.7353C38.1145 33.7353 37.5765 33.1138 37.5765 32.3445C37.5765 31.5761 38.1918 30.9537 38.8741 30.9537L49.307 30.9537L44.7789 26.3737C44.5125 26.1034 44.4523 25.747 44.4523 25.3906C44.4523 24.597 45.0952 23.9998 45.8282 23.9998C46.1805 23.9998 46.532 24.1363 46.8002 24.4075L53.597 31.3625C53.945 31.7102 54 32.1274 54 32.4229C54 32.7185 53.945 32.9793 53.597 33.327L46.7237 40.2809C46.4547 40.5504 46.1032 40.6895 45.7517 40.6895C45.0195 40.6895 44.4515 40.0895 44.4515 39.2985ZM19.7015 25.3906C19.7015 25.747 19.5674 26.1025 19.2993 26.3737L14.6922 30.9537L25.125 30.9537C25.8855 30.9537 26.5 31.5761 26.5 32.3445C26.5 33.1138 25.8847 33.7353 25.125 33.7353L14.6922 33.7353L19.2211 38.3162C19.4875 38.5857 19.7023 38.9421 19.7023 39.2985C19.7023 40.093 19.0604 40.6893 18.4047 40.6893C18.0532 40.6893 17.7009 40.5537 17.4327 40.2825L10.5595 33.3303C10.2578 33.1799 10 32.8409 10 32.3454C10 31.8499 10.2561 31.5109 10.4048 31.3606L17.278 24.4083C17.5462 24.1397 17.8985 24.0007 18.3282 24.0007C18.9813 24.0007 19.7032 24.6004 19.7032 25.3915L19.7015 25.3906Z" fill="#445DBE"/>
</svg>
