<svg width="64" height="64" viewBox="0 0 64 64" fill="none" xmlns="http://www.w3.org/2000/svg">
<circle cx="32" cy="32" r="30.5" fill="#E7F2FB" stroke="#1A79C7" stroke-width="3"/>
<path d="M47.1249 25.3908C47.1249 25.7464 46.99 26.1019 46.7219 26.374L42.2695 30.954L52.7023 30.954C53.462 30.954 53.9999 31.5755 53.9999 32.3448C53.9999 33.1132 53.3846 33.7356 52.7023 33.7356L42.2695 33.7356L46.7975 38.3156C47.0639 38.586 47.1241 38.9424 47.1241 39.2987C47.1241 40.0924 46.4813 40.6895 45.7482 40.6895C45.3959 40.6895 45.0444 40.5531 44.7763 40.2819L37.9795 33.3269C37.6314 32.9792 37.5764 32.5619 37.5764 32.2664C37.5764 31.9708 37.6314 31.7101 37.9795 31.3624L44.8527 24.4084C45.1217 24.139 45.4732 23.9999 45.8247 23.9999C46.5569 23.9999 47.1249 24.5998 47.1249 25.3908Z" fill="#1A79C7"/>
<path d="M32.0764 34.4308C30.9377 34.4308 30.0139 33.4972 30.0139 32.3446C30.0139 31.192 30.9377 30.2584 32.0764 30.2584C33.2159 30.2584 34.1389 31.192 34.1389 32.3446C34.1389 33.4972 33.142 34.4308 32.0764 34.4308Z" fill="#B4D4EE"/>
<path d="M16.7985 39.2995C16.7985 38.9432 16.9326 38.5876 17.2007 38.3164L21.8078 33.7364L11.375 33.7364C10.6145 33.7364 10 33.114 10 32.3456C10 31.5763 10.6153 30.9548 11.375 30.9548L21.8078 30.9548L17.2789 26.3739C17.0125 26.1044 16.7977 25.748 16.7977 25.3916C16.7977 24.5972 17.4396 24.0009 18.0953 24.0009C18.4468 24.0009 18.7991 24.1365 19.0673 24.4077L25.9405 31.3599C26.2422 31.5103 26.5 31.8493 26.5 32.3447C26.5 32.8402 26.2439 33.1792 26.0952 33.3296L19.222 40.2818C18.9538 40.5504 18.6015 40.6895 18.1718 40.6895C17.5187 40.6895 16.7968 40.0897 16.7968 39.2987L16.7985 39.2995Z" fill="#1A79C7"/>
</svg>
