<svg width="36" height="44" viewBox="0 0 36 44" fill="none" xmlns="http://www.w3.org/2000/svg">
<path d="M30.9391 16.5026C30.1081 16.5026 29.3269 16.714 28.6437 17.0852C28.0172 15.1525 26.2039 13.7517 24.0641 13.7517C23.2331 13.7517 22.4519 13.9631 21.7687 14.3344C21.1422 12.4016 19.3289 11.0009 17.1891 11.0009C16.4509 11.0009 15.7522 11.1676 15.1266 11.4649V4.8125C15.1266 2.15875 12.9678 0 10.3141 0C7.66035 0 5.5016 2.15875 5.5016 4.8125V5.5H1.45394C0.847221 5.5 0.36683 5.80336 0.138237 6.27859C-0.0927632 6.75555 -0.028482 7.32102 0.301518 7.73438L2.36402 10.3125L0.301518 12.8906C-0.0293414 13.3031 -0.0937945 13.8703 0.137377 14.343C0.365112 14.8242 0.846362 15.125 1.37505 15.125H5.42271V23.3784C3.83114 24.6297 2.67271 26.632 2.67271 28.875V33.9591C2.67271 36.3533 3.96177 38.5516 6.0406 39.6954L11.2725 42.5812C13.0359 43.5102 14.9351 44 16.8601 44H24.3427C30.5766 44 35.695 39.1213 35.7552 33.1203L35.7492 21.3125C35.7492 18.657 33.5922 16.5 30.9367 16.5L30.9391 16.5026ZM22.0016 18.5651C22.0016 17.4264 22.9254 16.5026 24.0641 16.5026C25.2036 16.5026 26.1266 17.4264 26.1266 18.5651V24.0651C26.1266 25.2038 25.2036 26.1276 24.0641 26.1276C22.9254 26.1276 22.0016 25.196 22.0016 24.0573V18.5651ZM15.1266 15.8151C15.1266 14.6764 16.0504 13.7526 17.1891 13.7526C18.3286 13.7526 19.2516 14.6764 19.2516 15.8151V22.7674C18.4352 22.2948 17.5071 22.0026 16.5016 22.0026H15.1266V15.8151ZM8.2516 4.81508C8.2516 3.67641 9.17542 2.75258 10.3141 2.75258C11.4536 2.75258 12.3766 3.67641 12.3766 4.81508V5.50258H8.2516V4.81508ZM4.2366 12.3776L5.20081 11.1745C5.60042 10.6717 5.60042 9.95758 5.20081 9.4557L4.2366 8.25258H12.3766V12.3776H4.2366ZM12.3766 15.1276V22.0026H9.6266C9.15566 22.0026 8.69589 22.0507 8.2516 22.1409V15.1267H12.3766V15.1276ZM33.0016 33.0026C33.0016 37.7094 28.8989 41.2526 24.3391 41.2526H16.8625C15.4068 41.2526 13.9621 40.8787 12.6808 40.1741L7.44894 37.2883C6.24839 36.6274 5.50503 35.353 5.50503 33.9608V28.8776C5.50503 26.5994 7.35183 24.7526 9.63003 24.7526H16.505C18.0227 24.7526 19.255 25.9866 19.255 27.5026C19.255 29.0185 18.0227 30.2526 16.505 30.2526H12.38C11.6195 30.2526 11.005 30.867 11.005 31.6276C11.005 32.3873 11.6195 33.0026 12.38 33.0026H16.505C19.2482 33.0026 21.51 30.977 21.92 28.3456C22.5688 28.6713 23.2133 28.8776 24.0641 28.8776C24.9914 28.8776 25.8482 28.5974 26.5821 28.1402C27.3469 29.7877 29.0055 30.9392 30.9391 30.9392C31.6799 30.9392 32.3743 30.7562 33.0016 30.4562V33.0009V33.0026ZM33.0016 26.1276C33.0016 27.2663 32.0786 28.1901 30.9391 28.1901C29.8004 28.1901 28.8766 27.2645 28.8766 26.1259V21.3151C28.8766 20.1764 29.8004 19.2526 30.9391 19.2526C32.0786 19.2526 33.0016 20.1764 33.0016 21.3151V26.1276Z" fill="#6B6B6B"/>
</svg>
